<svg width="540" height="384" viewBox="0 0 540 384" fill="none" xmlns="http://www.w3.org/2000/svg">
<path fill-rule="evenodd" clip-rule="evenodd" d="M270.385 307.821L313.125 303.884L306.938 314.759L318.981 321.552C319.45 321.816 319.741 322.311 319.744 322.849C319.749 323.677 319.081 324.353 318.253 324.358C304.509 324.441 294.393 324.451 287.902 324.388C280.554 324.317 274.484 324.178 269.692 323.972L270.385 307.821ZM150.188 269.946L161.438 296.946L147.261 302.157L132.485 320.556C132.161 320.959 131.651 321.168 131.136 321.105C130.314 321.006 129.728 320.259 129.827 319.437L135.058 275.987L150.188 269.946Z" fill="#002D6F"/>
<path fill-rule="evenodd" clip-rule="evenodd" d="M313.727 201.509L354.833 226.968C364.313 232.84 367.41 245.184 361.824 254.835L329.852 310.071L265.312 310.057L327.789 246.884L277.914 228.321L233.25 256.553L170.102 318.509L145.125 258.58L205.539 236.196L239.289 215.196L254.102 197.571L313.727 201.509Z" fill="white"/>
<path d="M327.792 247.054L265.947 309.589L329.65 309.603L361.541 254.506C367.051 244.987 363.996 232.812 354.646 227.02L313.599 201.597L254.186 197.674L239.436 215.224L205.648 236.248L205.597 236.273L145.458 258.555L170.162 317.83L233.013 256.165L233.06 256.128L277.842 227.822L327.657 246.362L329.03 244.646C329.127 244.524 329.304 244.505 329.425 244.602C329.547 244.699 329.566 244.876 329.47 244.997L328.212 246.569L328.256 246.585L328.197 246.644L329.399 247.395C329.531 247.478 329.571 247.652 329.488 247.783C329.406 247.915 329.233 247.955 329.101 247.872L327.792 247.054ZM239.063 214.794L239.035 214.828L239.101 214.77L239.063 214.794ZM239.063 214.794L253.939 197.094L313.776 201.045L354.942 226.542C364.551 232.493 367.69 245.005 362.028 254.788L329.974 310.165L264.6 310.151L327.244 246.808L277.908 228.446L233.386 256.588L169.963 318.813L144.713 258.231L205.375 235.755L239.063 214.794ZM205.375 235.755L205.351 235.77L205.402 235.745L205.375 235.755Z" fill="#002D6F"/>
<path fill-rule="evenodd" clip-rule="evenodd" d="M274.125 142.821L302.283 143.148L329.788 145.786L389.25 149.571L374.063 80.5713L399 80.7588C413.254 133.58 420.405 160.808 420.461 162.442C420.78 171.964 413.318 179.941 403.796 180.26L321 174.134L313.313 200.009L276 198.321L274.125 142.821Z" fill="white"/>
<path d="M313.704 200.309L273.843 196.892L274.032 142.537L274.316 142.54L302.498 142.869L329.993 145.506L389.081 149.267L373.899 80.2878L399.405 80.4795L399.457 80.6857C413.756 133.678 420.874 160.762 420.93 162.433C421.252 172.11 413.67 180.217 403.965 180.541L321.393 174.431L313.704 200.309ZM274.407 196.376L313.296 199.709L320.982 173.837L321.208 173.854L403.976 179.979C413.34 179.665 420.679 171.818 420.367 162.452C420.311 160.856 413.141 133.554 398.97 81.0386L374.601 80.8556L389.794 149.876L389.419 149.852L329.948 146.066L302.468 143.43L274.593 143.106L274.407 196.376Z" fill="#002D6F"/>
<path fill-rule="evenodd" clip-rule="evenodd" d="M295.5 200.759L313.745 201.251L314.722 197.313L295.5 196.634V200.759Z" fill="#002D6F"/>
<path fill-rule="evenodd" clip-rule="evenodd" d="M201.563 111.321L175.194 199.666C173.476 205.421 176.582 211.51 182.249 213.499L193.5 217.446L250.5 179.384L250.539 142.821L224.25 153.134L238.875 111.321L228.75 86.9463L218.063 92.1963L201.563 111.321Z" fill="white"/>
<path d="M239.419 111.04H201.501L175.072 199.585C173.311 205.484 176.495 211.726 182.304 213.764L193.687 217.758L250.929 179.535L250.969 142.409L224.866 152.648L239.419 111.04ZM201.92 111.603H238.627L223.93 153.619L250.406 143.234L250.367 179.233L193.609 217.135L182.49 213.233C176.964 211.294 173.936 205.357 175.611 199.746L201.92 111.603Z" fill="#002D6F"/>
<path fill-rule="evenodd" clip-rule="evenodd" d="M240 121.072L237.958 129.817L196.125 119.197L198.018 110.197L240 121.072Z" fill="white"/>
<path d="M240.261 120.848L237.993 129.944L195.785 119.421L198.053 110.324L240.261 120.848ZM239.579 121.257L198.463 111.006L196.467 119.011L237.583 129.262L239.579 121.257Z" fill="#002D6F"/>
<path d="M200.649 115.802C200.335 117.058 201.1 118.33 202.356 118.643C203.612 118.956 204.884 118.192 205.197 116.936C205.51 115.68 204.746 114.408 203.49 114.095C202.234 113.782 200.962 114.546 200.649 115.802ZM201.195 115.938C201.432 114.984 202.399 114.403 203.354 114.641C204.308 114.879 204.889 115.846 204.651 116.8C204.413 117.755 203.446 118.336 202.492 118.098C201.537 117.86 200.956 116.893 201.195 115.938Z" fill="#002D6F"/>
<path d="M294.384 193.429L286.902 192.906C285.25 192.79 283.816 194.036 283.701 195.689L283.334 200.926C283.219 202.579 284.465 204.013 286.118 204.128L293.599 204.652C295.252 204.767 296.686 203.521 296.801 201.868L297.168 196.631C297.283 194.978 296.037 193.545 294.384 193.429Z" fill="white"/>
<path d="M286.902 192.824L294.383 193.347C296.036 193.462 297.282 194.896 297.167 196.549L296.801 201.786C296.685 203.439 295.251 204.685 293.598 204.57L286.117 204.046C284.464 203.931 283.218 202.497 283.334 200.844L283.699 195.607C283.815 193.954 285.249 192.708 286.902 192.824ZM286.862 193.385C285.519 193.291 284.355 194.304 284.261 195.646L283.895 200.884C283.801 202.227 284.813 203.391 286.156 203.485L293.638 204.008C294.981 204.102 296.145 203.09 296.24 201.747L296.606 196.51C296.7 195.167 295.687 194.002 294.344 193.908L286.862 193.385Z" fill="#002D6F"/>
<path fill-rule="evenodd" clip-rule="evenodd" d="M249.775 267.573L250.131 112.446H250.485V111.673H185.625V91.6414L250.164 34.4465H274.119V91.6414H292.5V111.673H274.119V112.446H274.125V278.571H274.119V324.141H292.5V344.173H274.119V359.196H250.485V344.173H185.625V324.141L249.775 267.573ZM210.789 324.134H250.164L249.977 291.321L210.789 324.134ZM210.75 91.8214H250.125L249.977 58.8214L210.75 91.8214Z" fill="#EEF5FF"/>
<path d="M249.642 267.445L249.997 112.446C249.998 112.291 250.124 112.165 250.279 112.165H250.352V111.954H185.773C185.618 111.954 185.492 111.828 185.492 111.673V91.6414C185.492 91.5611 185.526 91.4842 185.586 91.431L250.126 34.236C250.177 34.1904 250.244 34.1653 250.312 34.1653H274.267C274.422 34.1653 274.548 34.2912 274.548 34.4465V91.3601H292.648C292.803 91.3601 292.929 91.4861 292.929 91.6414V111.673C292.929 111.828 292.803 111.954 292.648 111.954H274.548V112.386C274.552 112.406 274.554 112.426 274.554 112.446V278.571C274.554 278.592 274.552 278.612 274.548 278.632V323.86H292.648C292.803 323.86 292.929 323.986 292.929 324.141V344.173C292.929 344.328 292.803 344.454 292.648 344.454H274.548V359.196C274.548 359.352 274.422 359.478 274.267 359.478H250.633C250.478 359.478 250.352 359.352 250.352 359.196V344.454H185.773C185.618 344.454 185.492 344.328 185.492 344.173V324.141C185.492 324.061 185.526 323.984 185.587 323.931L249.642 267.445ZM250.352 112.165H250.633L250.352 112.446V112.165ZM250.204 267.573C250.204 267.654 250.17 267.73 250.109 267.784L186.054 324.268V343.892H250.633C250.789 343.892 250.914 344.017 250.914 344.173V358.915H273.985V344.173C273.985 344.017 274.111 343.892 274.267 343.892H292.367V324.423H274.267C274.111 324.423 273.985 324.297 273.985 324.141V278.571C273.985 278.551 273.988 278.531 273.992 278.511V112.507C273.988 112.487 273.985 112.467 273.985 112.446V111.673C273.985 111.518 274.111 111.392 274.267 111.392H292.367V91.9226H274.267C274.111 91.9226 273.985 91.797 273.985 91.6414V34.7278H250.419L186.054 91.7681V111.392H250.633C250.789 111.392 250.914 111.518 250.914 111.673V112.446C250.914 112.602 250.789 112.728 250.633 112.728H250.56L250.204 267.573ZM210.937 324.415C210.675 324.415 210.555 324.087 210.757 323.918L249.945 291.106C250.127 290.953 250.405 291.082 250.406 291.32L250.594 324.132C250.594 324.288 250.468 324.415 250.312 324.415H210.937ZM250.03 323.853L249.847 291.921L211.711 323.853H250.03ZM210.898 92.1026C210.636 92.1026 210.516 91.7753 210.717 91.6061L249.944 58.6065C250.127 58.4528 250.405 58.5818 250.406 58.8203L250.554 91.8203C250.555 91.9763 250.429 92.1026 250.273 92.1026H210.898ZM249.99 91.5401L249.846 59.4233L211.669 91.5401H249.99Z" fill="#002D6F"/>
<path d="M239.062 244.071C202.829 244.071 185.625 227.271 185.625 196.69C185.625 166.24 202.829 149.571 239.062 149.571C275.165 149.571 292.5 166.371 292.5 196.69C292.5 227.14 275.165 244.071 239.062 244.071ZM238.875 224.196C259.741 224.196 269.25 213.849 269.25 196.69C269.25 179.663 259.741 169.446 238.875 169.446C218.009 169.446 208.5 179.532 208.5 196.69C208.5 213.98 218.009 224.196 238.875 224.196Z" fill="#EEF5FF"/>
<path d="M239.211 244.353C203.471 244.353 185.492 228.018 185.492 196.69C185.492 165.511 203.456 149.29 239.211 149.29C274.829 149.29 292.929 165.637 292.929 196.69C292.929 227.891 274.815 244.353 239.211 244.353ZM239.211 243.79C274.515 243.79 292.367 227.568 292.367 196.69C292.367 165.961 274.531 149.853 239.211 149.853C203.754 149.853 186.054 165.835 186.054 196.69C186.054 227.694 203.77 243.79 239.211 243.79ZM239.023 224.478C218.651 224.478 208.367 214.75 208.367 196.69C208.367 178.779 218.639 169.165 239.023 169.165C259.356 169.165 269.679 178.861 269.679 196.69C269.679 214.669 259.345 224.478 239.023 224.478ZM239.023 223.915C259.04 223.915 269.117 214.352 269.117 196.69C269.117 179.18 259.053 169.728 239.023 169.728C218.941 169.728 208.929 179.099 208.929 196.69C208.929 214.432 218.955 223.915 239.023 223.915Z" fill="#002D6F"/>
<path d="M204.418 236.009C191.76 228.207 185.625 214.889 185.625 196.69C185.625 178.404 191.873 165.087 204.768 157.367L215.846 176.65C210.872 181.316 208.5 188.121 208.5 196.691C208.5 205.043 210.719 211.745 215.366 216.441L204.418 236.009ZM273.707 236.009L262.759 216.441C267.406 211.745 269.625 205.043 269.625 196.691C269.625 188.121 267.253 181.316 262.279 176.65L273.357 157.367C286.252 165.087 292.5 178.404 292.5 196.69C292.5 214.889 286.365 228.207 273.707 236.009Z" fill="#002D6F"/>
<path d="M202.364 198.958C202.053 201.298 200.05 203.103 197.625 203.103C195.2 203.103 193.197 201.298 192.886 198.958L192.574 199.27C192.464 199.38 192.286 199.38 192.176 199.27C192.066 199.161 192.066 198.982 192.176 198.873L193.125 197.924L194.074 198.873C194.184 198.982 194.184 199.161 194.074 199.27C193.964 199.38 193.786 199.38 193.676 199.27L193.472 199.066C193.808 200.951 195.395 202.403 197.344 202.531V194.455C197.284 194.446 197.224 194.433 197.164 194.417C196.214 194.163 195.65 193.186 195.904 192.235C196.159 191.285 197.136 190.722 198.086 190.976C199.036 191.23 199.6 192.207 199.346 193.158C199.158 193.858 198.578 194.348 197.906 194.456V202.531C199.855 202.403 201.442 200.951 201.778 199.066L201.574 199.27C201.464 199.38 201.286 199.38 201.176 199.27C201.066 199.161 201.066 198.982 201.176 198.873L202.125 197.924L203.074 198.873C203.184 198.982 203.184 199.161 203.074 199.27C202.964 199.38 202.786 199.38 202.676 199.27L202.364 198.958ZM197.31 193.874C197.96 194.048 198.628 193.662 198.802 193.012C198.976 192.362 198.591 191.694 197.94 191.519C197.29 191.345 196.622 191.731 196.448 192.381C196.274 193.031 196.659 193.699 197.31 193.874Z" fill="white"/>
<path d="M280.781 202.531V194.455C280.841 194.446 280.901 194.433 280.961 194.417C281.911 194.163 282.475 193.186 282.221 192.235C281.966 191.285 280.989 190.722 280.039 190.976C279.089 191.23 278.525 192.207 278.779 193.158C278.967 193.858 279.547 194.348 280.219 194.456V202.531C278.27 202.403 276.682 200.951 276.347 199.066L276.551 199.27C276.661 199.38 276.839 199.38 276.949 199.27C277.059 199.161 277.059 198.982 276.949 198.873L276 197.924L275.051 198.873C274.941 198.982 274.941 199.161 275.051 199.27C275.161 199.38 275.339 199.38 275.449 199.27L275.761 198.958C276.072 201.298 278.075 203.103 280.5 203.103C282.925 203.103 284.928 201.298 285.239 198.958L285.551 199.27C285.661 199.38 285.839 199.38 285.949 199.27C286.059 199.161 286.059 198.982 285.949 198.873L285 197.924L284.051 198.873C283.941 198.982 283.941 199.161 284.051 199.27C284.161 199.38 284.339 199.38 284.449 199.27L284.653 199.066C284.318 200.951 282.73 202.403 280.781 202.531ZM280.815 193.874C280.165 194.048 279.497 193.662 279.323 193.012C279.149 192.362 279.534 191.694 280.185 191.519C280.835 191.345 281.503 191.731 281.677 192.381C281.852 193.031 281.466 193.699 280.815 193.874Z" fill="white"/>
<path fill-rule="evenodd" clip-rule="evenodd" d="M353.25 86.9463L328.341 91.7219C331.063 94.7302 334.54 96.3108 338.774 96.4638C343.007 96.6168 348.798 96.1282 356.145 94.9975L353.25 86.9463Z" fill="white"/>
<path d="M347.134 87.3795L346.996 86.8342L327.748 91.7171L328.062 92.0636C330.835 95.1285 334.385 96.7421 338.693 96.8977C342.947 97.0515 348.754 96.5613 356.117 95.4285L356.031 94.8723C348.7 96.0003 342.926 96.4878 338.714 96.3356C334.72 96.1912 331.421 94.758 328.8 92.0306L347.134 87.3795Z" fill="#002D6F"/>
<mask id="mask0" mask-type="alpha" maskUnits="userSpaceOnUse" x="280" y="80" width="53" height="63">
<path d="M302.438 142.821L306.188 127.821L313.229 128.806C319.182 129.638 324.832 125.938 326.448 120.149L332.052 100.082C334.336 91.903 329.557 83.4217 321.379 81.1379C320.033 80.7622 318.641 80.5713 317.243 80.5713H304.626C300.023 80.5713 295.999 83.6767 294.832 88.1298L280.5 142.821H302.438Z" fill="white"/>
</mask>
<g mask="url(#mask0)">
<path d="M302.438 142.821L306.188 127.821L313.229 128.806C319.182 129.638 324.832 125.938 326.448 120.149L332.052 100.082C334.336 91.903 329.557 83.4217 321.379 81.1379C320.033 80.7622 318.641 80.5713 317.243 80.5713H304.626C300.023 80.5713 295.999 83.6767 294.832 88.1298L280.5 142.821H302.438Z" fill="white"/>
<mask id="mask1" mask-type="alpha" maskUnits="userSpaceOnUse" x="280" y="80" width="53" height="63">
<path d="M302.438 142.821L306.188 127.821L313.229 128.806C319.182 129.638 324.832 125.938 326.448 120.149L332.052 100.082C334.336 91.903 329.557 83.4217 321.379 81.1379C320.033 80.7622 318.641 80.5713 317.243 80.5713H304.626C300.023 80.5713 295.999 83.6767 294.832 88.1298L280.5 142.821H302.438Z" fill="white"/>
</mask>
<g mask="url(#mask1)">
<path d="M302.438 142.821L306.188 127.821L313.229 128.806C319.182 129.638 324.832 125.938 326.448 120.149L332.052 100.082C334.336 91.903 329.557 83.4217 321.379 81.1379C320.033 80.7622 318.641 80.5713 317.243 80.5713H304.626C300.023 80.5713 295.999 83.6767 294.832 88.1298L280.5 142.821H302.438Z" fill="white"/>
<path fill-rule="evenodd" clip-rule="evenodd" d="M329.574 102.937L331.5 102.696L331.249 106.584C331.211 107.159 330.715 107.595 330.14 107.557C330.114 107.556 330.088 107.553 330.062 107.55C329.446 107.463 329.018 106.894 329.104 106.279L329.574 102.937Z" fill="#002D6F"/>
<path d="M313.19 129.084C319.282 129.936 325.065 126.149 326.719 120.225L332.323 100.157C334.648 91.8292 329.782 83.1925 321.454 80.8672C320.083 80.4843 318.667 80.29 317.244 80.29H304.626C299.895 80.29 295.759 83.4817 294.56 88.0585L280.135 143.103H302.657L306.399 128.135L313.19 129.084ZM302.218 142.54H280.864L295.104 88.201C296.238 83.8717 300.151 80.8525 304.626 80.8525H317.244C318.616 80.8525 319.981 81.0397 321.303 81.409C329.332 83.6508 334.023 91.9773 331.781 100.006L326.177 120.073C324.599 125.727 319.081 129.34 313.268 128.527L305.976 127.508L302.218 142.54Z" fill="#002D6F"/>
</g>
</g>
<mask id="mask2" mask-type="alpha" maskUnits="userSpaceOnUse" x="284" y="80" width="36" height="32">
<path d="M309.744 100.815L308.672 99.7435C306.36 97.4317 302.619 97.4107 300.281 99.6963C298.058 101.87 298.018 105.435 300.192 107.658C300.253 107.721 300.316 107.782 300.381 107.842L301.143 108.552C297.115 110.285 291.609 111.333 284.625 111.696L294.573 86.29C295.924 82.8408 299.25 80.5713 302.954 80.5713H319.312C315.84 89.5713 312.65 96.3194 309.744 100.815Z" fill="white"/>
</mask>
<g mask="url(#mask2)">
<path d="M309.744 100.815L308.672 99.7435C306.36 97.4317 302.619 97.4107 300.281 99.6963C298.058 101.87 298.018 105.435 300.192 107.658C300.253 107.721 300.316 107.782 300.381 107.842L301.143 108.552C297.115 110.285 291.609 111.333 284.625 111.696L294.573 86.29C295.924 82.8408 299.25 80.5713 302.954 80.5713H319.312C315.84 89.5713 312.65 96.3194 309.744 100.815Z" fill="#002D6F"/>
<path d="M295.281 73.2479L301.469 80.9354C301.522 81.0018 301.602 81.04 301.688 81.04H322.875C322.951 81.04 323.024 81.0097 323.076 80.9553L330.576 73.2678C330.75 73.0897 330.624 72.79 330.375 72.79H295.5C295.264 72.79 295.133 73.0638 295.281 73.2479ZM329.707 73.3525L322.757 80.4775H301.822L296.087 73.3525H329.707Z" fill="#002D6F"/>
<path d="M321.651 102.684L321.207 105.842C321.121 106.457 320.552 106.886 319.937 106.8C319.322 106.713 318.893 106.144 318.98 105.529L319.437 102.271L313.636 101.187C313.483 101.159 313.383 101.012 313.411 100.859C313.44 100.707 313.587 100.606 313.739 100.635L323.302 102.42C323.454 102.449 323.555 102.596 323.526 102.748C323.498 102.901 323.351 103.002 323.198 102.973L321.651 102.684ZM328.542 102.981L331.447 102.42C331.599 102.391 331.747 102.491 331.776 102.643C331.806 102.796 331.706 102.943 331.553 102.973L328.793 103.506L329.343 115.997C329.354 116.233 329.085 116.376 328.895 116.235L328.034 115.596L329.063 119.196C327.766 118.843 326.715 117.893 326.233 116.639L326.063 116.196C323.726 117.303 321.146 117.798 318.566 117.633L313.688 117.321L323.942 112.56L323.082 111.923C322.958 111.83 322.932 111.654 323.024 111.529C323.117 111.404 323.293 111.378 323.418 111.471L328.755 115.431L328.219 103.271C328.212 103.116 328.332 102.985 328.488 102.978C328.506 102.977 328.525 102.978 328.542 102.981Z" fill="#002D6F"/>
<path fill-rule="evenodd" clip-rule="evenodd" d="M331.764 91.8213H353.812C354.937 96.8215 359.313 99.3213 366.937 99.3213C368.444 99.3213 370.309 98.7727 372.531 97.6747L378.187 97.6338V80.5713H319.125C319.873 86.9849 325.306 91.8213 331.764 91.8213Z" fill="white"/>
<path d="M366.898 99.6025C368.441 99.6025 370.326 99.0517 372.558 97.9552L378.427 97.9132V80.29H318.77L318.806 80.6039C319.571 87.1593 325.125 92.1025 331.724 92.1025H353.55C354.787 97.1054 359.266 99.6025 366.898 99.6025ZM377.865 80.8525V97.3548L372.425 97.3938L372.367 97.4223C370.18 98.5027 368.355 99.04 366.898 99.04C359.391 99.04 355.139 96.6104 354.048 91.7598L353.998 91.54H331.724C325.516 91.54 320.275 86.9677 319.405 80.8525H377.865Z" fill="#002D6F"/>
<path d="M318.922 80.8005C322.515 83.367 326.814 83.367 331.776 80.8219L331.52 80.3213C326.732 82.7764 322.656 82.7764 319.249 80.3427L318.922 80.8005Z" fill="#002D6F"/>
</g>
</svg>
