<svg width="824" height="359" viewBox="0 0 824 359" fill="none" xmlns="http://www.w3.org/2000/svg">
<path opacity="0.15" d="M-109.5 288V229.5L59.5 1.99998H135V227H181V288H135V359H64V288H-109.5ZM69.5 84.5L-37.5 227H69.5V84.5ZM220.672 179.5C220.672 299.167 265.672 359 355.672 359C403.339 359 437.672 343 458.672 311C479.672 279 490.172 235.167 490.172 179.5C490.172 124.167 479.672 80.5 458.672 48.5C437.672 16.5 403.339 0.499996 355.672 0.499996C265.672 0.499996 220.672 60.1667 220.672 179.5ZM420.672 179.5C420.672 215.833 416.172 243.833 407.172 263.5C398.505 282.833 381.339 292.5 355.672 292.5C329.672 292.5 312.172 282.833 303.172 263.5C294.505 243.833 290.172 215.833 290.172 179.5C290.172 143.5 294.505 115.833 303.172 96.5C312.172 76.8333 329.672 67 355.672 67C381.339 67 398.505 76.8333 407.172 96.5C416.172 115.833 420.672 143.5 420.672 179.5ZM532.59 288V229.5L701.59 1.99998H777.09V227H823.09V288H777.09V359H706.09V288H532.59ZM711.59 84.5L604.59 227H711.59V84.5Z" fill="#FFDE00"/>
</svg>
