<svg width="67" height="408" viewBox="0 0 67 408" fill="none" xmlns="http://www.w3.org/2000/svg">
<path opacity="0.15" d="M0.85 86.7V69.15L51.55 0.899993H74.2V68.4H88V86.7H74.2V108H52.9V86.7H0.85ZM54.55 25.65L22.45 68.4H54.55V25.65ZM2.05 204.15C2.05 240.05 15.55 258 42.55 258C56.85 258 67.15 253.2 73.45 243.6C79.75 234 82.9 220.85 82.9 204.15C82.9 187.55 79.75 174.45 73.45 164.85C67.15 155.25 56.85 150.45 42.55 150.45C15.55 150.45 2.05 168.35 2.05 204.15ZM62.05 204.15C62.05 215.05 60.7 223.45 58 229.35C55.4 235.15 50.25 238.05 42.55 238.05C34.75 238.05 29.5 235.15 26.8 229.35C24.2 223.45 22.9 215.05 22.9 204.15C22.9 193.35 24.2 185.05 26.8 179.25C29.5 173.35 34.75 170.4 42.55 170.4C50.25 170.4 55.4 173.35 58 179.25C60.7 185.05 62.05 193.35 62.05 204.15ZM0.85 386.7V369.15L51.55 300.9H74.2V368.4H88V386.7H74.2V408H52.9V386.7H0.85ZM54.55 325.65L22.45 368.4H54.55V325.65Z" fill="#FFDE00"/>
</svg>
