<svg width="31" height="30" viewBox="0 0 31 30" fill="none" xmlns="http://www.w3.org/2000/svg">
<path d="M24.0025 21.5864L30.3281 27.9101L28.2411 30L21.9178 23.6752C19.6181 25.5427 16.6709 26.5748 13.6184 26.5816C6.28237 26.5816 0.328064 20.6278 0.328064 13.2913C0.328064 5.95483 6.28237 0 13.6184 0C20.9545 0 26.9088 5.95483 26.9088 13.2913C26.9243 16.2754 25.9047 19.1845 24.0014 21.5864H24.0025ZM21.0369 20.4909C22.933 18.5094 23.972 15.9442 23.9531 13.2913C23.9575 7.57869 19.33 2.9534 13.6184 2.9534C7.90687 2.9534 3.2816 7.57869 3.2816 13.2913C3.2816 19.004 7.90687 23.6282 13.6184 23.6282C14.9685 23.6224 16.3032 23.3608 17.541 22.8594C18.7789 22.3579 19.894 21.6271 20.8183 20.7116L21.038 20.4898L21.0369 20.4909Z" fill="#FFDE00"/>
</svg>
