<svg width="31" height="24" viewBox="0 0 31 24" fill="none" xmlns="http://www.w3.org/2000/svg">
<path d="M6.74863 2.80864C3.43839 6.99912 0.328064 13.5843 0.328064 16.4579C0.328064 20.0495 3.73916 24 6.84949 24C8.56466 23.8296 10.1673 22.9796 11.3646 21.6053C13.8725 18.6117 16.8829 18.6117 19.3908 21.6053C19.9444 22.3365 20.6354 22.9243 21.4153 23.3276C22.1952 23.7309 23.0451 23.9399 23.9054 23.9399C24.7657 23.9399 25.6156 23.7309 26.3955 23.3276C27.1754 22.9243 27.8664 22.3365 28.4201 21.6053C31.0315 18.4927 30.928 14.9001 28.3201 9.63279C23.805 1.01286 19.1908 -2.4597 17.7843 1.85076C17.5712 2.36051 17.2313 2.792 16.8047 3.09438C16.378 3.39675 15.8825 3.55741 15.3763 3.55741C14.8702 3.55741 14.3746 3.39675 13.948 3.09438C13.5214 2.792 13.1815 2.36051 12.9684 1.85076C12.1669 -0.782912 9.15296 -0.303971 6.74863 2.80864ZM10.3605 12.6264C13.4709 17.1758 7.65183 24.12 3.84001 20.4084C2.03451 18.6087 1.8337 14.3022 3.53925 12.2675C4.00802 11.7929 4.55649 11.4257 5.15324 11.1869C5.75 10.9481 6.38333 10.8423 7.01696 10.8757C7.65058 10.909 8.27206 11.0808 8.84581 11.3812C9.41955 11.6817 9.93428 12.1048 10.3605 12.6264ZM27.416 12.6264C30.5263 17.1758 24.7073 24.125 20.8946 20.4084C19.0891 18.6087 18.8883 14.3022 20.5938 12.2675C21.0626 11.7928 21.6111 11.4255 22.208 11.1866C22.8048 10.9476 23.4383 10.8418 24.072 10.8752C24.7057 10.9085 25.3273 11.0804 25.9011 11.3809C26.475 11.6814 26.9897 12.1046 27.416 12.6264ZM16.3804 15.619C16.3896 15.9256 16.2894 16.2237 16.1015 16.4485C15.9135 16.6732 15.6532 16.8064 15.3772 16.8189C15.1077 16.7872 14.8576 16.6482 14.6732 16.4276C14.4888 16.2071 14.3826 15.9198 14.3741 15.619C14.3641 15.3123 14.4641 15.0137 14.6522 14.7888C14.8402 14.5638 15.101 14.4309 15.3772 14.4192C15.5165 14.4156 15.6549 14.4449 15.7833 14.5052C15.9117 14.5654 16.0271 14.6552 16.1219 14.7685C16.2167 14.8819 16.2888 15.0164 16.3333 15.163C16.3779 15.3096 16.3939 15.465 16.3804 15.619Z" fill="#FFDE00"/>
</svg>
