<svg width="30" height="30" viewBox="0 0 30 30" fill="none" xmlns="http://www.w3.org/2000/svg">
<path d="M0 16.5181H8.25654C8.50168 21.287 10.0177 25.9223 12.6659 30C5.89144 28.9282 0.688207 23.3895 0 16.5181ZM0 13.4819C0.688207 6.61051 5.89144 1.07266 12.6659 0C10.0177 4.07771 8.50168 8.71295 8.25654 13.4819H0ZM29.9981 13.4819H21.7425C21.4974 8.71295 19.9814 4.07771 17.3331 0C24.1066 1.07266 29.3108 6.61051 30 13.4819H29.9981ZM29.9981 16.5181C29.3099 23.3895 24.1066 28.9282 17.3321 30C19.9804 25.9223 21.4964 21.287 21.7415 16.5181H30H29.9981ZM11.275 16.5181H18.7221C18.4845 20.5847 17.2076 24.538 14.999 28.0447C12.7905 24.538 11.5136 20.5847 11.2759 16.5181H11.275ZM11.275 13.4819C11.5126 9.41534 12.7895 5.462 14.9981 1.95534C17.2066 5.462 18.4835 9.41534 18.7212 13.4819H11.275Z" fill="#FFDE00"/>
</svg>
