<svg width="35" height="35" viewBox="0 0 35 35" fill="none" xmlns="http://www.w3.org/2000/svg">
<path d="M30.625 0H4.375C1.95875 0 0 2.00898 0 4.48718V30.5128C0 32.991 1.95875 35 4.375 35H30.625C33.0412 35 35 32.991 35 30.5128V4.48718C35 2.00898 33.0412 0 30.625 0Z" fill="#FFDE00"/>
<path d="M14.516 11.984L18.116 23H16.55L15.56 20.066H11.474L10.466 23H8.9L12.5 11.984H14.516ZM11.852 18.698H15.182L13.508 13.64L11.852 18.698ZM22.337 13.55C23.357 13.55 24.113 13.814 24.605 14.342C25.109 14.87 25.427 15.494 25.559 16.214C25.703 16.934 25.799 17.864 25.847 19.004C25.871 19.712 25.907 20.264 25.955 20.66C26.003 21.056 26.105 21.38 26.261 21.632C26.417 21.884 26.657 22.01 26.981 22.01L26.441 23.18C26.069 23.168 25.733 23.066 25.433 22.874C25.133 22.67 24.899 22.4 24.731 22.064C24.371 22.424 23.951 22.7 23.471 22.892C22.991 23.084 22.499 23.18 21.995 23.18C21.047 23.18 20.285 22.892 19.709 22.316C19.133 21.74 18.845 20.972 18.845 20.012C18.845 19.448 18.989 18.92 19.277 18.428C19.577 17.936 19.967 17.546 20.447 17.258C20.927 16.958 21.443 16.808 21.995 16.808C22.475 16.808 22.919 16.88 23.327 17.024C23.747 17.168 24.107 17.36 24.407 17.6C24.383 16.82 24.209 16.172 23.885 15.656C23.561 15.14 23.009 14.882 22.229 14.882C21.809 14.882 21.395 14.972 20.987 15.152C20.579 15.32 20.195 15.554 19.835 15.854L19.331 14.774C19.703 14.402 20.159 14.108 20.699 13.892C21.251 13.664 21.797 13.55 22.337 13.55ZM22.247 18.158C21.731 18.158 21.275 18.344 20.879 18.716C20.483 19.076 20.285 19.508 20.285 20.012C20.285 20.576 20.465 21.032 20.825 21.38C21.197 21.716 21.671 21.884 22.247 21.884C22.667 21.884 23.075 21.8 23.471 21.632C23.879 21.464 24.215 21.224 24.479 20.912L24.425 18.95C24.161 18.674 23.855 18.476 23.507 18.356C23.159 18.224 22.739 18.158 22.247 18.158Z" fill="white"/>
</svg>
