<svg width="16" height="16" viewBox="0 0 16 16" fill="none" xmlns="http://www.w3.org/2000/svg">
<path d="M4.21053 8.42105C6.53594 8.42105 8.42105 6.53594 8.42105 4.21053C8.42105 1.88512 6.53594 0 4.21053 0C1.88512 0 0 1.88512 0 4.21053C0 6.53594 1.88512 8.42105 4.21053 8.42105Z" fill="#042330"/>
<path d="M13.0526 11.7895C14.6804 11.7895 16 10.4699 16 8.84208C16 7.2143 14.6804 5.89471 13.0526 5.89471C11.4248 5.89471 10.1052 7.2143 10.1052 8.84208C10.1052 10.4699 11.4248 11.7895 13.0526 11.7895Z" fill="#042330"/>
<path d="M5.47379 16C6.6365 16 7.57906 15.0575 7.57906 13.8948C7.57906 12.732 6.6365 11.7895 5.47379 11.7895C4.31109 11.7895 3.36853 12.732 3.36853 13.8948C3.36853 15.0575 4.31109 16 5.47379 16Z" fill="#042330"/>
</svg>
