<svg width="15" height="18" viewBox="0 0 15 18" fill="none" xmlns="http://www.w3.org/2000/svg">
<path d="M7.42204 8.10916C9.49657 8.10916 11.1783 6.51772 11.1783 4.55458C11.1783 2.59144 9.49657 1 7.42204 1C5.34751 1 3.66577 2.59144 3.66577 4.55458C3.66577 6.51772 5.34751 8.10916 7.42204 8.10916Z" stroke="#042330" stroke-width="1.5" stroke-linecap="round" stroke-linejoin="round"/>
<path d="M11.8019 16.9973C12.1296 17.0146 12.4563 16.9481 12.7514 16.8042C13.0466 16.6603 13.3005 16.4436 13.4894 16.1744C13.6783 15.9052 13.796 15.5924 13.8316 15.2651C13.8671 14.9378 13.8193 14.6069 13.6926 14.3032C13.0963 13.1512 12.1962 12.1856 11.0904 11.5116C9.98462 10.8377 8.71557 10.4813 7.42171 10.4813C6.12784 10.4813 4.85882 10.8377 3.75302 11.5116C2.64721 12.1856 1.74707 13.1512 1.15077 14.3032C1.02388 14.6068 0.975913 14.9377 1.01132 15.265C1.04673 15.5923 1.16436 15.9052 1.35322 16.1745C1.54208 16.4437 1.79597 16.6604 2.09111 16.8043C2.38624 16.9483 2.71297 17.0147 3.04066 16.9973H11.8019Z" stroke="#042330" stroke-width="1.5" stroke-linecap="round" stroke-linejoin="round"/>
</svg>
