<svg width="35" height="35" viewBox="0 0 35 35" fill="none" xmlns="http://www.w3.org/2000/svg">
<path d="M30.625 0H4.375C1.95875 0 0 2.00898 0 4.48718V30.5128C0 32.991 1.95875 35 4.375 35H30.625C33.0412 35 35 32.991 35 30.5128V4.48718C35 2.00898 33.0412 0 30.625 0Z" fill="#042330"/>
<path d="M15.956 11.64V12.62H14.108V22H12.946V17.422L10.72 17.408C10.888 17.772 10.972 18.1593 10.972 18.57C10.972 19.382 10.7153 20.0353 10.202 20.53C9.68867 21.0153 9.00267 21.258 8.144 21.258C7.54667 21.258 7.01 21.1413 6.534 20.908C6.06733 20.6653 5.69867 20.3293 5.428 19.9C5.16667 19.4707 5.036 18.976 5.036 18.416H6.128C6.128 18.948 6.30533 19.3867 6.66 19.732C7.024 20.0773 7.49067 20.25 8.06 20.25C8.62 20.25 9.068 20.0867 9.404 19.76C9.74 19.424 9.908 18.99 9.908 18.458C9.908 18.0567 9.80067 17.7067 9.586 17.408H9.544L9.53 17.324C9.18467 16.8947 8.65733 16.68 7.948 16.68H7.388V15.728H7.948C8.51733 15.728 8.96067 15.574 9.278 15.266C9.59533 14.9487 9.754 14.58 9.754 14.16C9.754 13.6467 9.59067 13.2453 9.264 12.956C8.93733 12.6573 8.52667 12.508 8.032 12.508C7.51867 12.508 7.08467 12.6573 6.73 12.956C6.38467 13.2453 6.21667 13.628 6.226 14.104H5.148C5.148 13.5813 5.26933 13.1287 5.512 12.746C5.764 12.354 6.10467 12.0507 6.534 11.836C6.97267 11.6213 7.472 11.514 8.032 11.514C8.85333 11.514 9.52067 11.7427 10.034 12.2C10.5473 12.648 10.804 13.2453 10.804 13.992C10.804 14.5333 10.6593 14.9953 10.37 15.378C10.0807 15.7607 9.66067 16.022 9.11 16.162V16.19C9.39 16.2367 9.63267 16.3207 9.838 16.442H12.946V11.64H15.956ZM27.5498 11.64V12.62H25.7018V22H24.5398V17.422L22.3138 17.408C22.4818 17.772 22.5658 18.1593 22.5658 18.57C22.5658 19.382 22.3091 20.0353 21.7958 20.53C21.2824 21.0153 20.5964 21.258 19.7378 21.258C19.1404 21.258 18.6038 21.1413 18.1278 20.908C17.6611 20.6653 17.2924 20.3293 17.0218 19.9C16.7604 19.4707 16.6298 18.976 16.6298 18.416H17.7218C17.7218 18.948 17.8991 19.3867 18.2538 19.732C18.6178 20.0773 19.0844 20.25 19.6538 20.25C20.2138 20.25 20.6618 20.0867 20.9978 19.76C21.3338 19.424 21.5018 18.99 21.5018 18.458C21.5018 18.0567 21.3944 17.7067 21.1798 17.408H21.1378L21.1238 17.324C20.7784 16.8947 20.2511 16.68 19.5418 16.68H18.9818V15.728H19.5418C20.1111 15.728 20.5544 15.574 20.8718 15.266C21.1891 14.9487 21.3478 14.58 21.3478 14.16C21.3478 13.6467 21.1844 13.2453 20.8578 12.956C20.5311 12.6573 20.1204 12.508 19.6258 12.508C19.1124 12.508 18.6784 12.6573 18.3238 12.956C17.9784 13.2453 17.8104 13.628 17.8198 14.104H16.7418C16.7418 13.5813 16.8631 13.1287 17.1058 12.746C17.3578 12.354 17.6984 12.0507 18.1278 11.836C18.5664 11.6213 19.0658 11.514 19.6258 11.514C20.4471 11.514 21.1144 11.7427 21.6278 12.2C22.1411 12.648 22.3978 13.2453 22.3978 13.992C22.3978 14.5333 22.2531 14.9953 21.9638 15.378C21.6744 15.7607 21.2544 16.022 20.7038 16.162V16.19C20.9838 16.2367 21.2264 16.3207 21.4318 16.442H24.5398V11.64H27.5498ZM28.6418 12.62H26.8078V11.64H31.6518V12.62H29.8178V22H28.6418V12.62Z" fill="white"/>
</svg>
