<svg width="26" height="26" viewBox="0 0 26 26" fill="none" xmlns="http://www.w3.org/2000/svg">
<path d="M9.75 4.875H8.125C7.69402 4.875 7.2807 5.0462 6.97595 5.35095C6.67121 5.6557 6.5 6.06902 6.5 6.5V19.5C6.5 19.931 6.67121 20.3443 6.97595 20.649C7.2807 20.9538 7.69402 21.125 8.125 21.125H9.75C10.181 21.125 10.5943 20.9538 10.899 20.649C11.2038 20.3443 11.375 19.931 11.375 19.5V6.5C11.375 6.06902 11.2038 5.6557 10.899 5.35095C10.5943 5.0462 10.181 4.875 9.75 4.875Z" fill="#042330"/>
<path d="M17.875 4.875H16.25C15.819 4.875 15.4057 5.0462 15.101 5.35095C14.7962 5.6557 14.625 6.06902 14.625 6.5V19.5C14.625 19.931 14.7962 20.3443 15.101 20.649C15.4057 20.9538 15.819 21.125 16.25 21.125H17.875C18.306 21.125 18.7193 20.9538 19.024 20.649C19.3288 20.3443 19.5 19.931 19.5 19.5V6.5C19.5 6.06902 19.3288 5.6557 19.024 5.35095C18.7193 5.0462 18.306 4.875 17.875 4.875Z" fill="#042330"/>
</svg>
