<svg width="26" height="26" viewBox="0 0 26 26" fill="none" xmlns="http://www.w3.org/2000/svg">
<path fill-rule="evenodd" clip-rule="evenodd" d="M10.9151 5.76874C11.0528 5.83505 11.169 5.93884 11.2503 6.06818C11.3316 6.19753 11.3749 6.34719 11.375 6.49999V19.5C11.3748 19.6529 11.3314 19.8026 11.2499 19.932C11.1684 20.0613 11.0521 20.165 10.9143 20.2312C10.7765 20.2974 10.6228 20.3234 10.4708 20.3061C10.3189 20.2889 10.175 20.2291 10.0555 20.1337L6.21563 17.0625H2.4375C2.22201 17.0625 2.01535 16.9769 1.86298 16.8245C1.7106 16.6721 1.625 16.4655 1.625 16.25V9.74999C1.625 9.5345 1.7106 9.32784 1.86298 9.17546C2.01535 9.02309 2.22201 8.93749 2.4375 8.93749H6.21563L10.0555 5.86624C10.1751 5.77067 10.3192 5.71081 10.4713 5.69356C10.6233 5.67631 10.7772 5.70237 10.9151 5.76874ZM9.75 8.18999L7.007 10.3837C6.86318 10.4991 6.68439 10.5622 6.5 10.5625H3.25V15.4375H6.5C6.68439 15.4378 6.86318 15.5008 7.007 15.6162L9.75 17.81V8.18999Z" fill="#042330"/>
<path d="M18.7462 22.7662C20.0308 21.4852 21.0496 19.9629 21.744 18.2869C22.4384 16.6109 22.7947 14.8142 22.7925 13C22.7947 11.1858 22.4384 9.38908 21.744 7.71306C21.0496 6.03704 20.0308 4.51477 18.7462 3.23373L17.5957 4.38261C18.7292 5.51294 19.6281 6.85614 20.2408 8.335C20.8535 9.81386 21.1678 11.3992 21.1658 13C21.1658 16.3654 19.8008 19.4122 17.5957 21.6174L18.7462 22.7662Z" fill="#042330"/>
<path d="M16.4467 20.4685C17.429 19.4888 18.208 18.3247 18.739 17.043C19.27 15.7613 19.5424 14.3873 19.5407 13C19.5424 11.6127 19.27 10.2387 18.739 8.957C18.208 7.67531 17.429 6.51118 16.4467 5.53149L15.2979 6.68037C16.129 7.50936 16.7882 8.49442 17.2374 9.57895C17.6867 10.6635 17.9172 11.8261 17.9157 13C17.9176 14.1741 17.6875 15.3369 17.2385 16.4217C16.7895 17.5065 16.1305 18.4919 15.2995 19.3212L16.4467 20.4685Z" fill="#042330"/>
<path d="M14.1489 18.1707C14.8289 17.4924 15.3682 16.6864 15.7358 15.7991C16.1033 14.9117 16.2919 13.9605 16.2906 13C16.2919 12.0395 16.1033 11.0882 15.7358 10.2009C15.3682 9.3135 14.8289 8.50751 14.1489 7.82922L13 8.9781C13.5289 9.50569 13.9483 10.1326 14.2342 10.8228C14.52 11.513 14.6667 12.2529 14.6656 13C14.6666 13.747 14.5199 14.4869 14.2341 15.1771C13.9482 15.8673 13.5288 16.4942 13 17.0218L14.1489 18.1707Z" fill="#042330"/>
</svg>
