<svg width="26" height="26" viewBox="0 0 26 26" fill="none" xmlns="http://www.w3.org/2000/svg">
<path fill-rule="evenodd" clip-rule="evenodd" d="M10.9151 5.76874C11.0528 5.83505 11.169 5.93884 11.2503 6.06818C11.3316 6.19753 11.3749 6.34719 11.375 6.49999V19.5C11.3748 19.6529 11.3314 19.8026 11.2499 19.932C11.1684 20.0613 11.0521 20.165 10.9143 20.2312C10.7765 20.2974 10.6228 20.3234 10.4708 20.3061C10.3189 20.2889 10.175 20.2291 10.0555 20.1337L6.21563 17.0625H2.4375C2.22201 17.0625 2.01535 16.9769 1.86298 16.8245C1.7106 16.6721 1.625 16.4655 1.625 16.25V9.74999C1.625 9.5345 1.7106 9.32784 1.86298 9.17546C2.01535 9.02309 2.22201 8.93749 2.4375 8.93749H6.21563L10.0555 5.86624C10.1751 5.77067 10.3192 5.71081 10.4713 5.69356C10.6233 5.67631 10.7772 5.70237 10.9151 5.76874ZM9.75 8.18999L7.007 10.3837C6.86318 10.4991 6.68439 10.5622 6.5 10.5625H3.25V15.4375H6.5C6.68439 15.4378 6.86318 15.5008 7.007 15.6162L9.75 17.81V8.18999ZM22.5128 9.17474C22.5884 9.25021 22.6484 9.33987 22.6894 9.43858C22.7304 9.53729 22.7515 9.64312 22.7515 9.74999C22.7515 9.85686 22.7304 9.96268 22.6894 10.0614C22.6484 10.1601 22.5884 10.2498 22.5128 10.3252L16.0128 16.8252C15.8602 16.9778 15.6533 17.0635 15.4375 17.0635C15.2217 17.0635 15.0148 16.9778 14.8622 16.8252C14.7097 16.6727 14.624 16.4657 14.624 16.25C14.624 16.0342 14.7097 15.8273 14.8622 15.6747L21.3622 9.17474C21.4377 9.09907 21.5274 9.03904 21.6261 8.99808C21.7248 8.95712 21.8306 8.93604 21.9375 8.93604C22.0444 8.93604 22.1502 8.95712 22.2489 8.99808C22.3476 9.03904 22.4373 9.09907 22.5128 9.17474Z" fill="#042330"/>
<path fill-rule="evenodd" clip-rule="evenodd" d="M14.8617 9.17474C14.7861 9.25021 14.7261 9.33987 14.6851 9.43858C14.6441 9.53729 14.623 9.64312 14.623 9.74999C14.623 9.85686 14.6441 9.96268 14.6851 10.0614C14.7261 10.1601 14.7861 10.2498 14.8617 10.3252L21.3617 16.8252C21.4373 16.9008 21.527 16.9607 21.6257 17.0016C21.7244 17.0425 21.8302 17.0635 21.937 17.0635C22.0438 17.0635 22.1496 17.0425 22.2483 17.0016C22.347 16.9607 22.4367 16.9008 22.5122 16.8252C22.5878 16.7497 22.6477 16.66 22.6886 16.5613C22.7295 16.4626 22.7505 16.3568 22.7505 16.25C22.7505 16.1432 22.7295 16.0374 22.6886 15.9387C22.6477 15.84 22.5878 15.7503 22.5122 15.6747L16.0122 9.17474C15.9368 9.09907 15.8471 9.03904 15.7484 8.99808C15.6497 8.95712 15.5439 8.93604 15.437 8.93604C15.3301 8.93604 15.2243 8.95712 15.1256 8.99808C15.0269 9.03904 14.9372 9.09907 14.8617 9.17474Z" fill="#042330"/>
</svg>
