<svg width="35" height="35" viewBox="0 0 35 35" fill="none" xmlns="http://www.w3.org/2000/svg">
<path d="M17.5 4.375C20.0959 4.375 22.6335 5.14477 24.7919 6.58696C26.9503 8.02915 28.6325 10.079 29.6259 12.4773C30.6193 14.8756 30.8792 17.5146 30.3728 20.0606C29.8664 22.6066 28.6164 24.9452 26.7808 26.7808C24.9452 28.6163 22.6066 29.8664 20.0606 30.3728C17.5146 30.8792 14.8756 30.6193 12.4773 29.6259C10.079 28.6325 8.02916 26.9503 6.58697 24.7919C5.14477 22.6335 4.37501 20.0959 4.37501 17.5C4.37501 14.019 5.75782 10.6806 8.21923 8.21922C10.6806 5.75781 14.019 4.375 17.5 4.375ZM17.5 2.1875C14.4715 2.1875 11.511 3.08556 8.99284 4.76812C6.47471 6.45068 4.51207 8.84217 3.3531 11.6402C2.19413 14.4382 1.8909 17.517 2.48173 20.4873C3.07257 23.4577 4.53094 26.1861 6.67243 28.3276C8.81393 30.4691 11.5424 31.9274 14.5127 32.5183C17.483 33.1091 20.5619 32.8059 23.3598 31.6469C26.1578 30.4879 28.5493 28.5253 30.2319 26.0072C31.9144 23.489 32.8125 20.5285 32.8125 17.5C32.8125 13.4389 31.1992 9.54408 28.3276 6.67243C25.4559 3.80078 21.5611 2.1875 17.5 2.1875Z" fill="#042330"/>
<path d="M13.125 25.1563C12.9287 25.1562 12.736 25.1034 12.5672 25.0032C12.4039 24.9064 12.2686 24.7688 12.1747 24.6038C12.0807 24.4389 12.0313 24.2524 12.0312 24.0626V10.9376C12.0313 10.7477 12.0807 10.5612 12.1747 10.3963C12.2686 10.2314 12.4039 10.0937 12.5672 9.99694C12.7335 9.90094 12.9221 9.8504 13.1141 9.8504C13.3061 9.8504 13.4947 9.90094 13.6609 9.99694L25.6922 16.5594C25.8658 16.6532 26.0109 16.7921 26.112 16.9615C26.2131 17.131 26.2664 17.3246 26.2664 17.5219C26.2664 17.7192 26.2131 17.9129 26.112 18.0823C26.0109 18.2518 25.8658 18.3907 25.6922 18.4844L13.6609 25.0469C13.4944 25.1282 13.31 25.1658 13.125 25.1563ZM14.2188 12.7751V22.2251L22.8703 17.5001L14.2188 12.7751Z" fill="#042330"/>
</svg>
