<svg width="115" height="121" viewBox="0 0 115 121" fill="none" xmlns="http://www.w3.org/2000/svg">
<path opacity="0.15" d="M104.927 0H10.073C4.50983 0 0 4.54603 0 10.1538V110.846C0 116.454 4.50983 121 10.073 121H104.927C110.49 121 115 116.454 115 110.846V10.1538C115 4.54603 110.49 0 104.927 0Z" fill="#AAA8A8"/>
<path d="M57.6116 14.1557C49.93 14.0422 42.4233 16.4525 36.2437 21.0167C30.0641 25.581 25.553 32.047 23.4027 39.4223C21.2524 46.7977 21.5817 54.6749 24.3401 61.8451C27.0985 69.0153 32.1336 75.0822 38.6726 79.1147L57.0976 84.4927C57.2686 84.4927 57.4396 84.4987 57.6116 84.4987C62.2655 84.5542 66.8842 83.6855 71.1999 81.9429C75.5157 80.2003 79.4427 77.6185 82.7533 74.3471C86.0639 71.0757 88.6924 67.1798 90.4863 62.8851C92.2802 58.5905 93.2039 53.9825 93.2039 49.3282C93.2039 44.6739 92.2802 40.0659 90.4863 35.7713C88.6924 31.4766 86.0639 27.5807 82.7533 24.3093C79.4427 21.0379 75.5157 18.4561 71.1999 16.7135C66.8842 14.9709 62.2655 14.1022 57.6116 14.1577V14.1557Z" fill="#4FABF7"/>
<path d="M66.0736 16.6087C64.702 15.9575 63.4509 15.0784 62.3735 14.0087C59.1465 10.6327 51.1416 9.16766 47.3406 14.6477C47.0924 14.997 46.755 15.2733 46.3635 15.4477C44.4635 16.3157 39.8506 19.4667 44.4376 27.3797C45.3461 28.8966 46.0961 30.5031 46.6755 32.1737C47.5461 31.3454 48.1259 30.2581 48.3285 29.0737C48.3313 28.2166 48.1591 27.3679 47.8225 26.5797C47.5495 25.8417 47.3696 25.3537 47.7306 24.8677C47.9776 24.5923 48.3214 24.4229 48.6902 24.3948C49.0591 24.3666 49.4246 24.4819 49.7105 24.7167C49.8875 24.8268 50.0319 24.9819 50.1291 25.1663C50.2263 25.3506 50.2727 25.5575 50.2635 25.7657L50.2425 26.5007C50.2409 26.7523 50.3362 26.9949 50.5087 27.1781C50.6812 27.3614 50.9177 27.4711 51.169 27.4846C51.4203 27.4981 51.6671 27.4144 51.8583 27.2507C52.0494 27.087 52.1702 26.856 52.1955 26.6057C52.4765 23.1057 53.0105 20.6707 53.6235 20.0987C54.1085 19.6467 55.2365 19.7877 56.6635 19.9657C58.6276 20.3046 60.6354 20.3019 62.5985 19.9577C62.5855 20.0107 62.5715 20.0717 62.5565 20.1347L62.8915 19.6777C64.0305 19.2505 65.1229 18.708 66.1515 18.0587C66.2763 17.9794 66.3777 17.8683 66.4454 17.7369C66.513 17.6055 66.5445 17.4585 66.5366 17.3108C66.5287 17.1632 66.4816 17.0204 66.4002 16.897C66.3188 16.7736 66.2061 16.6741 66.0736 16.6087Z" fill="#3C58A0"/>
<path d="M46.3686 15.4497C44.4686 16.3177 39.8556 19.4687 44.4426 27.3817C45.3511 28.8986 46.1011 30.5051 46.6806 32.1757C47.5512 31.3475 48.131 30.2602 48.3336 29.0757C48.3363 28.2186 48.1641 27.37 47.8276 26.5817C47.5546 25.8437 47.3746 25.3557 47.7356 24.8697C47.9825 24.5941 48.3263 24.4246 48.6952 24.3964C49.0642 24.3683 49.4297 24.4837 49.7156 24.7187C49.8925 24.8287 50.037 24.9839 50.1342 25.1683C50.2314 25.3526 50.2778 25.5595 50.2686 25.7677L50.2476 26.5027C50.2428 26.7564 50.3366 27.0021 50.5094 27.1879C50.6822 27.3738 50.9205 27.4852 51.1738 27.4988C51.4272 27.5125 51.676 27.4272 51.8678 27.2609C52.0595 27.0947 52.1791 26.8605 52.2016 26.6077C52.4666 23.3147 52.9536 20.9687 53.5196 20.2237C51.9759 20.2481 50.4803 19.6863 49.3345 18.6515C48.1888 17.6167 47.478 16.1859 47.3456 14.6477C47.0976 14.9977 46.7602 15.2747 46.3686 15.4497Z" fill="#2A428C"/>
<path d="M56.9406 44.2577C56.7626 43.8197 56.5336 43.3197 56.2946 42.7877V42.8107C54.6356 40.8597 51.5736 39.9177 47.3666 38.6237C45.972 38.2808 44.7048 37.5459 43.7146 36.5057C43.392 36.1374 43.1632 35.6965 43.0476 35.2207C40.0396 38.0987 32.6146 46.5377 35.5976 57.3837C37.404 64.3947 38.295 71.6099 38.2486 78.8497C42.2042 81.3867 46.6222 83.1169 51.2486 83.9407L55.4886 84.4407C56.19 84.4814 56.8966 84.502 57.6086 84.5027H57.6946C58.0946 81.7257 59.5466 71.9157 60.9946 64.5277C62.6916 55.8317 56.9406 44.2577 56.9406 44.2577Z" fill="#3C58A0"/>
<path d="M53.8686 53.3177C47.8566 50.4397 49.9946 43.7177 50.5686 42.2077C50.6018 42.1201 50.6125 42.0257 50.5998 41.9329C50.587 41.8401 50.5512 41.7521 50.4956 41.6767C50.3313 41.4495 50.2347 41.1805 50.217 40.9007C50.1993 40.6209 50.2612 40.3418 50.3956 40.0957C50.4344 40.0135 50.4532 39.9232 50.4504 39.8323C50.4477 39.7414 50.4234 39.6524 50.3796 39.5727C49.4556 39.2637 48.4526 38.9547 47.3726 38.6227C45.976 38.2812 44.7065 37.5465 43.7146 36.5057C43.392 36.1374 43.1632 35.6965 43.0476 35.2207C40.0396 38.0987 32.6146 46.5377 35.5976 57.3837C37.404 64.3947 38.295 71.6099 38.2486 78.8497C42.2042 81.3867 46.6222 83.1169 51.2486 83.9407L55.4886 84.4407C56.19 84.4814 56.8966 84.502 57.6086 84.5027H57.6946C58.0946 81.7257 59.5466 71.9157 60.9946 64.5277C61.2276 63.2844 61.3318 62.0204 61.3056 60.7557C58.3476 58.6817 59.2956 55.9157 53.8686 53.3177Z" fill="#2A428C"/>
<path d="M49.7126 59.3586C49.1793 58.8384 48.5567 58.4184 47.8746 58.1187C46.3812 57.4608 45.1061 56.391 44.1986 55.0347C44.2336 58.7733 44.988 62.4702 46.4206 65.9236C49.0906 71.9556 52.4966 78.1926 51.2416 83.9366C52.6478 84.1873 54.0676 84.3542 55.4936 84.4366C56.5561 80.8407 56.3596 76.9898 54.9366 73.5207C52.8486 68.2867 50.5736 63.7126 49.7126 59.3586Z" fill="#BBEA49"/>
<path d="M48.3456 70.1786C49.2536 66.8526 52.6376 67.9907 52.6386 67.9907C51.3832 65.2142 50.4032 62.3214 49.7126 59.3537C49.1793 58.8334 48.5567 58.4134 47.8746 58.1136C46.3812 57.4557 45.1061 56.386 44.1986 55.0297C44.2336 58.7683 44.988 62.4652 46.4206 65.9187C47.0446 67.3347 47.7096 68.7577 48.3456 70.1786Z" fill="#9FD332"/>
<path d="M63.2986 25.7267C61.7986 23.2457 62.8986 19.6787 62.8986 19.6787C58.5416 20.7487 54.6746 18.8407 53.4866 19.9487C52.5536 20.8187 52.1336 24.8607 51.9966 26.5567C51.9836 26.7458 51.9028 26.9238 51.7691 27.0581C51.6353 27.1924 51.4576 27.2739 51.2686 27.2877C51.1632 27.294 51.0576 27.2783 50.9586 27.2417C50.8595 27.2051 50.7691 27.1483 50.6931 27.075C50.6171 27.0017 50.5571 26.9135 50.5169 26.8158C50.4767 26.7182 50.4572 26.6133 50.4596 26.5077L50.4816 25.7647C50.491 25.5209 50.4354 25.2789 50.3204 25.0637C50.2055 24.8484 50.0354 24.6676 49.8276 24.5397C49.4967 24.2753 49.0762 24.1494 48.6545 24.1884C48.2327 24.2274 47.8424 24.4282 47.5656 24.7487C46.7726 25.8157 48.1866 26.8937 48.1236 29.0717C48.0846 30.4107 46.6286 32.0227 45.5126 33.0667C45.6072 33.1156 45.6852 33.1914 45.7366 33.2847C45.9253 33.8998 46.2407 34.4686 46.6625 34.9544C47.0842 35.4403 47.6031 35.8325 48.1856 36.1057C50.0756 37.0057 53.0926 38.7457 54.3706 39.2577C54.6678 39.3861 54.9375 39.5709 55.1646 39.8017C55.0215 39.2837 54.9608 38.7465 54.9846 38.2097C55.2646 34.3627 59.6716 38.2097 61.0936 37.2227C63.2556 35.7227 61.5776 30.7897 62.7146 30.5227C65.0356 29.9727 64.8026 28.2077 63.2986 25.7267Z" fill="#F9BA8F"/>
<path d="M50.4566 26.5066L50.4786 25.7636C50.488 25.5198 50.4323 25.2779 50.3174 25.0626C50.2025 24.8473 50.0324 24.6665 49.8246 24.5386C49.4943 24.2751 49.0749 24.1494 48.6542 24.1878C48.2334 24.2262 47.8437 24.4257 47.5666 24.7446C46.7736 25.8116 48.1876 26.8896 48.1246 29.0676C48.0856 30.4066 46.6295 32.0186 45.5135 33.0626C45.6082 33.1115 45.6862 33.1874 45.7375 33.2806C45.9262 33.8957 46.2416 34.4645 46.6634 34.9504C47.0852 35.4362 47.6041 35.8284 48.1866 36.1016C50.0766 37.0016 53.0926 38.7416 54.3716 39.2536C54.6688 39.3821 54.9384 39.5668 55.1656 39.7976C55.0225 39.2797 54.9618 38.7425 54.9855 38.2056C55.1256 36.2816 56.2986 36.2816 57.6136 36.6386C55.7223 35.9216 54.0981 34.6388 52.9624 32.965C51.8268 31.2913 51.2349 29.308 51.2676 27.2856C51.1621 27.2922 51.0564 27.2767 50.9572 27.2403C50.8579 27.2039 50.7674 27.1473 50.6911 27.0741C50.6149 27.0009 50.5547 26.9126 50.5143 26.815C50.474 26.7173 50.4543 26.6123 50.4566 26.5066Z" fill="#FFAA7B"/>
<path d="M56.1386 41.1727C56.0239 40.7243 55.811 40.3069 55.5152 39.9508C55.2195 39.5948 54.8484 39.3088 54.4286 39.1137C53.1556 38.6037 50.1586 36.8707 48.2526 35.9657C47.6887 35.6993 47.1866 35.3182 46.7783 34.8468C46.3701 34.3753 46.0647 33.8239 45.8816 33.2277C45.8311 33.13 45.7586 33.0454 45.6699 32.9804C45.5812 32.9154 45.4786 32.8718 45.3703 32.853C45.2619 32.8342 45.1507 32.8408 45.0453 32.8721C44.9399 32.9034 44.8431 32.9588 44.7626 33.0337L43.0916 34.5867C42.9904 34.6811 42.9195 34.8035 42.8878 34.9382C42.8562 35.0729 42.8651 35.214 42.9136 35.3437C42.9136 35.3437 43.3496 37.5437 46.9456 38.6527C51.4146 40.0287 54.6226 40.9707 56.2756 43.0237C56.2924 43.0417 56.3144 43.0539 56.3385 43.0586C56.3627 43.0633 56.3877 43.0602 56.41 43.0497C56.4322 43.0393 56.4506 43.022 56.4624 43.0004C56.4742 42.9788 56.4788 42.9541 56.4756 42.9297L56.1386 41.1727Z" fill="#BBEA49"/>
<path d="M81.9285 50.1916C81.8715 50.1916 81.8155 50.1996 81.7595 50.2026C81.5915 50.2106 81.4225 50.2156 81.2525 50.2156C79.6757 50.2175 78.118 49.8698 76.6915 49.1976C76.485 49.59 76.2263 49.9526 75.9225 50.2756C74.4835 51.6976 70.7425 54.0426 69.5465 57.6366C69.5316 57.6815 69.5038 57.7209 69.4667 57.7501C69.4295 57.7793 69.3845 57.7969 69.3374 57.8007C69.2903 57.8046 69.2431 57.7945 69.2017 57.7717C69.1603 57.7489 69.1265 57.7145 69.1045 57.6726C68.401 56.3745 67.5109 55.1865 66.4625 54.1466C65.3625 57.1516 62.3625 63.1696 55.4305 65.8466C57.5333 67.3062 59.926 68.2954 62.4455 68.7466C62.4455 68.7466 67.4866 72.5026 71.5936 71.3306C71.8704 71.2502 72.1622 71.2358 72.4455 71.2886C72.7931 71.3716 73.1539 71.3838 73.5062 71.3243C73.8586 71.2649 74.1954 71.1351 74.4965 70.9426C74.7661 70.739 74.9907 70.4819 75.1564 70.1875C75.3221 69.8931 75.4253 69.5677 75.4595 69.2316C75.4871 68.9833 75.5694 68.7443 75.7005 68.5316C79.0789 62.9076 81.295 56.6631 82.2175 50.1676C82.1195 50.1796 82.0245 50.1856 81.9285 50.1916Z" fill="#F9BA8F"/>
<path d="M66.5465 63.4216L64.5705 58.0507C62.4741 61.5934 59.256 64.3358 55.4255 65.8437C57.5283 67.3032 59.921 68.2924 62.4405 68.7437C61.5295 64.4117 66.5455 63.4186 66.5455 63.4186L66.5465 63.4216Z" fill="#FCAD6D"/>
<path d="M76.6915 49.1967C76.485 49.589 76.2263 49.9516 75.9225 50.2747C74.4835 51.6967 70.7425 54.0417 69.5465 57.6357C69.5316 57.6805 69.5038 57.72 69.4666 57.7491C69.4295 57.7783 69.3845 57.7959 69.3374 57.7997C69.2903 57.8036 69.2431 57.7935 69.2017 57.7707C69.1603 57.7479 69.1265 57.7135 69.1045 57.6717C68.3996 56.3739 67.5081 55.1866 66.4585 54.1476C65.4984 56.7772 64.0347 59.1943 62.1495 61.2637C62.7655 61.5887 63.5135 62.5376 64.4435 62.8156C71.4185 64.8976 71.5276 64.4156 72.8716 63.0876C74.2156 61.7596 79.2715 54.4746 79.2715 50.0316C78.3794 49.8646 77.5124 49.584 76.6915 49.1967Z" fill="#FCAD6D"/>
<path d="M65.1565 52.9357C64.0995 55.8837 61.0815 62.1017 53.8685 64.6297C54.3995 65.0932 54.9571 65.5253 55.5385 65.9236C62.6125 63.2926 65.5385 57.0917 66.5465 54.2346C66.1385 53.8136 65.6765 53.3777 65.1565 52.9357Z" fill="#DAE2FE"/>
<path d="M60.6735 60.2487C58.7851 62.2261 56.4547 63.7275 53.8735 64.6297C54.4045 65.0932 54.9621 65.5253 55.5435 65.9236C58.1352 64.9606 60.4588 63.3917 62.3205 61.3477C61.7238 61.0585 61.1696 60.6887 60.6735 60.2487Z" fill="#AAB9F2"/>
<path d="M60.6285 49.9316C60.142 49.683 59.7666 49.2608 59.5765 48.7486L59.1235 47.5066C58.9484 47.0142 58.7278 46.5391 58.4645 46.0876C57.5156 44.4981 56.0795 43.257 54.3693 42.5484C52.6591 41.8398 50.766 41.7015 48.971 42.1541C47.176 42.6067 45.5748 43.6261 44.4051 45.0608C43.2353 46.4956 42.5593 48.2692 42.4775 50.1186C42.4314 51.8074 42.8912 53.4714 43.7978 54.8969C44.7045 56.3224 46.0165 57.4443 47.5655 58.1186C48.6866 58.607 49.6357 59.4199 50.2905 60.4526C51.3031 62.0585 52.5502 63.5038 53.9905 64.7406C61.2065 62.1916 64.2095 55.9466 65.2515 53.0206C63.8362 51.8143 62.2846 50.7776 60.6285 49.9316Z" fill="#4F71B6"/>
<path d="M53.8686 53.3166C47.8566 50.4386 49.9946 43.7166 50.5686 42.2066C50.6046 42.1109 50.6136 42.0071 50.5946 41.9066C48.4612 42.0158 46.4457 42.9186 44.944 44.4379C43.4423 45.9572 42.5629 47.9831 42.4786 50.1176C42.4325 51.8064 42.8923 53.4704 43.7989 54.8959C44.7056 56.3214 46.0176 57.4433 47.5666 58.1176C48.6877 58.606 49.6368 59.4189 50.2916 60.4516C51.3042 62.0575 52.5513 63.5028 53.9916 64.7396C56.5705 63.8323 58.8974 62.3264 60.7816 60.3456C58.4466 58.3286 58.9496 55.7496 53.8686 53.3166Z" fill="#3C58A0"/>
<path d="M71.9267 38.9823C72.0498 37.7695 72.4128 36.5933 72.9944 35.522C73.576 34.4507 74.3648 33.5057 75.3148 32.7419C76.2648 31.978 77.3571 31.4106 78.5283 31.0726C79.6995 30.7345 80.9262 30.6326 82.1371 30.7727C84.5996 31.0286 86.8625 32.2431 88.4368 34.1538C90.0111 36.0645 90.7704 38.518 90.5506 40.9839C90.428 42.1971 90.0653 43.3739 89.4838 44.4457C88.9023 45.5176 88.1135 46.4631 87.1633 47.2274C86.2131 47.9916 85.1204 48.5594 83.9489 48.8976C82.7773 49.2358 81.5501 49.3377 80.3388 49.1974C77.8759 48.9411 75.6127 47.7259 74.0386 45.8144C72.4644 43.9029 71.7058 41.4487 71.9267 38.9823Z" fill="#6289CC"/>
<path d="M86.5986 47.5337C86.4241 47.2399 86.3348 46.9033 86.3406 46.5617C86.3387 46.4418 86.2922 46.327 86.2101 46.2397C86.1279 46.1524 86.0161 46.0989 85.8966 46.0897C82.8056 45.8257 83.0966 43.0207 83.2306 42.2507C83.242 42.1866 83.2401 42.1208 83.2249 42.0575C83.2098 41.9942 83.1818 41.9347 83.1426 41.8827L80.0056 37.6627C79.965 37.609 79.9135 37.5644 79.8546 37.5316C79.7958 37.4989 79.7307 37.4788 79.6636 37.4727C79.2236 37.4788 78.7881 37.3827 78.3914 37.1919C77.9948 37.0012 77.6479 36.721 77.3779 36.3734C77.1079 36.0258 76.9223 35.6203 76.8357 35.1888C76.7491 34.7572 76.7638 34.3115 76.8786 33.8867C76.8965 33.7615 76.8647 33.6344 76.7899 33.5325C76.7151 33.4306 76.6034 33.3621 76.4786 33.3417C76.0906 33.2889 75.7351 33.0966 75.4786 32.8007C74.3805 33.6538 73.4915 34.7464 72.8796 35.9952C72.2677 37.244 71.9489 38.616 71.9476 40.0067C71.972 41.6993 72.4565 43.3533 73.349 44.7917C74.2416 46.23 75.5086 47.3984 77.0145 48.1717C78.5203 48.945 80.2081 49.2941 81.8972 49.1815C83.5862 49.0689 85.2128 48.499 86.6026 47.5327L86.5986 47.5337Z" fill="#4F71B6"/>
<path d="M81.2526 50.5017C79.1825 50.4762 77.1662 49.8391 75.4573 48.6705C73.7485 47.5019 72.4234 45.854 71.6488 43.9341C70.8743 42.0142 70.6848 39.9082 71.1043 37.8809C71.5238 35.8536 72.5335 33.9957 74.0064 32.5408C75.4792 31.086 77.3494 30.0993 79.3817 29.7048C81.414 29.3103 83.5176 29.5256 85.4278 30.3238C87.338 31.1219 88.9694 32.4672 90.1169 34.1903C91.2644 35.9134 91.8766 37.9374 91.8766 40.0077C91.856 42.807 90.7259 45.4839 88.7343 47.4512C86.7426 49.4185 84.052 50.5155 81.2526 50.5017ZM81.2526 32.1117C79.6943 32.1304 78.1764 32.6096 76.8898 33.489C75.6032 34.3684 74.6054 35.6086 74.022 37.0537C73.4386 38.4988 73.2957 40.0842 73.6111 41.6103C73.9266 43.1364 74.6864 44.5352 75.795 45.6305C76.9035 46.7259 78.3112 47.4689 79.841 47.7661C81.3708 48.0633 82.9543 47.9014 84.3923 47.3008C85.8303 46.7002 87.0586 45.6877 87.9225 44.3906C88.7865 43.0936 89.2475 41.5701 89.2476 40.0117C89.2333 37.9043 88.3834 35.8887 86.8845 34.4074C85.3855 32.926 83.36 32.1 81.2526 32.1107V32.1117Z" fill="#4F71B6"/>
<path d="M87.8176 48.2457H87.8086C87.3913 48.2149 87.003 48.0206 86.7281 47.7051C86.4532 47.3896 86.3139 46.9783 86.3406 46.5607C86.3399 46.4954 86.3256 46.431 86.2985 46.3716C86.2715 46.3122 86.2324 46.2591 86.1836 46.2157C85.0078 47.1306 83.6001 47.6993 82.1188 47.858C80.6374 48.0167 79.1412 47.759 77.7983 47.1139C76.4554 46.4688 75.3191 45.4618 74.5171 44.2063C73.7151 42.9507 73.2793 41.4963 73.2586 40.0067C73.2615 38.717 73.5814 37.4478 74.1902 36.3109C74.7989 35.1739 75.6779 34.204 76.7496 33.4867C76.6765 33.4109 76.5813 33.3601 76.4776 33.3417C76.046 33.2756 75.6575 33.0428 75.3957 32.6933C75.1339 32.3438 75.0197 31.9055 75.0776 31.4727C73.7055 32.4339 72.5848 33.711 71.8098 35.1963C71.0348 36.6815 70.6283 38.3314 70.6246 40.0067C70.6526 41.9875 71.2328 43.9212 72.3 45.5902C73.3672 47.2592 74.8791 48.5972 76.6654 49.4536C78.4517 50.3101 80.4417 50.6509 82.4112 50.4379C84.3808 50.2248 86.2518 49.4663 87.8136 48.2477L87.8176 48.2457Z" fill="#3C58A0"/>
<path d="M78.5743 38.9136C78.8705 38.2088 79.4325 37.6491 80.1386 37.3559C80.8446 37.0626 81.6378 37.0594 82.3461 37.3469C82.6965 37.4853 83.0159 37.6919 83.2857 37.9547C83.5556 38.2175 83.7707 38.5313 83.9184 38.8778C84.066 39.2244 84.1435 39.5968 84.1462 39.9735C84.1488 40.3502 84.0767 40.7237 83.9339 41.0723C83.6377 41.777 83.0757 42.3367 82.3696 42.63C81.6636 42.9232 80.8704 42.9264 80.1621 42.6389C79.8117 42.5005 79.4923 42.2939 79.2225 42.0311C78.9526 41.7683 78.7375 41.4545 78.5898 41.108C78.4421 40.7614 78.3647 40.389 78.362 40.0123C78.3594 39.6356 78.4315 39.2622 78.5743 38.9136Z" fill="#DAE2FE"/>
<path d="M22.0035 49.3276C22.0041 54.1364 22.9994 58.893 24.9269 63.2986C26.8543 67.7042 29.6723 71.6635 33.2035 74.9276C34.3365 71.8406 33.0155 66.9836 31.0485 60.1366C27.2615 46.9566 34.6365 36.7936 37.9255 30.2586C39.8925 26.3496 37.2955 23.7216 34.8905 22.2406C30.8656 25.515 27.6206 29.645 25.3915 34.3304C23.1623 39.0158 22.005 44.1389 22.0035 49.3276Z" fill="#73C3F9"/>
<path d="M46.9446 38.6516C48.2136 39.0426 49.3806 39.3976 50.4396 39.7516C50.2756 39.574 50.1593 39.3578 50.1013 39.1231C50.0434 38.8884 50.0459 38.6428 50.1085 38.4093C50.1711 38.1758 50.2918 37.962 50.4593 37.7877C50.6269 37.6134 50.8358 37.4844 51.0666 37.4126C50.0756 36.8846 49.0666 36.3486 48.2526 35.9626C47.6887 35.6963 47.1866 35.3152 46.7783 34.8437C46.3701 34.3723 46.0647 33.8208 45.8816 33.2246C45.8311 33.127 45.7586 33.0423 45.6699 32.9773C45.5812 32.9123 45.4786 32.8687 45.3703 32.85C45.2619 32.8312 45.1507 32.8377 45.0453 32.8691C44.9399 32.9004 44.8431 32.9557 44.7626 33.0306L43.0916 34.5836C42.9904 34.6781 42.9195 34.8004 42.8878 34.9351C42.8562 35.0699 42.8651 35.211 42.9136 35.3406C42.9136 35.3406 43.3476 37.5436 46.9446 38.6516Z" fill="#9FD332"/>
<path d="M69.3956 16.1317C69.5186 17.5317 69.3956 19.0907 68.4846 19.9907C64.9996 23.4327 67.0766 29.5137 70.6286 29.5137C73.5946 29.5137 77.9346 24.7757 84.9826 26.8317C80.8438 21.9282 75.459 18.2317 69.3956 16.1317Z" fill="#73C3F9"/>
<path d="M25.76 96.28V101.78H33V103.06H25.76V109H24.28V95H33.88V96.28H25.76ZM36.4409 98.48H37.8609V109H36.4409V98.48ZM37.1609 96.18C36.8676 96.18 36.6209 96.08 36.4209 95.88C36.2209 95.68 36.1209 95.44 36.1209 95.16C36.1209 94.8933 36.2209 94.66 36.4209 94.46C36.6209 94.26 36.8676 94.16 37.1609 94.16C37.4543 94.16 37.7009 94.26 37.9009 94.46C38.1009 94.6467 38.2009 94.8733 38.2009 95.14C38.2009 95.4333 38.1009 95.68 37.9009 95.88C37.7009 96.08 37.4543 96.18 37.1609 96.18ZM47.352 108.36C47.0854 108.6 46.752 108.787 46.352 108.92C45.9654 109.04 45.5587 109.1 45.132 109.1C44.1454 109.1 43.3854 108.833 42.852 108.3C42.3187 107.767 42.052 107.013 42.052 106.04V99.68H40.172V98.48H42.052V96.18H43.472V98.48H46.672V99.68H43.472V105.96C43.472 106.587 43.6254 107.067 43.932 107.4C44.252 107.72 44.7054 107.88 45.292 107.88C45.5854 107.88 45.8654 107.833 46.132 107.74C46.412 107.647 46.652 107.513 46.852 107.34L47.352 108.36ZM55.297 98.4C56.617 98.4 57.6637 98.7867 58.437 99.56C59.2237 100.32 59.617 101.433 59.617 102.9V109H58.197V103.04C58.197 101.947 57.9237 101.113 57.377 100.54C56.8304 99.9667 56.0504 99.68 55.037 99.68C53.9037 99.68 53.0037 100.02 52.337 100.7C51.6837 101.367 51.357 102.293 51.357 103.48V109H49.937V98.48H51.297V100.42C51.6837 99.78 52.217 99.2867 52.897 98.94C53.5904 98.58 54.3904 98.4 55.297 98.4ZM72.6713 104.18H63.8713C63.9513 105.273 64.3713 106.16 65.1313 106.84C65.8913 107.507 66.8513 107.84 68.0113 107.84C68.6646 107.84 69.2646 107.727 69.8113 107.5C70.3579 107.26 70.8313 106.913 71.2313 106.46L72.0313 107.38C71.5646 107.94 70.9779 108.367 70.2713 108.66C69.5779 108.953 68.8113 109.1 67.9713 109.1C66.8913 109.1 65.9313 108.873 65.0913 108.42C64.2646 107.953 63.6179 107.313 63.1513 106.5C62.6846 105.687 62.4513 104.767 62.4513 103.74C62.4513 102.713 62.6713 101.793 63.1113 100.98C63.5646 100.167 64.1779 99.5333 64.9513 99.08C65.7379 98.6267 66.6179 98.4 67.5913 98.4C68.5646 98.4 69.4379 98.6267 70.2113 99.08C70.9846 99.5333 71.5913 100.167 72.0313 100.98C72.4713 101.78 72.6913 102.7 72.6913 103.74L72.6713 104.18ZM67.5913 99.62C66.5779 99.62 65.7246 99.9467 65.0313 100.6C64.3513 101.24 63.9646 102.08 63.8713 103.12H71.3313C71.2379 102.08 70.8446 101.24 70.1513 100.6C69.4713 99.9467 68.6179 99.62 67.5913 99.62ZM78.4016 109.1C77.5482 109.1 76.7282 108.98 75.9416 108.74C75.1682 108.487 74.5616 108.173 74.1216 107.8L74.7616 106.68C75.2016 107.027 75.7549 107.313 76.4216 107.54C77.0882 107.753 77.7816 107.86 78.5016 107.86C79.4616 107.86 80.1682 107.713 80.6216 107.42C81.0882 107.113 81.3216 106.687 81.3216 106.14C81.3216 105.753 81.1949 105.453 80.9416 105.24C80.6882 105.013 80.3682 104.847 79.9816 104.74C79.5949 104.62 79.0816 104.507 78.4416 104.4C77.5882 104.24 76.9016 104.08 76.3816 103.92C75.8616 103.747 75.4149 103.46 75.0416 103.06C74.6816 102.66 74.5016 102.107 74.5016 101.4C74.5016 100.52 74.8682 99.8 75.6016 99.24C76.3349 98.68 77.3549 98.4 78.6616 98.4C79.3416 98.4 80.0216 98.4933 80.7016 98.68C81.3816 98.8533 81.9416 99.0867 82.3816 99.38L81.7616 100.52C80.8949 99.92 79.8616 99.62 78.6616 99.62C77.7549 99.62 77.0682 99.78 76.6016 100.1C76.1482 100.42 75.9216 100.84 75.9216 101.36C75.9216 101.76 76.0482 102.08 76.3016 102.32C76.5682 102.56 76.8949 102.74 77.2816 102.86C77.6682 102.967 78.2016 103.08 78.8816 103.2C79.7216 103.36 80.3949 103.52 80.9016 103.68C81.4082 103.84 81.8416 104.113 82.2016 104.5C82.5616 104.887 82.7416 105.42 82.7416 106.1C82.7416 107.02 82.3549 107.753 81.5816 108.3C80.8216 108.833 79.7616 109.1 78.4016 109.1ZM88.1867 109.1C87.3334 109.1 86.5134 108.98 85.7267 108.74C84.9534 108.487 84.3467 108.173 83.9067 107.8L84.5467 106.68C84.9867 107.027 85.5401 107.313 86.2067 107.54C86.8734 107.753 87.5667 107.86 88.2867 107.86C89.2467 107.86 89.9534 107.713 90.4067 107.42C90.8734 107.113 91.1067 106.687 91.1067 106.14C91.1067 105.753 90.9801 105.453 90.7267 105.24C90.4734 105.013 90.1534 104.847 89.7667 104.74C89.3801 104.62 88.8667 104.507 88.2267 104.4C87.3734 104.24 86.6867 104.08 86.1667 103.92C85.6467 103.747 85.2001 103.46 84.8267 103.06C84.4667 102.66 84.2867 102.107 84.2867 101.4C84.2867 100.52 84.6534 99.8 85.3867 99.24C86.1201 98.68 87.1401 98.4 88.4467 98.4C89.1267 98.4 89.8067 98.4933 90.4867 98.68C91.1667 98.8533 91.7267 99.0867 92.1667 99.38L91.5467 100.52C90.6801 99.92 89.6467 99.62 88.4467 99.62C87.5401 99.62 86.8534 99.78 86.3867 100.1C85.9334 100.42 85.7067 100.84 85.7067 101.36C85.7067 101.76 85.8334 102.08 86.0867 102.32C86.3534 102.56 86.6801 102.74 87.0667 102.86C87.4534 102.967 87.9867 103.08 88.6667 103.2C89.5067 103.36 90.1801 103.52 90.6867 103.68C91.1934 103.84 91.6267 104.113 91.9867 104.5C92.3467 104.887 92.5267 105.42 92.5267 106.1C92.5267 107.02 92.1401 107.753 91.3667 108.3C90.6067 108.833 89.5467 109.1 88.1867 109.1Z" fill="#292929"/>
</svg>
