<svg width="115" height="121" viewBox="0 0 115 121" fill="none" xmlns="http://www.w3.org/2000/svg">
<path opacity="0.15" d="M104.927 0H10.073C4.50983 0 0 4.54603 0 10.1538V110.846C0 116.454 4.50983 121 10.073 121H104.927C110.49 121 115 116.454 115 110.846V10.1538C115 4.54603 110.49 0 104.927 0Z" fill="#FFC107"/>
<path d="M89.0804 36.8307C89.0753 36.7214 89.0428 36.6152 88.9859 36.5221C88.9291 36.429 88.8498 36.3521 88.7554 36.2987C88.6611 36.2452 88.5549 36.217 88.4469 36.2167C88.3388 36.2163 88.2324 36.2439 88.1378 36.2967L75.7765 42.8171L74.6316 47.1428L75.7765 51.4795L82.4281 56.085L89.0796 58.4966L89.0804 36.8307Z" fill="#454D58"/>
<path d="M75.7774 53.6692L88.1386 60.1896C88.2333 60.2425 88.3396 60.27 88.4477 60.2697C88.5557 60.2693 88.6619 60.2411 88.7563 60.1877C88.8506 60.1342 88.9299 60.0574 88.9868 59.9643C89.0436 59.8712 89.0762 59.765 89.0813 59.6556V58.4907L75.7774 51.4736L74.6324 52.6709L75.7774 53.6692Z" fill="#3C434C"/>
<path d="M30.7847 40.1445L26.9082 38.3843C26.8137 38.3384 26.7095 38.317 26.6048 38.3218C26.5001 38.3267 26.3982 38.3578 26.3082 38.4123C26.2183 38.4668 26.1431 38.543 26.0893 38.6341C26.0355 38.7252 26.0048 38.8284 26 38.9345V47.119L28.3932 47.1292L30.7847 44.9464L31.9296 42.727L30.7847 40.1445Z" fill="#A6AEC4"/>
<path d="M26.9082 48.9005L30.7864 47.1403L31.9313 46.0434L30.7847 44.9473L26 47.1199V48.3503C26.0048 48.4564 26.0355 48.5596 26.0893 48.6507C26.1431 48.7418 26.2183 48.818 26.3082 48.8725C26.3982 48.927 26.5001 48.9581 26.6048 48.963C26.7095 48.9679 26.8137 48.9464 26.9082 48.9005Z" fill="#959DB0"/>
<path d="M35.8388 44.9473L33.313 46.0442L30.7872 44.9473V40.1445H35.8396L36.9846 42.727L35.8388 44.9473Z" fill="#454D58"/>
<path d="M30.7864 47.1403H35.8388L36.9838 46.0434L35.8388 44.9464H30.7864V47.1403Z" fill="#3C434C"/>
<path d="M63.3565 34.7007C69.1208 34.7007 74.4368 29.3614 74.4368 24.0298C73.8635 18.6514 69.1217 14.4558 63.3565 14.4558C57.5914 14.4558 52.8504 18.6522 52.2762 24.0298C52.2771 29.6004 57.5914 34.7007 63.3565 34.7007Z" fill="#454D58"/>
<path d="M44.7114 34.7015C45.7065 34.7355 46.6982 34.5678 47.6283 34.208C48.5584 33.8483 49.4082 33.3039 50.1277 32.6067C50.8471 31.9096 51.4218 31.0738 51.8179 30.1485C52.2139 29.2232 52.4234 28.227 52.4341 27.2185C52.0705 25.4155 51.1033 23.7951 49.6961 22.6313C48.2888 21.4675 46.528 20.8319 44.7114 20.8319C42.8948 20.8319 41.134 21.4675 39.7268 22.6313C38.3196 23.7951 37.3524 25.4155 36.9888 27.2185C36.9857 28.231 37.186 29.2337 37.5773 30.1654C37.9687 31.0971 38.5429 31.9385 39.2653 32.6384C39.9876 33.3384 40.8429 33.8822 41.7791 34.2368C42.7153 34.5915 43.713 34.7496 44.7114 34.7015Z" fill="#454D58"/>
<path d="M39.2678 64.6556H72.3484C75.2175 64.6556 75.7774 62.0876 75.7774 60.273V39.0825C75.7521 38.1864 75.3768 37.337 74.7339 36.721C74.091 36.1049 73.233 35.7725 72.3484 35.7968H39.2678C38.3832 35.7725 37.5252 36.1049 36.8823 36.721C36.2393 37.337 35.8641 38.1864 35.8388 39.0825V60.2747C35.8388 62.0884 36.7152 64.6556 39.2678 64.6556Z" fill="#A6AEC4"/>
<path d="M46.8746 53.2798H64.7416C66.0133 53.2798 66.0133 51.6378 66.0133 50.9643V43.188C66.0039 42.8557 65.8647 42.5407 65.6262 42.3123C65.3878 42.0838 65.0697 41.9605 64.7416 41.9694H46.8746C46.5466 41.9605 46.2284 42.0838 45.99 42.3123C45.7516 42.5407 45.6123 42.8557 45.6029 43.188V50.9643C45.6029 51.6378 45.6029 53.2798 46.8746 53.2798Z" fill="#BED8FB"/>
<path d="M63.3565 27.7747C63.8535 27.814 64.353 27.7445 64.8211 27.571C65.2892 27.3975 65.715 27.124 66.0696 26.7691C66.4242 26.4143 66.6994 25.9863 66.8763 25.5142C67.0533 25.0422 67.128 24.5371 67.0953 24.0332C66.8154 23.2567 66.3067 22.5861 65.638 22.1122C64.9693 21.6384 64.173 21.3843 63.3569 21.3843C62.5409 21.3843 61.7446 21.6384 61.0759 22.1122C60.4072 22.5861 59.8985 23.2567 59.6186 24.0332C59.5933 24.5352 59.6729 25.0369 59.8524 25.5055C60.0319 25.9741 60.3071 26.399 60.6601 26.7523C61.013 27.1056 61.4357 27.3793 61.9004 27.5555C62.3651 27.7317 62.8613 27.8064 63.3565 27.7747Z" fill="#A6AEC4"/>
<path d="M42.5113 27.2219C42.4717 27.5312 42.5001 27.8455 42.5945 28.1424C42.689 28.4392 42.8471 28.7112 43.0576 28.9388C43.2681 29.1664 43.5256 29.3439 43.8119 29.4588C44.0981 29.5736 44.4059 29.6228 44.7131 29.6029C45.0216 29.6279 45.3317 29.5822 45.6203 29.4691C45.9089 29.356 46.1686 29.1785 46.3802 28.9497C46.5918 28.7209 46.7497 28.4468 46.8423 28.1477C46.9348 27.8485 46.9597 27.5321 46.9149 27.2219C46.6907 26.8318 46.3694 26.508 45.983 26.2829C45.5967 26.0579 45.1588 25.9395 44.7131 25.9395C44.2674 25.9395 43.8296 26.0579 43.4432 26.2829C43.0569 26.508 42.7355 26.8318 42.5113 27.2219Z" fill="#A6AEC4"/>
<path d="M72.3484 63.5587H39.2678C38.3832 63.5829 37.5252 63.2505 36.8823 62.6345C36.2393 62.0184 35.8641 61.1691 35.8388 60.2729V62.466C35.8641 63.3621 36.2393 64.2114 36.8823 64.8275C37.5252 65.4435 38.3832 65.776 39.2678 65.7517H72.3484C73.233 65.776 74.091 65.4435 74.7339 64.8275C75.3768 64.2114 75.7521 63.3621 75.7774 62.466V60.2729C75.7521 61.1691 75.3768 62.0184 74.7339 62.6345C74.091 63.2505 73.233 63.5829 72.3484 63.5587Z" fill="#959DB0"/>
<path d="M64.7416 52.1836H46.8746C46.5466 52.1925 46.2284 52.0692 45.99 51.8408C45.7516 51.6123 45.6123 51.2974 45.6029 50.9651V53.1581C45.6123 53.4904 45.7516 53.8054 45.99 54.0338C46.2284 54.2623 46.5466 54.3856 46.8746 54.3766H64.7416C65.0697 54.3856 65.3878 54.2623 65.6262 54.0338C65.8647 53.8054 66.0039 53.4904 66.0133 53.1581V50.9651C66.0039 51.2974 65.8647 51.6123 65.6262 51.8408C65.3878 52.0692 65.0697 52.1925 64.7416 52.1836Z" fill="#A3CAF7"/>
<path d="M44.7106 33.6037C42.8846 33.6435 41.1044 33.0231 39.6891 31.8535C38.2739 30.684 37.3163 29.042 36.988 27.2219C36.9322 27.5848 36.9041 27.9516 36.9041 28.3189C37.0136 30.3412 37.8839 32.2442 39.3359 33.6365C40.7879 35.0289 42.7113 35.8048 44.7106 35.8048C46.71 35.8048 48.6334 35.0289 50.0854 33.6365C51.5374 32.2442 52.4076 30.3412 52.5172 28.3189C52.5171 27.9516 52.489 27.5848 52.4332 27.2219C52.105 29.042 51.1474 30.684 49.7321 31.8535C48.3169 33.0231 46.5366 33.6435 44.7106 33.6037Z" fill="#3C434C"/>
<path d="M44.7114 28.5042C44.2648 28.5091 43.8251 28.3927 43.4379 28.1672C43.0507 27.9417 42.7302 27.6153 42.5096 27.2219C42.3256 27.5575 42.2288 27.935 42.2284 28.3189C42.2634 28.9619 42.5402 29.5668 43.002 30.0095C43.4637 30.4521 44.0753 30.6988 44.711 30.6988C45.3467 30.6988 45.9582 30.4521 46.42 30.0095C46.8817 29.5668 47.1585 28.9619 47.1935 28.3189C47.1931 27.935 47.0964 27.5575 46.9123 27.2219C46.6918 27.6152 46.3714 27.9415 45.9844 28.167C45.5974 28.3925 45.1578 28.5089 44.7114 28.5042Z" fill="#959DB0"/>
<path d="M63.3557 33.6038C57.5906 33.6038 52.8495 29.4073 52.2754 24.0298C52.2367 24.3941 52.2173 24.7603 52.2175 25.1267C52.2175 31.0196 57.2036 35.7976 63.3548 35.7976C69.5061 35.7976 74.4922 31.0204 74.4922 25.1267C74.4924 24.7603 74.473 24.3941 74.4343 24.0298C73.861 29.4082 69.1191 33.6038 63.354 33.6038H63.3557Z" fill="#3C434C"/>
<path d="M63.3565 26.6786C62.5374 26.6922 61.7349 26.4434 61.0636 25.9678C60.3922 25.4921 59.8862 24.8139 59.6178 24.0298C59.5054 24.3843 59.4488 24.7544 59.4499 25.1267C59.5047 26.1394 59.9405 27.0924 60.6676 27.7897C61.3947 28.4869 62.3578 28.8755 63.3591 28.8755C64.3603 28.8755 65.3234 28.4869 66.0505 27.7897C66.7776 27.0924 67.2134 26.1394 67.2682 25.1267C67.2692 24.7544 67.2126 24.3843 67.1003 24.0298C66.8316 24.8147 66.3249 25.4936 65.6525 25.9693C64.9801 26.445 64.1765 26.6933 63.3565 26.6786Z" fill="#959DB0"/>
<path d="M60.9465 58.5026C60.8245 58.4972 60.7028 58.517 60.5885 58.5606C60.4742 58.6042 60.3698 58.6708 60.2817 58.7564C60.1935 58.842 60.1233 58.9447 60.0754 59.0585C60.0274 59.1723 60.0027 59.2947 60.0027 59.4184C60.0027 59.5421 60.0274 59.6645 60.0754 59.7783C60.1233 59.892 60.1935 59.9948 60.2817 60.0804C60.3698 60.1659 60.4742 60.2325 60.5885 60.2762C60.7028 60.3198 60.8245 60.3395 60.9465 60.3342H63.3305C63.4525 60.3395 63.5743 60.3198 63.6886 60.2762C63.8028 60.2325 63.9072 60.1659 63.9954 60.0804C64.0836 59.9948 64.1537 59.892 64.2017 59.7783C64.2496 59.6645 64.2744 59.5421 64.2744 59.4184C64.2744 59.2947 64.2496 59.1723 64.2017 59.0585C64.1537 58.9447 64.0836 58.842 63.9954 58.7564C63.9072 58.6708 63.8028 58.6042 63.6886 58.5606C63.5743 58.517 63.4525 58.4972 63.3305 58.5026H60.9465Z" fill="#B3E59F"/>
<path d="M54.6132 58.5026C54.4912 58.4972 54.3694 58.517 54.2551 58.5606C54.1408 58.6042 54.0365 58.6708 53.9483 58.7564C53.8601 58.842 53.7899 58.9447 53.742 59.0585C53.694 59.1723 53.6693 59.2947 53.6693 59.4184C53.6693 59.5421 53.694 59.6645 53.742 59.7783C53.7899 59.892 53.8601 59.9948 53.9483 60.0804C54.0365 60.1659 54.1408 60.2325 54.2551 60.2762C54.3694 60.3198 54.4912 60.3395 54.6132 60.3342H56.9971C57.1191 60.3395 57.2409 60.3198 57.3552 60.2762C57.4694 60.2325 57.5738 60.1659 57.662 60.0804C57.7502 59.9948 57.8204 59.892 57.8683 59.7783C57.9163 59.6645 57.941 59.5421 57.941 59.4184C57.941 59.2947 57.9163 59.1723 57.8683 59.0585C57.8204 58.9447 57.7502 58.842 57.662 58.7564C57.5738 58.6708 57.4694 58.6042 57.3552 58.5606C57.2409 58.517 57.1191 58.4972 56.9971 58.5026H54.6132Z" fill="#DF667C"/>
<path d="M48.2798 58.5026C48.1578 58.4972 48.036 58.517 47.9217 58.5606C47.8075 58.6042 47.7031 58.6708 47.6149 58.7564C47.5267 58.842 47.4565 58.9447 47.4086 59.0585C47.3606 59.1723 47.3359 59.2947 47.3359 59.4184C47.3359 59.5421 47.3606 59.6645 47.4086 59.7783C47.4565 59.892 47.5267 59.9948 47.6149 60.0804C47.7031 60.1659 47.8075 60.2325 47.9217 60.2762C48.036 60.3198 48.1578 60.3395 48.2798 60.3342H50.6637C50.7857 60.3395 50.9075 60.3198 51.0218 60.2762C51.1361 60.2325 51.2404 60.1659 51.3286 60.0804C51.4168 59.9948 51.487 59.892 51.5349 59.7783C51.5829 59.6645 51.6076 59.5421 51.6076 59.4184C51.6076 59.2947 51.5829 59.1723 51.5349 59.0585C51.487 58.9447 51.4168 58.842 51.3286 58.7564C51.2404 58.6708 51.1361 58.6042 51.0218 58.5606C50.9075 58.517 50.7857 58.4972 50.6637 58.5026H48.2798Z" fill="#EACC73"/>
<path d="M39.82 89.1837V103.184H38.4V91.9837L32.9 101.404H32.2L26.7 92.0437V103.184H25.28V89.1837H26.5L32.58 99.5637L38.6 89.1837H39.82ZM48.3816 103.284C47.3682 103.284 46.4549 103.057 45.6416 102.604C44.8282 102.137 44.1882 101.497 43.7216 100.684C43.2549 99.8703 43.0216 98.9503 43.0216 97.9237C43.0216 96.897 43.2549 95.977 43.7216 95.1637C44.1882 94.3503 44.8282 93.717 45.6416 93.2637C46.4549 92.8103 47.3682 92.5837 48.3816 92.5837C49.3949 92.5837 50.3082 92.8103 51.1216 93.2637C51.9349 93.717 52.5682 94.3503 53.0216 95.1637C53.4882 95.977 53.7216 96.897 53.7216 97.9237C53.7216 98.9503 53.4882 99.8703 53.0216 100.684C52.5682 101.497 51.9349 102.137 51.1216 102.604C50.3082 103.057 49.3949 103.284 48.3816 103.284ZM48.3816 102.024C49.1282 102.024 49.7949 101.857 50.3816 101.524C50.9816 101.177 51.4482 100.69 51.7816 100.064C52.1149 99.437 52.2816 98.7237 52.2816 97.9237C52.2816 97.1237 52.1149 96.4103 51.7816 95.7837C51.4482 95.157 50.9816 94.677 50.3816 94.3437C49.7949 93.997 49.1282 93.8237 48.3816 93.8237C47.6349 93.8237 46.9616 93.997 46.3616 94.3437C45.7749 94.677 45.3082 95.157 44.9616 95.7837C44.6282 96.4103 44.4616 97.1237 44.4616 97.9237C44.4616 98.7237 44.6282 99.437 44.9616 100.064C45.3082 100.69 45.7749 101.177 46.3616 101.524C46.9616 101.857 47.6349 102.024 48.3816 102.024ZM65.1677 92.6637L60.4877 103.184H59.0277L54.3677 92.6637H55.8477L59.7877 101.624L63.7677 92.6637H65.1677ZM67.1675 92.6637H68.5875V103.184H67.1675V92.6637ZM67.8875 90.3637C67.5942 90.3637 67.3475 90.2637 67.1475 90.0637C66.9475 89.8637 66.8475 89.6237 66.8475 89.3437C66.8475 89.077 66.9475 88.8437 67.1475 88.6437C67.3475 88.4437 67.5942 88.3437 67.8875 88.3437C68.1808 88.3437 68.4275 88.4437 68.6275 88.6437C68.8275 88.8303 68.9275 89.057 68.9275 89.3237C68.9275 89.617 68.8275 89.8637 68.6275 90.0637C68.4275 90.2637 68.1808 90.3637 67.8875 90.3637ZM81.6986 98.3637H72.8986C72.9786 99.457 73.3986 100.344 74.1586 101.024C74.9186 101.69 75.8786 102.024 77.0386 102.024C77.6919 102.024 78.2919 101.91 78.8386 101.684C79.3853 101.444 79.8586 101.097 80.2586 100.644L81.0586 101.564C80.5919 102.124 80.0053 102.55 79.2986 102.844C78.6053 103.137 77.8386 103.284 76.9986 103.284C75.9186 103.284 74.9586 103.057 74.1186 102.604C73.2919 102.137 72.6453 101.497 72.1786 100.684C71.7119 99.8703 71.4786 98.9503 71.4786 97.9237C71.4786 96.897 71.6986 95.977 72.1386 95.1637C72.5919 94.3503 73.2053 93.717 73.9786 93.2637C74.7653 92.8103 75.6453 92.5837 76.6186 92.5837C77.5919 92.5837 78.4653 92.8103 79.2386 93.2637C80.0119 93.717 80.6186 94.3503 81.0586 95.1637C81.4986 95.9637 81.7186 96.8837 81.7186 97.9237L81.6986 98.3637ZM76.6186 93.8037C75.6053 93.8037 74.7519 94.1303 74.0586 94.7837C73.3786 95.4237 72.9919 96.2637 72.8986 97.3037H80.3586C80.2653 96.2637 79.8719 95.4237 79.1786 94.7837C78.4986 94.1303 77.6453 93.8037 76.6186 93.8037ZM87.4289 103.284C86.5756 103.284 85.7556 103.164 84.9689 102.924C84.1956 102.67 83.5889 102.357 83.1489 101.984L83.7889 100.864C84.2289 101.21 84.7822 101.497 85.4489 101.724C86.1156 101.937 86.8089 102.044 87.5289 102.044C88.4889 102.044 89.1956 101.897 89.6489 101.604C90.1156 101.297 90.3489 100.87 90.3489 100.324C90.3489 99.937 90.2222 99.637 89.9689 99.4237C89.7156 99.197 89.3956 99.0303 89.0089 98.9237C88.6222 98.8037 88.1089 98.6903 87.4689 98.5837C86.6156 98.4237 85.9289 98.2637 85.4089 98.1037C84.8889 97.9303 84.4422 97.6437 84.0689 97.2437C83.7089 96.8437 83.5289 96.2903 83.5289 95.5837C83.5289 94.7037 83.8956 93.9837 84.6289 93.4237C85.3622 92.8637 86.3822 92.5837 87.6889 92.5837C88.3689 92.5837 89.0489 92.677 89.7289 92.8637C90.4089 93.037 90.9689 93.2703 91.4089 93.5637L90.7889 94.7037C89.9222 94.1037 88.8889 93.8037 87.6889 93.8037C86.7822 93.8037 86.0956 93.9637 85.6289 94.2837C85.1756 94.6037 84.9489 95.0237 84.9489 95.5437C84.9489 95.9437 85.0756 96.2637 85.3289 96.5037C85.5956 96.7437 85.9222 96.9237 86.3089 97.0437C86.6956 97.1503 87.2289 97.2637 87.9089 97.3837C88.7489 97.5437 89.4222 97.7037 89.9289 97.8637C90.4356 98.0237 90.8689 98.297 91.2289 98.6837C91.5889 99.0703 91.7689 99.6037 91.7689 100.284C91.7689 101.204 91.3822 101.937 90.6089 102.484C89.8489 103.017 88.7889 103.284 87.4289 103.284Z" fill="#292929"/>
</svg>
