<svg width="115" height="121" viewBox="0 0 115 121" fill="none" xmlns="http://www.w3.org/2000/svg">
<path opacity="0.15" d="M104.927 0H10.073C4.50983 0 0 4.54603 0 10.1538V110.846C0 116.454 4.50983 121 10.073 121H104.927C110.49 121 115 116.454 115 110.846V10.1538C115 4.54603 110.49 0 104.927 0Z" fill="#AAA8A8"/>
<path d="M47.8773 68.3739L44.0473 49.3049L33.1653 53.7799L22.5653 58.144L25.0253 70.451C24.2534 70.3292 23.4672 70.3292 22.6953 70.451C18.9713 71.069 16.4273 74.3199 17.1113 77.6939C17.4998 79.1922 18.3868 80.5136 19.6264 81.4406C20.866 82.3675 22.3843 82.8449 23.9313 82.7939C28.2313 82.7939 31.4613 79.2539 30.6893 75.4479L27.7093 60.5849L33.1663 58.339L40.5993 55.2799L42.2103 63.3799C41.4396 63.2599 40.655 63.2599 39.8843 63.3799C36.1583 63.9989 33.6843 67.2319 34.3673 70.6209C34.7378 72.1138 35.609 73.4344 36.8356 74.3625C38.0622 75.2907 39.5699 75.7701 41.1073 75.7209C45.4153 75.7209 48.6503 72.199 47.8763 68.377L47.8773 68.3739Z" fill="#99BBFF"/>
<path d="M42.2112 63.376C41.4405 63.2561 40.6559 63.2561 39.8852 63.376C36.1592 63.995 33.6852 67.228 34.3682 70.617C34.7388 72.1098 35.61 73.4305 36.8366 74.3586C38.0631 75.2867 39.5709 75.7662 41.1082 75.717C45.4162 75.717 48.6512 72.195 47.8772 68.373L44.0472 49.302L33.1672 53.779V58.335L40.6002 55.276L42.2112 63.376Z" fill="#8095FF"/>
<path d="M69.7943 14.3L62.1173 15L59.3473 33.99C58.0831 33.0953 56.6205 32.5212 55.0853 32.317C50.0853 31.669 45.4353 34.785 44.7083 39.333C43.8973 44.365 48.2253 48.822 53.7753 48.822C58.2463 48.822 62.1673 45.843 62.8293 41.722L66.1773 18.8L69.7943 18.47L89.8253 16.655L87.6713 31.419C86.4081 30.5207 84.9448 29.944 83.4083 29.739C78.4353 29.086 73.7613 32.189 73.0313 36.755C72.2203 41.787 76.5483 46.244 82.0983 46.244C86.5693 46.244 90.4903 43.265 91.1523 39.144C91.1523 39.136 95.1273 12.006 95.1273 12.006L69.7943 14.3Z" fill="#99BBFF"/>
<path d="M87.6722 31.419C86.409 30.5207 84.9457 29.944 83.4092 29.739C78.4362 29.086 73.7623 32.189 73.0323 36.755C72.2213 41.787 76.5492 46.244 82.0992 46.244C86.5702 46.244 90.4913 43.265 91.1533 39.144C91.1543 39.13 95.1292 12 95.1292 12L69.7943 14.3V18.469L89.8293 16.654L87.6722 31.419Z" fill="#8095FF"/>
<path d="M79.5283 49.944L72.0343 64.164C71.4795 63.6494 70.8428 63.2309 70.1503 62.926C69.3129 62.5652 68.4163 62.3618 67.5053 62.326C66.1978 62.2469 64.8944 62.5363 63.7432 63.1612C62.592 63.7861 61.6393 64.7215 60.9933 65.861C58.8183 69.986 62.1373 74.761 67.1773 74.761C67.2893 74.761 67.3943 74.724 67.5063 74.72C68.7055 74.6971 69.8783 74.363 70.9094 73.7503C71.9406 73.1376 72.7948 72.2674 73.3883 71.225L78.8993 60.77L81.3743 67.111L85.6893 65.7299L79.5283 49.944Z" fill="#FFD480"/>
<path d="M73.3873 71.224L78.8983 60.769L81.3733 67.11L85.6883 65.729L79.5293 49.9449L72.0353 64.1649C71.4805 63.6503 70.8438 63.2319 70.1513 62.927C69.314 62.5662 68.4173 62.3628 67.5063 62.327V74.727C68.7062 74.7032 69.8793 74.3678 70.9103 73.7537C71.9414 73.1395 72.795 72.2678 73.3873 71.224Z" fill="#FFBB33"/>
<path d="M40.5823 26.849L28.5883 19.649L25.1793 17.603L28.5883 32.824L28.6393 33.052C28.6233 33.052 28.6043 33.052 28.5883 33.052C27.8319 32.9464 27.0638 32.9562 26.3103 33.081C22.5763 33.771 20.1963 37.06 20.9473 40.417C21.3421 41.8827 22.22 43.1724 23.4388 44.0772C24.6576 44.9821 26.146 45.4492 27.6633 45.403C27.9734 45.3889 28.2823 45.3555 28.5883 45.303C32.4793 44.829 35.2053 41.491 34.4093 37.937L31.8633 26.592L38.0513 30.309L40.5823 26.849Z" fill="#FFD480"/>
<path d="M34.4093 37.945L31.8633 26.591L38.0513 30.3081L40.5823 26.849L28.5883 19.649V32.828L28.6393 33.056C28.6233 33.056 28.6043 33.056 28.5883 33.056V45.3111C32.4793 44.837 35.2053 41.499 34.4093 37.945Z" fill="#FFBB33"/>
<path d="M44.82 91V105H43.4V93.8L37.9 103.22H37.2L31.7 93.86V105H30.28V91H31.5L37.58 101.38L43.6 91H44.82ZM58.5616 94.48V105H57.2016V103.08C56.8282 103.72 56.3149 104.22 55.6616 104.58C55.0082 104.927 54.2616 105.1 53.4216 105.1C52.0482 105.1 50.9616 104.72 50.1616 103.96C49.3749 103.187 48.9816 102.06 48.9816 100.58V94.48H50.4016V100.44C50.4016 101.547 50.6749 102.387 51.2216 102.96C51.7682 103.533 52.5482 103.82 53.5616 103.82C54.6682 103.82 55.5416 103.487 56.1816 102.82C56.8216 102.14 57.1416 101.2 57.1416 100V94.48H58.5616ZM65.3586 105.1C64.5053 105.1 63.6853 104.98 62.8986 104.74C62.1253 104.487 61.5186 104.173 61.0786 103.8L61.7186 102.68C62.1586 103.027 62.7119 103.313 63.3786 103.54C64.0453 103.753 64.7386 103.86 65.4586 103.86C66.4186 103.86 67.1253 103.713 67.5786 103.42C68.0453 103.113 68.2786 102.687 68.2786 102.14C68.2786 101.753 68.1519 101.453 67.8986 101.24C67.6453 101.013 67.3253 100.847 66.9386 100.74C66.5519 100.62 66.0386 100.507 65.3986 100.4C64.5453 100.24 63.8586 100.08 63.3386 99.92C62.8186 99.7467 62.3719 99.46 61.9986 99.06C61.6386 98.66 61.4586 98.1067 61.4586 97.4C61.4586 96.52 61.8253 95.8 62.5586 95.24C63.2919 94.68 64.3119 94.4 65.6186 94.4C66.2986 94.4 66.9786 94.4933 67.6586 94.68C68.3386 94.8533 68.8986 95.0867 69.3386 95.38L68.7186 96.52C67.8519 95.92 66.8186 95.62 65.6186 95.62C64.7119 95.62 64.0253 95.78 63.5586 96.1C63.1053 96.42 62.8786 96.84 62.8786 97.36C62.8786 97.76 63.0053 98.08 63.2586 98.32C63.5253 98.56 63.8519 98.74 64.2386 98.86C64.6253 98.9667 65.1586 99.08 65.8386 99.2C66.6786 99.36 67.3519 99.52 67.8586 99.68C68.3653 99.84 68.7986 100.113 69.1586 100.5C69.5186 100.887 69.6986 101.42 69.6986 102.1C69.6986 103.02 69.3119 103.753 68.5386 104.3C67.7786 104.833 66.7186 105.1 65.3586 105.1ZM72.3238 94.48H73.7438V105H72.3238V94.48ZM73.0438 92.18C72.7504 92.18 72.5038 92.08 72.3038 91.88C72.1038 91.68 72.0038 91.44 72.0038 91.16C72.0038 90.8933 72.1038 90.66 72.3038 90.46C72.5038 90.26 72.7504 90.16 73.0438 90.16C73.3371 90.16 73.5838 90.26 73.7838 90.46C73.9838 90.6467 74.0838 90.8733 74.0838 91.14C74.0838 91.4333 73.9838 91.68 73.7838 91.88C73.5838 92.08 73.3371 92.18 73.0438 92.18ZM82.0548 105.1C81.0148 105.1 80.0815 104.873 79.2548 104.42C78.4415 103.967 77.8015 103.333 77.3348 102.52C76.8682 101.693 76.6348 100.767 76.6348 99.74C76.6348 98.7133 76.8682 97.7933 77.3348 96.98C77.8015 96.1667 78.4415 95.5333 79.2548 95.08C80.0815 94.6267 81.0148 94.4 82.0548 94.4C82.9615 94.4 83.7682 94.58 84.4748 94.94C85.1948 95.2867 85.7615 95.8 86.1748 96.48L85.1148 97.2C84.7682 96.68 84.3282 96.2933 83.7948 96.04C83.2615 95.7733 82.6815 95.64 82.0548 95.64C81.2948 95.64 80.6082 95.8133 79.9948 96.16C79.3948 96.4933 78.9215 96.9733 78.5748 97.6C78.2415 98.2267 78.0748 98.94 78.0748 99.74C78.0748 100.553 78.2415 101.273 78.5748 101.9C78.9215 102.513 79.3948 102.993 79.9948 103.34C80.6082 103.673 81.2948 103.84 82.0548 103.84C82.6815 103.84 83.2615 103.713 83.7948 103.46C84.3282 103.207 84.7682 102.82 85.1148 102.3L86.1748 103.02C85.7615 103.7 85.1948 104.22 84.4748 104.58C83.7548 104.927 82.9482 105.1 82.0548 105.1Z" fill="#292929"/>
</svg>
