<svg width="20" height="20" viewBox="0 0 20 20" fill="none" xmlns="http://www.w3.org/2000/svg">
<path d="M15.8333 12.5V3.33331C15.8327 3.20814 15.804 3.0847 15.7492 2.97217C15.6943 2.85964 15.6149 2.76091 15.5167 2.68331C15.4198 2.60499 15.3067 2.54937 15.1856 2.52053C15.0644 2.49168 14.9384 2.49036 14.8167 2.51664L7.31666 4.18331C7.13151 4.22506 6.96616 4.32877 6.84796 4.47727C6.72976 4.62577 6.6658 4.81018 6.66666 4.99997V11.95C6.09777 11.6814 5.45713 11.6045 4.84085 11.7309C4.22458 11.8573 3.66589 12.1801 3.24861 12.6509C2.83132 13.1216 2.57794 13.715 2.52648 14.342C2.47501 14.969 2.62823 15.5958 2.96316 16.1283C3.29808 16.6609 3.79665 17.0704 4.38407 17.2956C4.97149 17.5208 5.61609 17.5494 6.22116 17.3772C6.82623 17.205 7.35915 16.8413 7.73998 16.3405C8.1208 15.8398 8.32899 15.2291 8.33332 14.6C8.34194 14.4557 8.34194 14.311 8.33332 14.1666V5.66664L14.1667 4.37497V10.2833C13.5974 10.0146 12.9564 9.93777 12.3398 10.0644C11.7232 10.1911 11.1644 10.5143 10.7472 10.9857C10.33 11.457 10.077 12.051 10.0262 12.6784C9.97535 13.3058 10.1294 13.9328 10.4653 14.4651C10.8012 14.9975 11.3007 15.4065 11.8889 15.6308C12.477 15.855 13.1221 15.8824 13.7271 15.7088C14.3321 15.5352 14.8645 15.17 15.2443 14.668C15.6241 14.1661 15.8308 13.5544 15.8333 12.925C15.8412 12.7834 15.8412 12.6415 15.8333 12.5Z" fill="#042330"/>
</svg>
