<svg width="115" height="121" viewBox="0 0 115 121" fill="none" xmlns="http://www.w3.org/2000/svg">
<path opacity="0.15" d="M104.927 0H10.073C4.50983 0 0 4.54603 0 10.1538V110.846C0 116.454 4.50983 121 10.073 121H104.927C110.49 121 115 116.454 115 110.846V10.1538C115 4.54603 110.49 0 104.927 0Z" fill="#AAA8A8"/>
<path d="M83.2408 79.5002C81.925 79.4912 80.6666 78.9599 79.7424 78.0232C78.8182 77.0864 78.304 75.821 78.3128 74.5052V24.9172C78.3297 24.2292 78.0733 23.5626 77.5996 23.0635C77.1259 22.5643 76.4737 22.2733 75.7858 22.2542H28.5278C27.8399 22.2733 27.1877 22.5643 26.714 23.0635C26.2403 23.5626 25.9838 24.2292 26.0008 24.9172V74.5052C25.9958 75.1571 26.1193 75.8037 26.3643 76.4079C26.6093 77.0121 26.971 77.562 27.4286 78.0264C27.8863 78.4907 28.431 78.8603 29.0316 79.1141C29.6321 79.3678 30.2768 79.5007 30.9288 79.5052L83.2408 79.5002Z" fill="#E7ECF6"/>
<path d="M30.0428 50.8641V69.5291C30.0342 69.8697 30.1611 70.1998 30.3956 70.4469C30.6302 70.694 30.9532 70.838 31.2938 70.8471H46.4828C46.8233 70.838 47.1464 70.694 47.3809 70.4469C47.6155 70.1998 47.7424 69.8697 47.7338 69.5291V50.8641C47.7424 50.5235 47.6155 50.1935 47.3809 49.9464C47.1464 49.6992 46.8233 49.5553 46.4828 49.5461H31.2948C30.954 49.555 30.6307 49.6989 30.396 49.946C30.1612 50.1932 30.0342 50.5234 30.0428 50.8641Z" fill="#DF75A5"/>
<path d="M30.0427 27.5671V43.0341C30.0349 43.3406 30.1492 43.6377 30.3603 43.8601C30.5714 44.0825 30.8622 44.212 31.1687 44.2201H73.1427C73.4493 44.212 73.74 44.0825 73.9512 43.8601C74.1623 43.6377 74.2765 43.3406 74.2687 43.0341V27.5671C74.2765 27.2606 74.1623 26.9635 73.9512 26.7411C73.74 26.5187 73.4493 26.3892 73.1427 26.3811H31.1697C30.863 26.389 30.572 26.5183 30.3606 26.7407C30.1493 26.9631 30.0349 27.2604 30.0427 27.5671Z" fill="#FFE07D"/>
<path d="M85.7048 14.0001C85.0333 14.0182 84.3964 14.3022 83.9344 14.7898C83.4723 15.2774 83.2228 15.9286 83.2408 16.6001V63.4001C83.2553 64.0863 82.9979 64.7505 82.5247 65.2477C82.0515 65.7448 81.4009 66.0347 80.7148 66.0541H78.3148V24.9171C78.3317 24.2292 78.0753 23.5626 77.6016 23.0634C77.1279 22.5643 76.4757 22.2732 75.7878 22.2541H31.1878V16.6001C31.1698 15.9296 31.4184 15.2793 31.8792 14.7919C32.34 14.3045 32.9753 14.0197 33.6458 14.0001H85.7048Z" fill="#D8E2F1"/>
<path d="M78.3127 74.5052C78.3127 75.8121 78.8319 77.0656 79.7561 77.9898C80.6803 78.914 81.9337 79.4332 83.2407 79.4332C84.5477 79.4332 85.8012 78.914 86.7253 77.9898C87.6495 77.0656 88.1687 75.8121 88.1687 74.5052V16.6582C88.1904 15.9949 87.9559 15.3488 87.5138 14.8539C87.0718 14.359 86.4562 14.0533 85.7947 14.0002C85.4544 13.9964 85.1168 14.0614 84.8022 14.1913C84.4876 14.3212 84.2024 14.5133 83.9639 14.7562C83.7254 14.999 83.5384 15.2875 83.4141 15.6043C83.2898 15.9212 83.2309 16.2599 83.2407 16.6002V63.4002C83.2577 64.0881 83.0012 64.7547 82.5275 65.2538C82.0539 65.753 81.4016 66.044 80.7137 66.0632H78.3137L78.3127 74.5052Z" fill="#A2B9E2"/>
<path d="M73.3318 50.5291H52.7888C52.5361 50.5152 52.2982 50.405 52.1242 50.2211C51.9502 50.0373 51.8533 49.7938 51.8533 49.5406C51.8533 49.2875 51.9502 49.044 52.1242 48.8601C52.2982 48.6763 52.5361 48.5661 52.7888 48.5521H73.3318C73.5846 48.5661 73.8224 48.6763 73.9964 48.8601C74.1704 49.044 74.2673 49.2875 74.2673 49.5406C74.2673 49.7938 74.1704 50.0373 73.9964 50.2211C73.8224 50.405 73.5846 50.5152 73.3318 50.5291Z" fill="#5E54AC"/>
<path d="M73.3318 54.7951H52.7888C52.5361 54.7812 52.2982 54.671 52.1242 54.4871C51.9502 54.3033 51.8533 54.0598 51.8533 53.8066C51.8533 53.5535 51.9502 53.31 52.1242 53.1261C52.2982 52.9423 52.5361 52.832 52.7888 52.8181H73.3318C73.5846 52.832 73.8224 52.9423 73.9964 53.1261C74.1704 53.31 74.2673 53.5535 74.2673 53.8066C74.2673 54.0598 74.1704 54.3033 73.9964 54.4871C73.8224 54.671 73.5846 54.7812 73.3318 54.7951Z" fill="#5E54AC"/>
<path d="M73.3318 59.0551H52.7888C52.5361 59.0412 52.2982 58.931 52.1242 58.7471C51.9502 58.5633 51.8533 58.3198 51.8533 58.0666C51.8533 57.8135 51.9502 57.57 52.1242 57.3861C52.2982 57.2023 52.5361 57.0921 52.7888 57.0781H73.3318C73.5846 57.0921 73.8224 57.2023 73.9964 57.3861C74.1704 57.57 74.2673 57.8135 74.2673 58.0666C74.2673 58.3198 74.1704 58.5633 73.9964 58.7471C73.8224 58.931 73.5846 59.0412 73.3318 59.0551Z" fill="#5E54AC"/>
<path d="M73.3318 63.3151H52.7888C52.5361 63.3012 52.2982 63.191 52.1242 63.0071C51.9502 62.8233 51.8533 62.5798 51.8533 62.3266C51.8533 62.0735 51.9502 61.83 52.1242 61.6461C52.2982 61.4623 52.5361 61.3521 52.7888 61.3381H73.3318C73.5846 61.3521 73.8224 61.4623 73.9964 61.6461C74.1704 61.83 74.2673 62.0735 74.2673 62.3266C74.2673 62.5798 74.1704 62.8233 73.9964 63.0071C73.8224 63.191 73.5846 63.3012 73.3318 63.3151Z" fill="#5E54AC"/>
<path d="M73.3318 67.5752H52.7888C52.5361 67.5612 52.2982 67.451 52.1242 67.2672C51.9502 67.0833 51.8533 66.8398 51.8533 66.5866C51.8533 66.3335 51.9502 66.09 52.1242 65.9062C52.2982 65.7223 52.5361 65.6121 52.7888 65.5981H73.3318C73.5846 65.6121 73.8224 65.7223 73.9964 65.9062C74.1704 66.09 74.2673 66.3335 74.2673 66.5866C74.2673 66.8398 74.1704 67.0833 73.9964 67.2672C73.8224 67.451 73.5846 67.5612 73.3318 67.5752Z" fill="#5E54AC"/>
<path d="M73.3318 71.8352H52.7888C52.5361 71.8212 52.2982 71.711 52.1242 71.5272C51.9502 71.3433 51.8533 71.0998 51.8533 70.8467C51.8533 70.5935 51.9502 70.35 52.1242 70.1662C52.2982 69.9823 52.5361 69.8721 52.7888 69.8582H73.3318C73.5846 69.8721 73.8224 69.9823 73.9964 70.1662C74.1704 70.35 74.2673 70.5935 74.2673 70.8467C74.2673 71.0998 74.1704 71.3433 73.9964 71.5272C73.8224 71.711 73.5846 71.8212 73.3318 71.8352Z" fill="#5E54AC"/>
<path d="M73.3308 76.0952H30.9818C30.729 76.0812 30.4912 75.971 30.3172 75.7871C30.1432 75.6033 30.0463 75.3598 30.0463 75.1067C30.0463 74.8535 30.1432 74.61 30.3172 74.4261C30.4912 74.2423 30.729 74.1321 30.9818 74.1182H73.3308C73.5835 74.1321 73.8214 74.2423 73.9953 74.4261C74.1693 74.61 74.2663 74.8535 74.2663 75.1067C74.2663 75.3598 74.1693 75.6033 73.9953 75.7871C73.8214 75.971 73.5835 76.0812 73.3308 76.0952Z" fill="#5E54AC"/>
<path d="M33.7468 40.9492C33.4914 40.9424 33.2492 40.8345 33.0734 40.6493C32.8975 40.464 32.8023 40.2165 32.8088 39.9612V30.6612C32.8056 30.4546 32.8675 30.2522 32.9858 30.0828C33.1041 29.9133 33.2727 29.7854 33.4678 29.7172C33.6605 29.6553 33.8684 29.6593 34.0586 29.7285C34.2489 29.7976 34.4107 29.928 34.5188 30.0992L38.9818 36.9082L38.9248 30.6532C38.9201 30.5265 38.9404 30.4002 38.9846 30.2814C39.0287 30.1626 39.0959 30.0536 39.1821 29.9607C39.2684 29.8679 39.3721 29.7929 39.4874 29.7402C39.6026 29.6874 39.7271 29.6578 39.8538 29.6532H39.8628C40.1165 29.66 40.3574 29.7666 40.533 29.9499C40.7086 30.1332 40.8048 30.3784 40.8008 30.6322L40.8838 39.6322C40.9013 39.8805 40.8386 40.1279 40.7048 40.3379C40.571 40.5478 40.3733 40.7092 40.1408 40.7982C39.9183 40.8661 39.6794 40.8568 39.4628 40.7718C39.2463 40.6869 39.0648 40.5312 38.9478 40.3302L34.6888 33.8302V39.9612C34.6952 40.2165 34.6001 40.464 34.4242 40.6493C34.2483 40.8345 34.0061 40.9424 33.7508 40.9492H33.7468Z" fill="#9DC6FB"/>
<path d="M47.6388 38.9721H44.8498V36.2891H47.3638C47.6166 36.2752 47.8544 36.1649 48.0284 35.9811C48.2024 35.7972 48.2993 35.5537 48.2993 35.3006C48.2993 35.0475 48.2024 34.8039 48.0284 34.6201C47.8544 34.4362 47.6166 34.326 47.3638 34.3121H44.8498V31.6291H47.6388C47.8916 31.6152 48.1294 31.5049 48.3034 31.3211C48.4774 31.1372 48.5743 30.8937 48.5743 30.6406C48.5743 30.3875 48.4774 30.1439 48.3034 29.9601C48.1294 29.7762 47.8916 29.666 47.6388 29.6521H43.9118C43.6565 29.6589 43.4143 29.7668 43.2384 29.952C43.0625 30.1373 42.9674 30.3847 42.9738 30.6401V39.9591C42.9674 40.2144 43.0625 40.4619 43.2384 40.6472C43.4143 40.8324 43.6565 40.9403 43.9118 40.9471H47.6388C47.8916 40.9332 48.1294 40.823 48.3034 40.6391C48.4774 40.4552 48.5743 40.2117 48.5743 39.9586C48.5743 39.7055 48.4774 39.4619 48.3034 39.2781C48.1294 39.0942 47.8916 38.984 47.6388 38.9701V38.9721Z" fill="#9DC6FB"/>
<path d="M67.9058 40.9491C67.1912 40.9493 66.4848 40.7972 65.8335 40.503C65.1823 40.2089 64.6011 39.7794 64.1288 39.2431C63.9601 39.045 63.8729 38.7902 63.885 38.5303C63.8971 38.2704 64.0074 38.0248 64.1938 37.8431C64.2831 37.7564 64.3894 37.689 64.506 37.6452C64.6226 37.6014 64.747 37.5821 64.8713 37.5886C64.9957 37.5951 65.1174 37.6272 65.2288 37.6828C65.3402 37.7385 65.439 37.8166 65.5188 37.9121C65.8189 38.2477 66.1869 38.5154 66.5985 38.6977C67.0101 38.8799 67.4557 38.9725 67.9058 38.9691C68.2855 38.9934 68.6621 38.8872 68.9732 38.668C69.2842 38.4488 69.5109 38.1299 69.6158 37.7641C69.7158 37.1841 69.2528 36.6501 68.3488 36.2991C66.9818 35.7681 65.7688 35.1991 65.7178 35.1751C65.6725 35.1537 65.629 35.1286 65.5878 35.1001C65.1537 34.7957 64.8133 34.3762 64.6048 33.8887C64.3963 33.4013 64.3281 32.8653 64.4078 32.3411C64.4881 31.7639 64.7321 31.2217 65.1108 30.7787C65.4895 30.3356 65.9871 30.0103 66.5448 29.8411C67.2941 29.646 68.0796 29.635 68.8341 29.8091C69.5886 29.9832 70.2898 30.3373 70.8778 30.8411C71.0695 31.0158 71.1879 31.2567 71.2091 31.5152C71.2302 31.7737 71.1526 32.0306 70.9918 32.2341C70.916 32.3325 70.8208 32.4142 70.712 32.4742C70.6033 32.5341 70.4834 32.5711 70.3598 32.5827C70.2362 32.5943 70.1114 32.5804 69.9934 32.5418C69.8754 32.5031 69.7666 32.4406 69.6738 32.3581C69.3193 32.0621 68.9013 31.8516 68.4523 31.7433C68.0033 31.6349 67.5354 31.6314 67.0848 31.7331C66.8751 31.7836 66.6851 31.8953 66.5389 32.0539C66.3928 32.2126 66.297 32.411 66.2638 32.6241C66.2407 32.7696 66.2562 32.9187 66.3088 33.0563C66.3615 33.1939 66.4494 33.3153 66.5638 33.4081C66.8528 33.5411 67.8868 34.0131 68.9998 34.4461C71.1348 35.2761 71.6728 36.8841 71.4638 38.1131C71.3027 38.9306 70.8566 39.6644 70.205 40.1838C69.5534 40.7031 68.7387 40.9743 67.9058 40.9491Z" fill="#9DC6FB"/>
<path d="M61.4478 29.6892C61.3244 29.6665 61.1977 29.6688 61.0752 29.6957C60.9527 29.7227 60.8368 29.7739 60.7343 29.8463C60.6319 29.9187 60.5449 30.0108 60.4785 30.1172C60.4121 30.2237 60.3677 30.3423 60.3478 30.4662L59.1938 36.5762L57.3738 30.3502C57.3419 30.2288 57.2859 30.1152 57.2091 30.016C57.1322 29.9169 57.0362 29.8343 56.9266 29.7732C56.8171 29.7122 56.6963 29.6738 56.5715 29.6606C56.4468 29.6474 56.3207 29.6595 56.2008 29.6962C56.036 29.7522 55.8893 29.8515 55.7761 29.9836C55.6628 30.1157 55.5871 30.2758 55.5568 30.4472L53.7568 36.5762L52.6068 30.4492C52.5871 30.3252 52.5428 30.2063 52.4765 30.0997C52.4102 29.9931 52.3233 29.9008 52.2208 29.8283C52.1182 29.7558 52.0023 29.7045 51.8796 29.6776C51.757 29.6506 51.6302 29.6484 51.5068 29.6712C51.257 29.7308 51.0403 29.8854 50.9025 30.1021C50.7647 30.3188 50.7168 30.5807 50.7688 30.8322L52.4918 40.0112C52.5005 40.0583 52.5125 40.1047 52.5278 40.1502C52.5999 40.3791 52.7423 40.5796 52.9347 40.7232C53.1271 40.8667 53.3597 40.9461 53.5998 40.9502H53.6078C53.849 40.9447 54.0824 40.8631 54.2746 40.7171C54.4667 40.5711 54.6079 40.3681 54.6778 40.1372L54.6858 40.1112L56.4808 34.0012L58.2678 40.1132C58.2678 40.1262 58.2758 40.1402 58.2808 40.1532C58.3529 40.3821 58.4953 40.5826 58.6877 40.7262C58.88 40.8697 59.1127 40.9492 59.3528 40.9532H59.3608C59.6019 40.9475 59.835 40.8658 60.027 40.7198C60.2189 40.5739 60.3599 40.371 60.4298 40.1402C60.443 40.0992 60.4537 40.0575 60.4618 40.0152L62.1918 30.8562C62.2453 30.603 62.1974 30.3388 62.0582 30.1206C61.9191 29.9024 61.6999 29.7475 61.4478 29.6892Z" fill="#9DC6FB"/>
<path d="M43.98 89V103H42.76L33.76 91.64V103H32.28V89H33.5L42.52 100.36V89H43.98ZM57.4095 98.18H48.6095C48.6895 99.2733 49.1095 100.16 49.8695 100.84C50.6295 101.507 51.5895 101.84 52.7495 101.84C53.4029 101.84 54.0029 101.727 54.5495 101.5C55.0962 101.26 55.5695 100.913 55.9695 100.46L56.7695 101.38C56.3029 101.94 55.7162 102.367 55.0095 102.66C54.3162 102.953 53.5495 103.1 52.7095 103.1C51.6295 103.1 50.6695 102.873 49.8295 102.42C49.0029 101.953 48.3562 101.313 47.8895 100.5C47.4229 99.6867 47.1895 98.7667 47.1895 97.74C47.1895 96.7133 47.4095 95.7933 47.8495 94.98C48.3029 94.1667 48.9162 93.5333 49.6895 93.08C50.4762 92.6267 51.3562 92.4 52.3295 92.4C53.3029 92.4 54.1762 92.6267 54.9495 93.08C55.7229 93.5333 56.3295 94.1667 56.7695 94.98C57.2095 95.78 57.4295 96.7 57.4295 97.74L57.4095 98.18ZM52.3295 93.62C51.3162 93.62 50.4629 93.9467 49.7695 94.6C49.0895 95.24 48.7029 96.08 48.6095 97.12H56.0695C55.9762 96.08 55.5829 95.24 54.8895 94.6C54.2095 93.9467 53.3562 93.62 52.3295 93.62ZM75.5645 92.48L71.5845 103H70.2445L66.9245 94.38L63.6045 103H62.2645L58.3045 92.48H59.6645L62.9645 101.42L66.3445 92.48H67.5645L70.9245 101.42L74.2645 92.48H75.5645ZM80.4055 103.1C79.5521 103.1 78.7321 102.98 77.9455 102.74C77.1721 102.487 76.5655 102.173 76.1255 101.8L76.7655 100.68C77.2055 101.027 77.7588 101.313 78.4255 101.54C79.0921 101.753 79.7855 101.86 80.5055 101.86C81.4655 101.86 82.1721 101.713 82.6255 101.42C83.0921 101.113 83.3255 100.687 83.3255 100.14C83.3255 99.7533 83.1988 99.4533 82.9455 99.24C82.6921 99.0133 82.3721 98.8467 81.9855 98.74C81.5988 98.62 81.0855 98.5067 80.4455 98.4C79.5921 98.24 78.9055 98.08 78.3855 97.92C77.8655 97.7467 77.4188 97.46 77.0455 97.06C76.6855 96.66 76.5055 96.1067 76.5055 95.4C76.5055 94.52 76.8721 93.8 77.6055 93.24C78.3388 92.68 79.3588 92.4 80.6655 92.4C81.3455 92.4 82.0255 92.4933 82.7055 92.68C83.3855 92.8533 83.9455 93.0867 84.3855 93.38L83.7655 94.52C82.8988 93.92 81.8655 93.62 80.6655 93.62C79.7588 93.62 79.0721 93.78 78.6055 94.1C78.1521 94.42 77.9255 94.84 77.9255 95.36C77.9255 95.76 78.0521 96.08 78.3055 96.32C78.5721 96.56 78.8988 96.74 79.2855 96.86C79.6721 96.9667 80.2055 97.08 80.8855 97.2C81.7255 97.36 82.3988 97.52 82.9055 97.68C83.4121 97.84 83.8455 98.1133 84.2055 98.5C84.5655 98.8867 84.7455 99.42 84.7455 100.1C84.7455 101.02 84.3588 101.753 83.5855 102.3C82.8255 102.833 81.7655 103.1 80.4055 103.1Z" fill="#292929"/>
</svg>
