<svg width="115" height="121" viewBox="0 0 115 121" fill="none" xmlns="http://www.w3.org/2000/svg">
<path opacity="0.15" d="M104.927 0H10.073C4.50983 0 0 4.54603 0 10.1538V110.846C0 116.454 4.50983 121 10.073 121H104.927C110.49 121 115 116.454 115 110.846V10.1538C115 4.54603 110.49 0 104.927 0Z" fill="#AAA8A8"/>
<path d="M59.2078 25.808L56.5778 29.744L53.9468 25.808H59.2078Z" fill="#2F4054"/>
<path d="M46.9288 58.28V57.296L44.2068 48.896C43.423 46.495 43.217 43.9429 43.6056 41.4473C43.9941 38.9517 44.9662 36.5831 46.4428 34.534L47.8058 32.698H48.7918C49.3735 32.6755 49.9307 32.4573 50.373 32.0787C50.8153 31.7001 51.1168 31.1833 51.2288 30.612C51.2881 30.3698 51.318 30.1213 51.3178 29.872V25.172L56.5788 25.464V32.706H59.2088L58.5328 35.363C57.8399 38.0844 58.0779 40.9595 59.2088 43.53C58.0368 44.9014 57.3929 46.6461 57.3929 48.45C57.3929 50.2539 58.0368 51.9986 59.2088 53.37L64.9808 56.762L46.9288 58.28Z" fill="#F4CEAF"/>
<path d="M82.8807 64.3149C82.8807 68.0479 80.1807 71.074 76.8587 71.073H44.5587C41.4675 71.0702 38.4018 70.5123 35.5077 69.426C34.3075 68.9078 33.3171 68 32.6965 66.8494C32.0759 65.6988 31.8614 64.3725 32.0877 63.085C32.2093 61.8141 32.7845 60.6295 33.708 59.748C34.6315 58.8665 35.8416 58.3472 37.1167 58.2849H46.9267V57.301H49.2867C51.0958 57.2759 52.8754 56.8388 54.4903 56.0231C56.1053 55.2073 57.513 54.0342 58.6067 52.593C58.7881 52.8642 58.9886 53.1222 59.2067 53.365L74.0837 62.11L73.4187 59.499L71.5917 52.3189L75.4777 50.1379L81.8257 60.4869C82.5222 61.6419 82.8872 62.9663 82.8807 64.3149Z" fill="#396795"/>
<path d="M75.8667 45.632C75.8774 46.409 75.5958 47.1617 75.0777 47.741C74.8463 48.0022 74.5629 48.2123 74.2458 48.358C73.9287 48.5036 73.5847 48.5816 73.2357 48.587C72.8233 48.585 72.4185 48.4761 72.0607 48.271L67.0107 45.437L61.8387 42.537L59.2087 43.521L54.8237 38.6L59.2077 32.7L63.5917 33.684L66.5137 37.374L70.6057 42.54L68.9347 35.663L67.9757 31.716L64.4687 30.732L66.2237 26.792H67.9777L69.7317 27.776L70.6087 31.712L73.9997 38.054C75.2335 40.3889 75.8746 42.9912 75.8667 45.632Z" fill="#F4CEAF"/>
<path d="M66.2248 23.84V26.792L64.4708 30.728L61.8408 27.776L57.4568 24.496L55.2648 22.856L48.6888 24.824V33.68L43.4248 44.503L44.1398 26.061C44.2446 23.2989 44.7409 20.5656 45.6138 17.943C45.8499 17.0832 46.4103 16.3486 47.177 15.8935C47.9437 15.4385 48.857 15.2985 49.7248 15.503C49.9419 15.5627 50.1523 15.6444 50.3528 15.747L57.4528 19.371L66.2248 23.84Z" fill="#F4CEAF"/>
<path d="M57.4538 19.366V24.495L55.2618 22.855L48.6858 24.823V28.755C48.1083 27.8814 47.8031 26.8562 47.8088 25.809V20.889C47.8085 20.5122 47.8322 20.1358 47.8798 19.762C48.0715 18.194 48.7106 16.7144 49.7208 15.5C49.9379 15.5597 50.1483 15.6415 50.3488 15.744L57.4538 19.366Z" fill="#F2C194"/>
<path d="M59.2068 43.5199C58.1432 44.7651 57.5102 46.3204 57.4021 47.9544C57.294 49.5884 57.7165 51.2136 58.6068 52.588C57.5131 54.0293 56.1054 55.2026 54.4905 56.0185C52.8755 56.8345 51.0959 57.2717 49.2868 57.297H46.9288L44.2068 48.8969C43.4229 46.496 43.2169 43.9439 43.6054 41.4483C43.994 38.9527 44.9661 36.584 46.4428 34.5349L47.8058 32.6989H48.7918C49.0533 32.6991 49.3128 32.6538 49.5588 32.5649V34.6649C49.5542 35.176 49.7366 35.6711 50.0718 36.0569C50.2258 36.2356 50.4162 36.3794 50.6302 36.4787C50.8442 36.5781 51.0769 36.6306 51.3128 36.6329C52.155 36.6181 52.9803 36.3945 53.7149 35.9823C54.4495 35.5701 55.0703 34.9821 55.5218 34.271L56.5738 32.6969H59.2038L58.5288 35.3519C57.8359 38.0734 58.0739 40.9485 59.2048 43.519L59.2068 43.5199Z" fill="#8ACCE7"/>
<path d="M61.0267 28C62.1313 28 63.0267 26.6569 63.0267 25C63.0267 23.3431 62.1313 22 61.0267 22C59.9222 22 59.0267 23.3431 59.0267 25C59.0267 26.6569 59.9222 28 61.0267 28Z" fill="#262D43"/>
<path d="M60.9607 20.888C60.9607 24.688 58.2127 27.777 54.8227 27.777C51.4327 27.777 48.6897 24.693 48.6897 20.888C48.6897 17.083 51.4327 14 54.8227 14C58.2127 14 60.9597 17.084 60.9607 20.888Z" fill="#2F4054"/>
<path d="M68.8518 69.857C68.8527 70.2717 68.7802 70.6834 68.6378 71.073H66.0138C66.2705 71.0618 66.5156 70.9626 66.7078 70.7919C66.8999 70.6212 67.0274 70.3896 67.0688 70.1359C67.129 69.8772 67.1064 69.6061 67.0043 69.3609C66.9022 69.1156 66.7258 68.9086 66.4998 68.7689L58.7998 64.4449C58.2252 64.1188 57.5622 63.9826 56.9056 64.0559C56.249 64.1291 55.6323 64.4081 55.1438 64.853L54.7978 65.158L48.6598 63.2799C46.3787 62.5764 43.9705 62.3845 41.6068 62.7179L38.1688 63.1999L37.9518 61.2469L41.3898 60.7649C43.9807 60.4002 46.6203 60.6105 49.1208 61.3809L54.4268 63.008C55.1611 62.459 56.0397 62.1361 56.9548 62.0789C57.8699 62.0217 58.7818 62.2326 59.5788 62.6859L67.2788 67.0099C67.7698 67.3025 68.1742 67.7203 68.4506 68.2205C68.727 68.7208 68.8655 69.2856 68.8518 69.857Z" fill="#26507A"/>
<path d="M75.0787 47.742C74.8473 48.0032 74.564 48.2133 74.2468 48.359C73.9297 48.5046 73.5857 48.5827 73.2367 48.588C72.8243 48.5861 72.4195 48.4772 72.0617 48.272L67.0117 45.438C66.9327 45.1124 66.8795 44.781 66.8527 44.447L66.3737 38.538C66.3418 38.1435 66.3897 37.7466 66.5147 37.371L70.6067 42.537L68.9357 35.66C69.3887 35.7198 69.8155 35.9069 70.1665 36.1995C70.5175 36.492 70.7783 36.8782 70.9187 37.313L74.0187 46.006L75.0787 47.742Z" fill="#F2C194"/>
<path d="M75.4788 50.134L71.5928 52.315L70.6068 48.44C69.7906 48.1004 69.0871 47.537 68.5773 46.8147C68.0675 46.0925 67.7724 45.2408 67.7258 44.358L67.2468 38.449C67.2022 38.0687 67.2905 37.6846 67.4969 37.362C67.7032 37.0394 68.0148 36.7981 68.3788 36.679C68.7396 36.5947 69.1189 36.6513 69.4395 36.8371C69.76 37.0229 69.9976 37.324 70.1038 37.679L73.2368 46.472L75.4788 50.134Z" fill="#F4CEAF"/>
<path d="M67.0987 69.856C67.1148 70.1607 67.01 70.4594 66.807 70.6871C66.604 70.9149 66.3192 71.0532 66.0147 71.072H53.0697V64.632L54.8237 65.168C55.298 64.6039 55.9543 64.223 56.6795 64.091C57.4046 63.959 58.153 64.0842 58.7957 64.445L66.4957 68.768C66.6832 68.8801 66.8377 69.0398 66.9436 69.2309C67.0495 69.4219 67.103 69.6376 67.0987 69.856Z" fill="#F4CEAF"/>
<path d="M56.5778 25.454V30.728H52.1938C51.868 30.728 51.5435 30.6873 51.2278 30.607C51.2871 30.3648 51.317 30.1163 51.3168 29.867V25.167L56.5778 25.454Z" fill="#F2C194"/>
<path d="M56.5767 22.8561V29.744H52.1927C51.2063 29.6837 50.2838 29.2355 49.6267 28.4973C48.9696 27.7591 48.6313 26.7909 48.6857 25.8041V20.8881C48.6852 20.5591 48.7059 20.2304 48.7477 19.9041H53.9477C54.6868 19.9497 55.3778 20.2856 55.8703 20.8385C56.3627 21.3915 56.6167 22.1167 56.5767 22.8561Z" fill="#F4CEAF"/>
<path d="M50.5267 24C51.3552 24 52.0267 23.5523 52.0267 23C52.0267 22.4477 51.3552 22 50.5267 22C49.6983 22 49.0267 22.4477 49.0267 23C49.0267 23.5523 49.6983 24 50.5267 24Z" fill="#2F4054"/>
<path d="M53.0267 24C53.579 24 54.0267 23.5523 54.0267 23C54.0267 22.4477 53.579 22 53.0267 22C52.4744 22 52.0267 22.4477 52.0267 23C52.0267 23.5523 52.4744 24 53.0267 24Z" fill="#2F4054"/>
<path d="M56.5767 22.8559C56.5499 22.3628 56.7193 21.879 57.048 21.5103C57.3766 21.1416 57.8377 20.9179 58.3307 20.8879C58.8237 20.9179 59.2849 21.1416 59.6135 21.5103C59.9421 21.879 60.1115 22.3628 60.0847 22.8559V24.8239C60.1115 25.3171 59.9421 25.8009 59.6135 26.1696C59.2849 26.5383 58.8237 26.762 58.3307 26.7919H56.5767V22.8559Z" fill="#F2C194"/>
<path d="M78.4327 62.442L77.6197 64.185L74.0837 62.106L73.4187 59.495L78.4327 62.442Z" fill="#26507A"/>
<path d="M22.14 105.12C21.1 105.12 20.1 104.953 19.14 104.62C18.1933 104.287 17.46 103.847 16.94 103.3L17.52 102.16C18.0267 102.667 18.7 103.08 19.54 103.4C20.38 103.707 21.2467 103.86 22.14 103.86C23.3933 103.86 24.3333 103.633 24.96 103.18C25.5867 102.713 25.9 102.113 25.9 101.38C25.9 100.82 25.7267 100.373 25.38 100.04C25.0467 99.7067 24.6333 99.4533 24.14 99.28C23.6467 99.0933 22.96 98.8933 22.08 98.68C21.0267 98.4133 20.1867 98.16 19.56 97.92C18.9333 97.6667 18.3933 97.2867 17.94 96.78C17.5 96.2733 17.28 95.5867 17.28 94.72C17.28 94.0133 17.4667 93.3733 17.84 92.8C18.2133 92.2133 18.7867 91.7467 19.56 91.4C20.3333 91.0533 21.2933 90.88 22.44 90.88C23.24 90.88 24.02 90.9933 24.78 91.22C25.5533 91.4333 26.22 91.7333 26.78 92.12L26.28 93.3C25.6933 92.9133 25.0667 92.6267 24.4 92.44C23.7333 92.24 23.08 92.14 22.44 92.14C21.2133 92.14 20.2867 92.38 19.66 92.86C19.0467 93.3267 18.74 93.9333 18.74 94.68C18.74 95.24 18.9067 95.6933 19.24 96.04C19.5867 96.3733 20.0133 96.6333 20.52 96.82C21.04 96.9933 21.7333 97.1867 22.6 97.4C23.6267 97.6533 24.4533 97.9067 25.08 98.16C25.72 98.4 26.26 98.7733 26.7 99.28C27.14 99.7733 27.36 100.447 27.36 101.3C27.36 102.007 27.1667 102.653 26.78 103.24C26.4067 103.813 25.8267 104.273 25.04 104.62C24.2533 104.953 23.2867 105.12 22.14 105.12ZM35.7047 94.4C36.6914 94.4 37.5847 94.6267 38.3847 95.08C39.1847 95.52 39.8114 96.1467 40.2647 96.96C40.718 97.7733 40.9447 98.7 40.9447 99.74C40.9447 100.793 40.718 101.727 40.2647 102.54C39.8114 103.353 39.1847 103.987 38.3847 104.44C37.598 104.88 36.7047 105.1 35.7047 105.1C34.8514 105.1 34.078 104.927 33.3847 104.58C32.7047 104.22 32.1447 103.7 31.7047 103.02V108.88H30.2847V94.48H31.6447V96.56C32.0714 95.8667 32.6314 95.3333 33.3247 94.96C34.0314 94.5867 34.8247 94.4 35.7047 94.4ZM35.6047 103.84C36.338 103.84 37.0047 103.673 37.6047 103.34C38.2047 102.993 38.6714 102.507 39.0047 101.88C39.3514 101.253 39.5247 100.54 39.5247 99.74C39.5247 98.94 39.3514 98.2333 39.0047 97.62C38.6714 96.9933 38.2047 96.5067 37.6047 96.16C37.0047 95.8133 36.338 95.64 35.6047 95.64C34.858 95.64 34.1847 95.8133 33.5847 96.16C32.998 96.5067 32.5314 96.9933 32.1847 97.62C31.8514 98.2333 31.6847 98.94 31.6847 99.74C31.6847 100.54 31.8514 101.253 32.1847 101.88C32.5314 102.507 32.998 102.993 33.5847 103.34C34.1847 103.673 34.858 103.84 35.6047 103.84ZM43.8394 94.48H45.2594V105H43.8394V94.48ZM44.5594 92.18C44.266 92.18 44.0194 92.08 43.8194 91.88C43.6194 91.68 43.5194 91.44 43.5194 91.16C43.5194 90.8933 43.6194 90.66 43.8194 90.46C44.0194 90.26 44.266 90.16 44.5594 90.16C44.8527 90.16 45.0994 90.26 45.2994 90.46C45.4994 90.6467 45.5994 90.8733 45.5994 91.14C45.5994 91.4333 45.4994 91.68 45.2994 91.88C45.0994 92.08 44.8527 92.18 44.5594 92.18ZM50.5705 96.54C50.9038 95.8333 51.3971 95.3 52.0505 94.94C52.7171 94.58 53.5371 94.4 54.5105 94.4V95.78L54.1705 95.76C53.0638 95.76 52.1971 96.1 51.5705 96.78C50.9438 97.46 50.6305 98.4133 50.6305 99.64V105H49.2105V94.48H50.5705V96.54ZM57.0816 94.48H58.5016V105H57.0816V94.48ZM57.8016 92.18C57.5082 92.18 57.2616 92.08 57.0616 91.88C56.8616 91.68 56.7616 91.44 56.7616 91.16C56.7616 90.8933 56.8616 90.66 57.0616 90.46C57.2616 90.26 57.5082 90.16 57.8016 90.16C58.0949 90.16 58.3416 90.26 58.5416 90.46C58.7416 90.6467 58.8416 90.8733 58.8416 91.14C58.8416 91.4333 58.7416 91.68 58.5416 91.88C58.3416 92.08 58.0949 92.18 57.8016 92.18ZM67.9927 104.36C67.726 104.6 67.3927 104.787 66.9927 104.92C66.606 105.04 66.1993 105.1 65.7727 105.1C64.786 105.1 64.026 104.833 63.4927 104.3C62.9593 103.767 62.6927 103.013 62.6927 102.04V95.68H60.8127V94.48H62.6927V92.18H64.1127V94.48H67.3127V95.68H64.1127V101.96C64.1127 102.587 64.266 103.067 64.5727 103.4C64.8927 103.72 65.346 103.88 65.9327 103.88C66.226 103.88 66.506 103.833 66.7727 103.74C67.0527 103.647 67.2927 103.513 67.4927 103.34L67.9927 104.36ZM80.0577 94.48V105H78.6977V103.08C78.3243 103.72 77.811 104.22 77.1577 104.58C76.5043 104.927 75.7577 105.1 74.9177 105.1C73.5443 105.1 72.4577 104.72 71.6577 103.96C70.871 103.187 70.4777 102.06 70.4777 100.58V94.48H71.8977V100.44C71.8977 101.547 72.171 102.387 72.7177 102.96C73.2643 103.533 74.0443 103.82 75.0577 103.82C76.1643 103.82 77.0377 103.487 77.6777 102.82C78.3177 102.14 78.6377 101.2 78.6377 100V94.48H80.0577ZM87.7147 94.4C89.088 94.4 90.1414 94.7467 90.8747 95.44C91.608 96.12 91.9747 97.1333 91.9747 98.48V105H90.6147V103.36C90.2947 103.907 89.8214 104.333 89.1947 104.64C88.5814 104.947 87.848 105.1 86.9947 105.1C85.8214 105.1 84.888 104.82 84.1947 104.26C83.5014 103.7 83.1547 102.96 83.1547 102.04C83.1547 101.147 83.4747 100.427 84.1147 99.88C84.768 99.3333 85.8014 99.06 87.2147 99.06H90.5547V98.42C90.5547 97.5133 90.3014 96.8267 89.7947 96.36C89.288 95.88 88.548 95.64 87.5747 95.64C86.908 95.64 86.268 95.7533 85.6547 95.98C85.0414 96.1933 84.5147 96.4933 84.0747 96.88L83.4347 95.82C83.968 95.3667 84.608 95.02 85.3547 94.78C86.1014 94.5267 86.888 94.4 87.7147 94.4ZM87.2147 103.98C88.0147 103.98 88.7014 103.8 89.2747 103.44C89.848 103.067 90.2747 102.533 90.5547 101.84V100.12H87.2547C85.4547 100.12 84.5547 100.747 84.5547 102C84.5547 102.613 84.788 103.1 85.2547 103.46C85.7214 103.807 86.3747 103.98 87.2147 103.98ZM95.8316 90.16H97.2516V105H95.8316V90.16Z" fill="#292929"/>
</svg>
