<svg width="115" height="121" viewBox="0 0 115 121" fill="none" xmlns="http://www.w3.org/2000/svg">
<path opacity="0.15" d="M104.927 0H10.073C4.50983 0 0 4.54603 0 10.1538V110.846C0 116.454 4.50983 121 10.073 121H104.927C110.49 121 115 116.454 115 110.846V10.1538C115 4.54603 110.49 0 104.927 0Z" fill="#FFC107"/>
<path d="M91.9882 28.306L85.8282 17.017H27.9282L23.0002 28.306H91.9882Z" fill="#F7BA61"/>
<path d="M91.9882 28.306V83.497H23.0002V28.306" fill="#EBEBEB"/>
<path d="M87.0603 83.493H69.8132V56.9049C69.805 55.9819 70.1637 55.0933 70.8105 54.4347C71.4573 53.7761 72.3392 53.4014 73.2623 53.3929H83.6132C84.5363 53.4014 85.4182 53.7761 86.065 54.4347C86.7118 55.0933 87.0705 55.9819 87.0622 56.9049L87.0603 83.493Z" fill="#DC4D41"/>
<path d="M69.8134 59.665H87.0604V83.498H69.8134V59.665Z" fill="#6CBAE5"/>
<path d="M69.8134 80.988H87.0604V83.497H69.8134V80.988Z" fill="#4799CF"/>
<path d="M74.7413 64.682H82.1333V78.482H74.7413V64.682Z" fill="#4799CF"/>
<path d="M74.7413 75.9709H82.1333V78.4799H74.7413V75.9709Z" fill="#428DC5"/>
<path d="M63.6543 78.4799H29.1603V55.9019C29.1572 55.5754 29.2186 55.2515 29.3408 54.9486C29.463 54.6458 29.6436 54.37 29.8725 54.137C30.1013 53.904 30.3738 53.7183 30.6743 53.5907C30.9749 53.463 31.2977 53.3958 31.6243 53.3929H61.1903C61.5168 53.3958 61.8396 53.463 62.1402 53.5907C62.4408 53.7183 62.7132 53.904 62.9421 54.137C63.1709 54.37 63.3516 54.6458 63.4738 54.9486C63.596 55.2515 63.6573 55.5754 63.6543 55.9019V78.4799Z" fill="#8ACED8"/>
<path d="M40.2472 28.306H57.4942V40.849C57.5118 42.8272 56.743 44.7314 55.3567 46.1428C53.9705 47.5541 52.0804 48.3571 50.1022 48.375H47.6382C45.6602 48.3568 43.7704 47.5537 42.3844 46.1424C40.9984 44.7311 40.2297 42.8271 40.2472 40.849V28.306Z" fill="#DBDBDB"/>
<path d="M23.0003 28.306H40.2473V40.348C40.2662 42.458 39.4463 44.4892 37.9678 45.9947C36.4893 47.5002 34.4733 48.3568 32.3633 48.376H30.3923C28.4139 48.3581 26.5237 47.555 25.1375 46.1434C23.7512 44.7318 22.9825 42.8274 23.0003 40.849V28.306Z" fill="#F7BA61"/>
<path d="M57.4943 28.306H74.7413V42.106C74.7559 43.7546 74.1152 45.3414 72.96 46.5176C71.8049 47.6938 70.2298 48.363 68.5813 48.378H63.6543C62.838 48.3707 62.0311 48.2027 61.2797 47.8835C60.5284 47.5643 59.8472 47.1003 59.2752 46.5179C58.7032 45.9355 58.2515 45.2461 57.9459 44.4891C57.6404 43.7321 57.4869 42.9223 57.4943 42.106V28.306Z" fill="#F7BA61"/>
<path d="M74.7413 28.306H91.9883V40.849C92.0059 42.8272 91.237 44.7314 89.8507 46.1428C88.4645 47.5541 86.5745 48.3571 84.5963 48.375H82.1323C80.1542 48.3568 78.2645 47.5537 76.8784 46.1424C75.4924 44.7311 74.7237 42.8271 74.7413 40.849V28.306Z" fill="#DBDBDB"/>
<path d="M27.9283 12H85.8283V17.017H27.9283V12Z" fill="#F0F0F0"/>
<path d="M43.9473 17.017L40.2473 28.306H57.4943V17.017H43.9473Z" fill="#B9B9B9"/>
<path d="M27.9282 17.017L23.0002 28.306H40.2472L43.9432 17.017H27.9282Z" fill="#EA9D2D"/>
<path d="M71.0453 17.017H57.4943V28.306H74.7413L71.0453 17.017Z" fill="#EA9D2D"/>
<path d="M91.9883 28.306L85.8283 17.017H71.0453L74.7453 28.306H91.9883Z" fill="#B9B9B9"/>
<path d="M29.1603 59.665H63.6543V78.48H29.1603V59.665Z" fill="#8ACED8"/>
<path d="M29.1603 75.972H63.6543V78.481H29.1603V75.972Z" fill="#6FBBC6"/>
<path d="M29.1603 58.411H63.6543V62.174H29.1603V58.411Z" fill="#6FBBC6"/>
<path d="M63.6543 55.9019C63.6573 55.5754 63.596 55.2515 63.4738 54.9486C63.3516 54.6458 63.1709 54.37 62.9421 54.137C62.7132 53.904 62.4408 53.7183 62.1402 53.5907C61.8396 53.463 61.5168 53.3958 61.1903 53.3929H31.6243C31.2977 53.3958 30.9749 53.463 30.6743 53.5907C30.3738 53.7183 30.1013 53.904 29.8725 54.137C29.6436 54.37 29.463 54.6458 29.3408 54.9486C29.2186 55.2515 29.1572 55.5754 29.1603 55.9019V59.6649H63.6543V55.9019Z" fill="#EA9D2D"/>
<path d="M87.0603 56.9049C87.0685 55.9822 86.7101 55.094 86.0637 54.4354C85.4173 53.7769 84.5359 53.4019 83.6132 53.3929H73.2623C72.3392 53.4014 71.4573 53.7761 70.8105 54.4347C70.1637 55.0933 69.805 55.9819 69.8132 56.9049V60.9189H87.0603V56.9049Z" fill="#EA9D2D"/>
<path d="M69.8134 59.665H87.0604V62.174H69.8134V59.665Z" fill="#4799CF"/>
<path d="M33 92.28H28.08V91H39.4V92.28H34.48V105H33V92.28ZM42.5509 96.54C42.8843 95.8333 43.3776 95.3 44.0309 94.94C44.6976 94.58 45.5176 94.4 46.4909 94.4V95.78L46.1509 95.76C45.0443 95.76 44.1776 96.1 43.5509 96.78C42.9243 97.46 42.6109 98.4133 42.6109 99.64V105H41.1909V94.48H42.5509V96.54ZM52.7225 94.4C54.0958 94.4 55.1492 94.7467 55.8825 95.44C56.6158 96.12 56.9825 97.1333 56.9825 98.48V105H55.6225V103.36C55.3025 103.907 54.8292 104.333 54.2025 104.64C53.5892 104.947 52.8558 105.1 52.0025 105.1C50.8292 105.1 49.8958 104.82 49.2025 104.26C48.5092 103.7 48.1625 102.96 48.1625 102.04C48.1625 101.147 48.4825 100.427 49.1225 99.88C49.7758 99.3333 50.8092 99.06 52.2225 99.06H55.5625V98.42C55.5625 97.5133 55.3092 96.8267 54.8025 96.36C54.2958 95.88 53.5558 95.64 52.5825 95.64C51.9158 95.64 51.2758 95.7533 50.6625 95.98C50.0492 96.1933 49.5225 96.4933 49.0825 96.88L48.4425 95.82C48.9758 95.3667 49.6158 95.02 50.3625 94.78C51.1092 94.5267 51.8958 94.4 52.7225 94.4ZM52.2225 103.98C53.0225 103.98 53.7092 103.8 54.2825 103.44C54.8558 103.067 55.2825 102.533 55.5625 101.84V100.12H52.2625C50.4625 100.12 49.5625 100.747 49.5625 102C49.5625 102.613 49.7958 103.1 50.2625 103.46C50.7292 103.807 51.3825 103.98 52.2225 103.98ZM69.4841 94.48L64.8041 105H63.3441L58.6841 94.48H60.1641L64.1041 103.44L68.0841 94.48H69.4841ZM80.3509 100.18H71.5509C71.6309 101.273 72.0509 102.16 72.8109 102.84C73.5709 103.507 74.5309 103.84 75.6909 103.84C76.3443 103.84 76.9443 103.727 77.4909 103.5C78.0376 103.26 78.5109 102.913 78.9109 102.46L79.7109 103.38C79.2443 103.94 78.6576 104.367 77.9509 104.66C77.2576 104.953 76.4909 105.1 75.6509 105.1C74.5709 105.1 73.6109 104.873 72.7709 104.42C71.9443 103.953 71.2976 103.313 70.8309 102.5C70.3643 101.687 70.1309 100.767 70.1309 99.74C70.1309 98.7133 70.3509 97.7933 70.7909 96.98C71.2443 96.1667 71.8576 95.5333 72.6309 95.08C73.4176 94.6267 74.2976 94.4 75.2709 94.4C76.2443 94.4 77.1176 94.6267 77.8909 95.08C78.6643 95.5333 79.2709 96.1667 79.7109 96.98C80.1509 97.78 80.3709 98.7 80.3709 99.74L80.3509 100.18ZM75.2709 95.62C74.2576 95.62 73.4043 95.9467 72.7109 96.6C72.0309 97.24 71.6443 98.08 71.5509 99.12H79.0109C78.9176 98.08 78.5243 97.24 77.8309 96.6C77.1509 95.9467 76.2976 95.62 75.2709 95.62ZM83.2613 90.16H84.6813V105H83.2613V90.16Z" fill="#292929"/>
</svg>
