<svg width="20" height="20" viewBox="0 0 20 20" fill="none" xmlns="http://www.w3.org/2000/svg">
<path d="M16.2331 10.2914C14.9248 6.89138 10.2665 6.70804 11.3915 1.76638C11.4748 1.39971 11.0831 1.11638 10.7665 1.30804C7.74146 3.09138 5.56646 6.66638 7.39146 11.3497C7.54146 11.733 7.09146 12.0914 6.76646 11.8414C5.25813 10.6997 5.0998 9.05804 5.23313 7.88304C5.28313 7.44971 4.71646 7.24138 4.4748 7.59971C3.90813 8.46638 3.33313 9.86638 3.33313 11.9747C3.6498 16.6414 7.59146 18.0747 9.00813 18.258C11.0331 18.5164 13.2248 18.1414 14.7998 16.6997C16.5331 15.0914 17.1665 12.5247 16.2331 10.2914ZM8.49979 14.483C9.69979 14.1914 10.3165 13.3247 10.4831 12.558C10.7581 11.3664 9.68313 10.1997 10.4081 8.31638C10.6831 9.87471 13.1331 10.8497 13.1331 12.5497C13.1998 14.658 10.9165 16.4664 8.49979 14.483Z" fill="#042330"/>
</svg>
