<svg width="35" height="35" viewBox="0 0 35 35" fill="none" xmlns="http://www.w3.org/2000/svg">
<path d="M17.5 0C12.7458 0 12.1523 0.021875 10.2856 0.105C8.42188 0.1925 7.15312 0.485625 6.0375 0.91875C4.88688 1.365 3.90979 1.96438 2.93708 2.93708C1.96438 3.90979 1.36354 4.88542 0.91875 6.0375C0.485625 7.15312 0.191042 8.42188 0.105 10.2856C0.0175 12.1523 0 12.7458 0 17.5C0 22.2542 0.021875 22.8477 0.105 24.7144C0.1925 26.5767 0.485625 27.8469 0.91875 28.9625C1.35813 30.1304 2.04691 31.1885 2.93708 32.0629C3.81103 32.9537 4.86923 33.6426 6.0375 34.0813C7.15458 34.5129 8.42333 34.809 10.2856 34.895C12.1523 34.9825 12.7458 35 17.5 35C22.2542 35 22.8477 34.9781 24.7144 34.895C26.5767 34.8075 27.8469 34.5129 28.9625 34.0813C30.1301 33.6413 31.1881 32.9526 32.0629 32.0629C32.954 31.1892 33.6429 30.1309 34.0813 28.9625C34.5129 27.8469 34.809 26.5767 34.895 24.7144C34.9825 22.8477 35 22.2542 35 17.5C35 12.7458 34.9781 12.1523 34.895 10.2856C34.8075 8.42333 34.5129 7.15167 34.0813 6.0375C33.6417 4.86969 32.9529 3.81169 32.0629 2.93708C31.1896 2.04552 30.1312 1.35653 28.9625 0.91875C27.8469 0.485625 26.5767 0.191042 24.7144 0.105C22.8477 0.0175 22.2542 0 17.5 0ZM17.5 3.15C22.171 3.15 22.7281 3.17333 24.5729 3.25354C26.2792 3.33375 27.2052 3.61667 27.8206 3.85875C28.6402 4.17521 29.2206 4.55438 29.836 5.16542C30.4471 5.77792 30.8263 6.35979 31.1427 7.17938C31.3819 7.79479 31.6677 8.72083 31.745 10.4271C31.8281 12.2733 31.8471 12.8275 31.8471 17.5C31.8471 22.1725 31.8252 22.7281 31.7392 24.5729C31.6502 26.2792 31.3658 27.2052 31.1252 27.8206C30.8405 28.5801 30.393 29.268 29.8142 29.836C29.2485 30.4154 28.5611 30.8618 27.8017 31.1427C27.1892 31.3819 26.2485 31.6677 24.5423 31.745C22.6844 31.8281 22.1375 31.8471 17.4563 31.8471C12.7735 31.8471 12.2267 31.8252 10.3702 31.7392C8.6625 31.6502 7.72188 31.3658 7.10938 31.1252C6.34944 30.844 5.66224 30.396 5.09833 29.8142C4.51293 29.2523 4.06396 28.5639 3.78583 27.8017C3.54521 27.1892 3.26229 26.2485 3.17333 24.5423C3.10771 22.7048 3.08438 22.1375 3.08438 17.4781C3.08438 12.8173 3.10771 12.2485 3.17333 10.3892C3.26229 8.68292 3.54521 7.74375 3.78583 7.13125C4.09208 6.3 4.48438 5.73125 5.09833 5.11729C5.70938 4.50625 6.27958 4.1125 7.10938 3.80771C7.72188 3.56563 8.64208 3.28125 10.3483 3.19375C12.2077 3.12813 12.7546 3.10625 17.4344 3.10625L17.5 3.15ZM17.5 8.51375C16.3199 8.51375 15.1514 8.74619 14.0611 9.19779C12.9708 9.64939 11.9802 10.3113 11.1458 11.1458C10.3113 11.9802 9.64939 12.9708 9.19779 14.0611C8.74619 15.1514 8.51375 16.3199 8.51375 17.5C8.51375 18.6801 8.74619 19.8486 9.19779 20.9389C9.64939 22.0292 10.3113 23.0198 11.1458 23.8542C11.9802 24.6887 12.9708 25.3506 14.0611 25.8022C15.1514 26.2538 16.3199 26.4863 17.5 26.4863C19.8833 26.4863 22.169 25.5395 23.8542 23.8542C25.5395 22.169 26.4863 19.8833 26.4863 17.5C26.4863 15.1167 25.5395 12.831 23.8542 11.1458C22.169 9.46051 19.8833 8.51375 17.5 8.51375ZM17.5 23.3333C14.2771 23.3333 11.6667 20.7229 11.6667 17.5C11.6667 14.2771 14.2771 11.6667 17.5 11.6667C20.7229 11.6667 23.3333 14.2771 23.3333 17.5C23.3333 20.7229 20.7229 23.3333 17.5 23.3333ZM28.9421 8.15938C28.9218 8.70279 28.6917 9.21719 28.3001 9.59448C27.9085 9.97176 27.3859 10.1826 26.8421 10.1826C26.2983 10.1826 25.7757 9.97176 25.3841 9.59448C24.9925 9.21719 24.7623 8.70279 24.7421 8.15938C24.7421 7.60242 24.9633 7.06828 25.3572 6.67445C25.751 6.28062 26.2851 6.05938 26.8421 6.05938C27.399 6.05938 27.9332 6.28062 28.327 6.67445C28.7208 7.06828 28.9421 7.60242 28.9421 8.15938Z" fill="#042330"/>
</svg>
