<svg width="35" height="35" viewBox="0 0 35 35" fill="none" xmlns="http://www.w3.org/2000/svg">
<path d="M31.4022 10.3712C31.4245 10.6821 31.4245 10.993 31.4245 11.3039C31.4245 20.7867 24.2069 31.7132 11.0152 31.7132C6.95112 31.7132 3.17577 30.5361 0 28.493C0.577432 28.5596 1.13258 28.5818 1.73223 28.5818C5.0856 28.5818 8.17257 27.4492 10.6377 25.5171C7.48412 25.4505 4.84135 23.3851 3.9308 20.5425C4.375 20.6091 4.81913 20.6535 5.28555 20.6535C5.92956 20.6535 6.57364 20.5646 7.17322 20.4093C3.88644 19.743 1.42126 16.8559 1.42126 13.3693V13.2805C2.37617 13.8135 3.48667 14.1466 4.66361 14.1909C2.7315 12.9028 1.46569 10.7043 1.46569 8.21695C1.46569 6.88449 1.82096 5.66304 2.44282 4.59705C5.97393 8.94983 11.2817 11.7924 17.2334 12.1034C17.1224 11.5704 17.0557 11.0152 17.0557 10.46C17.0557 6.50694 20.2537 3.2868 24.229 3.2868C26.2943 3.2868 28.1598 4.15292 29.4701 5.55203C31.0912 5.24113 32.6458 4.64148 34.0227 3.8198C33.4897 5.48545 32.3571 6.88456 30.8692 7.77282C32.3127 7.61744 33.7118 7.2176 34.9999 6.66246C34.0229 8.08372 32.8014 9.34953 31.4022 10.3712Z" fill="#042330"/>
</svg>
