<svg width="35" height="35" viewBox="0 0 35 35" fill="none" xmlns="http://www.w3.org/2000/svg">
<path d="M29.3992 9.975C25.1992 3.5 16.6242 1.575 9.97425 5.6C3.49925 9.625 1.39925 18.375 5.59925 24.85L5.94925 25.375L4.54925 30.625L9.79925 29.225L10.3242 29.575C12.5992 30.8 15.0492 31.5 17.4992 31.5C20.1242 31.5 22.7492 30.8 25.0242 29.4C31.4992 25.2 33.4242 16.625 29.3992 9.975ZM25.7242 23.45C25.0242 24.5 24.1492 25.2 22.9242 25.375C22.2242 25.375 21.3492 25.725 17.8492 24.325C14.8742 22.925 12.4242 20.65 10.6742 18.025C9.62425 16.8 9.09925 15.225 8.92425 13.65C8.92425 12.25 9.44925 11.025 10.3242 10.15C10.6742 9.8 11.0242 9.625 11.3742 9.625H12.2492C12.5992 9.625 12.9492 9.625 13.1242 10.325C13.4742 11.2 14.3492 13.3 14.3492 13.475C14.5242 13.65 14.5242 14 14.3492 14.175C14.5242 14.525 14.3492 14.875 14.1742 15.05C13.9992 15.225 13.8242 15.575 13.6492 15.75C13.2992 15.925 13.1242 16.275 13.2992 16.625C13.9992 17.675 14.8742 18.725 15.7492 19.6C16.7992 20.475 17.8492 21.175 19.0742 21.7C19.4242 21.875 19.7742 21.875 19.9492 21.525C20.1242 21.175 20.9992 20.3 21.3492 19.95C21.6992 19.6 21.8742 19.6 22.2242 19.775L25.0242 21.175C25.3742 21.35 25.7242 21.525 25.8992 21.7C26.0742 22.225 26.0742 22.925 25.7242 23.45Z" fill="#042330"/>
</svg>
