<svg width="677" height="677" viewBox="0 0 677 677" fill="none" xmlns="http://www.w3.org/2000/svg">
<path d="M520.791 263.149C530.504 286.888 535.5 312.292 535.5 337.941" stroke="#FFDE00" stroke-width="5" stroke-linecap="round"/>
<path d="M313.342 141.986C349.955 137.379 387.126 143.121 420.642 158.562C454.158 174.004 482.677 198.526 502.967 229.349" stroke="#FFDE00" stroke-width="5" stroke-linecap="round"/>
<path d="M162.288 428.116C149.313 402.833 141.947 375.049 140.693 346.659C139.438 318.269 144.325 289.943 155.019 263.615C165.714 237.287 181.964 213.576 202.66 194.103C223.356 174.63 248.011 159.852 274.941 150.778" stroke="#FFDE00" stroke-width="5" stroke-linecap="round"/>
<path d="M332.613 535.367C302.906 534.557 273.765 527.052 247.361 513.414C220.958 499.776 197.973 480.355 180.118 456.598" stroke="#FFDE00" stroke-width="5" stroke-linecap="round"/>
<path d="M531.979 375.068C524.151 415.965 503.598 453.341 473.257 481.857C442.915 510.373 404.338 528.569 363.035 533.848" stroke="#FFDE00" stroke-width="5" stroke-linecap="round"/>
<path d="M472.621 164.424C495.212 181.914 514.181 203.638 528.466 228.381" stroke="#FFDE00" stroke-width="5" stroke-linecap="round"/>
<path d="M205.014 163.08C237.768 138.244 276.825 123.08 317.757 119.309C358.69 115.538 399.86 123.31 436.6 141.744" stroke="#FFDE00" stroke-width="5" stroke-linecap="round"/>
<path d="M218.658 523.237C192.06 506.074 169.479 483.373 152.457 456.685C135.435 429.996 124.372 399.949 120.025 368.594C115.678 337.239 118.148 305.315 127.268 275.002C136.387 244.69 151.94 216.702 172.866 192.95" stroke="#FFDE00" stroke-width="5" stroke-linecap="round"/>
<path d="M442.703 531.837C413.593 547.6 381.302 556.591 348.235 558.14C315.168 559.689 282.177 553.756 251.722 540.783" stroke="#FFDE00" stroke-width="5" stroke-linecap="round"/>
<path d="M545.748 266.159C560.975 309.971 561.965 357.474 548.577 401.882C535.189 446.29 508.109 485.331 471.204 513.427" stroke="#FFDE00" stroke-width="5" stroke-linecap="round"/>
<path d="M371.342 95.3835C402.889 99.6753 433.298 110.071 460.869 125.99" stroke="#FFDE00" stroke-width="5" stroke-linecap="round"/>
<path d="M112.347 243.186C130.118 200.969 159.36 164.575 196.76 138.13C234.159 111.685 278.22 96.2471 323.946 93.5661" stroke="#FFDE00" stroke-width="5" stroke-linecap="round"/>
<path d="M326.178 583.144C290.947 581.401 256.508 572.075 225.212 555.804C193.915 539.533 166.499 516.7 144.834 488.864C123.17 461.028 107.767 428.844 99.6784 394.511C91.5897 360.177 91.0055 324.503 97.9656 289.923" stroke="#FFDE00" stroke-width="5" stroke-linecap="round"/>
<path d="M547.178 466.615C527.869 498.046 501.717 524.714 470.669 544.632C439.622 564.551 404.479 577.206 367.861 581.654" stroke="#FFDE00" stroke-width="5" stroke-linecap="round"/>
<path d="M498.595 152.817C537.699 186.613 565.121 231.903 576.944 282.217C588.767 332.531 584.385 385.294 564.425 432.969" stroke="#FFDE00" stroke-width="5" stroke-linecap="round"/>
</svg>
