<svg width="1440" height="810" viewBox="0 0 1440 810" fill="none" xmlns="http://www.w3.org/2000/svg">
<g clip-path="url(#clip0)">
<path d="M1440 0H0V810H1440V0Z" fill="white"/>
<path d="M0 109.613C0 109.613 68.1817 132.338 90.909 93.7042C113.636 55.0702 163.636 66.4312 163.636 66.4312C163.636 66.4312 215.911 75.522 236.364 48.2498C256.816 20.9775 306.818 27.795 306.818 27.795C306.818 27.795 370.454 25.5218 372.727 -17.6594C375.001 -60.8407 372.727 -90.3862 372.727 -90.3862H0V109.613Z" fill="#FFDE00" fill-opacity="0.6"/>
<path d="M1513.74 109.613C1513.74 109.613 1445.56 132.338 1422.83 93.7042C1400.1 55.0702 1350.1 66.4312 1350.1 66.4312C1350.1 66.4312 1297.83 75.522 1277.37 48.2498C1256.92 20.9775 1206.92 27.795 1206.92 27.795C1206.92 27.795 1143.28 25.5218 1141.01 -17.6594C1138.74 -60.8407 1141.01 -90.3862 1141.01 -90.3862H1513.74V109.613Z" fill="#FFEB66"/>
<path d="M500.884 876.757C500.884 876.757 577.721 663.885 724.78 694.834C871.839 725.783 942.124 581.372 942.124 581.372C942.124 581.372 1022.93 436.547 1135.58 447.862C1248.22 459.177 1330.45 324.789 1330.45 324.789C1330.45 324.789 1463.88 177.901 1581.92 267.696C1699.95 357.492 1773.04 428.071 1773.04 428.071L1026.48 1317.79L500.884 876.757Z" fill="#FFEB66"/>
<path opacity="0.4" d="M1123.67 -12H1110.17V16.5H1123.67V-12Z" fill="white"/>
</g>
<defs>
<clipPath id="clip0">
<rect width="1440" height="810" fill="white"/>
</clipPath>
</defs>
</svg>
