<svg width="382" height="382" viewBox="0 0 382 382" fill="none" xmlns="http://www.w3.org/2000/svg">
<path d="M335.978 245.472H319.043V119.743C333.969 143.222 342.614 171.087 342.614 200.969C342.614 216.455 340.292 231.4 335.978 245.472ZM62.9405 226.26H41.4859C40.1047 218.036 39.3857 209.586 39.3857 200.969C39.3857 171.097 48.0244 143.243 62.9405 119.769V226.26ZM309.276 106.104C309.094 106.095 308.912 106.091 308.729 106.091H248.572C248.634 105.957 248.683 105.816 248.716 105.671C249.565 105.815 250.437 105.942 251.336 106.049L251.339 106.043V106.041C254.173 102.879 257.326 95.4618 259.426 89.3001C260.212 86.9982 260.257 85.652 259.583 84.2287C258.921 82.8336 257.753 81.7365 256.341 81.1131C256.235 81.0665 256.129 81.0344 256.026 81.0344C255.818 81.0344 255.617 81.1635 255.426 81.5608C254.777 82.907 254.131 84.4938 253.394 86.0432C251.158 90.7426 249.399 95.0844 248.32 97.8944H248.318C248.269 97.873 247.264 97.4489 245.568 96.9378L239.414 81.8588C239.088 81.0573 238.307 80.5355 237.445 80.5355H223.697C222.474 80.5355 221.566 81.5363 221.564 82.6594C221.564 82.9253 221.615 83.1981 221.724 83.4662L225.74 93.3058L225.348 94.0018C225.348 94.0018 225.737 94.477 226.531 95.2418L230.922 106C230.934 106.03 230.948 106.061 230.962 106.091H73.2542C73.0767 106.091 72.9 106.095 72.7248 106.104C80.3879 96.5612 89.1846 87.9646 98.9064 80.5202L100.373 89.0923H103.055L103.191 94.8804H127.345L127.543 89.0923H130.069L132.781 73.0605C133.018 71.6716 131.949 70.4034 130.541 70.4034H128.186L128.447 62.8199C147.517 54.1714 168.696 49.3551 191 49.3551C238.831 49.3551 281.488 71.5035 309.276 106.104Z" fill="#E5E3E2"/>
<path d="M191 352.584C161.46 352.584 133.893 344.135 110.584 329.523H154.962C157.461 329.523 158.783 326.566 157.117 324.704L154.384 321.648C154.635 321.659 154.889 321.665 155.145 321.665C164.124 321.665 176.086 315.172 176.086 315.172C185.468 324.18 200.743 333.319 200.743 333.319C203.045 332.241 204.415 330.788 204.178 328.684C204.178 328.684 195.315 319.531 187.06 313.199L190.088 312.906L198.226 294.208L165.59 297.365L160.112 309.948C154.633 311.72 150.242 313.674 150.242 313.674C149.643 314.313 149.364 315.116 149.292 315.955L137.251 302.493H78.3935C78.1368 302.208 77.8747 301.915 77.6203 301.629H142.47C143.47 301.629 144.296 300.848 144.37 299.867C144.373 299.833 144.376 299.799 144.377 299.764C144.375 299.751 144.376 299.738 144.376 299.725C144.376 298.676 143.518 297.819 142.47 297.819C143.518 297.819 144.376 296.961 144.376 295.915C144.376 294.867 143.518 294.011 142.47 294.011H136.747L131.787 291.364C150.288 291.831 170.362 292.087 191.336 292.087C240.226 292.087 284.223 290.698 314.822 288.485C287.361 327.269 242.138 352.584 191 352.584ZM330.96 259.367H317.865C318.617 257.935 319.044 256.304 319.044 254.575V245.472H335.978C334.526 250.209 332.851 254.84 330.96 259.367ZM62.941 247.992H60.375C60.4642 247.989 60.5541 247.988 60.6439 247.988H62.941V247.992Z" fill="#D0CECC"/>
<path d="M190.193 368.454C190.187 368.454 190.181 368.454 190.175 368.454L190.126 368.453C188.47 368.419 187.132 367.05 187.142 365.393C187.153 363.717 188.523 362.36 190.197 362.36C190.204 362.36 190.21 362.36 190.217 362.36C191.898 362.37 193.247 363.739 193.236 365.421C193.238 367.097 191.867 368.454 190.193 368.454ZM203.548 367.985C203.539 367.985 203.529 367.985 203.52 367.985C201.961 367.952 200.669 366.744 200.543 365.169C200.419 363.484 201.668 362.024 203.353 361.898C203.429 361.893 203.506 361.89 203.581 361.89C205.157 361.89 206.504 363.101 206.623 364.708C206.747 366.382 205.484 367.844 203.813 367.978C203.806 367.978 203.798 367.978 203.791 367.978C203.751 367.978 203.711 367.98 203.671 367.981C203.63 367.984 203.589 367.985 203.548 367.985ZM176.818 367.848C176.797 367.848 176.776 367.848 176.755 367.848C176.682 367.846 176.622 367.832 176.549 367.831C174.869 367.687 173.632 366.21 173.776 364.532C173.913 362.941 175.244 361.748 176.81 361.748C176.898 361.748 176.986 361.752 177.076 361.759C178.755 361.904 179.992 363.38 179.848 365.059C179.707 366.644 178.375 367.848 176.818 367.848ZM216.901 366.42C216.876 366.42 216.85 366.419 216.826 366.418C215.377 366.388 214.118 365.339 213.88 363.86C213.61 362.196 214.751 360.635 216.402 360.364C216.562 360.339 216.72 360.327 216.876 360.327C218.352 360.327 219.653 361.395 219.896 362.898C220.155 364.562 219.026 366.123 217.363 366.393L217.364 366.382C217.206 366.409 217.049 366.42 216.901 366.42ZM163.529 366.149C163.509 366.149 163.489 366.149 163.468 366.148C163.309 366.144 163.163 366.141 163.017 366.114C161.353 365.836 160.24 364.253 160.518 362.601C160.767 361.109 162.067 360.059 163.524 360.059C163.691 360.059 163.861 360.072 164.031 360.102C165.695 360.379 166.809 361.95 166.53 363.615C166.271 365.1 164.99 366.149 163.529 366.149ZM230.039 363.777C230.012 363.777 229.986 363.777 229.96 363.776C228.607 363.749 227.396 362.821 227.057 361.461C226.665 359.82 227.661 358.171 229.291 357.778H229.303C229.547 357.718 229.79 357.689 230.031 357.689C231.397 357.689 232.64 358.626 232.974 360.011C233.38 361.641 232.383 363.29 230.741 363.695C230.51 363.756 230.27 363.777 230.039 363.777ZM150.422 363.38C150.402 363.38 150.381 363.38 150.36 363.379C150.129 363.374 149.898 363.345 149.668 363.279C148.031 362.867 147.054 361.215 147.465 359.576C147.812 358.207 149.051 357.289 150.405 357.289C150.657 357.289 150.912 357.32 151.167 357.386C152.804 357.797 153.781 359.45 153.37 361.088C153.017 362.461 151.776 363.38 150.422 363.38ZM242.878 360.069C242.859 360.069 242.84 360.068 242.821 360.068C241.58 360.042 240.414 359.238 240 357.987C239.461 356.39 240.324 354.666 241.92 354.126C242.24 354.02 242.565 353.97 242.885 353.97C244.16 353.97 245.35 354.772 245.782 356.058C246.309 357.653 245.445 359.366 243.862 359.907C243.537 360.014 243.202 360.069 242.878 360.069ZM137.582 359.543C137.562 359.543 137.54 359.543 137.52 359.542C137.215 359.537 136.899 359.481 136.585 359.378H136.596C134.999 358.82 134.157 357.085 134.702 355.498C135.134 354.23 136.318 353.438 137.587 353.438C137.916 353.438 138.252 353.492 138.581 353.604C140.165 354.161 141.02 355.898 140.463 357.482C140.029 358.745 138.851 359.543 137.582 359.543ZM255.409 355.304C255.386 355.304 255.363 355.304 255.341 355.304C254.183 355.279 253.088 354.587 252.599 353.455C251.938 351.906 252.657 350.117 254.205 349.454C254.594 349.287 254.999 349.208 255.399 349.208C256.581 349.208 257.712 349.903 258.208 351.061C258.87 352.598 258.151 354.4 256.601 355.061C256.217 355.228 255.813 355.304 255.409 355.304ZM125.104 354.641C125.083 354.641 125.062 354.641 125.041 354.64C124.652 354.634 124.251 354.552 123.876 354.385C122.331 353.708 121.635 351.914 122.314 350.367C122.815 349.233 123.927 348.557 125.099 348.557C125.51 348.557 125.929 348.641 126.332 348.817C127.866 349.483 128.573 351.29 127.894 352.823C127.392 353.962 126.275 354.641 125.104 354.641ZM267.491 349.533C267.471 349.533 267.45 349.532 267.43 349.532C266.358 349.51 265.333 348.916 264.794 347.905C264.008 346.427 264.57 344.572 266.06 343.786C266.517 343.546 267.005 343.432 267.487 343.432C268.579 343.432 269.634 344.02 270.179 345.055C270.965 346.546 270.39 348.386 268.912 349.172C268.45 349.421 267.969 349.533 267.491 349.533ZM113.059 348.75C113.039 348.75 113.019 348.75 112.998 348.749C112.523 348.74 112.05 348.621 111.616 348.379C110.133 347.581 109.586 345.729 110.385 344.247C110.935 343.226 111.984 342.649 113.067 342.649C113.558 342.649 114.056 342.767 114.518 343.016C116 343.826 116.548 345.678 115.737 347.148C115.19 348.166 114.146 348.75 113.059 348.75ZM279.051 342.786C279.031 342.786 279.011 342.785 278.99 342.785C278.015 342.766 277.062 342.27 276.484 341.381C275.586 339.961 275.991 338.08 277.41 337.17C277.92 336.845 278.488 336.689 279.05 336.689C280.055 336.689 281.038 337.187 281.621 338.098C282.531 339.506 282.114 341.399 280.694 342.296C280.193 342.628 279.616 342.786 279.051 342.786ZM101.551 341.87C101.529 341.87 101.509 341.869 101.487 341.869C100.939 341.857 100.382 341.701 99.8889 341.373C98.4816 340.455 98.0813 338.569 99.0004 337.162C99.5848 336.267 100.565 335.78 101.563 335.78C102.134 335.78 102.711 335.939 103.224 336.274C104.63 337.204 105.018 339.09 104.099 340.496C103.521 341.392 102.541 341.87 101.551 341.87ZM290.034 335.115C290.013 335.115 289.993 335.114 289.972 335.114C289.083 335.095 288.202 334.676 287.62 333.907C286.599 332.57 286.859 330.661 288.195 329.641C288.746 329.22 289.394 329.017 290.038 329.017C290.955 329.017 291.862 329.43 292.463 330.216C293.482 331.566 293.224 333.474 291.886 334.494C291.334 334.909 290.683 335.115 290.034 335.115ZM90.6437 334.088C90.6223 334.088 90.6017 334.088 90.5803 334.087C89.9462 334.074 89.3174 333.866 88.7773 333.453C87.5587 332.502 87.2531 330.814 88.0064 329.523H93.2811C93.8823 330.563 93.8327 331.91 93.0541 332.92C92.4544 333.681 91.5483 334.088 90.6437 334.088ZM300.364 326.576C300.343 326.576 300.323 326.576 300.301 326.576C299.485 326.559 298.688 326.212 298.103 325.567C296.971 324.312 297.072 322.388 298.327 321.257C298.91 320.736 299.637 320.479 300.362 320.479C301.198 320.479 302.031 320.82 302.636 321.492C303.757 322.746 303.656 324.67 302.402 325.789C301.822 326.322 301.087 326.576 300.364 326.576ZM309.958 317.217C309.936 317.217 309.914 317.217 309.893 317.216C309.161 317.201 308.436 316.93 307.861 316.394C306.642 315.236 306.596 313.31 307.743 312.077C308.342 311.447 309.148 311.13 309.956 311.13C310.709 311.13 311.466 311.405 312.06 311.959C313.28 313.118 313.324 315.044 312.178 316.276C311.572 316.905 310.764 317.217 309.958 317.217ZM318.767 307.123C318.747 307.123 318.726 307.123 318.705 307.123C318.06 307.11 317.406 306.889 316.853 306.451C315.548 305.399 315.331 303.482 316.395 302.163V302.176C316.995 301.422 317.877 301.032 318.768 301.032C319.436 301.032 320.11 301.252 320.671 301.703C321.989 302.753 322.194 304.671 321.143 305.979C320.544 306.728 319.66 307.123 318.767 307.123ZM65.2447 302.493H59.1748C59.1972 302.228 59.2536 301.967 59.3434 301.717C59.7696 301.659 60.2047 301.629 60.6467 301.629H65.0409C65.1519 301.908 65.2193 302.199 65.2447 302.493ZM326.718 296.342C326.697 296.342 326.676 296.341 326.656 296.341C326.095 296.33 325.514 296.158 325.009 295.819C323.626 294.876 323.251 292.979 324.195 291.585C324.783 290.714 325.743 290.246 326.72 290.246C327.31 290.246 327.904 290.415 328.429 290.77C329.823 291.713 330.187 293.598 329.243 294.993C328.653 295.864 327.696 296.342 326.718 296.342ZM339.851 272.989C339.83 272.989 339.809 272.989 339.789 272.989C339.399 272.98 338.999 272.905 338.624 272.725C338.809 272.493 338.988 272.256 339.162 272.015C340.17 270.623 341.003 269.097 341.631 267.468C342.8 268.3 343.25 269.865 342.63 271.218C342.115 272.334 341.011 272.989 339.851 272.989ZM344.946 260.589C344.926 260.589 344.905 260.589 344.885 260.588C344.555 260.581 344.228 260.525 343.912 260.41C343.555 260.279 343.237 260.088 342.965 259.855V259.366H342.51C341.915 258.571 341.719 257.504 342.08 256.508C342.536 255.265 343.71 254.494 344.954 254.494C345.296 254.494 345.642 254.552 345.981 254.675C347.565 255.256 348.383 257.003 347.814 258.576C347.357 259.813 346.19 260.589 344.946 260.589Z" fill="#D0CECC"/>
<path d="M351.959 245.472H346.025C345.913 244.995 345.916 244.482 346.056 243.974C346.42 242.619 347.647 241.723 348.987 241.723C349.254 241.723 349.524 241.759 349.794 241.833C351.385 242.261 352.332 243.879 351.959 245.472Z" fill="#E5E3E2"/>
<path d="M348.991 247.813C348.969 247.813 348.948 247.813 348.927 247.812C348.683 247.807 348.44 247.777 348.185 247.711C347.07 247.403 346.271 246.521 346.025 245.472H351.959C351.952 245.504 351.943 245.537 351.935 245.57C351.558 246.93 350.331 247.813 348.991 247.813Z" fill="#D0CECC"/>
<path d="M32.1066 245.472H30.5894C30.1527 245.085 29.8227 244.569 29.6651 243.961C29.4753 243.242 29.5592 242.516 29.8519 241.892C30.3339 242.879 31.1173 244.102 32.1066 245.472Z" fill="#E5E3E2"/>
<path d="M32.6093 246.24C32.5872 246.24 32.5651 246.239 32.543 246.239C31.813 246.223 31.1216 245.945 30.5889 245.472H32.1061C32.2875 245.723 32.475 245.978 32.6692 246.239C32.6493 246.239 32.6293 246.24 32.6093 246.24Z" fill="#D0CECC"/>
<path d="M351.978 234.759C351.957 234.759 351.936 234.759 351.915 234.758C351.743 234.755 351.585 234.739 351.416 234.699C349.764 234.398 348.663 232.814 348.977 231.151C349.246 229.685 350.522 228.662 351.969 228.662C352.152 228.662 352.339 228.679 352.526 228.713C354.178 229.015 355.266 230.61 354.964 232.261C354.693 233.734 353.413 234.759 351.978 234.759ZM29.6311 233.148C28.2315 233.091 27.0049 232.062 26.758 230.627C26.4635 228.963 27.569 227.39 29.2324 227.095C29.4079 227.065 29.5822 227.051 29.7541 227.051C31.1287 227.051 32.3496 227.975 32.6978 229.326C31.446 230.285 30.3307 231.532 29.6311 233.148ZM353.871 221.5C353.85 221.5 353.828 221.5 353.808 221.499C353.723 221.497 353.637 221.483 353.553 221.481C351.887 221.313 350.662 219.814 350.83 218.135C350.988 216.571 352.319 215.397 353.868 215.397C353.97 215.397 354.074 215.401 354.178 215.412C355.844 215.592 357.069 217.081 356.899 218.759C356.736 220.319 355.416 221.5 353.871 221.5ZM28.0736 219.866C28.0252 219.866 27.9781 219.865 27.9309 219.864C26.3955 219.832 25.1032 218.66 24.9526 217.096C24.8045 215.424 26.0415 213.938 27.7146 213.789C27.8124 213.78 27.9101 213.776 28.0064 213.776C29.5577 213.776 30.8831 214.964 31.0225 216.54C31.1824 218.212 29.9457 219.699 28.2724 219.859C28.2025 219.865 28.1371 219.866 28.0736 219.866ZM354.683 208.121C354.662 208.121 354.641 208.12 354.62 208.12C352.939 208.085 351.603 206.693 351.637 205.011C351.671 203.352 353.028 202.028 354.682 202.028C354.703 202.028 354.725 202.028 354.746 202.028C356.427 202.062 357.764 203.456 357.729 205.136C357.695 206.797 356.337 208.121 354.683 208.121ZM27.3412 206.492L27.2556 206.491C25.6106 206.457 24.2852 205.126 24.2706 203.467C24.2566 201.785 25.6017 200.411 27.2836 200.397C27.2925 200.397 27.3013 200.397 27.3102 200.397C28.9808 200.397 30.3405 201.737 30.3665 203.41C30.3805 205.092 29.0241 206.466 27.3412 206.492ZM354.514 197.916C352.918 197.883 351.603 196.612 351.539 194.99L351.526 194.99C351.464 193.307 352.773 191.895 354.456 191.82C354.496 191.818 354.535 191.817 354.574 191.817C356.205 191.817 357.554 193.093 357.627 194.738C357.69 196.421 356.379 197.844 354.696 197.907L354.514 197.916ZM27.7289 193.092C27.708 193.092 27.6874 193.092 27.6665 193.091L27.5075 193.088C25.8282 192.968 24.5658 191.516 24.6738 189.836H24.6863C24.7884 188.231 26.132 187.007 27.7169 187.007C27.7901 187.007 27.8635 187.009 27.9375 187.014C29.6049 187.134 30.8792 188.587 30.7592 190.267C30.6425 191.864 29.3094 193.092 27.7289 193.092ZM353.488 184.559C353.467 184.559 353.446 184.559 353.424 184.558C351.925 184.527 350.656 183.417 350.469 181.889C350.259 180.215 351.449 178.691 353.109 178.494C353.239 178.478 353.366 178.47 353.492 178.47C355.01 178.47 356.324 179.603 356.517 181.148C356.714 182.81 355.525 184.333 353.864 184.543C353.738 184.551 353.613 184.559 353.488 184.559ZM29.2091 179.788C29.1886 179.788 29.1676 179.788 29.1471 179.788C29.0131 179.784 28.8788 179.769 28.7454 179.755C27.0807 179.489 25.9305 177.942 26.1967 176.277C26.4268 174.769 27.7185 173.692 29.1969 173.692C29.35 173.692 29.5055 173.704 29.6619 173.728C31.3268 173.981 32.4648 175.528 32.2117 177.193C31.9879 178.703 30.6823 179.788 29.2091 179.788ZM351.306 171.35C351.287 171.35 351.267 171.35 351.247 171.349C349.857 171.321 348.623 170.332 348.322 168.912C347.979 167.272 349.047 165.66 350.688 165.317C350.898 165.272 351.109 165.252 351.316 165.252C352.73 165.252 353.996 166.24 354.295 167.682C354.628 169.322 353.57 170.934 351.931 171.278C351.719 171.329 351.507 171.35 351.306 171.35ZM31.7715 166.64C31.7509 166.64 31.7303 166.64 31.7095 166.639C31.4907 166.635 31.2836 166.606 31.0657 166.553C29.4279 166.165 28.4135 164.524 28.8009 162.886C29.1429 161.484 30.3958 160.539 31.7766 160.539C32.0088 160.539 32.2443 160.565 32.48 160.621C34.1173 161.021 35.1191 162.663 34.7315 164.3C34.4026 165.699 33.1485 166.64 31.7715 166.64ZM348.041 158.35C348.02 158.35 348 158.35 347.979 158.35C346.688 158.323 345.511 157.47 345.123 156.169C344.644 154.55 345.569 152.863 347.188 152.385C347.476 152.299 347.766 152.258 348.052 152.258C349.364 152.258 350.58 153.118 350.973 154.437C351.452 156.056 350.527 157.744 348.908 158.222C348.621 158.307 348.336 158.35 348.041 158.35ZM35.4136 153.746C35.3931 153.746 35.3725 153.745 35.3519 153.745C35.0597 153.739 34.7562 153.684 34.4652 153.593C32.8671 153.072 31.9882 151.348 32.509 149.749C32.9361 148.468 34.1289 147.65 35.4083 147.65C35.7252 147.65 36.0469 147.7 36.3642 147.806C37.9626 148.327 38.8287 150.038 38.3085 151.649C37.8862 152.924 36.6943 153.746 35.4136 153.746ZM343.731 145.67C343.71 145.67 343.69 145.67 343.669 145.669C342.463 145.644 341.345 144.914 340.882 143.723C340.281 142.15 341.061 140.386 342.633 139.785C342.995 139.642 343.368 139.575 343.734 139.575C344.95 139.575 346.1 140.315 346.57 141.523C347.172 143.096 346.392 144.86 344.832 145.461C344.471 145.604 344.09 145.67 343.731 145.67ZM40.0986 141.178C40.0773 141.178 40.0565 141.178 40.0353 141.178C39.67 141.17 39.2937 141.101 38.9188 140.947C37.3723 140.293 36.6415 138.499 37.2947 136.952C37.7859 135.79 38.9212 135.088 40.1117 135.088C40.5056 135.088 40.9052 135.165 41.2896 135.327C42.8367 135.981 43.5676 137.764 42.9137 139.322C42.423 140.487 41.2938 141.178 40.0986 141.178ZM338.388 133.395C338.368 133.395 338.348 133.395 338.328 133.394C337.22 133.371 336.16 132.74 335.645 131.669L335.644 131.682C334.908 130.167 335.543 128.339 337.059 127.603C337.487 127.395 337.939 127.295 338.385 127.295C339.513 127.295 340.596 127.929 341.124 129.015C341.861 130.529 341.227 132.358 339.712 133.081C339.287 133.294 338.832 133.395 338.388 133.395ZM45.8091 129.058C45.7882 129.058 45.7677 129.058 45.7464 129.057C45.2955 129.048 44.8347 128.929 44.4125 128.713C42.917 127.926 42.3336 126.086 43.1196 124.602C43.6601 123.559 44.7192 122.96 45.8178 122.96C46.2941 122.96 46.7776 123.072 47.2294 123.31C48.7255 124.084 49.2967 125.925 48.5228 127.42C47.9743 128.461 46.9077 129.058 45.8091 129.058ZM332.052 121.587C332.031 121.587 332.01 121.587 331.989 121.586C330.966 121.565 329.977 121.033 329.424 120.095C328.564 118.652 329.054 116.772 330.498 115.924C330.984 115.634 331.52 115.497 332.048 115.497C333.09 115.497 334.106 116.033 334.668 116.997C335.528 118.441 335.051 120.309 333.595 121.169C333.109 121.452 332.58 121.587 332.052 121.587ZM52.5087 117.433C52.4879 117.433 52.467 117.433 52.4461 117.432C51.9101 117.421 51.3643 117.276 50.8835 116.962C49.4513 116.067 49.0269 114.194 49.9335 112.762C50.511 111.845 51.5016 111.343 52.5129 111.343C53.0686 111.343 53.6309 111.495 54.1346 111.812C55.5537 112.719 55.9787 114.593 55.0836 116.025C54.5035 116.932 53.5109 117.433 52.5087 117.433ZM324.773 110.345C324.753 110.345 324.732 110.345 324.712 110.345C323.774 110.325 322.858 109.879 322.277 109.063C321.306 107.69 321.637 105.783 323.011 104.812C323.543 104.436 324.154 104.255 324.76 104.255C325.716 104.255 326.66 104.705 327.262 105.545C328.232 106.92 327.901 108.826 326.528 109.785C325.99 110.163 325.375 110.345 324.773 110.345ZM60.121 106.413C60.1004 106.413 60.0801 106.413 60.0595 106.412C59.4381 106.399 58.821 106.192 58.2934 105.791C56.9483 104.788 56.6708 102.868 57.6855 101.536C58.2859 100.735 59.1982 100.314 60.1216 100.314C60.7596 100.314 61.4031 100.515 61.9525 100.93C63.297 101.945 63.5623 103.852 62.5589 105.196C61.9588 105.995 61.0387 106.413 60.121 106.413ZM316.596 99.731C316.576 99.731 316.554 99.7303 316.534 99.7303C315.68 99.7127 314.848 99.3414 314.265 98.6347C313.182 97.3451 313.355 95.4343 314.646 94.3517C315.216 93.8742 315.909 93.6404 316.598 93.6404C317.468 93.6404 318.331 94.0125 318.927 94.733C320.01 96.0234 319.837 97.9456 318.546 99.0282C317.981 99.5011 317.283 99.731 316.596 99.731ZM68.6119 96.0447C68.5912 96.0447 68.5707 96.044 68.5501 96.044C67.8431 96.0295 67.154 95.7712 66.5786 95.2716C65.3344 94.1493 65.2156 92.2209 66.3264 90.9641C66.9305 90.288 67.7673 89.945 68.6074 89.945C69.329 89.945 70.0533 90.1979 70.634 90.7113C71.891 91.8344 72.0098 93.7627 70.8868 95.0195C70.278 95.6971 69.4439 96.0447 68.6119 96.0447ZM307.587 89.8181C307.565 89.8181 307.544 89.8182 307.523 89.8174C306.756 89.8021 305.994 89.4927 305.409 88.9082L305.421 88.909C304.239 87.7141 304.254 85.7888 305.449 84.6061C306.04 84.0209 306.812 83.7291 307.583 83.7291C308.369 83.7291 309.154 84.0309 309.75 84.6337C310.932 85.8286 310.918 87.7538 309.723 88.9357C309.13 89.5294 308.357 89.8181 307.587 89.8181ZM77.9129 86.4C77.893 86.4 77.8732 86.4 77.8533 86.3992C77.074 86.3832 76.2882 86.0623 75.7036 85.4527C74.5465 84.2341 74.586 82.3096 75.8045 81.1521C76.3972 80.5837 77.1573 80.301 77.9159 80.301C78.7174 80.301 79.5173 80.6158 80.1178 81.2415C81.2752 82.4593 81.2355 84.3846 80.0162 85.5543C79.4233 86.112 78.6624 86.4 77.9129 86.4ZM297.791 80.6693C297.77 80.6693 297.749 80.6693 297.728 80.6685C297.047 80.6548 296.369 80.4087 295.806 79.9221C294.536 78.8227 294.393 76.9066 295.492 75.6253C296.094 74.9293 296.943 74.5718 297.797 74.5718C298.501 74.5718 299.21 74.8147 299.789 75.3113C301.059 76.41 301.203 78.3268 300.102 79.6081C299.506 80.3102 298.647 80.6693 297.791 80.6693ZM87.9732 77.5391C87.9518 77.5391 87.9312 77.5384 87.9098 77.5384C87.045 77.52 86.187 77.1365 85.6041 76.4168C84.5345 75.1035 84.7446 73.1821 86.0464 72.1239C86.6133 71.6678 87.2917 71.4447 87.9648 71.4447C88.8526 71.4447 89.732 71.8313 90.3401 72.5785C91.3975 73.8804 91.1881 75.8018 89.8855 76.8592C89.3209 77.3199 88.6463 77.5391 87.9732 77.5391ZM287.299 72.3348C287.278 72.3348 287.257 72.3348 287.235 72.334C286.625 72.3218 286.02 72.1384 285.504 71.7503C284.148 70.7586 283.844 68.851 284.836 67.4941C285.433 66.6774 286.362 66.2426 287.303 66.2426C287.924 66.2426 288.551 66.4321 289.091 66.8263C290.449 67.8172 290.75 69.7249 289.759 71.0826C289.159 71.9039 288.24 72.3348 287.299 72.3348ZM98.7181 69.5324C98.6967 69.5324 98.6761 69.5324 98.6547 69.5317C97.6921 69.5118 96.7753 69.0542 96.1962 68.2008C95.2366 66.8157 95.6048 64.9224 96.99 63.9758C97.5156 63.6114 98.1146 63.4372 98.7082 63.4372C99.6777 63.4372 100.633 63.9033 101.227 64.7697C102.174 66.1548 101.818 68.0487 100.433 69.0083C99.9077 69.3613 99.3072 69.5324 98.7181 69.5324ZM276.153 64.8896C276.131 64.8896 276.111 64.8896 276.089 64.8888C275.565 64.8781 275.044 64.733 274.562 64.4419C273.13 63.5717 272.669 61.6976 273.552 60.2659C274.12 59.3215 275.117 58.8028 276.143 58.8028C276.687 58.8028 277.24 58.9487 277.741 59.2551L277.742 59.2421C279.173 60.1253 279.623 61.9994 278.751 63.4326C278.182 64.3754 277.179 64.8896 276.153 64.8896ZM264.427 58.3941C264.405 58.3941 264.384 58.3941 264.362 58.3933C263.924 58.3849 263.475 58.2787 263.065 58.0625C261.557 57.3122 260.95 55.484 261.711 53.9759C262.242 52.9086 263.314 52.2981 264.429 52.2981C264.89 52.2981 265.357 52.402 265.798 52.6213C267.307 53.3715 267.902 55.2005 267.153 56.7079C266.616 57.7737 265.549 58.3941 264.427 58.3941ZM124.839 54.2425C123.661 54.0324 122.284 53.82 120.804 53.658C120.521 53.6275 120.237 53.5992 119.947 53.5732C119.609 53.5419 119.267 53.5136 118.922 53.4884C118.818 52.2523 119.481 51.0253 120.671 50.4706C121.088 50.2758 121.527 50.1841 121.959 50.1841C123.107 50.1841 124.207 50.8351 124.724 51.9444C125.075 52.6954 125.093 53.5175 124.839 54.2425ZM252.215 52.865C252.194 52.865 252.174 52.865 252.154 52.8642C251.788 52.8574 251.424 52.7878 251.073 52.6473C249.514 52.0177 248.759 50.2468 249.387 48.6875C249.866 47.501 251.006 46.7797 252.21 46.7797C252.589 46.7797 252.974 46.8508 253.347 47.0021C254.907 47.6308 255.663 49.4018 255.033 50.9611C254.564 52.1499 253.411 52.865 252.215 52.865ZM134.32 51.1292C134.3 51.1292 134.28 51.1292 134.261 51.1284C133.042 51.1032 131.912 50.3491 131.462 49.1336C130.873 47.5605 131.689 45.8102 133.261 45.2204C133.608 45.0944 133.964 45.034 134.314 45.034C135.557 45.034 136.723 45.7949 137.173 47.0326C137.762 48.6049 136.959 50.3553 135.373 50.9443C135.025 51.0643 134.667 51.1292 134.32 51.1292ZM239.595 48.375C239.575 48.375 239.554 48.375 239.532 48.3742C239.254 48.3689 238.973 48.3269 238.696 48.2352C237.085 47.7393 236.181 46.0387 236.677 44.4274C237.091 43.1186 238.292 42.2844 239.591 42.2844C239.891 42.2844 240.196 42.3287 240.497 42.4219C242.096 42.9177 242.999 44.6184 242.503 46.2297C242.092 47.5407 240.888 48.375 239.595 48.375ZM147.059 47.0166C147.043 47.0166 147.026 47.0166 147.01 47.0158C145.694 46.9891 144.505 46.1105 144.13 44.7742C143.676 43.1561 144.625 41.4814 146.256 41.0276C146.529 40.9504 146.805 40.9138 147.076 40.9138C148.406 40.9138 149.625 41.7962 150.002 43.1408C150.457 44.7704 149.508 46.4459 147.878 46.8997C147.612 46.9746 147.325 47.0166 147.059 47.0166ZM226.65 44.9393C226.629 44.9393 226.608 44.9385 226.587 44.9385C226.391 44.9339 226.185 44.9057 225.991 44.8659C224.34 44.5023 223.301 42.8719 223.676 41.2339C223.99 39.8075 225.241 38.8472 226.641 38.8472C226.861 38.8472 227.084 38.8708 227.308 38.9197C228.946 39.2834 229.984 40.913 229.623 42.551C229.304 43.9736 228.05 44.9393 226.65 44.9393ZM160.099 43.9575C160.08 43.9575 160.061 43.9575 160.041 43.9568C158.641 43.9285 157.394 42.9147 157.118 41.4837C156.799 39.8312 157.881 38.2321 159.545 37.9128H159.533C159.727 37.8753 159.921 37.8578 160.112 37.8578C161.552 37.8578 162.821 38.8808 163.103 40.3392C163.422 41.9902 162.342 43.5778 160.689 43.8972H160.677C160.488 43.9377 160.29 43.9575 160.099 43.9575ZM213.46 42.5709C213.44 42.5709 213.418 42.5709 213.397 42.5701C213.276 42.5678 213.167 42.5655 213.044 42.5502C211.379 42.3218 210.205 40.7854 210.433 39.1206C210.644 37.585 211.958 36.481 213.456 36.481C213.595 36.481 213.735 36.4902 213.876 36.51C215.541 36.7392 216.705 38.2749 216.475 39.9397C216.263 41.4738 214.958 42.5709 213.46 42.5709ZM173.419 41.9765C173.377 41.9765 173.336 41.9757 173.296 41.975C171.785 41.9436 170.492 40.7961 170.329 39.2566C170.156 37.5827 171.358 36.0838 173.031 35.8996C173.137 35.8882 173.243 35.8828 173.348 35.8828C174.891 35.8828 176.227 37.0464 176.388 38.6134C176.573 40.2873 175.36 41.7863 173.686 41.9589C173.595 41.9734 173.505 41.9765 173.419 41.9765ZM200.131 41.298C200.073 41.298 200.014 41.2965 199.955 41.2935C198.275 41.198 196.988 39.7701 197.084 38.077C197.176 36.4566 198.51 35.2006 200.112 35.2006C200.17 35.2006 200.229 35.2021 200.287 35.2051C201.967 35.3014 203.255 36.7416 203.171 38.4224C203.079 40.0436 201.734 41.298 200.131 41.298ZM186.807 41.0956L186.661 41.0925C185.04 41.0589 183.727 39.7639 183.687 38.1305C183.636 36.4466 184.969 35.0485 186.652 35.0103C186.684 35.0088 186.714 35.0088 186.745 35.0088C188.387 35.0088 189.735 36.3236 189.772 37.9754C189.811 39.6585 188.49 41.0566 186.807 41.0956Z" fill="#E5E3E2"/>
<path d="M358.695 281.005C358.695 287.125 283.766 292.087 191.336 292.087C98.9057 292.087 23.9766 287.125 23.9766 281.005C23.9766 274.884 98.9057 269.922 191.336 269.922C283.766 269.922 358.695 274.884 358.695 281.005Z" fill="#ADB0AE"/>
<path d="M319.043 116.405V254.575C319.043 260.271 314.425 264.889 308.729 264.889H73.2541C67.5579 264.889 62.9404 260.271 62.9404 254.575V116.405C62.9404 110.708 67.5579 106.091 73.2541 106.091H308.729C314.425 106.091 319.043 110.708 319.043 116.405Z" fill="#2D3951"/>
<path d="M319.043 185.489V254.575C319.043 260.271 314.425 264.889 308.729 264.889H73.2541C67.5579 264.889 62.9404 260.271 62.9404 254.575V185.489H319.043Z" fill="#212133"/>
<path d="M307.666 123.009V239.276C307.666 242.698 304.707 245.472 301.055 245.472H80.9319C78.9799 245.472 77.2243 244.68 76.0129 243.416C74.9575 242.322 74.3174 240.867 74.3174 239.276V123.009C74.3174 119.589 77.2793 116.814 80.9319 116.814H301.055C302.276 116.814 303.419 117.124 304.4 117.667C306.354 118.741 307.666 120.733 307.666 123.009Z" fill="#E0DDDB"/>
<path d="M93.2119 234.627H290.466V136.386H93.2119V234.627Z" fill="white"/>
<path d="M93.2119 144.82H290.466V136.386H93.2119V144.82Z" fill="#ADB0AE"/>
<path d="M274.179 140.603C274.179 141.569 273.396 142.352 272.429 142.352C271.463 142.352 270.68 141.569 270.68 140.603C270.68 139.636 271.463 138.853 272.429 138.853C273.396 138.853 274.179 139.636 274.179 140.603Z" fill="#F4A71B"/>
<path d="M279.851 140.603C279.851 141.569 279.068 142.352 278.101 142.352C277.135 142.352 276.352 141.569 276.352 140.603C276.352 139.636 277.135 138.853 278.101 138.853C279.068 138.853 279.851 139.636 279.851 140.603Z" fill="#1CAF5C"/>
<path d="M285.246 140.603C285.246 141.569 284.463 142.352 283.497 142.352C282.531 142.352 281.747 141.569 281.747 140.603C281.747 139.636 282.531 138.853 283.497 138.853C284.463 138.853 285.246 139.636 285.246 140.603Z" fill="#EE2B37"/>
<path d="M221.867 188.269C221.867 204.853 208.424 218.297 191.84 218.297C175.256 218.297 161.812 204.853 161.812 188.269C161.812 171.685 175.256 158.241 191.84 158.241C208.424 158.241 221.867 171.685 221.867 188.269Z" fill="#3A60B5"/>
<path d="M181.277 204.06V172.478L208.262 188.269L181.277 204.06Z" fill="white"/>
<path d="M108.955 224.209H104.431V219.975H116.725L108.955 224.209Z" fill="#C8C7C5"/>
<path d="M126.692 214.545H104.431V210.312H134.462L126.692 214.545Z" fill="#C8C7C5"/>
<path d="M104.431 204.881H136.052V200.648H104.431V204.881Z" fill="#C8C7C5"/>
<path d="M104.431 195.218H136.052V190.985H104.431V195.218Z" fill="#C8C7C5"/>
<path d="M104.431 185.554H136.052V181.321H104.431V185.554Z" fill="#C8C7C5"/>
<path d="M104.431 175.89H136.052V171.657H104.431V175.89Z" fill="#C8C7C5"/>
<path d="M104.431 166.227H136.052V161.993H104.431V166.227Z" fill="#C8C7C5"/>
<path d="M104.431 156.563H136.052V152.329H104.431V156.563Z" fill="#C8C7C5"/>
<path d="M342.966 259.367V260.251C342.966 264.646 341.556 268.71 339.163 272.015C335.513 277.064 329.574 280.348 322.868 280.348H59.1171C52.4106 280.348 46.4711 277.064 42.8215 272.015C40.4284 268.71 39.0186 264.646 39.0186 260.251V259.367H342.966Z" fill="#2D3951"/>
<path d="M156.926 259.367V259.568C156.926 261.16 157.992 262.45 159.306 262.45H221.355C222.67 262.45 223.736 261.16 223.736 259.568V259.367H156.926Z" fill="#D0CECC"/>
<path d="M312.163 266.132H295.17C294.741 266.132 294.394 265.784 294.394 265.356V264.423C294.394 263.994 294.741 263.647 295.17 263.647H312.163C312.591 263.647 312.939 263.994 312.939 264.423V265.356C312.939 265.784 312.591 266.132 312.163 266.132Z" fill="#D0CECC"/>
<path d="M339.163 272.015C335.513 277.064 329.574 280.348 322.867 280.348H59.1169C52.4104 280.348 46.4709 277.064 42.8213 272.015H339.163Z" fill="#212133"/>
<path d="M307.666 123.428V130.751H74.3174V123.428C74.3174 122.018 74.7567 120.715 75.5105 119.644C76.7032 117.933 78.6865 116.814 80.9319 116.814H301.055C303.299 116.814 305.283 117.933 306.473 119.644C307.227 120.715 307.666 122.018 307.666 123.428Z" fill="#ADB0AE"/>
<path d="M290.496 125.533C290.496 126.499 289.713 127.282 288.746 127.282C287.781 127.282 286.996 126.499 286.996 125.533C286.996 124.566 287.781 123.783 288.746 123.783C289.713 123.783 290.496 124.566 290.496 125.533Z" fill="#F4A71B"/>
<path d="M296.167 125.533C296.167 126.499 295.384 127.282 294.417 127.282C293.451 127.282 292.667 126.499 292.667 125.533C292.667 124.566 293.451 123.783 294.417 123.783C295.384 123.783 296.167 124.566 296.167 125.533Z" fill="#1CAF5C"/>
<path d="M301.564 125.533C301.564 126.499 300.78 127.282 299.814 127.282C298.848 127.282 298.064 126.499 298.064 125.533C298.064 124.566 298.848 123.783 299.814 123.783C300.78 123.783 301.564 124.566 301.564 125.533Z" fill="#EE2B37"/>
<path d="M250.716 125.991H128.116C127.48 125.991 126.96 125.471 126.96 124.835V123.444C126.96 122.808 127.48 122.288 128.116 122.288H250.716C251.351 122.288 251.872 122.808 251.872 123.444V124.835C251.872 125.471 251.351 125.991 250.716 125.991Z" fill="white"/>
<path d="M97.1328 124.139V126.398L95.1777 125.268L93.2227 124.139L95.1777 123.011L97.1328 121.882V124.139Z" fill="#2D3951"/>
<path d="M103.316 124.139V126.398L105.272 125.268L107.227 124.139L105.272 123.011L103.316 121.882V124.139Z" fill="#2D3951"/>
<path d="M300.875 119.644H75.5107C76.7034 117.933 78.6868 116.814 80.9322 116.814H301.055C302.293 116.814 303.452 117.155 304.443 117.748C304.428 117.739 304.414 117.732 304.4 117.724L300.875 119.644Z" fill="#868D8F"/>
<path d="M301.055 244.191H142.893L124.969 234.627H290.466V144.82V136.386H270.147L280.49 130.751H307.666V238.061C307.666 241.445 304.707 244.191 301.055 244.191ZM307.666 123.428C307.666 122.018 307.228 120.715 306.474 119.644C305.94 118.877 305.248 118.229 304.443 117.748C306.374 118.817 307.666 120.775 307.666 123.011V123.428Z" fill="#E5E3E2"/>
<path d="M290.466 234.627H124.969L109.289 226.26H105.189L108.955 224.209H136.052V219.975H116.725L126.692 214.545H136.052V210.312H134.462L162.569 194.998C165.625 208.341 177.57 218.297 191.84 218.297C208.424 218.297 221.868 204.853 221.868 188.269C221.868 180.124 218.624 172.736 213.359 167.326L254.667 144.82H290.466V234.627ZM246.479 219.975V224.209H278.101V219.975H246.479ZM246.479 210.312V214.545H278.101V210.312H270.662C272.627 208.529 273.508 206.563 273.739 205.077C273.771 205.012 273.781 204.945 273.77 204.881H278.101V200.649H246.479V204.881H266.265L263.088 207.848C262.954 207.974 262.918 208.126 262.974 208.253L263.138 208.811L263.146 208.84C263.177 208.927 263.25 209.004 263.36 209.059L265.215 209.956L265.331 210.312H246.479ZM246.479 190.985V195.218H278.101V190.985H246.479ZM246.479 181.321V185.554H278.101V181.321H246.479ZM246.479 171.657V175.89H278.101V171.657H246.479ZM246.479 161.993V166.227H278.101V161.993H246.479ZM246.479 152.329V156.563H278.101V152.329H246.479Z" fill="white"/>
<path d="M290.466 144.82H254.667L270.147 136.386H290.466V144.82ZM283.497 138.853C282.532 138.853 281.748 139.636 281.748 140.603C281.748 141.569 282.532 142.352 283.497 142.352C284.464 142.352 285.247 141.569 285.247 140.603C285.247 139.636 284.464 138.853 283.497 138.853ZM278.101 138.853C277.135 138.853 276.352 139.636 276.352 140.603C276.352 141.569 277.135 142.352 278.101 142.352C279.068 142.352 279.851 141.569 279.851 140.603C279.851 139.636 279.068 138.853 278.101 138.853ZM272.43 138.853C271.464 138.853 270.68 139.636 270.68 140.603C270.68 141.569 271.464 142.352 272.43 142.352C273.396 142.352 274.18 141.569 274.18 140.603C274.18 139.636 273.396 138.853 272.43 138.853Z" fill="#BCBCB9"/>
<path d="M272.429 142.352C271.463 142.352 270.68 141.569 270.68 140.603C270.68 139.636 271.463 138.853 272.429 138.853C273.396 138.853 274.179 139.636 274.179 140.603C274.179 141.569 273.396 142.352 272.429 142.352Z" fill="#F4B436"/>
<path d="M278.101 142.352C277.135 142.352 276.352 141.569 276.352 140.603C276.352 139.636 277.135 138.853 278.101 138.853C279.068 138.853 279.851 139.636 279.851 140.603C279.851 141.569 279.068 142.352 278.101 142.352Z" fill="#33B773"/>
<path d="M283.497 142.352C282.531 142.352 281.747 141.569 281.747 140.603C281.747 139.636 282.531 138.853 283.497 138.853C284.463 138.853 285.246 139.636 285.246 140.603C285.246 141.569 284.463 142.352 283.497 142.352Z" fill="#F04051"/>
<path d="M191.84 218.297C177.57 218.297 165.624 208.341 162.568 194.998L181.277 184.805V204.06L208.262 188.269L192.186 178.862L213.358 167.326C218.624 172.736 221.867 180.124 221.867 188.269C221.867 204.853 208.424 218.297 191.84 218.297Z" fill="#5177C4"/>
<path d="M181.277 204.06V184.805L192.186 178.862L208.262 188.269L181.277 204.06Z" fill="white"/>
<path d="M136.052 224.209H108.955L116.725 219.975H136.052V224.209Z" fill="#D2D1CE"/>
<path d="M136.052 214.545H126.692L134.462 210.312H136.052V214.545Z" fill="#D2D1CE"/>
<path d="M246.479 224.209H278.101V219.975H246.479V224.209Z" fill="#D2D1CE"/>
<path d="M278.101 214.545H246.479V210.312H265.332L265.993 212.337C265.993 212.337 266.007 212.337 266.034 212.337C266.35 212.337 268.44 212.266 270.516 210.442C270.565 210.399 270.614 210.355 270.662 210.312H278.101V214.545Z" fill="#D2D1CE"/>
<path d="M278.101 204.881H273.77C273.77 204.88 273.77 204.879 273.77 204.878L273.769 204.867C273.884 203.889 273.711 203.147 273.384 202.847C273.276 202.747 273.118 202.704 272.921 202.704C272.553 202.704 272.049 202.857 271.487 203.093L269.795 202.275C269.699 202.228 269.586 202.206 269.471 202.206C269.266 202.206 269.053 202.277 268.913 202.409L266.266 204.881H246.479V200.649H278.101V204.881Z" fill="#D2D1CE"/>
<path d="M246.479 195.218H278.101V190.985H246.479V195.218Z" fill="#D2D1CE"/>
<path d="M246.479 185.554H278.101V181.321H246.479V185.554Z" fill="#D2D1CE"/>
<path d="M246.479 175.89H278.101V171.657H246.479V175.89Z" fill="#D2D1CE"/>
<path d="M246.479 166.227H278.101V161.993H246.479V166.227Z" fill="#D2D1CE"/>
<path d="M246.479 156.563H278.101V152.329H246.479V156.563Z" fill="#D2D1CE"/>
<path d="M307.666 130.751H280.49L287.617 126.868C287.922 127.127 288.317 127.282 288.747 127.282C289.713 127.282 290.496 126.499 290.496 125.533C290.496 125.456 290.492 125.381 290.483 125.307L300.876 119.644H306.474C305.94 118.877 305.248 118.229 304.443 117.748C305.248 118.229 305.94 118.877 306.474 119.644C307.228 120.715 307.666 122.018 307.666 123.428V130.751ZM299.815 123.782C298.848 123.782 298.065 124.566 298.065 125.533C298.065 126.499 298.848 127.282 299.815 127.282C300.781 127.282 301.564 126.499 301.564 125.533C301.564 124.566 300.781 123.782 299.815 123.782ZM294.418 123.782C293.451 123.782 292.668 124.566 292.668 125.533C292.668 126.499 293.451 127.282 294.418 127.282C295.384 127.282 296.167 126.499 296.167 125.533C296.167 124.566 295.384 123.782 294.418 123.782Z" fill="#BCBCB9"/>
<path d="M288.746 127.282C288.316 127.282 287.921 127.127 287.616 126.868L290.482 125.307C290.491 125.381 290.496 125.456 290.496 125.533C290.496 126.499 289.713 127.282 288.746 127.282Z" fill="#F4B436"/>
<path d="M294.417 127.282C293.451 127.282 292.667 126.499 292.667 125.533C292.667 124.566 293.451 123.783 294.417 123.783C295.384 123.783 296.167 124.566 296.167 125.533C296.167 126.499 295.384 127.282 294.417 127.282Z" fill="#33B773"/>
<path d="M299.814 127.282C298.848 127.282 298.064 126.499 298.064 125.533C298.064 124.566 298.848 123.783 299.814 123.783C300.78 123.783 301.564 124.566 301.564 125.533C301.564 126.499 300.78 127.282 299.814 127.282Z" fill="#F04051"/>
<path d="M306.474 119.644H300.876L304.4 117.724C304.415 117.732 304.429 117.739 304.443 117.748C305.248 118.229 305.94 118.877 306.474 119.644Z" fill="#9DA1A1"/>
<path d="M157.116 324.704L137.25 302.493H29.5146C27.8242 303.173 27.1077 305.353 28.3065 306.926L40.4213 322.824C43.6385 327.045 48.6424 329.523 53.9503 329.523H154.961C157.46 329.523 158.783 326.566 157.116 324.704Z" fill="#ADB0AE"/>
<path d="M28.4534 293.365C29.8564 298.535 46.5316 315.836 50.1009 319.497C52.4789 322.522 56.129 324.502 60.2374 324.628L60.4346 324.637H142.471C143.519 324.637 144.376 323.78 144.376 322.733C144.376 321.685 143.519 320.83 142.471 320.83H60.6477C55.3546 320.828 51.0472 316.522 51.0472 311.229C51.0472 305.935 55.3546 301.629 60.6477 301.629H142.471C143.519 301.629 144.376 300.772 144.376 299.725C144.376 298.676 143.519 297.819 142.471 297.819H142.351L142.671 297.172L108.332 278.85H39.3855C39.3855 278.85 24.9766 280.557 28.4534 293.365Z" fill="#F4A71B"/>
<path d="M144.37 299.867C144.372 299.833 144.374 299.798 144.375 299.763H144.377C144.375 299.799 144.373 299.833 144.37 299.867Z" fill="#A2A6A5"/>
<path d="M51.332 307.03C52.3786 302.861 56.1593 299.764 60.6448 299.764H144.378C144.375 299.798 144.373 299.833 144.371 299.867C144.281 300.823 143.464 301.585 142.471 301.585H60.6448C60.3203 301.585 60.0005 301.602 59.6841 301.633C56.2118 301.733 53.0561 303.705 51.4466 306.799C51.4067 306.876 51.3685 306.952 51.332 307.03Z" fill="#BC8823"/>
<path d="M59.9635 320.829H142.47V301.628H59.9635C56.3823 301.628 53.0983 303.621 51.4461 306.799C50.0023 309.576 50.0023 312.881 51.4461 315.658C53.0983 318.835 56.3823 320.829 59.9635 320.829Z" fill="white"/>
<path d="M142.47 307.431H60.995C60.6413 307.431 60.3545 307.145 60.3545 306.792C60.3545 306.438 60.6413 306.151 60.995 306.151H142.47V307.431Z" fill="#D0CECC"/>
<path d="M142.47 311.869H60.995C60.6413 311.869 60.3545 311.582 60.3545 311.228C60.3545 310.875 60.6413 310.588 60.995 310.588H142.47V311.869Z" fill="#D0CECC"/>
<path d="M142.47 316.306H60.995C60.6413 316.306 60.3545 316.019 60.3545 315.666C60.3545 315.312 60.6413 315.026 60.995 315.026H142.47V316.306Z" fill="#D0CECC"/>
<path d="M28.2523 266.39C29.7251 271.809 47.988 290.572 50.3227 292.955C52.7039 295.825 56.2553 297.688 60.2365 297.81L60.4338 297.819H142.47C143.518 297.819 144.375 296.961 144.375 295.915C144.375 294.867 143.518 294.011 142.47 294.011H60.6469C55.3537 294.009 51.0464 289.704 51.0464 284.411C51.0464 279.117 55.3537 274.81 60.6469 274.81H142.47C143.518 274.81 144.375 273.953 144.375 272.906C144.375 271.858 143.518 271.001 142.47 271.001H142.072L142.47 270.196L108.131 251.875H39.1841C39.1841 251.875 24.7752 253.581 28.2523 266.39Z" fill="#3A60B5"/>
<path d="M144.365 273.105C144.371 273.054 144.374 273.004 144.375 272.954H144.378C144.375 273.004 144.371 273.055 144.365 273.105Z" fill="#1C1B28"/>
<path d="M51.335 280.205C52.3864 276.045 56.1637 272.954 60.6445 272.954H144.377C144.373 273.005 144.37 273.054 144.365 273.105C144.254 274.04 143.447 274.775 142.47 274.775H60.6445C60.3549 274.775 60.0702 274.788 59.7873 274.813C56.2735 274.875 53.0718 276.856 51.4463 279.982C51.4081 280.056 51.3696 280.129 51.335 280.205Z" fill="#3554AD"/>
<path d="M59.9635 294.01H142.47V274.81H59.9635C56.3823 274.81 53.0983 276.804 51.4461 279.981C50.0023 282.758 50.0023 286.064 51.4461 288.84C53.0983 292.018 56.3823 294.01 59.9635 294.01Z" fill="white"/>
<path d="M142.47 280.613H60.995C60.6413 280.613 60.3545 280.327 60.3545 279.973C60.3545 279.619 60.6413 279.333 60.995 279.333H142.47V280.613Z" fill="#D0CECC"/>
<path d="M142.47 285.051H60.995C60.6413 285.051 60.3545 284.764 60.3545 284.41C60.3545 284.057 60.6413 283.77 60.995 283.77H142.47V285.051Z" fill="#D0CECC"/>
<path d="M142.47 289.488H60.995C60.6413 289.488 60.3545 289.201 60.3545 288.847C60.3545 288.493 60.6413 288.207 60.995 288.207H142.47V289.488Z" fill="#D0CECC"/>
<path d="M59.9635 267.192H142.47V247.992H59.9635C56.3823 247.992 53.0983 249.985 51.4461 253.163C50.0023 255.939 50.0023 259.245 51.4461 262.021C53.0983 265.199 56.3823 267.192 59.9635 267.192Z" fill="white"/>
<path d="M29.4095 240.774C30.4066 244.432 39.0178 254.135 45.2426 260.807L45.4151 260.987C45.5016 261.081 45.5878 261.168 45.6666 261.254C47.5975 263.319 49.2616 265.054 50.3608 266.184L50.4231 266.246C51.075 266.922 51.5145 267.369 51.6638 267.526L51.7183 267.581L51.7264 267.589C54.0032 269.63 56.978 270.894 60.2355 270.988L60.4318 271.004H142.47C143.521 271.004 144.377 270.148 144.377 269.096C144.377 268.052 143.521 267.189 142.47 267.189H60.6438C56.5462 267.189 53.0453 264.614 51.6638 260.987C51.2632 259.935 51.0436 258.79 51.0436 257.588C51.0436 256.647 51.177 255.735 51.436 254.88L51.4438 254.857C52.6212 250.893 56.3029 247.988 60.6438 247.988H142.47C143.498 247.988 144.338 247.172 144.377 246.167V246.088C144.377 245.476 144.079 244.935 143.631 244.582L143.624 244.573C143.451 244.448 143.262 244.346 143.058 244.275L143.035 244.268L109.289 226.26H40.3443C40.3443 226.26 25.9322 227.964 29.4095 240.774Z" fill="#EE2B37"/>
<path d="M51.0676 256.411L51.0598 256.333C51.052 256.145 51.0439 255.956 51.0439 255.767C51.0439 250.477 55.3534 246.167 60.6441 246.167H144.377C144.338 247.172 143.498 247.988 142.47 247.988H60.6441C56.3033 247.988 52.6215 250.893 51.4442 254.857L51.4364 254.88C51.2636 255.343 51.138 255.854 51.0676 256.411Z" fill="#C42B2F"/>
<path d="M142.47 253.795H60.995C60.6413 253.795 60.3545 253.508 60.3545 253.154C60.3545 252.801 60.6413 252.515 60.995 252.515H142.47V253.795Z" fill="#D0CECC"/>
<path d="M142.47 258.233H60.995C60.6413 258.233 60.3545 257.946 60.3545 257.592C60.3545 257.238 60.6413 256.952 60.995 256.952H142.47V258.233Z" fill="#D0CECC"/>
<path d="M142.47 262.67H60.995C60.6413 262.67 60.3545 262.383 60.3545 262.029C60.3545 261.676 60.6413 261.389 60.995 261.389H142.47V262.67Z" fill="#D0CECC"/>
<path d="M48.127 197.376V237.373C74.4172 245.217 100.658 245.246 126.852 237.373V197.376H48.127Z" fill="#3550AA"/>
<path d="M89.1743 208.236L15.6025 192.832L89.1743 172.98L159.594 192.832L89.1743 208.236Z" fill="#3A60B5"/>
<path d="M131.165 245.443C130.733 245.443 130.383 245.093 130.383 244.66V199.685L87.3289 190.671C86.9064 190.583 86.6352 190.169 86.7238 189.746C86.8124 189.324 87.2265 189.054 87.649 189.141L131.325 198.286C131.688 198.362 131.947 198.681 131.947 199.051V244.66C131.947 245.093 131.597 245.443 131.165 245.443Z" fill="#F4A71B"/>
<path d="M94.7174 189.906C94.7174 191.249 91.6469 192.338 87.8582 192.338C84.0703 192.338 80.999 191.249 80.999 189.906C80.999 188.564 84.0703 187.475 87.8582 187.475C91.6469 187.475 94.7174 188.564 94.7174 189.906Z" fill="#3550AA"/>
<path d="M136.911 260.099C136.447 260.315 135.983 260.506 135.52 260.668C135.202 260.781 134.884 260.881 134.566 260.966C133.814 261.177 133.063 261.318 132.311 261.391C131.993 261.422 131.673 261.441 131.355 261.448C130.368 261.466 129.378 261.37 128.391 261.157C128.049 261.083 127.711 260.998 127.372 260.893C126.677 260.688 125.981 260.422 125.286 260.099C124.986 259.962 124.833 259.619 124.937 259.305L129.477 245.463C129.99 243.897 132.204 243.897 132.717 245.463L137.26 259.305C137.364 259.619 137.21 259.962 136.911 260.099Z" fill="#F4A71B"/>
<path d="M128.39 261.157C128.049 261.083 127.711 260.998 127.372 260.893L128.167 257.674L128.39 261.157Z" fill="#F6841C"/>
<path d="M135.519 260.668C135.201 260.781 134.884 260.881 134.566 260.966L133.767 253.918L135.519 260.668Z" fill="#F6841C"/>
<path d="M132.31 261.391C131.992 261.422 131.672 261.441 131.354 261.448L131.575 257.195L132.31 261.391Z" fill="#F6841C"/>
<path d="M133.615 245.214C133.615 246.604 132.489 247.732 131.097 247.732C129.707 247.732 128.579 246.604 128.579 245.214C128.579 243.824 129.707 242.696 131.097 242.696C132.489 242.696 133.615 243.824 133.615 245.214Z" fill="#F6841C"/>
<path d="M257.608 299.391C257.608 299.391 259.064 304.634 260.412 305.761C261.76 306.887 265.987 312.415 270.107 313.283C274.226 314.149 275.852 309.793 270.758 305.613C266.696 302.28 263.176 296.991 263.176 296.991C263.176 296.991 261.26 299.049 257.608 299.391Z" fill="white"/>
<path d="M227.089 202.464C227.089 202.464 237.061 214.367 241.249 216.323C243.087 217.182 244.904 217.484 246.245 217.532C246.693 217.548 247.866 217.453 247.93 217.452L247.939 217.453C252.915 216.836 258.764 215.339 266.08 212.359L264.99 208.97C264.99 208.97 260.593 209.904 255.206 210.289C253.219 210.429 248.637 210.639 246.943 210.912C246.523 210.724 246.109 210.52 245.706 210.3C238.271 206.287 233.363 198.115 233.363 198.115C231.01 198.998 228.308 200.649 227.089 202.464Z" fill="#C32138"/>
<path d="M264.805 208.701C264.805 208.701 265.825 206.128 267.211 205.393C268.596 204.659 272.541 202.073 273.383 202.847C274.226 203.621 274.051 207.337 270.515 210.442C268.262 212.421 265.992 212.337 265.992 212.337L264.805 208.701Z" fill="#F79971"/>
<path d="M273.636 205.211L267.813 210.651C267.594 210.856 267.198 210.915 266.929 210.784L263.36 209.059C263.249 209.004 263.177 208.927 263.146 208.84L263.138 208.811L262.962 208.214L263.909 207.856L273.07 204.376L273.566 204.19L273.753 204.819L273.767 204.863L273.769 204.878C273.79 204.99 273.746 205.11 273.636 205.211Z" fill="#212133"/>
<path d="M266.751 210.179L263.181 208.454C262.911 208.323 262.87 208.052 263.088 207.849L268.912 202.409C269.13 202.205 269.525 202.144 269.794 202.275L273.364 204.002C273.633 204.132 273.675 204.402 273.457 204.607L267.634 210.047C267.414 210.25 267.02 210.309 266.751 210.179Z" fill="#2D3951"/>
<path d="M267.508 209.274C267.393 209.274 267.281 209.251 267.184 209.205L264.418 207.868C264.149 207.737 264.107 207.466 264.326 207.263L268.854 203.031C268.995 202.901 269.208 202.829 269.414 202.829C269.528 202.829 269.641 202.851 269.738 202.898L272.503 204.236C272.772 204.365 272.813 204.637 272.596 204.841L268.067 209.071C267.926 209.202 267.714 209.274 267.508 209.274Z" fill="#495F74"/>
<path d="M267.111 204.091C267.111 204.091 267.941 204.221 268.025 204.934C268.11 205.647 267.338 205.363 266.842 205.207C266.346 205.05 265.899 205.207 265.831 205.287C265.614 205.543 265.651 203.879 267.111 204.091Z" fill="#F79971"/>
<path d="M270.819 207.964C270.819 207.964 272.121 205.825 273.118 204.656C273.783 203.878 274.122 205.007 273.667 205.794C273.212 206.582 272.315 208.185 270.819 207.964Z" fill="#F79971"/>
<path d="M227.762 245.007C227.762 245.007 241.243 219.812 249.892 222.641C255.658 224.527 269.56 252.375 269.56 252.375C268.289 254.201 265.535 254.159 263.344 252.696C263.344 252.696 253.026 244.067 249.366 234.292C249.366 234.292 238.401 259.735 223.835 259.735C222.887 259.735 225.386 247.544 227.762 245.007Z" fill="#3550AA"/>
<path d="M263.344 252.696C263.344 252.696 262.983 253.198 262.981 254.238C262.98 255.278 263.075 258.866 263.075 258.866L280.591 258.896C280.591 258.896 280.659 256.168 278.443 254.709C276.227 253.249 272.815 254.669 269.56 252.375C269.56 252.375 268.687 253.171 263.344 252.696Z" fill="white"/>
<path d="M220.088 190.134C220.088 190.134 213.805 190.165 210.94 192.755C208.075 195.346 210.81 200.607 213.917 201.281C217.025 201.956 226.728 200.805 227.737 199.142C228.746 197.479 228.106 190.261 220.088 190.134Z" fill="#EE2B37"/>
<path d="M210.179 246.529L207.124 226.831L207.786 199.658L215.095 197.187L215.488 197.053L217.128 196.498L218.43 196.058L226.146 197.122L227.402 197.294L227.844 197.355L233.364 198.115C233.417 215.579 231.74 219.351 234.968 233.557C234.154 240.494 230.632 257.893 210.179 246.529Z" fill="#EE2B37"/>
<path d="M220.614 201.358C215.084 201.337 213.802 196.464 213.789 196.415C213.762 196.305 213.828 196.195 213.938 196.168C214.046 196.14 214.158 196.206 214.185 196.316C214.233 196.505 215.411 200.93 220.613 200.949H220.699C220.809 200.954 220.904 201.04 220.905 201.152C220.905 201.265 220.814 201.357 220.701 201.358H220.614Z" fill="#C32138"/>
<path d="M225.808 200.594C225.696 200.594 225.606 200.504 225.605 200.393C225.602 200.28 225.692 200.188 225.805 200.186C225.877 200.184 227.485 200.12 227.9 197.947C227.921 197.836 228.027 197.764 228.139 197.784C228.25 197.806 228.322 197.913 228.301 198.023C227.82 200.535 225.831 200.594 225.811 200.594H225.808Z" fill="#C32138"/>
<path d="M216.881 228.162C216.881 228.162 215.982 235.016 217.811 238.371C217.811 238.371 226.904 239.007 233.515 236.409C233.515 236.409 231.863 231.624 231.838 226.952L216.881 228.162Z" fill="#C32138"/>
<path d="M221.736 220.907L221.718 220.906C221.607 220.896 221.523 220.797 221.534 220.684C221.991 215.602 220.086 202.772 220.068 202.643C220.05 202.532 220.128 202.428 220.239 202.412C220.351 202.395 220.455 202.472 220.471 202.583C220.49 202.712 222.402 215.591 221.94 220.721C221.93 220.827 221.84 220.908 221.736 220.907Z" fill="white"/>
<path d="M228.461 219.912L228.444 219.91C228.331 219.901 228.248 219.801 228.259 219.69C228.716 214.607 226.748 201.677 226.728 201.547C226.711 201.435 226.787 201.331 226.898 201.314C227.01 201.297 227.114 201.374 227.131 201.485C227.151 201.616 229.126 214.595 228.665 219.726C228.656 219.832 228.566 219.912 228.461 219.912Z" fill="white"/>
<path d="M236.756 178.603C236.756 178.603 238.298 180.33 236.743 183.5C235.187 186.669 233.799 186.683 233.799 186.683C233.799 186.683 233.8 178.754 236.756 178.603Z" fill="#212133"/>
<path d="M225.26 192.583L223.777 196.709L223.097 198.6C220.148 199.669 216.95 196.039 216.95 196.039L218.564 189.363C219.907 188.943 222.419 190.758 224.008 191.753C224.757 192.224 225.26 192.583 225.26 192.583Z" fill="#F79971"/>
<path d="M225.26 192.583L223.409 197.733C220.076 196.169 219.927 190.568 219.927 190.568L224.008 191.753C224.757 192.224 225.26 192.583 225.26 192.583Z" fill="#EE7653"/>
<path d="M236.144 184.165C236.103 184.31 236.062 184.456 236.017 184.604C235.63 185.905 235.115 187.317 234.556 188.719C234.438 189.013 234.318 189.306 234.197 189.597C234.092 189.848 233.989 190.098 233.882 190.348C233.662 190.862 233.441 191.371 233.222 191.863C233.069 192.204 232.92 192.538 232.772 192.862C232.667 193.089 232.549 193.305 232.419 193.508C232.009 194.148 231.473 194.674 230.863 195.067C229.382 196.021 227.45 196.202 225.748 195.362C224.356 194.676 222.828 193.881 221.423 193.057C221.354 193.018 221.286 192.979 221.217 192.937C220.093 192.273 219.057 191.591 218.24 190.934C218.166 190.73 218.096 190.524 218.032 190.318C217.474 188.514 217.356 186.625 217.489 184.737C217.543 183.983 217.635 183.229 217.757 182.481L217.773 182.303C218.748 178.635 219.912 175.093 219.912 175.093C225.248 171.168 235.927 176.078 236.664 180.178C236.833 181.115 236.601 182.536 236.144 184.165Z" fill="#F79971"/>
<path d="M218.032 190.318C217.474 188.514 217.357 186.625 217.491 184.736C218.023 184.884 218.677 185.231 219.474 185.891C219.474 185.891 218.977 188.595 218.032 190.318Z" fill="#212133"/>
<path d="M218.189 180.782C218.189 180.782 220.285 180.09 221.242 182.567L222.412 182.877C222.412 182.877 222.983 180.453 223.897 179.299C224.812 178.144 227.046 178.771 227.788 177.321C227.788 177.321 232.739 181.799 236.696 180.412C241.124 178.86 230.701 170.286 224.321 171.581C219.316 172.598 218.423 176.459 218.189 180.782Z" fill="#212133"/>
<path d="M221.242 182.567C221.242 182.567 220.023 179.92 218.189 180.782C216.168 181.73 216.19 186.769 219.578 187.552L221.242 182.567Z" fill="#F79971"/>
<path d="M231.408 172.98C231.408 172.98 234.647 174.423 237.937 173.934C241.463 173.409 241.544 180.028 237.394 180.192C233.243 180.355 231.408 172.98 231.408 172.98Z" fill="#212133"/>
<path d="M228.735 249.811C228.735 249.811 244.751 255.117 251.32 261.413C257.89 267.709 263.176 296.991 263.176 296.991C262.281 299.027 260.268 299.626 257.608 299.391C257.608 299.391 248.549 283.025 244.777 269.888C244.777 269.888 201.31 261.814 210.179 246.529C210.938 245.222 222.582 248.084 228.735 249.811Z" fill="#3A60B5"/>
<path d="M202.279 253.407C202.279 253.407 204.544 256.476 204.357 258.065C204.17 259.653 202.12 262.646 200.481 262.792C198.843 262.935 202.364 258.945 201.533 259.074C200.528 259.229 193.736 264.801 192.304 264.801C190.871 264.801 193.99 262.211 195.205 261.557C195.205 261.557 191.992 262.993 191.244 263.741C190.497 264.488 189.954 262.886 193.692 260.611C193.692 260.611 190.263 262.557 190.029 262.588C189.267 262.69 191.443 260.139 193.316 259.217C193.316 259.217 190.568 260.555 190.288 260.561C189.902 260.569 190.731 259.67 192.771 258.538C194.607 257.521 197.613 252.851 197.613 252.851L202.279 253.407Z" fill="#F79971"/>
<path d="M207.786 199.658C207.786 199.658 200.166 214.294 198.431 229.604L197.612 252.851C197.612 252.851 198.396 254.508 202.279 253.407L204.993 231.827L207.952 219.783C207.952 219.783 210.221 206.439 207.786 199.658Z" fill="#C32138"/>
<path d="M216.686 333.343C216.686 339.585 196.814 344.645 172.301 344.645C147.788 344.645 127.916 339.585 127.916 333.343C127.916 327.101 147.788 322.041 172.301 322.041C196.814 322.041 216.686 327.101 216.686 333.343Z" fill="#ADB0AE"/>
<path d="M136.003 275.056C142.213 276.909 147.568 277.981 155.655 276.298C156.662 272.301 160.737 259.47 161.36 253.413C161.509 251.963 161.119 249.046 160.698 247.683C159.703 244.455 156.768 240.791 150.024 240.546C142.065 240.257 137.621 247.867 137.82 256.404C137.938 261.442 136.439 272.032 136.003 275.056Z" fill="#212133"/>
<path d="M174.112 308.075C160.882 290.289 155.521 270.532 155.521 270.532L155.54 287.703C155.54 287.703 166.825 306.603 170.753 310.813C172.319 310.813 174.112 310.109 174.112 308.075Z" fill="#F6841C"/>
<path d="M150.242 313.674C150.242 313.674 168.779 305.424 177.194 307.466C185.608 309.509 204.179 328.684 204.179 328.684C204.416 330.788 203.045 332.242 200.743 333.319C200.743 333.319 185.468 324.18 176.086 315.172C176.086 315.172 159.996 323.906 151.13 321.115C150.271 320.844 147.982 316.088 150.242 313.674Z" fill="#3550AA"/>
<path d="M200.571 333.29C200.571 333.29 200.729 333.857 201.502 334.477C202.274 335.095 204.997 337.156 204.997 337.156L215.426 324.153C215.426 324.153 213.439 322.482 211.037 323.262C208.635 324.042 207.664 327.422 204.025 328.479C204.025 328.479 204.098 329.601 200.571 333.29Z" fill="#E0DDDB"/>
<path d="M150.412 265.681L150.062 267.648L149.666 269.873L149.327 271.796C148.195 272.437 146.88 272.267 145.748 271.863C144.223 271.32 143.021 270.35 143.021 270.35L143.034 270.195L143.093 269.466L143.493 264.556L143.575 263.527C144.189 263.213 145.156 263.439 146.178 263.829C147.182 264.208 148.242 264.751 149.076 265.093C149.869 265.42 150.412 265.681 150.412 265.681Z" fill="#F79971"/>
<path d="M150.411 265.683L149.666 269.874C146.89 268.871 144.976 264.627 144.976 264.627L149.076 265.093C149.87 265.42 150.411 265.683 150.411 265.683Z" fill="#EE7653"/>
<path d="M154.903 267.489C153.269 268.002 151.616 267.975 150.063 267.649C148.579 267.339 147.186 266.76 145.974 266.113C145.017 265.602 144.173 265.048 143.492 264.555C142.94 264.158 142.492 263.795 142.177 263.53C141.836 263.241 141.65 263.06 141.65 263.06C141.65 263.06 141.582 262.005 141.603 260.472C141.626 258.844 141.744 256.676 142.144 254.672C142.625 252.272 143.505 250.103 145.106 249.364L147.721 249.388L160.104 249.502C160.104 249.502 160.12 249.689 160.139 250.024C160.181 250.753 160.238 252.19 160.195 253.943C160.193 254.074 160.188 254.205 160.184 254.342C160.026 259.211 159.056 266.188 154.903 267.489Z" fill="#F79971"/>
<path d="M143.055 265.589C142.714 265.299 141.649 263.06 141.649 263.06C141.649 263.06 141.581 262.005 141.603 260.472L142.717 261.095C142.717 261.095 144.252 264.702 143.055 265.589Z" fill="#212133"/>
<path d="M144.218 256.188C144.218 256.188 142.698 253.674 140.966 255.058C139.059 256.582 139.915 261.944 143.72 261.914L144.218 256.188Z" fill="#F79971"/>
<path d="M160.138 250.024C160.101 251.623 157.299 253.222 147.065 253.315C147.065 253.315 147.062 258.03 145.047 257.602C144.568 257.499 144.095 254.8 142.144 254.67C142.623 252.271 143.505 250.103 145.106 249.364L160.104 249.502C160.104 249.502 160.12 249.689 160.138 250.024Z" fill="#212133"/>
<path d="M148.056 249.93C148.056 249.93 146.848 256.985 146.178 263.829C146.102 264.595 146.033 265.361 145.975 266.113C145.839 267.846 144.534 269.82 143.035 270.195L143.493 264.556C142.941 264.158 142.492 263.795 142.177 263.53C141.836 263.24 141.649 263.06 141.649 263.06C141.649 263.06 141.583 262.005 141.604 260.471C141.624 258.843 141.743 256.677 142.144 254.671C142.624 252.272 143.506 250.104 145.107 249.365L147.722 249.388C148.007 249.646 148.056 249.93 148.056 249.93Z" fill="#212133"/>
<path d="M135.03 315.097C135.03 315.097 158.177 313.131 166.758 314.293C175.338 315.454 195.791 332.609 195.791 332.609C196.244 334.676 195.03 336.264 192.853 337.574C192.853 337.574 176.716 330.063 166.454 322.072C166.454 322.072 148.711 331.191 139.476 330.137C132.21 329.308 133.086 318.126 135.03 315.097Z" fill="#3A60B5"/>
<path d="M192.68 337.562C192.68 337.562 192.896 338.111 193.728 338.646C194.56 339.182 197.481 340.95 197.481 340.95L206.51 326.939C206.51 326.939 204.361 325.482 202.053 326.506C199.745 327.531 199.129 330.993 195.618 332.419C195.618 332.419 195.806 333.529 192.68 337.562Z" fill="white"/>
<path d="M154.963 299.154C154.615 305.207 155.731 308.717 157.462 313.918C147.233 317.548 142.555 318.947 134.09 317.576C133.792 312.601 132.959 303.941 133.102 298.727C133.536 283.224 135.296 273.271 135.296 273.271L139.554 271.625L143.915 269.939L151.315 270.315L152.872 270.395L155.52 270.532C155.52 270.532 155.859 278.083 158.201 284.566C160.107 289.836 157.921 290.895 156.727 292.151L156.592 292.297C156.423 292.492 156.284 292.691 156.187 292.918C156.157 292.986 156.128 293.06 156.099 293.138C156.026 293.335 155.954 293.559 155.889 293.798C155.312 295.849 154.963 299.154 154.963 299.154Z" fill="#F4A71B"/>
<path d="M156.726 292.151L156.592 292.297C156.422 292.492 156.283 292.691 156.186 292.918C156.156 292.986 156.127 293.06 156.098 293.138C154.246 293.944 150.321 295.31 145.042 295.31C144.805 295.31 144.563 295.308 144.319 295.302C144.145 295.298 144.009 295.155 144.012 294.981C144.016 294.81 144.156 294.676 144.325 294.676H144.333C150.953 294.832 155.641 292.695 156.726 292.151Z" fill="#F6841C"/>
<path d="M151.315 270.315C151.029 273.108 151.071 277.787 147.554 277.879C143.326 277.988 140.495 273.413 139.553 271.626L143.914 269.939L151.315 270.315Z" fill="#F79971"/>
<path d="M166.261 310.187C160.831 307.161 149.227 300.405 149.227 300.405C149.227 300.405 142.744 292.355 135.296 273.271C135.296 273.271 131.524 276.638 133.727 286.812C135.929 296.984 145.331 306.384 145.331 306.384C145.331 306.384 158.023 312.694 163.65 313.112L166.261 310.187Z" fill="#F6841C"/>
<path d="M188.615 313.053L151.667 316.751C150.854 316.831 150.129 316.239 150.048 315.425L150.041 315.353C149.959 314.539 150.553 313.815 151.366 313.734L188.313 310.037C189.127 309.955 189.852 310.549 189.933 311.362L189.941 311.435C190.022 312.247 189.429 312.972 188.615 313.053Z" fill="#E0DDDB"/>
<path d="M190.088 312.906L157.451 316.063L165.59 297.365L198.227 294.208L190.088 312.906Z" fill="white"/>
<path d="M188.058 313.103L188.056 313.109L155.42 316.266L163.557 297.567L165.587 297.371L157.451 316.063L188.058 313.103Z" fill="#E0DDDB"/>
<path d="M178.248 307.183C177.187 307.183 176.279 306.38 176.172 305.302C176.056 304.154 176.894 303.131 178.042 303.015C178.113 303.008 178.183 303.005 178.253 303.005C179.313 303.005 180.221 303.809 180.329 304.886C180.444 306.034 179.606 307.058 178.458 307.173C178.387 307.18 178.317 307.183 178.248 307.183Z" fill="#8598A2"/>
<path d="M127.345 94.8804L128.713 55.0721C128.713 55.0721 125.215 54.1401 120.803 53.658C120.521 53.6274 120.237 53.5992 119.947 53.5732C117.19 53.3173 114.157 53.2645 111.432 53.7275L111.02 53.797L102.263 55.2884L103.191 94.8804H127.345Z" fill="#EE2B37"/>
<path d="M118.789 47.6942V53.6618C118.681 53.7092 118.573 53.7558 118.464 53.7978C116.36 54.6382 114.265 54.6023 112.184 53.6618V47.6942H118.789Z" fill="#F79971"/>
<path d="M118.789 49.1405V53.6618C118.681 53.7092 118.573 53.7558 118.464 53.7979C116.001 53.535 113.679 52.2843 112.184 51.2965V49.1405H118.789Z" fill="#EE7653"/>
<path d="M108.073 37.9486C108.073 37.9486 107.346 36.2388 105.893 35.8965C104.439 35.5542 104.481 39.1894 105.379 41.8397C106.277 44.4907 108.544 43.4647 108.544 43.4647L108.073 37.9486Z" fill="#EE7653"/>
<path d="M122.875 37.9486C122.875 37.9486 123.601 36.2388 125.055 35.8965C126.509 35.5542 126.466 39.1894 125.568 41.8397C124.67 44.4907 122.404 43.4647 122.404 43.4647L122.875 37.9486Z" fill="#EE7653"/>
<path d="M115.46 50.3583C111.05 50.3583 107.475 45.6215 107.475 41.4501V32.0154H123.445V41.4501C123.445 45.6215 119.87 50.3583 115.46 50.3583Z" fill="#F79971"/>
<path d="M107.475 38.8784C107.475 38.8784 104.746 34.7734 106.645 32.0154C106.645 32.0154 105.48 29.66 106.645 27.4154C107.81 25.17 112.734 22.5876 119.597 23.9346C126.459 25.2815 125.163 30.3484 124.304 31.7587C124.304 31.7587 126.011 34.9018 123.445 38.8784C123.445 38.8784 121.942 36.8263 122.405 32.4647C122.405 32.4647 114.765 34.6451 108.544 32.0154C108.544 32.0154 109.399 37.0823 107.475 38.8784Z" fill="#212133"/>
<path d="M102.263 55.2815C102.263 55.2815 95.9936 64.1867 93.6084 71.7174C93.6084 71.7174 96.8707 75.5894 99.0679 76.4153L103.067 65.8484C103.067 65.8484 105.017 59.6829 102.263 55.2815Z" fill="#C32138"/>
<path d="M99.0677 76.4153C99.0677 76.4153 102.025 81.3874 107.605 90.0404L104.497 92.2744L94.2369 80.7976C92.7738 79.5309 91.9938 77.4864 92.4636 75.6092L93.6081 71.7174C93.6081 71.7174 97.749 73.2668 99.0677 76.4153Z" fill="#C32138"/>
<path d="M128.714 55.0706C128.714 55.0706 134.983 63.9751 137.368 71.5066C137.368 71.5066 134.106 75.3778 131.909 76.2036L127.894 65.8484C127.894 65.8484 125.96 59.472 128.714 55.0706Z" fill="#C32138"/>
<path d="M131.909 76.2037C131.909 76.2037 128.952 81.1765 123.372 89.8288L126.479 92.0635L136.741 80.5867C138.204 79.3193 138.984 77.2755 138.513 75.3984L137.369 71.5066C137.369 71.5066 133.228 73.0552 131.909 76.2037Z" fill="#C32138"/>
<path d="M115.49 103.753C115.391 102.784 115.562 101.806 115.737 100.848C116.361 97.4375 118.361 90.4981 124.244 91.314C132.008 92.3897 129.572 107.149 129.572 107.149L125.003 143.43C123.272 143.68 121.387 143.648 119.402 143.43C119.402 143.43 117.384 122.342 115.49 103.753Z" fill="#F6841C"/>
<path d="M92.1611 91.2476C92.1611 91.2476 99.4275 102.055 107.479 106.275C116.086 110.784 119.947 102.408 119.947 102.408C119.947 102.408 100.785 88.8204 92.1611 91.2476Z" fill="#F6841C"/>
<path d="M127.234 87.5154C127.234 87.5154 127.74 94.3815 125.668 96.3587C123.597 98.3352 110.982 98.4292 106.745 97.1113C102.508 95.7934 103.259 87.1678 103.259 87.1678L127.234 87.5154Z" fill="#F4A71B"/>
<path d="M130.069 89.0923H100.373L97.6306 73.0605C97.3938 71.6715 98.4626 70.4033 99.8714 70.4033H130.541C131.949 70.4033 133.018 71.6715 132.781 73.0605L130.069 89.0923Z" fill="white"/>
<path d="M127.669 92.5793H102.773C101.447 92.5793 100.373 91.5051 100.373 90.1795V89.0923H130.07V90.1795C130.07 91.5051 128.995 92.5793 127.669 92.5793Z" fill="#E0DDDB"/>
<path d="M115.507 82.9864C114.083 82.9864 112.93 81.8328 112.93 80.4094C112.93 78.9861 114.083 77.8325 115.507 77.8325C116.93 77.8325 118.084 78.9861 118.084 80.4094C118.084 81.8328 116.93 82.9864 115.507 82.9864Z" fill="#8598A2"/>
<path d="M144.51 107.476C142.95 109.014 140.973 109.017 139.075 107.858C138.271 107.367 137.072 106.71 135.953 106.113C134.43 105.3 133.06 104.604 133.06 104.604L134.818 100.584C134.818 100.584 135.899 100.613 137.427 100.576H137.429C138.706 100.545 140.295 100.468 141.826 100.288C145.194 99.8907 146.763 99.058 147.179 100.365C147.595 101.672 146.074 105.936 144.51 107.476Z" fill="#2D3951"/>
<path d="M102.559 82.9971C102.559 82.9971 96.732 79.4888 91.8065 82.91C86.8802 86.3297 92.0915 92.7732 97.4769 94.959C102.863 97.1441 134.637 105.944 134.637 105.944C135.196 104.796 135.671 102.685 136.137 100.492C136.137 100.492 126.678 95.1271 121.363 91.7052C109.257 83.9124 102.559 82.9971 102.559 82.9971Z" fill="#F4A71B"/>
<path d="M125.003 143.43C125.003 143.43 128.273 148.48 130.266 152.842C132.26 157.203 130.317 158.538 127.45 158.345C122.679 158.024 118.942 146.759 118.942 146.759L119.389 143.43C119.389 143.43 120.463 143.545 125.003 143.43Z" fill="#2D3951"/>
<path d="M266.428 72.5265C268.03 69.8349 270.669 66.9241 269.522 63.7863C269.478 63.6656 269.434 63.5457 269.391 63.4257C266.234 54.6733 258.724 48.6912 250.75 52.1177C243.995 55.0217 242.456 59.8991 242.715 63.5701C242.826 65.121 243.793 67.8989 244.631 69.2466C245.302 70.3262 245.955 71.3667 246.589 72.3714C248.523 75.435 251.511 77.4818 254.816 78.2901C258.976 76.9691 262.805 74.9232 266.428 72.5265Z" fill="#212133"/>
<path d="M268.738 50.3583C268.738 54.8223 265.12 58.4406 260.656 58.4406C256.193 58.4406 252.575 54.8223 252.575 50.3583C252.575 45.8958 256.193 42.2767 260.656 42.2767C265.12 42.2767 268.738 45.8958 268.738 50.3583Z" fill="#212133"/>
<path d="M225.349 94.0018C225.349 94.0018 233.433 103.907 251.336 106.049L251.339 106.043V106.041C254.174 102.879 257.327 95.4618 259.426 89.3001C260.212 86.9982 260.257 85.652 259.583 84.2287C258.921 82.8336 257.753 81.7365 256.341 81.1131C256.02 80.9718 255.712 80.9664 255.426 81.5608C254.777 82.907 254.131 84.4938 253.394 86.0432C251.158 90.7426 249.399 95.0844 248.32 97.8944H248.318C248.217 97.8501 243.947 96.0516 237.935 95.3678C231.97 94.6902 227.139 90.8251 227.139 90.8251L225.349 94.0018Z" fill="#3550AA"/>
<path d="M259.332 106.088C259.404 102.515 259.567 104.813 258.942 100.48C258.923 100.31 258.902 100.137 258.88 99.9648C258.822 99.8663 258.769 99.77 258.717 99.673C257.761 97.9792 257.251 96.999 256.92 95.7667C255.882 91.8718 256.66 89.3995 256.942 86.9509C256.714 85.8209 255.919 81.9994 255.666 80.8733L260.658 78.948L261.698 78.5469L261.76 78.5232V78.5209L262.824 78.1122L262.905 78.0816C265.313 77.1533 267.889 76.7522 270.459 76.9104C270.629 76.9218 270.794 76.9325 270.964 76.9494L272.872 77.119L272.945 77.1251L274.169 77.2343L281.261 77.8646L283.343 106.088C275.329 106.088 266.867 106.088 259.332 106.088Z" fill="#3A60B5"/>
<path d="M274.168 77.2335C271.853 81.9 266.183 87.1143 263.278 85.5053C261.492 84.5175 260.762 81.2728 260.656 78.9472L261.697 78.5476L261.76 78.5239V78.5216L262.824 78.1121L262.904 78.0808C265.313 77.1525 267.89 76.7529 270.46 76.9111C270.547 76.9233 270.636 76.9348 270.723 76.947C270.804 76.9569 270.884 76.9669 270.963 76.976L272.872 77.1189L272.945 77.125L274.168 77.2335Z" fill="#F79971"/>
<path d="M258.88 99.9648C258.9 100.137 258.924 100.309 258.943 100.479C260.172 100.742 264.034 101.284 270.597 99.7127C271.448 99.5087 272.345 99.2688 273.288 98.9876C273.481 98.9319 273.591 98.7279 273.533 98.5346C273.475 98.3436 273.272 98.232 273.081 98.2901C263.613 101.102 258.779 99.6913 258.731 99.6775L258.718 99.6737C258.77 99.7684 258.823 99.8655 258.88 99.9648Z" fill="#C32138"/>
<path d="M260.484 75.5909L261.639 77.4367L262.943 79.5247L264.07 81.3278C265.473 81.5172 266.732 80.8113 267.714 79.9403C269.034 78.7707 269.852 77.3023 269.852 77.3023L267.02 71.6372L266.517 70.6302C265.768 70.5622 264.884 71.1834 264.01 71.9932C263.15 72.787 262.299 73.7657 261.594 74.4518C260.925 75.1042 260.484 75.5909 260.484 75.5909Z" fill="#F79971"/>
<path d="M260.485 75.5901L262.944 79.5247C265.341 77.381 265.548 72.3126 265.548 72.3126L261.595 74.4518C260.925 75.1058 260.485 75.5901 260.485 75.5901Z" fill="#EE7653"/>
<path d="M268.275 69.3766C268.275 69.3766 268.158 69.6333 267.931 70.0642C267.721 70.4615 267.415 71.0077 267.02 71.6365V71.6388C266.53 72.412 265.902 73.315 265.146 74.2211L265.144 74.2227C264.181 75.3687 263.011 76.5208 261.639 77.4368C260.199 78.3979 258.541 79.097 256.679 79.2444C251.952 79.6203 248.136 72.9636 245.993 68.1069C245.931 67.9693 245.874 67.8356 245.817 67.7019C245.06 65.9501 244.537 64.4778 244.281 63.7238C244.165 63.3762 244.105 63.1791 244.105 63.1791L256.575 58.0281L259.207 56.9387C260.766 57.0174 262.229 58.2413 263.507 59.8938C263.604 60.0199 263.702 60.1498 263.798 60.2812L263.941 60.4821C264.082 60.683 264.222 60.887 264.359 61.0971C264.435 61.214 264.512 61.3317 264.586 61.4501C264.81 61.8061 265.026 62.169 265.234 62.535C266.063 64.0003 266.754 65.513 267.268 66.7408C267.912 68.281 268.275 69.3766 268.275 69.3766Z" fill="#F79971"/>
<path d="M262.882 63.4754C262.882 63.4754 263.395 60.3147 265.708 61.0084C268.257 61.7732 269.572 67.5422 265.715 69.0587L262.882 63.4754Z" fill="#F79971"/>
<path d="M262.83 64.3861C263.533 66.5215 263.21 69.8579 263.21 69.8579C261.814 66.6995 260.356 64.4487 260.097 64.0538L260.074 64.0194L260.054 63.9926C259.327 62.9498 258.834 61.7289 258.834 61.7289C248.453 65.7995 244.972 65.3235 244.282 63.7237C244.166 63.3761 244.104 63.1805 244.104 63.1805L259.208 56.9386C261.126 57.0341 262.9 58.8685 264.36 61.0971C263.019 61.7427 262.919 63.3662 262.83 64.3861Z" fill="#212133"/>
<path d="M248.321 95.8461C248.321 95.8461 257.204 103.251 275.107 105.394L275.11 105.387V105.385C277.945 102.222 281.098 94.8055 283.198 88.6446C284.454 84.9599 283.714 80.8885 281.262 77.8646C280.502 78.4529 279.846 79.5584 279.197 80.9045C278.548 82.2515 277.902 83.8375 277.165 85.3877C274.929 90.087 273.172 94.4281 272.092 97.2381H272.09C271.988 97.1938 267.718 95.3953 261.707 94.7115C255.741 94.0346 250.025 92.1109 250.025 92.1109L248.321 95.8461Z" fill="#3550AA"/>
<path d="M250.025 92.1109C250.025 92.1109 245.254 87.9807 242.689 88.3115C240.125 88.6423 238.221 90.9611 238.055 92.7824C237.889 94.6038 240.231 94.3738 242.195 93.9292C244.159 93.4845 248.321 95.8461 248.321 95.8461C248.321 95.8461 249.741 94.3379 250.025 92.1109Z" fill="#F79971"/>
<path d="M221.725 83.4662L230.922 106C231.249 106.801 232.029 107.323 232.892 107.323H246.639C248.153 107.323 249.183 105.792 248.61 104.392L239.415 81.8588C239.089 81.0573 238.308 80.5355 237.445 80.5355H223.698C222.185 80.5355 221.155 82.0666 221.725 83.4662Z" fill="#E0DDDB"/>
<path d="M221.725 83.4662L230.922 106C231.249 106.801 232.029 107.323 232.892 107.323H244.079C245.59 107.323 246.622 105.792 246.048 104.392L236.854 81.8588C236.527 81.0573 235.746 80.5355 234.883 80.5355H223.698C222.185 80.5355 221.155 82.0666 221.725 83.4662Z" fill="white"/>
<path d="M233.876 96.9188C232.639 96.9188 231.251 95.9149 230.775 94.678C230.3 93.4403 230.919 92.4371 232.156 92.4371C233.394 92.4371 234.783 93.4403 235.258 94.678C235.732 95.9149 235.114 96.9188 233.876 96.9188Z" fill="#8598A2"/>
<path d="M224.064 92.2782C224.064 92.2782 223.034 89.9702 224.127 89.3529L225.057 91.6326C225.057 91.6326 227.079 89.8059 228.484 90.696C229.887 91.586 232.149 96.4405 231.442 97.7423C230.734 99.0442 226.813 100.192 225.416 98.569C224.018 96.9462 223.548 93.7588 224.064 92.2782Z" fill="#F79971"/>
<path d="M359.287 325.319C359.287 330.034 343.911 333.857 324.943 333.857C305.977 333.857 290.601 330.034 290.601 325.319C290.601 320.603 305.977 316.779 324.943 316.779C343.911 316.779 359.287 320.603 359.287 325.319Z" fill="#ADB0AE"/>
<path d="M290.601 246.975C290.601 246.975 308.797 244.973 322.729 244.973C336.661 244.973 359.287 246.975 359.287 246.975C359.287 246.975 344.529 254.42 324.943 254.42C305.359 254.42 290.601 246.975 290.601 246.975Z" fill="#3550AA"/>
<path d="M315.254 305.266L304.64 306.052L298.722 226.032L309.336 225.246L315.254 305.266Z" fill="#F4A71B"/>
<path d="M309.336 225.248L298.722 226.032L301.658 218.203L303.179 214.151L305.28 217.936L309.336 225.248Z" fill="#F79971"/>
<path d="M315.255 305.266L304.64 306.052L304.211 300.238L314.824 299.453L315.255 305.266Z" fill="#2D3951"/>
<path d="M314.682 309.969L305.897 310.618C305.392 310.655 304.952 310.276 304.915 309.771L304.64 306.051L315.254 305.266L315.529 308.987C315.566 309.492 315.187 309.931 314.682 309.969Z" fill="#EE2B37"/>
<path d="M305.28 217.936L301.658 218.203L303.179 214.151L305.28 217.936Z" fill="#2D3951"/>
<path d="M303.902 296.068L314.517 295.284L314.825 299.453L304.211 300.237L303.902 296.068Z" fill="#F6841C"/>
<path d="M301.653 229.78L306.035 289.037C306.068 289.485 306.457 289.822 306.905 289.789C307.354 289.755 307.689 289.366 307.656 288.918L303.274 229.66C303.24 229.212 302.851 228.875 302.402 228.909C301.955 228.942 301.619 229.332 301.653 229.78Z" fill="#F6841C"/>
<path d="M305.804 229.469L310.186 288.727C310.219 289.175 310.61 289.511 311.057 289.477C311.505 289.444 311.841 289.055 311.808 288.607L307.425 229.348C307.392 228.9 307.002 228.565 306.554 228.598C306.107 228.632 305.771 229.021 305.804 229.469Z" fill="#F6841C"/>
<path d="M322.393 219.722L333.008 220.494L327.181 300.522L316.566 299.748L322.393 219.722Z" fill="#F4A71B"/>
<path d="M316.566 299.747L327.182 300.52L323.134 307.837L321.038 311.623L319.512 307.573L316.566 299.747Z" fill="#F79971"/>
<path d="M322.394 219.722L333.009 220.494L332.586 226.309L321.971 225.536L322.394 219.722Z" fill="#2D3951"/>
<path d="M323.646 215.154L332.432 215.793C332.937 215.831 333.316 216.27 333.279 216.775L333.009 220.494L322.394 219.722L322.665 216.002C322.701 215.496 323.141 215.116 323.646 215.154Z" fill="#EE2B37"/>
<path d="M319.512 307.573L323.135 307.837L321.038 311.623L319.512 307.573Z" fill="#2D3951"/>
<path d="M332.282 230.479L321.666 229.706L321.97 225.536L332.585 226.309L332.282 230.479Z" fill="#F6841C"/>
<path d="M324.83 296.385L329.145 237.123C329.178 236.675 328.841 236.285 328.393 236.252C327.946 236.22 327.556 236.557 327.523 237.005L323.208 296.268C323.176 296.715 323.512 297.105 323.961 297.138C324.408 297.171 324.797 296.833 324.83 296.385Z" fill="#F6841C"/>
<path d="M320.677 296.087L324.993 236.824C325.026 236.376 324.689 235.987 324.241 235.955C323.793 235.922 323.404 236.258 323.372 236.706L319.056 295.97C319.023 296.417 319.361 296.806 319.808 296.839C320.256 296.871 320.645 296.535 320.677 296.087Z" fill="#F6841C"/>
<path d="M348.546 224.18L358.945 226.448L341.84 304.843L331.441 302.574L348.546 224.18Z" fill="#F4A71B"/>
<path d="M331.441 302.572L341.841 304.841L336.798 311.511L334.186 314.962L333.248 310.737L331.441 302.572Z" fill="#F79971"/>
<path d="M348.545 224.18L358.944 226.448L357.701 232.144L347.303 229.875L348.545 224.18Z" fill="#2D3951"/>
<path d="M350.432 219.835L359.038 221.713C359.534 221.821 359.847 222.309 359.738 222.805L358.944 226.448L348.545 224.18L349.34 220.535C349.449 220.04 349.937 219.727 350.432 219.835Z" fill="#EE2B37"/>
<path d="M333.248 310.737L336.798 311.511L334.185 314.962L333.248 310.737Z" fill="#2D3951"/>
<path d="M356.809 236.228L346.411 233.959L347.303 229.875L357.701 232.144L356.809 236.228Z" fill="#F6841C"/>
<path d="M340.097 300.415L352.764 242.361C352.86 241.922 352.582 241.49 352.143 241.393C351.705 241.298 351.271 241.576 351.176 242.015L338.509 300.069C338.414 300.508 338.692 300.94 339.131 301.037C339.569 301.132 340.002 300.854 340.097 300.415Z" fill="#F6841C"/>
<path d="M336.029 299.532L348.696 241.477C348.792 241.039 348.514 240.606 348.075 240.51C347.637 240.414 347.203 240.692 347.108 241.131L334.441 299.185C334.345 299.624 334.623 300.057 335.062 300.153C335.5 300.248 335.933 299.971 336.029 299.532Z" fill="#F6841C"/>
<path d="M359.286 246.975L359.283 246.987L349.242 323.614C333.043 331.94 316.845 331.94 300.647 323.614L299.513 314.966V314.963L290.602 246.975C313.497 255.453 336.39 255.453 359.286 246.975Z" fill="#3A60B5"/>
<path d="M359.283 246.987L349.241 323.614C333.043 331.94 316.845 331.94 300.646 323.614L299.513 314.966V314.963C299.513 314.963 316.94 325.088 331.441 316.719C347.29 307.573 359.087 247.936 359.283 246.987Z" fill="#3550AA"/>
</svg>
