<svg width="150" height="150" viewBox="0 0 150 150" fill="none" xmlns="http://www.w3.org/2000/svg">
<path d="M121.355 41.7438C127.793 48.5813 131.249 56.25 131.249 68.6813C131.249 90.5563 115.893 110.163 93.5615 119.856L87.9803 111.244C108.824 99.9688 112.899 85.3375 114.524 76.1125C111.168 77.85 106.774 78.4563 102.468 78.0563C91.1928 77.0125 82.3053 67.7563 82.3053 56.25C82.3053 50.4484 84.61 44.8844 88.7123 40.782C92.8147 36.6797 98.3787 34.375 104.18 34.375C110.887 34.375 117.299 37.4375 121.355 41.7438ZM58.8553 41.7438C65.2928 48.5813 68.749 56.25 68.749 68.6813C68.749 90.5563 53.3928 110.163 31.0615 119.856L25.4803 111.244C46.324 99.9688 50.399 85.3375 52.024 76.1125C48.6678 77.85 44.274 78.4563 39.9678 78.0563C28.6928 77.0125 19.8115 67.7563 19.8115 56.25C19.8115 50.4484 22.1162 44.8844 26.2186 40.782C30.3209 36.6797 35.8849 34.375 41.6865 34.375C48.3928 34.375 54.8053 37.4375 58.8615 41.7438H58.8553Z" fill="#FFDE00"/>
</svg>
