<svg width="26" height="26" viewBox="0 0 26 26" fill="none" xmlns="http://www.w3.org/2000/svg">
<path d="M20.5834 11.9167H7.73504L11.6675 7.19334C11.8514 6.9721 11.9399 6.68688 11.9135 6.40042C11.8871 6.11396 11.7479 5.84972 11.5267 5.66584C11.3055 5.48195 11.0203 5.39349 10.7338 5.4199C10.4473 5.44631 10.1831 5.58544 9.99921 5.80667L4.58254 12.3067C4.5461 12.3584 4.51351 12.4127 4.48504 12.4692C4.48504 12.5233 4.48504 12.5558 4.40921 12.61C4.3601 12.7342 4.33439 12.8664 4.33337 13C4.33439 13.1336 4.3601 13.2658 4.40921 13.39C4.40921 13.4442 4.40921 13.4767 4.48504 13.5308C4.51351 13.5873 4.5461 13.6416 4.58254 13.6933L9.99921 20.1933C10.1011 20.3156 10.2286 20.414 10.3728 20.4814C10.517 20.5488 10.6742 20.5836 10.8334 20.5833C11.0865 20.5838 11.3318 20.4957 11.5267 20.3342C11.6364 20.2432 11.7271 20.1315 11.7935 20.0055C11.86 19.8794 11.901 19.7415 11.914 19.5996C11.9271 19.4577 11.9121 19.3147 11.8698 19.1786C11.8275 19.0425 11.7588 18.9161 11.6675 18.8067L7.73504 14.0833H20.5834C20.8707 14.0833 21.1462 13.9692 21.3494 13.766C21.5526 13.5629 21.6667 13.2873 21.6667 13C21.6667 12.7127 21.5526 12.4371 21.3494 12.234C21.1462 12.0308 20.8707 11.9167 20.5834 11.9167Z" fill="#FFDE00"/>
</svg>
