<svg width="26" height="26" viewBox="0 0 26 26" fill="none" xmlns="http://www.w3.org/2000/svg">
<path d="M24.7 18.85V7.15C24.7 6.071 23.829 5.2 22.75 5.2H4.537C3.458 5.2 2.587 6.071 2.587 7.15V18.85C2.587 19.929 3.458 20.8 4.537 20.8H22.75C23.829 20.8 24.7 19.929 24.7 18.85ZM22.997 7.007C23.426 7.436 23.192 7.878 22.958 8.099L17.68 12.935L22.75 18.213C22.906 18.395 23.01 18.681 22.828 18.876C22.659 19.084 22.269 19.071 22.1 18.941L16.419 14.092L13.637 16.627L10.868 14.092L5.187 18.941C5.018 19.071 4.628 19.084 4.459 18.876C4.277 18.681 4.381 18.395 4.537 18.213L9.607 12.935L4.329 8.099C4.095 7.878 3.861 7.436 4.29 7.007C4.719 6.578 5.161 6.786 5.525 7.098L13.637 13.65L21.762 7.098C22.126 6.786 22.568 6.578 22.997 7.007Z" fill="#042330"/>
</svg>
