<svg width="26" height="26" viewBox="0 0 26 26" fill="none" xmlns="http://www.w3.org/2000/svg">
<path d="M21.7083 18.2617C24.4724 15.795 25.9999 13 25.9999 13C25.9999 13 21.1249 4.0625 12.9999 4.0625C11.4393 4.06787 9.89627 4.39307 8.46619 5.018L9.71744 6.27087C10.7695 5.88763 11.8802 5.69023 12.9999 5.6875C16.4449 5.6875 19.3033 7.5855 21.3979 9.68012C22.406 10.6936 23.3097 11.8058 24.0954 13C24.0012 13.1414 23.8972 13.2974 23.7786 13.468C23.2342 14.248 22.4298 15.288 21.3979 16.3199C21.1298 16.588 20.8503 16.8529 20.5578 17.1096L21.7083 18.2617Z" fill="#666666"/>
<path d="M18.3576 14.911C18.7202 13.8967 18.7874 12.8004 18.5512 11.7494C18.3151 10.6985 17.7854 9.73623 17.0238 8.97458C16.2621 8.21293 15.2998 7.68323 14.2489 7.4471C13.198 7.21097 12.1016 7.27812 11.0873 7.64075L12.4247 8.97813C13.0492 8.88874 13.686 8.94602 14.2845 9.14544C14.883 9.34486 15.4269 9.68093 15.8729 10.127C16.319 10.5731 16.6551 11.117 16.8545 11.7155C17.0539 12.314 17.1112 12.9507 17.0218 13.5753L18.3576 14.911ZM13.5752 17.0219L14.911 18.3576C13.8967 18.7203 12.8003 18.7874 11.7494 18.5513C10.6985 18.3151 9.73619 17.7854 8.97455 17.0238C8.2129 16.2621 7.68319 15.2999 7.44706 14.2489C7.21093 13.198 7.27809 12.1016 7.64072 11.0874L8.97809 12.4247C8.8887 13.0493 8.94599 13.686 9.14541 14.2845C9.34482 14.883 9.68089 15.4269 10.127 15.873C10.5731 16.3191 11.1169 16.6551 11.7155 16.8546C12.314 17.054 12.9507 17.1113 13.5752 17.0219Z" fill="#666666"/>
<path d="M5.44375 8.88875C5.15125 9.14875 4.87012 9.412 4.602 9.68013C3.59392 10.6936 2.69022 11.8058 1.9045 13L2.22137 13.468C2.76575 14.248 3.57013 15.288 4.602 16.3199C6.69663 18.4145 9.55663 20.3125 13 20.3125C14.1635 20.3125 15.2588 20.0964 16.2825 19.7275L17.5338 20.982C16.1036 21.6069 14.5607 21.9321 13 21.9375C4.875 21.9375 0 13 0 13C0 13 1.52587 10.2034 4.29163 7.73825L5.44212 8.89038L5.44375 8.88875Z" fill="#666666"/>
<path fill-rule="evenodd" clip-rule="evenodd" d="M22.1748 23.3253L2.6748 3.82525L3.8253 2.67475L23.3253 22.1748L22.1748 23.3253Z" fill="#666666"/>
</svg>
