<svg width="26" height="26" viewBox="0 0 26 26" fill="none" xmlns="http://www.w3.org/2000/svg">
<path fill-rule="evenodd" clip-rule="evenodd" d="M26 13C26 13 21.125 4.0625 13 4.0625C4.875 4.0625 0 13 0 13C0 13 4.875 21.9375 13 21.9375C21.125 21.9375 26 13 26 13ZM1.90612 13C2.69185 14.1942 3.59555 15.3064 4.60362 16.3199C6.695 18.4145 9.555 20.3125 13 20.3125C16.445 20.3125 19.3034 18.4145 21.398 16.3199C22.4061 15.3064 23.3098 14.1942 24.0955 13C23.3098 11.8058 22.4061 10.6936 21.398 9.68012C19.3034 7.5855 16.4434 5.6875 13 5.6875C9.555 5.6875 6.69663 7.5855 4.602 9.68012C3.59392 10.6936 2.69021 11.8058 1.9045 13H1.90612Z" fill="#666666"/>
<path fill-rule="evenodd" clip-rule="evenodd" d="M13 8.9375C11.9226 8.9375 10.8892 9.36551 10.1274 10.1274C9.36551 10.8892 8.9375 11.9226 8.9375 13C8.9375 14.0774 9.36551 15.1108 10.1274 15.8726C10.8892 16.6345 11.9226 17.0625 13 17.0625C14.0774 17.0625 15.1108 16.6345 15.8726 15.8726C16.6345 15.1108 17.0625 14.0774 17.0625 13C17.0625 11.9226 16.6345 10.8892 15.8726 10.1274C15.1108 9.36551 14.0774 8.9375 13 8.9375ZM7.3125 13C7.3125 11.4916 7.91172 10.0449 8.97833 8.97833C10.0449 7.91172 11.4916 7.3125 13 7.3125C14.5084 7.3125 15.9551 7.91172 17.0217 8.97833C18.0883 10.0449 18.6875 11.4916 18.6875 13C18.6875 14.5084 18.0883 15.9551 17.0217 17.0217C15.9551 18.0883 14.5084 18.6875 13 18.6875C11.4916 18.6875 10.0449 18.0883 8.97833 17.0217C7.91172 15.9551 7.3125 14.5084 7.3125 13Z" fill="#666666"/>
</svg>
