<svg width="26" height="26" viewBox="0 0 26 26" fill="none" xmlns="http://www.w3.org/2000/svg">
<g clip-path="url(#clip0)">
<path d="M24.565 26.0001C25.3574 26.0001 26 25.3576 26 24.5651V1.43498C26 0.642383 25.3574 0 24.565 0H1.43498C0.642281 0 0 0.642383 0 1.43498V24.5651C0 25.3576 0.642281 26.0001 1.43498 26.0001H24.565Z" fill="#395185"/>
<path d="M17.9395 26.0001V15.9315H21.3192L21.8252 12.0076H17.9395V9.50228C17.9395 8.36621 18.255 7.592 19.8842 7.592L21.9621 7.59108V4.08159C21.6025 4.03375 20.3692 3.92691 18.9343 3.92691C15.9384 3.92691 13.8875 5.75554 13.8875 9.11381V12.0076H10.4991V15.9315H13.8875V26.0001H17.9395Z" fill="white"/>
</g>
<defs>
<clipPath id="clip0">
<rect width="26" height="26" fill="white"/>
</clipPath>
</defs>
</svg>
