<svg width="26" height="26" viewBox="0 0 26 26" fill="none" xmlns="http://www.w3.org/2000/svg">
<path d="M7.58333 6.5C8.17917 6.5 8.66667 6.9875 8.66667 7.58333V18.4167C8.66667 19.0125 8.17917 19.5 7.58333 19.5C6.9875 19.5 6.5 19.0125 6.5 18.4167V7.58333C6.5 6.9875 6.9875 6.5 7.58333 6.5ZM11.5483 13.8883L17.7992 18.2975C18.5142 18.8067 19.5108 18.2867 19.5108 17.4092V8.59083C19.5108 7.71333 18.525 7.20417 17.7992 7.7025L11.5483 12.1117C11.4053 12.2115 11.2885 12.3444 11.2078 12.4991C11.1272 12.6537 11.0851 12.8256 11.0851 13C11.0851 13.1744 11.1272 13.3463 11.2078 13.5009C11.2885 13.6556 11.4053 13.7885 11.5483 13.8883Z" fill="#042330"/>
</svg>
