<svg width="26" height="26" viewBox="0 0 26 26" fill="none" xmlns="http://www.w3.org/2000/svg">
<path fill-rule="evenodd" clip-rule="evenodd" d="M10.9151 5.76877C11.0528 5.83508 11.169 5.93887 11.2503 6.06821C11.3316 6.19756 11.3749 6.34722 11.375 6.50002V19.5C11.3748 19.6529 11.3314 19.8026 11.2499 19.932C11.1684 20.0613 11.0521 20.1651 10.9143 20.2313C10.7765 20.2975 10.6228 20.3234 10.4708 20.3062C10.3189 20.2889 10.175 20.2292 10.0555 20.1338L6.21563 17.0625H2.4375C2.22201 17.0625 2.01535 16.9769 1.86298 16.8245C1.7106 16.6722 1.625 16.4655 1.625 16.25V9.75002C1.625 9.53453 1.7106 9.32787 1.86298 9.17549C2.01535 9.02312 2.22201 8.93752 2.4375 8.93752H6.21563L10.0555 5.86627C10.1751 5.7707 10.3192 5.71084 10.4713 5.69359C10.6233 5.67634 10.7772 5.7024 10.9151 5.76877ZM9.75 8.19002L7.007 10.3838C6.86318 10.4992 6.68439 10.5622 6.5 10.5625H3.25V15.4375H6.5C6.68439 15.4378 6.86318 15.5009 7.007 15.6163L9.75 17.81V8.19002Z" fill="#042330"/>
<path d="M18.7462 22.7663C20.0308 21.4852 21.0496 19.963 21.744 18.2869C22.4384 16.6109 22.7947 14.8142 22.7925 13C22.7947 11.1858 22.4384 9.38911 21.744 7.71309C21.0496 6.03707 20.0308 4.5148 18.7462 3.23376L17.5957 4.38264C18.7292 5.51297 19.6281 6.85617 20.2408 8.33503C20.8535 9.81389 21.1678 11.3993 21.1658 13C21.1658 16.3654 19.8008 19.4123 17.5957 21.6174L18.7462 22.7663Z" fill="#042330"/>
<path d="M16.4467 20.4685C17.429 19.4888 18.208 18.3247 18.739 17.043C19.27 15.7613 19.5424 14.3873 19.5407 13C19.5424 11.6127 19.27 10.2387 18.739 8.957C18.208 7.67531 17.429 6.51118 16.4467 5.53149L15.2979 6.68037C16.129 7.50936 16.7882 8.49442 17.2374 9.57895C17.6867 10.6635 17.9172 11.8261 17.9157 13C17.9176 14.1741 17.6875 15.3369 17.2385 16.4217C16.7895 17.5065 16.1305 18.4919 15.2995 19.3212L16.4467 20.4685Z" fill="#042330"/>
<path d="M14.1489 18.1708C14.8289 17.4925 15.3682 16.6865 15.7358 15.7991C16.1033 14.9118 16.2919 13.9605 16.2906 13C16.2919 12.0396 16.1033 11.0883 15.7358 10.2009C15.3682 9.31356 14.8289 8.50757 14.1489 7.82928L13 8.97816C13.5289 9.50575 13.9483 10.1327 14.2342 10.8229C14.52 11.5131 14.6667 12.253 14.6656 13C14.6666 13.7471 14.5199 14.4869 14.2341 15.1771C13.9482 15.8673 13.5288 16.4943 13 17.0219L14.1489 18.1708Z" fill="#042330"/>
</svg>
