<svg width="44" height="44" viewBox="0 0 44 44" fill="none" xmlns="http://www.w3.org/2000/svg">
<g opacity="0.82">
<path opacity="0.63" d="M38 0H6C2.68629 0 0 2.68629 0 6V38C0 41.3137 2.68629 44 6 44H38C41.3137 44 44 41.3137 44 38V6C44 2.68629 41.3137 0 38 0Z" fill="#FCB442"/>
</g>
<path d="M26.394 35.5182H19.07L19.985 30.1241V28.3271H25.478V30.1271L26.394 35.5182Z" fill="#757C80"/>
<path d="M26 10H20C14.4772 10 10 14.4772 10 20C10 25.5228 14.4772 30 20 30H26C31.5228 30 36 25.5228 36 20C36 14.4772 31.5228 10 26 10Z" fill="#B5B8B9"/>
<path d="M10.373 9.44901H35.091C35.2102 9.44796 35.3284 9.47041 35.4389 9.51508C35.5495 9.55975 35.6501 9.62576 35.7351 9.70935C35.82 9.79294 35.8877 9.89245 35.9342 10.0022C35.9807 10.112 36.0051 10.2298 36.006 10.349V13.049H9.45801V10.349C9.45892 10.2298 9.48332 10.112 9.52982 10.0022C9.57631 9.89245 9.64398 9.79294 9.72896 9.70935C9.81394 9.62576 9.91456 9.55975 10.0251 9.51508C10.1356 9.47041 10.2538 9.44796 10.373 9.44901Z" fill="#2B70A8"/>
<path d="M9.45801 13.0449H36.006V25.6299H9.45801V13.0449Z" fill="#FAE8D8"/>
<path d="M13.12 16.6411H18.613V22.0351H13.12V16.6411Z" fill="#FCB442"/>
<path d="M26.658 26.7161L27.9527 25.4454L35.5429 32.894C35.628 32.9767 35.6957 33.0756 35.742 33.1849C35.7882 33.2942 35.812 33.4117 35.812 33.5304C35.812 33.6491 35.7882 33.7666 35.742 33.8759C35.6957 33.9852 35.628 34.0841 35.5429 34.1668C35.3695 34.3354 35.137 34.4296 34.8951 34.4292C34.6532 34.4288 34.421 34.3339 34.2482 34.1647L26.658 26.7161Z" fill="#2B70A8"/>
<path d="M24.599 24.6931L25.8937 23.4224L29.7156 27.1751L28.4209 28.4458L24.599 24.6931Z" fill="#FCB442"/>
<path d="M22.274 14.843H34.174V17.543H22.274V14.843Z" fill="#FCB442"/>
<path d="M22.274 21.135L22.993 24.194C23.0711 24.5192 23.2376 24.8164 23.4741 25.0529C23.7106 25.2894 24.0078 25.4559 24.333 25.534L25.833 25.903L27.128 24.632L26.753 23.158C26.6688 22.8342 26.4967 22.5399 26.2559 22.3077C26.015 22.0755 25.7147 21.9143 25.388 21.842L22.274 21.135Z" fill="#976048"/>
<path d="M36.464 29.226V10.348C36.46 9.98741 36.3133 9.64306 36.056 9.3904C35.7986 9.13774 35.4516 8.99737 35.091 9.00004H10.373C10.0124 8.99737 9.66537 9.13774 9.40803 9.3904C9.15068 9.64306 9.00396 9.98741 9 10.348V29.226C9.00396 29.5867 9.15068 29.931 9.40803 30.1837C9.66537 30.4363 10.0124 30.5767 10.373 30.574H19.445L18.682 35.069H16.782C16.6627 35.069 16.5482 35.1164 16.4638 35.2008C16.3794 35.2852 16.332 35.3997 16.332 35.519C16.332 35.6384 16.3794 35.7528 16.4638 35.8372C16.5482 35.9216 16.6627 35.969 16.782 35.969H28.682C28.8013 35.969 28.9158 35.9216 29.0002 35.8372C29.0846 35.7528 29.132 35.6384 29.132 35.519C29.132 35.3997 29.0846 35.2852 29.0002 35.2008C28.9158 35.1164 28.8013 35.069 28.682 35.069H26.782L26.019 30.574H29.945L33.927 34.484C34.1868 34.7373 34.5352 34.879 34.898 34.879C35.2608 34.879 35.6092 34.7373 35.869 34.484C35.9961 34.3599 36.0971 34.2116 36.166 34.0478C36.235 33.8841 36.2705 33.7082 36.2705 33.5305C36.2705 33.3529 36.235 33.177 36.166 33.0132C36.0971 32.8495 35.9961 32.7012 35.869 32.577L33.829 30.577H35.091C35.4521 30.5797 35.7996 30.4389 36.057 30.1856C36.3145 29.9323 36.4608 29.5872 36.464 29.226ZM26.482 25.9L27.129 25.264L29.071 27.171L28.424 27.807L26.482 25.9ZM25.694 25.4L24.444 25.093C24.2004 25.0355 23.9776 24.9116 23.8002 24.7351C23.6227 24.5586 23.4977 24.3363 23.439 24.093L22.885 21.735L25.285 22.279C25.5302 22.3328 25.7556 22.4535 25.9362 22.6277C26.1168 22.802 26.2455 23.023 26.308 23.266L26.621 24.494L25.694 25.4ZM27.542 24.4L27.2 23.048C27.0962 22.6419 26.8815 22.2727 26.5799 21.9817C26.2782 21.6906 25.9016 21.4892 25.492 21.4L22.377 20.7C22.3015 20.6827 22.2228 20.6846 22.1482 20.7056C22.0736 20.7265 22.0054 20.7659 21.95 20.82C21.8953 20.8735 21.8553 20.9401 21.834 21.0135C21.8126 21.0869 21.8105 21.1646 21.828 21.239L22.547 24.298C22.6232 24.6215 22.7708 24.9239 22.979 25.183H9.915V13.495H35.548V25.181H28.336L27.542 24.4ZM10.373 9.90004H35.091C35.2112 9.89897 35.327 9.94565 35.4129 10.0298C35.4987 10.114 35.5477 10.2288 35.549 10.349V12.6H9.915V10.348C9.91658 10.228 9.96566 10.1134 10.0515 10.0295C10.1373 9.94551 10.2529 9.89897 10.373 9.90004ZM25.853 35.07H19.61L20.373 30.575H25.09L25.853 35.07ZM10.373 29.676C10.2528 29.6771 10.137 29.6304 10.0511 29.5463C9.96528 29.4621 9.91632 29.3473 9.915 29.227V26.08H24.667L25.6 26.309L29.029 29.676H10.373ZM35.221 33.849C35.1344 33.9333 35.0183 33.9804 34.8975 33.9804C34.7767 33.9804 34.6606 33.9333 34.574 33.849L29.074 28.449L29.721 27.814L35.221 33.214C35.2631 33.2554 35.2966 33.3047 35.3195 33.3591C35.3423 33.4136 35.3541 33.472 35.3541 33.531C35.3541 33.5901 35.3423 33.6485 35.3195 33.7029C35.2966 33.7574 35.2631 33.8067 35.221 33.848V33.849ZM29.251 26.08H35.551V29.226C35.5497 29.3463 35.5007 29.4611 35.4149 29.5453C35.329 29.6294 35.2132 29.6761 35.093 29.675H32.913L29.251 26.08Z" fill="black"/>
<path d="M23.648 26.978H21.817C21.7579 26.978 21.6994 26.9897 21.6448 27.0123C21.5902 27.0349 21.5406 27.068 21.4988 27.1098C21.457 27.1516 21.4239 27.2012 21.4013 27.2558C21.3786 27.3104 21.367 27.3689 21.367 27.428C21.367 27.4871 21.3786 27.5456 21.4013 27.6002C21.4239 27.6548 21.457 27.7044 21.4988 27.7462C21.5406 27.788 21.5902 27.8212 21.6448 27.8438C21.6994 27.8664 21.7579 27.878 21.817 27.878H23.648C23.7071 27.878 23.7656 27.8664 23.8202 27.8438C23.8748 27.8212 23.9244 27.788 23.9662 27.7462C24.008 27.7044 24.0411 27.6548 24.0638 27.6002C24.0864 27.5456 24.098 27.4871 24.098 27.428C24.098 27.3689 24.0864 27.3104 24.0638 27.2558C24.0411 27.2012 24.008 27.1516 23.9662 27.1098C23.9244 27.068 23.8748 27.0349 23.8202 27.0123C23.7656 26.9897 23.7071 26.978 23.648 26.978Z" fill="black"/>
<path d="M11 12C11.5523 12 12 11.7761 12 11.5C12 11.2239 11.5523 11 11 11C10.4477 11 10 11.2239 10 11.5C10 11.7761 10.4477 12 11 12Z" fill="black"/>
<path d="M14.5 12C14.7761 12 15 11.7761 15 11.5C15 11.2239 14.7761 11 14.5 11C14.2239 11 14 11.2239 14 11.5C14 11.7761 14.2239 12 14.5 12Z" fill="black"/>
<path d="M14.035 15.294H14.95C15.0694 15.294 15.1838 15.2466 15.2682 15.1622C15.3526 15.0778 15.4 14.9634 15.4 14.844C15.4 14.7247 15.3526 14.6102 15.2682 14.5258C15.1838 14.4415 15.0694 14.394 14.95 14.394H14.035C13.9157 14.394 13.8012 14.4415 13.7168 14.5258C13.6324 14.6102 13.585 14.7247 13.585 14.844C13.585 14.9634 13.6324 15.0778 13.7168 15.1622C13.8012 15.2466 13.9157 15.294 14.035 15.294Z" fill="black"/>
<path d="M16.782 15.294H17.697C17.8163 15.294 17.9308 15.2466 18.0152 15.1622C18.0996 15.0778 18.147 14.9634 18.147 14.844C18.147 14.7247 18.0996 14.6102 18.0152 14.5258C17.9308 14.4415 17.8163 14.394 17.697 14.394H16.782C16.6626 14.394 16.5482 14.4415 16.4638 14.5258C16.3794 14.6102 16.332 14.7247 16.332 14.844C16.332 14.9634 16.3794 15.0778 16.4638 15.1622C16.5482 15.2466 16.6626 15.294 16.782 15.294Z" fill="black"/>
<path d="M12.204 23.3841H11.746V22.9351C11.7405 22.8175 11.6899 22.7065 11.6047 22.6252C11.5195 22.5439 11.4063 22.4985 11.2885 22.4985C11.1707 22.4985 11.0575 22.5439 10.9723 22.6252C10.8871 22.7065 10.8365 22.8175 10.831 22.9351V23.8351C10.8323 23.9554 10.8813 24.0702 10.9671 24.1544C11.053 24.2385 11.1688 24.2852 11.289 24.2841H12.204C12.2631 24.2841 12.3216 24.2725 12.3762 24.2499C12.4308 24.2273 12.4804 24.1941 12.5222 24.1523C12.564 24.1106 12.5971 24.0609 12.6197 24.0063C12.6424 23.9518 12.654 23.8932 12.654 23.8341C12.654 23.775 12.6424 23.7165 12.6197 23.6619C12.5971 23.6073 12.564 23.5577 12.5222 23.5159C12.4804 23.4741 12.4308 23.441 12.3762 23.4184C12.3216 23.3958 12.2631 23.3841 12.204 23.3841Z" fill="black"/>
<path d="M14.95 23.3831H14.035C13.9157 23.3831 13.8012 23.4305 13.7168 23.5149C13.6324 23.5993 13.585 23.7137 13.585 23.8331C13.585 23.9524 13.6324 24.0669 13.7168 24.1512C13.8012 24.2356 13.9157 24.2831 14.035 24.2831H14.95C15.0694 24.2831 15.1838 24.2356 15.2682 24.1512C15.3526 24.0669 15.4 23.9524 15.4 23.8331C15.4 23.7137 15.3526 23.5993 15.2682 23.5149C15.1838 23.4305 15.0694 23.3831 14.95 23.3831Z" fill="black"/>
<path d="M17.697 23.3831H16.782C16.6626 23.3831 16.5482 23.4305 16.4638 23.5149C16.3794 23.5993 16.332 23.7137 16.332 23.8331C16.332 23.9524 16.3794 24.0669 16.4638 24.1512C16.5482 24.2356 16.6626 24.2831 16.782 24.2831H17.697C17.8163 24.2831 17.9308 24.2356 18.0152 24.1512C18.0996 24.0669 18.147 23.9524 18.147 23.8331C18.147 23.7137 18.0996 23.5993 18.0152 23.5149C17.9308 23.4305 17.8163 23.3831 17.697 23.3831Z" fill="black"/>
<path d="M20.443 14.3941H19.528C19.4087 14.3941 19.2942 14.4415 19.2098 14.5259C19.1254 14.6103 19.078 14.7247 19.078 14.8441C19.078 14.9634 19.1254 15.0779 19.2098 15.1623C19.2942 15.2466 19.4087 15.2941 19.528 15.2941H19.986V15.7431C19.9915 15.8607 20.0421 15.9717 20.1273 16.053C20.2125 16.1343 20.3257 16.1797 20.4435 16.1797C20.5613 16.1797 20.6745 16.1343 20.7597 16.053C20.8449 15.9717 20.8955 15.8607 20.901 15.7431V14.8431C20.8997 14.7228 20.8507 14.608 20.7649 14.5238C20.679 14.4397 20.5632 14.393 20.443 14.3941Z" fill="black"/>
<path d="M20.444 17.0901C20.3238 17.089 20.208 17.1357 20.1222 17.2199C20.0363 17.3041 19.9873 17.4189 19.986 17.5391V18.4391C19.9915 18.5567 20.0421 18.6677 20.1273 18.749C20.2125 18.8303 20.3258 18.8757 20.4435 18.8757C20.5613 18.8757 20.6745 18.8303 20.7597 18.749C20.8449 18.6677 20.8955 18.5567 20.901 18.4391V17.5391C20.8997 17.419 20.8509 17.3044 20.7652 17.2202C20.6796 17.1361 20.5641 17.0893 20.444 17.0901Z" fill="black"/>
<path d="M20.444 19.7871C20.3238 19.7861 20.208 19.8327 20.1222 19.9169C20.0363 20.0011 19.9873 20.1159 19.986 20.2361V21.1361C19.9915 21.2538 20.0421 21.3648 20.1273 21.4461C20.2125 21.5274 20.3258 21.5727 20.4435 21.5727C20.5613 21.5727 20.6745 21.5274 20.7597 21.4461C20.8449 21.3648 20.8955 21.2538 20.901 21.1361V20.2361C20.8997 20.1161 20.8509 20.0014 20.7652 19.9173C20.6796 19.8331 20.5641 19.7863 20.444 19.7871Z" fill="black"/>
<path d="M20.443 22.4841C20.3228 22.4831 20.207 22.5298 20.1212 22.6139C20.0353 22.6981 19.9863 22.8129 19.985 22.9332V23.3822H19.527C19.4077 23.3822 19.2932 23.4296 19.2088 23.514C19.1244 23.5984 19.077 23.7128 19.077 23.8321C19.077 23.9515 19.1244 24.066 19.2088 24.1503C19.2932 24.2347 19.4077 24.2822 19.527 24.2822H20.442C20.5623 24.2832 20.678 24.2365 20.7639 24.1524C20.8497 24.0682 20.8987 23.9534 20.9 23.8331V22.9332C20.8987 22.8131 20.8499 22.6984 20.7642 22.6143C20.6786 22.5301 20.5631 22.4833 20.443 22.4841Z" fill="black"/>
<path d="M11.289 16.1941C11.4093 16.1951 11.525 16.1484 11.6109 16.0643C11.6967 15.9801 11.7457 15.8653 11.747 15.7451V15.2941H12.205C12.3244 15.2941 12.4388 15.2466 12.5232 15.1623C12.6076 15.0779 12.655 14.9634 12.655 14.8441C12.655 14.7247 12.6076 14.6103 12.5232 14.5259C12.4388 14.4415 12.3244 14.3941 12.205 14.3941H11.29C11.1698 14.393 11.054 14.4397 10.9682 14.5238C10.8823 14.608 10.8334 14.7228 10.832 14.8431V15.7431C10.8324 15.8027 10.8446 15.8616 10.8677 15.9166C10.8909 15.9715 10.9247 16.0213 10.9671 16.0632C11.0096 16.1051 11.0598 16.1382 11.1151 16.1607C11.1703 16.1831 11.2294 16.1945 11.289 16.1941Z" fill="black"/>
<path d="M11.289 18.8901C11.4093 18.8912 11.525 18.8445 11.6109 18.7603C11.6967 18.6761 11.7457 18.5613 11.747 18.4411V17.5411C11.7415 17.4235 11.6909 17.3125 11.6057 17.2312C11.5205 17.1499 11.4073 17.1045 11.2895 17.1045C11.1718 17.1045 11.0585 17.1499 10.9733 17.2312C10.8881 17.3125 10.8375 17.4235 10.832 17.5411V18.4411C10.8334 18.5612 10.8822 18.6758 10.9678 18.76C11.0535 18.8441 11.169 18.8909 11.289 18.8901Z" fill="black"/>
<path d="M11.289 21.5871C11.4093 21.5882 11.525 21.5415 11.6109 21.4573C11.6967 21.3732 11.7457 21.2584 11.747 21.1381V20.2381C11.7415 20.1205 11.6909 20.0095 11.6057 19.9282C11.5205 19.8469 11.4073 19.8015 11.2895 19.8015C11.1718 19.8015 11.0585 19.8469 10.9733 19.9282C10.8881 20.0095 10.8375 20.1205 10.832 20.2381V21.1381C10.8334 21.2582 10.8822 21.3728 10.9678 21.457C11.0535 21.5411 11.169 21.5879 11.289 21.5871Z" fill="black"/>
<path d="M25.016 18.8879H22.27C22.1507 18.8879 22.0362 18.9354 21.9518 19.0197C21.8674 19.1041 21.82 19.2186 21.82 19.3379C21.82 19.4573 21.8674 19.5718 21.9518 19.6561C22.0362 19.7405 22.1507 19.7879 22.27 19.7879H25.016C25.1354 19.7879 25.2498 19.7405 25.3342 19.6561C25.4186 19.5718 25.466 19.4573 25.466 19.3379C25.466 19.2186 25.4186 19.1041 25.3342 19.0197C25.2498 18.9354 25.1354 18.8879 25.016 18.8879Z" fill="black"/>
<path d="M34.175 18.8879H26.851C26.7317 18.8879 26.6172 18.9354 26.5328 19.0197C26.4484 19.1041 26.401 19.2186 26.401 19.3379C26.401 19.4573 26.4484 19.5718 26.5328 19.6561C26.6172 19.7405 26.7317 19.7879 26.851 19.7879H34.175C34.2944 19.7879 34.4088 19.7405 34.4932 19.6561C34.5776 19.5718 34.625 19.4573 34.625 19.3379C34.625 19.2186 34.5776 19.1041 34.4932 19.0197C34.4088 18.9354 34.2944 18.8879 34.175 18.8879Z" fill="black"/>
<path d="M34.175 20.686H27.767C27.6477 20.686 27.5332 20.7334 27.4488 20.8178C27.3644 20.9022 27.317 21.0167 27.317 21.136C27.317 21.2554 27.3644 21.3698 27.4488 21.4542C27.5332 21.5386 27.6477 21.586 27.767 21.586H34.175C34.2944 21.586 34.4088 21.5386 34.4932 21.4542C34.5776 21.3698 34.625 21.2554 34.625 21.136C34.625 21.0167 34.5776 20.9022 34.4932 20.8178C34.4088 20.7334 34.2944 20.686 34.175 20.686Z" fill="black"/>
<path d="M34.175 14.3941H22.275C22.1548 14.393 22.039 14.4397 21.9532 14.5238C21.8673 14.608 21.8183 14.7228 21.817 14.8431V17.5431C21.8183 17.6633 21.8673 17.7781 21.9532 17.8623C22.039 17.9465 22.1548 17.9931 22.275 17.9921H34.175C34.2952 17.9931 34.411 17.9465 34.4969 17.8623C34.5827 17.7781 34.6317 17.6633 34.633 17.5431V14.8431C34.6317 14.7228 34.5827 14.608 34.4969 14.5238C34.411 14.4397 34.2952 14.393 34.175 14.3941ZM33.717 17.0941H22.731V15.2941H33.716L33.717 17.0941Z" fill="black"/>
<path d="M19.07 16.6399C19.0687 16.5197 19.0197 16.4049 18.9338 16.3207C18.848 16.2366 18.7322 16.1899 18.612 16.1909H13.12C12.9997 16.1899 12.884 16.2366 12.7981 16.3207C12.7123 16.4049 12.6633 16.5197 12.662 16.6399V22.0339C12.6633 22.1542 12.7123 22.269 12.7981 22.3532C12.884 22.4373 12.9997 22.484 13.12 22.4829H18.613C18.7332 22.484 18.849 22.4373 18.9348 22.3532C19.0207 22.269 19.0697 22.1542 19.071 22.0339L19.07 16.6399ZM18.155 21.5839H13.577V17.0909H18.154L18.155 21.5839Z" fill="black"/>
</svg>
