<svg width="44" height="44" viewBox="0 0 44 44" fill="none" xmlns="http://www.w3.org/2000/svg">
<g opacity="0.82">
<path opacity="0.63" d="M38 0H6C2.68629 0 0 2.68629 0 6V38C0 41.3137 2.68629 44 6 44H38C41.3137 44 44 41.3137 44 38V6C44 2.68629 41.3137 0 38 0Z" fill="#FFE76C"/>
</g>
<path d="M19.764 24.9889C19.7659 25.1768 19.8229 25.3599 19.9279 25.5157C20.033 25.6714 20.1815 25.7929 20.355 25.8649L19.276 31.6499H22.205V35.9339C22.2029 36.0616 22.1504 36.1833 22.059 36.2724C21.9676 36.3616 21.8447 36.411 21.717 36.4099H12.441C11.9298 36.4166 11.4369 36.22 11.0707 35.8633C10.7044 35.5066 10.4948 35.0191 10.488 34.5079V29.1079C10.4894 27.673 11.0154 26.288 11.967 25.2139C12.9198 24.1322 14.173 23.3584 15.567 22.9909L17.467 22.4819L18.788 25.4649L19.764 24.7029V24.9889Z" fill="#B4DD7F"/>
<path d="M24.177 30.4821L24.157 31.6531H23.181L22.102 25.8651C22.2755 25.793 22.424 25.6716 22.529 25.5158C22.6341 25.3601 22.6911 25.1769 22.693 24.9891V24.7041L23.669 25.4661L24.226 24.2051C24.181 24.4643 24.1582 24.727 24.158 24.9901C24.1587 25.6182 24.2856 26.2397 24.5313 26.8178C24.7769 27.3959 25.1363 27.9186 25.588 28.3551L24.748 29.1741C24.3935 29.5183 24.1884 29.9881 24.177 30.4821Z" fill="#B4DD7F"/>
<path d="M22.103 25.865L23.182 31.653H19.276L20.355 25.865C20.4776 25.9149 20.6086 25.9407 20.741 25.941H21.717C21.8494 25.9407 21.9804 25.9149 22.103 25.865Z" fill="#FF826E"/>
<path d="M22.693 24.989C22.6911 25.1769 22.6341 25.36 22.529 25.5158C22.424 25.6715 22.2755 25.793 22.102 25.865C21.9794 25.9149 21.8483 25.9407 21.716 25.941H20.74C20.6076 25.9407 20.4766 25.9149 20.354 25.865C20.1807 25.7928 20.0324 25.6713 19.9275 25.5156C19.8226 25.3599 19.7658 25.1768 19.764 24.989V24.703L21.229 23.561L22.694 24.703L22.693 24.989Z" fill="#FF826E"/>
<path d="M33.351 29.192L32.492 28.354C31.5659 29.2478 30.3291 29.7473 29.042 29.7473C27.755 29.7473 26.5181 29.2478 25.592 28.354L24.752 29.173C24.3957 29.5175 24.1895 29.9885 24.178 30.484L24.158 36.413H33.922V30.539C33.9216 30.2877 33.8708 30.0391 33.7728 29.8077C33.6747 29.5764 33.5313 29.367 33.351 29.192Z" fill="#CF9E76"/>
<path d="M31.969 31.6531V34.5091H25.847C26.0187 34.2219 26.1094 33.8936 26.1094 33.5591C26.1094 33.2245 26.0187 32.8962 25.847 32.6091V31.6531H31.969Z" fill="#E6E9ED"/>
<path d="M21.228 23.5611L19.764 24.7031L18.788 25.4651L17.474 22.4801L18.787 22.1331L21.228 23.5611Z" fill="#A0D468"/>
<path d="M24.904 22.4611C24.5621 22.9898 24.332 23.583 24.228 24.2041L23.671 25.4651L22.695 24.7031L21.228 23.5611L23.669 22.1331L24.904 22.4611Z" fill="#A0D468"/>
<path d="M24.651 13.089H23.211C22.7056 13.0914 22.208 12.9639 21.7661 12.7188C21.3241 12.4737 20.9525 12.1191 20.687 11.689L18.505 12.598C18.1568 12.7404 17.8587 12.9828 17.6485 13.2947C17.4382 13.6066 17.3253 13.9739 17.324 14.35V16.425C17.3246 16.7462 17.3655 17.0661 17.446 17.377C17.1098 17.3733 16.7804 17.2827 16.4896 17.1142C16.1987 16.9456 15.9564 16.7048 15.786 16.415L14.819 14.768C14.5029 14.232 14.3575 13.6124 14.4019 12.9917C14.4464 12.371 14.6787 11.7786 15.068 11.293L16.801 9.12204C17.1178 8.72616 17.5202 8.40719 17.978 8.18904C18.4394 7.96711 18.945 7.85225 19.457 7.85304C19.9798 7.85281 20.4958 7.97147 20.966 8.20004L21.23 8.32904L21.494 8.20004C21.9636 7.97176 22.4788 7.85311 23.001 7.85304C23.5102 7.85168 24.0133 7.96473 24.473 8.18386C24.9327 8.40298 25.3373 8.72258 25.657 9.11904L27.394 11.29C27.7832 11.7756 28.0155 12.368 28.06 12.9887C28.1045 13.6094 27.959 14.229 27.643 14.765L26.676 16.412C26.5056 16.7018 26.2632 16.9426 25.9724 17.1112C25.6816 17.2797 25.3521 17.3703 25.016 17.374C25.0964 17.0631 25.1374 16.7432 25.138 16.422V14.346C25.1381 13.8817 24.966 13.4338 24.655 13.089H24.651Z" fill="#656D78"/>
<path d="M25.134 14.3461V16.4211C25.1347 17.0964 24.9531 17.7593 24.6085 18.3401C24.2639 18.9209 23.769 19.398 23.176 19.7211C22.5806 20.0557 21.9091 20.2315 21.226 20.2315C20.543 20.2315 19.8715 20.0557 19.276 19.7211C18.9802 19.5561 18.7064 19.3545 18.461 19.1211C18.0992 18.7709 17.8119 18.3512 17.6164 17.8872C17.4208 17.4233 17.321 16.9246 17.323 16.4211V14.3461C17.3244 13.9699 17.4373 13.6026 17.6475 13.2908C17.8578 12.9789 18.1559 12.7364 18.504 12.5941L20.686 11.6851C20.9516 12.1151 21.3231 12.4697 21.7651 12.7148C22.2071 12.96 22.7046 13.0875 23.21 13.0851H24.65C24.961 13.4298 25.1331 13.8777 25.133 14.3421L25.134 14.3461Z" fill="#F0D0B4"/>
<path d="M23.176 19.7251L23.669 22.1341L21.228 23.5621L18.787 22.1331L19.28 19.7241C19.8754 20.0588 20.547 20.2346 21.23 20.2346C21.913 20.2346 22.5846 20.0588 23.18 19.7241L23.176 19.7251Z" fill="#F0D0B4"/>
<path d="M24.158 31.6531C24.4981 31.6509 24.8328 31.7376 25.1291 31.9046C25.4253 32.0716 25.6728 32.3131 25.847 32.6051C26.0187 32.8923 26.1094 33.2206 26.1094 33.5551C26.1094 33.8897 26.0187 34.218 25.847 34.5051C25.7615 34.6508 25.658 34.7852 25.539 34.9051C25.1678 35.2627 24.6724 35.4623 24.157 35.4621H22.205V31.6531H24.158Z" fill="#F0D0B4"/>
<path d="M29.04 20.2291C30.3184 20.2136 31.5507 20.7063 32.4661 21.5988C33.3815 22.4913 33.9052 23.7107 33.922 24.9891C33.9213 25.6172 33.7944 26.2388 33.5488 26.8168C33.3031 27.3949 32.9437 27.9177 32.492 28.3541C31.5659 29.2479 30.3291 29.7474 29.042 29.7474C27.755 29.7474 26.5181 29.2479 25.592 28.3541C25.1396 27.918 24.7795 27.3954 24.5331 26.8173C24.2868 26.2392 24.1592 25.6175 24.158 24.9891C24.1604 24.0924 24.4196 23.2151 24.905 22.4611C25.3521 21.7724 25.965 21.2071 26.6875 20.8171C27.41 20.4271 28.219 20.2249 29.04 20.2291Z" fill="#FCD770"/>
<path d="M28.551 27.281V28.321H29.527V27.369H30.503V25.941C30.4977 25.5575 30.3405 25.1917 30.0659 24.924C29.7912 24.6563 29.4215 24.5084 29.038 24.513C28.9103 24.5143 28.7872 24.465 28.6957 24.3758C28.6042 24.2866 28.5519 24.1647 28.55 24.037V23.557H29.038C29.1658 23.5556 29.2889 23.605 29.3803 23.6942C29.4718 23.7834 29.5242 23.9052 29.526 24.033V24.509H30.502V24.037C30.4988 23.7399 30.4031 23.4512 30.2282 23.211C30.0533 22.9708 29.8078 22.7912 29.526 22.697V21.657H28.55V22.609H27.575V24.037C27.5803 24.4205 27.7375 24.7863 28.0122 25.054C28.2868 25.3217 28.6565 25.4695 29.04 25.465C29.1678 25.4636 29.2909 25.513 29.3823 25.6022C29.4738 25.6914 29.5262 25.8132 29.528 25.941V26.417H29.04C28.9123 26.4183 28.7892 26.369 28.6977 26.2798C28.6062 26.1906 28.5539 26.0687 28.552 25.941V25.465H27.575V25.941C27.5782 26.2381 27.6739 26.5268 27.8488 26.767C28.0238 27.0071 28.2692 27.1868 28.551 27.281Z" fill="black"/>
<path d="M33.164 28.337C33.9667 27.4062 34.4088 26.2182 34.41 24.989C34.3902 23.5832 33.8139 22.2426 32.8072 21.2611C31.8006 20.2796 30.4459 19.7373 29.04 19.753C28.1983 19.7504 27.3676 19.9445 26.6141 20.3196C25.8606 20.6948 25.2052 21.2408 24.7 21.914L24.087 21.751L23.717 19.951C24.4843 19.4364 25.0662 18.6891 25.377 17.819C25.7325 17.7625 26.0712 17.6284 26.369 17.4262C26.6667 17.2239 26.9163 16.9586 27.1 16.649L28.068 14.998C28.4311 14.3805 28.5976 13.667 28.5455 12.9525C28.4933 12.238 28.2249 11.5563 27.776 10.998L26.045 8.82805C25.6802 8.37172 25.2166 8.00407 24.6892 7.75274C24.1618 7.50142 23.5842 7.37297 23 7.37705C22.4025 7.37851 21.8131 7.51526 21.276 7.77705L21.229 7.80005L21.181 7.77705C20.644 7.515 20.0545 7.37823 19.457 7.37705C18.8733 7.37349 18.2964 7.5022 17.7695 7.7535C17.2427 8.0048 16.7796 8.37218 16.415 8.82805L14.685 10.997C14.2359 11.5553 13.9675 12.237 13.9153 12.9515C13.8632 13.666 14.0298 14.3795 14.393 14.997L15.361 16.648C15.5447 16.9558 15.7936 17.2195 16.0903 17.4206C16.3869 17.6218 16.7241 17.7554 17.078 17.812C17.3885 18.6823 17.9704 19.4297 18.738 19.944L18.368 21.744L15.441 22.522C13.9525 22.9157 12.6151 23.7444 11.6 24.902C10.5729 26.0624 10.004 27.5574 10 29.107V34.507C10.009 35.1461 10.271 35.7555 10.7285 36.2016C11.1861 36.6478 11.802 36.8943 12.441 36.887H21.717C21.9726 36.89 22.2189 36.7914 22.4019 36.6129C22.5849 36.4344 22.6896 36.1906 22.693 35.935H23.669V36.887H34.41V30.538C34.4102 30.2238 34.347 29.9128 34.2241 29.6236C34.1012 29.3345 33.9213 29.073 33.695 28.855L33.164 28.337ZM29.04 20.705C29.8826 20.7265 30.7001 20.9959 31.3903 21.4797C32.0805 21.9634 32.6127 22.6399 32.9204 23.4246C33.228 24.2093 33.2974 25.0673 33.1199 25.8912C32.9424 26.7151 32.5258 27.4684 31.9223 28.0568C31.3188 28.6451 30.5552 29.0425 29.7271 29.1991C28.8989 29.3556 28.043 29.2645 27.2663 28.9371C26.4897 28.6097 25.8269 28.0605 25.3608 27.3582C24.8947 26.656 24.6461 25.8319 24.646 24.989C24.6621 23.8387 25.1337 22.7418 25.9574 21.9387C26.7811 21.1356 27.8897 20.692 29.04 20.705ZM23.691 30.477L23.678 31.177H23.589L22.64 26.089C22.8094 25.9547 22.9461 25.7838 23.04 25.589L23.815 26.189C24.0071 26.9815 24.384 27.7172 24.915 28.336L24.405 28.836C24.1838 29.0492 24.0068 29.3038 23.8842 29.5854C23.7615 29.867 23.6955 30.17 23.69 30.477H23.691ZM21.229 24.172L22.205 24.934V24.991C22.2032 25.1188 22.1508 25.2406 22.0593 25.3298C21.9678 25.419 21.8448 25.4684 21.717 25.467H20.74C20.6122 25.4684 20.4892 25.419 20.3977 25.3298C20.3062 25.2406 20.2538 25.1188 20.252 24.991V24.934L21.229 24.172ZM20.749 26.418H21.71L22.6 31.177H19.861L20.749 26.418ZM24.186 22.765C23.9879 23.1726 23.8449 23.6047 23.761 24.05L23.473 24.704L22.082 23.617L23.742 22.646L24.186 22.765ZM27.576 13.212C27.5756 13.6747 27.452 14.1289 27.218 14.528L26.249 16.177C26.0975 16.4277 25.8732 16.6262 25.606 16.746C25.614 16.638 25.623 16.53 25.623 16.42V14.345C25.622 14.0225 25.5539 13.7038 25.423 13.409C25.7694 13.2658 26.0658 13.0235 26.2752 12.7126C26.4846 12.4017 26.5976 12.0359 26.6 11.661C26.5975 11.3596 26.5213 11.0633 26.378 10.798L27 11.577C27.3692 12.0395 27.5712 12.6133 27.573 13.205L27.576 13.212ZM16.208 16.177L15.24 14.526C14.972 14.0708 14.8491 13.5448 14.8875 13.018C14.9259 12.4912 15.1238 11.9886 15.455 11.577L17.186 9.40705C17.4584 9.06672 17.8043 8.79249 18.1978 8.60492C18.5913 8.41736 19.0221 8.32133 19.458 8.32405C19.9042 8.32547 20.3442 8.42804 20.745 8.62405L21.229 8.86005L21.713 8.62405C22.1143 8.42997 22.5542 8.32912 23 8.32905C23.4359 8.32633 23.8667 8.42236 24.2602 8.60992C24.6537 8.79749 24.9996 9.07172 25.272 9.41205L25.93 10.237C25.574 9.92774 25.1186 9.75698 24.647 9.75605C24.1364 9.75016 23.6442 9.94677 23.2782 10.3028C22.9122 10.6589 22.7022 11.1455 22.694 11.656H23.67C23.665 11.4618 23.7181 11.2705 23.8224 11.1065C23.9268 10.9426 24.0776 10.8135 24.2557 10.7357C24.4338 10.6579 24.631 10.635 24.8222 10.6699C25.0133 10.7048 25.1898 10.796 25.3289 10.9317C25.468 11.0673 25.5635 11.2414 25.6031 11.4317C25.6428 11.6219 25.6248 11.8197 25.5515 11.9996C25.4782 12.1796 25.3529 12.3336 25.1916 12.442C25.0303 12.5504 24.8403 12.6082 24.646 12.608H23.212C22.7277 12.6124 22.2531 12.472 21.8491 12.2047C21.4452 11.9374 21.1304 11.5555 20.945 11.108L20.705 10.523L19.798 10.876L20.026 11.432L18.314 12.147C17.8786 12.3245 17.5055 12.6271 17.2421 13.0165C16.9786 13.406 16.8366 13.8649 16.834 14.335V16.411C16.834 16.521 16.843 16.629 16.851 16.737C16.5838 16.6171 16.3595 16.4186 16.208 16.168V16.177ZM17.808 16.421V14.345C17.81 14.0625 17.8958 13.7868 18.0546 13.5531C18.2134 13.3193 18.438 13.138 18.7 13.032L20.513 12.277C20.8361 12.6824 21.247 13.0091 21.7147 13.2328C22.1823 13.4564 22.6946 13.571 23.213 13.568H24.4C24.5564 13.7982 24.6406 14.0698 24.642 14.348V16.424C24.6157 17.3129 24.2441 18.1565 23.606 18.7759C22.968 19.3953 22.1137 19.7418 21.2245 19.7418C20.3353 19.7418 19.481 19.3953 18.843 18.7759C18.2049 18.1565 17.8333 17.3129 17.807 16.424L17.808 16.421ZM21.225 20.705C21.7685 20.7043 22.3074 20.6043 22.815 20.41L23.12 21.897L21.225 23.006L19.334 21.897L19.639 20.41C20.1466 20.6043 20.6855 20.7043 21.229 20.705H21.225ZM18.712 22.646L20.372 23.617L18.98 24.703L18.142 22.798L18.712 22.646ZM12.441 35.937C12.0575 35.9416 11.6878 35.7938 11.4132 35.526C11.1385 35.2583 10.9813 34.8926 10.976 34.509V29.109C10.9785 27.7883 11.4624 26.5137 12.337 25.524C13.2259 24.5143 14.3958 23.7925 15.697 23.451L17.197 23.051L18.597 26.228L19.42 25.586C19.5139 25.7808 19.6506 25.9517 19.82 26.086L18.869 31.177H14.882V28.797H13.906V31.177H12.93V32.129H21.718V35.937H12.441ZM22.693 32.129H24.158C24.5367 32.129 24.8999 32.2795 25.1677 32.5473C25.4356 32.8151 25.586 33.1783 25.586 33.557C25.586 33.9358 25.4356 34.299 25.1677 34.5668C24.8999 34.8346 24.5367 34.985 24.158 34.985H22.693V32.129ZM26.337 32.507V32.129H31.48V34.029H26.55C26.6599 33.5112 26.5849 32.9713 26.338 32.503L26.337 32.507ZM33.437 35.937H24.646V35.889C25.2226 35.7736 25.7381 35.4541 26.098 34.989H32.457V31.177H25.357V31.499C25.1369 31.3721 24.8984 31.2803 24.65 31.227L24.663 30.493C24.6661 30.3087 24.7056 30.1268 24.7793 29.9578C24.8529 29.7887 24.9592 29.6359 25.092 29.508L25.602 29.008C26.5738 29.7942 27.786 30.2231 29.036 30.2231C30.286 30.2231 31.4982 29.7942 32.47 29.008L33.001 29.526C33.136 29.6575 33.2435 29.8145 33.3172 29.9879C33.3908 30.1613 33.4292 30.3476 33.43 30.536L33.437 35.937Z" fill="black"/>
</svg>
