<svg width="44" height="44" viewBox="0 0 44 44" fill="none" xmlns="http://www.w3.org/2000/svg">
<path opacity="0.63" d="M38 0H6C2.68629 0 0 2.68629 0 6V38C0 41.3137 2.68629 44 6 44H38C41.3137 44 44 41.3137 44 38V6C44 2.68629 41.3137 0 38 0Z" fill="#DD538E"/>
<path d="M25.461 34.362H17.684C17.597 34.3601 17.5113 34.3412 17.4317 34.3063C17.3521 34.2713 17.2801 34.221 17.2199 34.1582C17.1597 34.0955 17.1125 34.0214 17.081 33.9404C17.0494 33.8594 17.0341 33.7729 17.036 33.686V32.875C17.0341 32.788 17.0494 32.7016 17.081 32.6205C17.1125 32.5395 17.1597 32.4655 17.2199 32.4027C17.2801 32.34 17.3521 32.2897 17.4317 32.2547C17.5113 32.2197 17.597 32.2008 17.684 32.199H25.461C25.5479 32.2008 25.6336 32.2197 25.7133 32.2547C25.7929 32.2897 25.8649 32.34 25.925 32.4027C25.9852 32.4655 26.0324 32.5395 26.064 32.6205C26.0955 32.7016 26.1108 32.788 26.109 32.875V33.686C26.1108 33.7729 26.0955 33.8594 26.064 33.9404C26.0324 34.0214 25.9852 34.0955 25.925 34.1582C25.8649 34.221 25.7929 34.2713 25.7133 34.3063C25.6336 34.3412 25.5479 34.3601 25.461 34.362Z" fill="#4073C8"/>
<path d="M25.461 32.1951H23.711C23.7979 32.1969 23.8837 32.2158 23.9633 32.2508C24.0429 32.2858 24.1149 32.3361 24.175 32.3988C24.2352 32.4616 24.2825 32.5356 24.314 32.6166C24.3456 32.6977 24.3609 32.7841 24.359 32.8711V33.6821C24.3609 33.769 24.3456 33.8555 24.314 33.9365C24.2825 34.0175 24.2352 34.0916 24.175 34.1543C24.1149 34.2171 24.0429 34.2674 23.9633 34.3024C23.8837 34.3373 23.7979 34.3562 23.711 34.3581H25.461C25.5479 34.3562 25.6337 34.3373 25.7133 34.3024C25.7929 34.2674 25.8649 34.2171 25.925 34.1543C25.9852 34.0916 26.0325 34.0175 26.064 33.9365C26.0956 33.8555 26.1109 33.769 26.109 33.6821V32.8711C26.1109 32.7841 26.0956 32.6977 26.064 32.6166C26.0325 32.5356 25.9852 32.4616 25.925 32.3988C25.8649 32.3361 25.7929 32.2858 25.7133 32.2508C25.6337 32.2158 25.5479 32.1969 25.461 32.1951Z" fill="#30579D"/>
<path d="M18.008 34.3569L18.48 37.4099C18.5225 37.721 18.6749 38.0065 18.9097 38.2149C19.1445 38.4233 19.4461 38.5407 19.76 38.5459H23.385C23.6989 38.5407 24.0005 38.4233 24.2353 38.2149C24.4701 38.0065 24.6225 37.721 24.665 37.4099L25.137 34.3569H18.008Z" fill="#9DC6FB"/>
<path d="M23.387 34.3569L22.915 37.4099C22.8725 37.721 22.7201 38.0065 22.4853 38.2149C22.2505 38.4233 21.9489 38.5407 21.635 38.5459H23.385C23.6989 38.5407 24.0005 38.4233 24.2353 38.2149C24.4701 38.0065 24.6225 37.721 24.665 37.4099L25.137 34.3569H23.387Z" fill="#80B4FB"/>
<path d="M31.294 18.9519C31.3501 17.6424 31.1411 16.3349 30.6794 15.1082C30.2176 13.8814 29.5128 12.7606 28.6071 11.813C27.7014 10.8654 26.6136 10.1106 25.409 9.59392C24.2043 9.07722 22.9077 8.80928 21.5969 8.80618C20.2861 8.80308 18.9883 9.06488 17.7812 9.57587C16.5741 10.0869 15.4827 10.8365 14.5726 11.7798C13.6624 12.7231 12.9523 13.8406 12.4848 15.0651C12.0173 16.2897 11.802 17.5961 11.852 18.9059C11.825 20.8376 12.349 22.7369 13.3626 24.3815C14.3761 26.0261 15.8373 27.3478 17.575 28.1919C17.8043 28.3042 17.9971 28.4791 18.1311 28.6964C18.2651 28.9138 18.3347 29.1646 18.332 29.4199V32.1959H24.813V29.4209C24.8115 29.1632 24.8831 28.9104 25.0196 28.6918C25.1561 28.4732 25.3518 28.2978 25.584 28.1859C27.3112 27.3439 28.7644 26.0294 29.775 24.3951C30.7856 22.7608 31.3123 20.8734 31.294 18.9519Z" fill="#F6E266"/>
<path d="M27.931 11.2859C28.5699 12.7798 28.8979 14.3881 28.895 16.0129C28.9572 19.0234 27.8214 21.9353 25.7373 24.1087C23.6532 26.282 20.7914 27.5388 17.781 27.6029C17.3051 27.603 16.8297 27.5716 16.358 27.5089C16.7464 27.7669 17.1531 27.9961 17.575 28.1949C17.8044 28.3072 17.9974 28.4823 18.1314 28.6998C18.2654 28.9173 18.3349 29.1684 18.332 29.4239V32.1979H24.813V29.4239C24.8116 29.1662 24.8833 28.9134 25.0198 28.6948C25.1562 28.4762 25.3519 28.3008 25.584 28.1889C27.3112 27.3468 28.7644 26.0324 29.775 24.398C30.7856 22.7637 31.3123 20.8764 31.294 18.9549C31.3017 17.5124 31.0063 16.0843 30.427 14.7632C29.8477 13.4421 28.9973 12.2574 27.931 11.2859Z" fill="#F1D333"/>
<path d="M21.571 18.9511C23.3604 18.9511 24.811 17.4387 24.811 15.5731C24.811 13.7075 23.3604 12.1951 21.571 12.1951C19.7816 12.1951 18.331 13.7075 18.331 15.5731C18.331 17.4387 19.7816 18.9511 21.571 18.9511Z" fill="#F1D0A5"/>
<path d="M23.183 12.6431C23.4661 13.1577 23.6141 13.7357 23.613 14.3231C23.6309 15.2006 23.2998 16.0493 22.6922 16.6827C22.0847 17.3162 21.2505 17.6824 20.373 17.7011C19.8049 17.7011 19.2476 17.5462 18.761 17.2531C19.0337 17.7628 19.4386 18.1896 19.9332 18.4888C20.4279 18.7879 20.9939 18.9483 21.572 18.9531C22.4495 18.9344 23.2837 18.5682 23.8912 17.9347C24.4988 17.3013 24.8299 16.4526 24.812 15.5751C24.8171 14.9872 24.6697 14.4081 24.3842 13.8942C24.0987 13.3803 23.6848 12.9493 23.183 12.6431Z" fill="#F1B986"/>
<path d="M16.128 21.6541V23.9541C16.1245 24.1279 16.1902 24.296 16.3106 24.4215C16.4309 24.5469 16.5962 24.6194 16.77 24.6231H26.37C26.5438 24.6194 26.7091 24.5469 26.8295 24.4215C26.9498 24.296 27.0155 24.1279 27.012 23.9541V21.6541C27.0257 20.9525 26.7604 20.2742 26.2745 19.768C25.7885 19.2618 25.1216 18.9691 24.42 18.9541H18.72C18.0185 18.9691 17.3515 19.2618 16.8656 19.768C16.3796 20.2742 16.1143 20.9525 16.128 21.6541Z" fill="#DD5790"/>
<path d="M24.423 18.9541H22.864C23.5656 18.9691 24.2325 19.2618 24.7185 19.768C25.2044 20.2742 25.4697 20.9525 25.456 21.6541V24.6271H26.37C26.5438 24.6234 26.7091 24.5509 26.8295 24.4255C26.9498 24.3 27.0155 24.1319 27.012 23.9581V21.6581C27.0268 20.9564 26.7624 20.2774 26.277 19.7704C25.7916 19.2635 25.1247 18.9698 24.423 18.9541Z" fill="#DA387D"/>
<path d="M24.775 23.276C24.7792 23.2102 24.77 23.1442 24.7477 23.0822C24.7255 23.0201 24.6907 22.9633 24.6456 22.9153C24.6005 22.8672 24.5461 22.8288 24.4856 22.8026C24.4251 22.7764 24.3599 22.7629 24.294 22.7629C24.2281 22.7629 24.1629 22.7764 24.1024 22.8026C24.0419 22.8288 23.9875 22.8672 23.9424 22.9153C23.8973 22.9633 23.8625 23.0201 23.8403 23.0822C23.818 23.1442 23.8088 23.2102 23.813 23.276V24.627H24.775V23.276Z" fill="#DA387D"/>
<path d="M19.331 24.627V23.276C19.3352 23.2102 19.3259 23.1442 19.3037 23.0822C19.2814 23.0201 19.2467 22.9633 19.2016 22.9153C19.1565 22.8672 19.1021 22.8288 19.0416 22.8026C18.9811 22.7764 18.9159 22.7629 18.85 22.7629C18.7841 22.7629 18.7189 22.7764 18.6584 22.8026C18.5979 22.8288 18.5434 22.8672 18.4984 22.9153C18.4533 22.9633 18.4185 23.0201 18.3963 23.0822C18.374 23.1442 18.3647 23.2102 18.369 23.276V24.627H19.331Z" fill="#DA387D"/>
<path d="M21.572 7.15709C21.442 7.15421 21.3185 7.1 21.2284 7.00631C21.1382 6.91262 21.0889 6.78708 21.091 6.65709V5.30209C21.0868 5.23632 21.096 5.17037 21.1183 5.10833C21.1405 5.04629 21.1753 4.98947 21.2204 4.94139C21.2654 4.89331 21.3199 4.85498 21.3804 4.82878C21.4409 4.80258 21.5061 4.78906 21.572 4.78906C21.6379 4.78906 21.7031 4.80258 21.7636 4.82878C21.8241 4.85498 21.8785 4.89331 21.9236 4.94139C21.9687 4.98947 22.0034 5.04629 22.0257 5.10833C22.0479 5.17037 22.0572 5.23632 22.053 5.30209V6.65509C22.0557 6.78542 22.0065 6.91148 21.9163 7.0056C21.8262 7.09972 21.7023 7.15421 21.572 7.15709Z" fill="#F6E266"/>
<path d="M15.675 8.80403C15.5894 8.80337 15.5055 8.77973 15.4321 8.73557C15.3588 8.69142 15.2986 8.62838 15.258 8.55303L14.61 7.38303C14.5458 7.26807 14.5283 7.13285 14.5611 7.00535C14.5938 6.87784 14.6744 6.76781 14.786 6.69802C14.8408 6.66525 14.9017 6.64397 14.9649 6.6355C15.0282 6.62703 15.0926 6.63154 15.154 6.64876C15.2155 6.66598 15.2728 6.69554 15.3225 6.73565C15.3722 6.77575 15.4132 6.82556 15.443 6.88202L16.091 8.05202C16.1551 8.16698 16.1726 8.3022 16.1399 8.4297C16.1071 8.55721 16.0266 8.66724 15.915 8.73703C15.8426 8.78082 15.7596 8.80399 15.675 8.80403Z" fill="#F6E266"/>
<path d="M11.357 13.3049C11.2724 13.3049 11.1894 13.2817 11.117 13.2379L9.99398 12.5619C9.88236 12.4921 9.80183 12.3821 9.76907 12.2546C9.73631 12.1271 9.75382 11.9918 9.81798 11.8769C9.84777 11.8204 9.88876 11.7706 9.93843 11.7305C9.98811 11.6904 10.0454 11.6609 10.1069 11.6436C10.1684 11.6264 10.2327 11.6219 10.296 11.6304C10.3593 11.6388 10.4202 11.6601 10.475 11.6929L11.598 12.3689C11.7096 12.4387 11.7901 12.5487 11.8229 12.6762C11.8556 12.8037 11.8381 12.9389 11.774 13.0539C11.7333 13.1292 11.6732 13.1923 11.5998 13.2364C11.5265 13.2806 11.4426 13.3042 11.357 13.3049Z" fill="#F6E266"/>
<path d="M9.77699 19.4529H8.47699C8.34438 19.4529 8.2172 19.4002 8.12344 19.3064C8.02967 19.2127 7.97699 19.0855 7.97699 18.9529C7.97699 18.8203 8.02967 18.6931 8.12344 18.5993C8.2172 18.5056 8.34438 18.4529 8.47699 18.4529H9.77699C9.9096 18.4529 10.0368 18.5056 10.1305 18.5993C10.2243 18.6931 10.277 18.8203 10.277 18.9529C10.277 19.0855 10.2243 19.2127 10.1305 19.3064C10.0368 19.4002 9.9096 19.4529 9.77699 19.4529Z" fill="#F6E266"/>
<path d="M10.236 26.278C10.1504 26.2774 10.0665 26.2537 9.99315 26.2096C9.9198 26.1654 9.85964 26.1024 9.81899 26.027C9.75483 25.9121 9.73732 25.7769 9.77008 25.6494C9.80284 25.5219 9.88336 25.4118 9.99499 25.342L11.118 24.666C11.1728 24.6333 11.2337 24.612 11.2969 24.6035C11.3602 24.595 11.4246 24.5996 11.486 24.6168C11.5475 24.634 11.6049 24.6636 11.6545 24.7037C11.7042 24.7438 11.7452 24.7936 11.775 24.85C11.8391 24.965 11.8567 25.1002 11.8239 25.2277C11.7911 25.3552 11.7106 25.4652 11.599 25.535L10.476 26.2111C10.4036 26.2549 10.3206 26.278 10.236 26.278Z" fill="#F6E266"/>
<path d="M27.469 8.80412C27.3844 8.80408 27.3014 8.78091 27.229 8.73712C27.1174 8.66733 27.0368 8.5573 27.0041 8.42979C26.9713 8.30229 26.9888 8.16707 27.053 8.05211L27.701 6.88211C27.7309 6.82575 27.7719 6.77605 27.8216 6.73603C27.8713 6.696 27.9286 6.66649 27.99 6.64929C28.0515 6.63208 28.1158 6.62754 28.179 6.63593C28.2423 6.64432 28.3032 6.66548 28.358 6.69811C28.4696 6.7679 28.5501 6.87793 28.5829 7.00544C28.6157 7.13294 28.5981 7.26816 28.534 7.38312L27.886 8.55312C27.8454 8.62853 27.7853 8.69164 27.7119 8.7358C27.6385 8.77997 27.5546 8.80356 27.469 8.80412Z" fill="#F6E266"/>
<path d="M31.787 13.3049C31.7013 13.3043 31.6174 13.2807 31.5441 13.2366C31.4707 13.1924 31.4105 13.1293 31.37 13.0539C31.3058 12.9389 31.2883 12.8037 31.3211 12.6762C31.3538 12.5487 31.4344 12.4387 31.546 12.3689L32.669 11.6929C32.7238 11.6601 32.7847 11.6388 32.8479 11.6304C32.9112 11.6219 32.9756 11.6264 33.037 11.6436C33.0985 11.6609 33.1559 11.6904 33.2055 11.7305C33.2552 11.7706 33.2962 11.8204 33.326 11.8769C33.3901 11.9918 33.4076 12.1271 33.3749 12.2546C33.3421 12.3821 33.2616 12.4921 33.15 12.5619L32.027 13.2379C31.9546 13.2817 31.8716 13.3049 31.787 13.3049Z" fill="#F6E266"/>
<path d="M34.663 19.4529H33.363C33.2304 19.4529 33.1032 19.4002 33.0094 19.3064C32.9157 19.2127 32.863 19.0855 32.863 18.9529C32.863 18.8203 32.9157 18.6931 33.0094 18.5993C33.1032 18.5056 33.2304 18.4529 33.363 18.4529H34.663C34.7956 18.4529 34.9228 18.5056 35.0165 18.5993C35.1103 18.6931 35.163 18.8203 35.163 18.9529C35.163 19.0855 35.1103 19.2127 35.0165 19.3064C34.9228 19.4002 34.7956 19.4529 34.663 19.4529Z" fill="#F6E266"/>
<path d="M32.908 26.2779C32.8234 26.2779 32.7404 26.2547 32.668 26.2109L31.545 25.5349C31.4334 25.4651 31.3529 25.3551 31.3201 25.2276C31.2873 25.1001 31.3049 24.9648 31.369 24.8499C31.3989 24.7935 31.4399 24.7438 31.4896 24.7038C31.5393 24.6638 31.5966 24.6343 31.6581 24.6171C31.7195 24.5999 31.7838 24.5953 31.847 24.6037C31.9103 24.6121 31.9712 24.6333 32.026 24.6659L33.149 25.3419C33.2606 25.4117 33.3412 25.5217 33.3739 25.6492C33.4067 25.7767 33.3892 25.9119 33.325 26.0269C33.2844 26.1023 33.2243 26.1654 33.1509 26.2096C33.0776 26.2538 32.9937 26.2773 32.908 26.2779Z" fill="#F6E266"/>
</svg>
