<svg width="44" height="44" viewBox="0 0 44 44" fill="none" xmlns="http://www.w3.org/2000/svg">
<g opacity="0.82">
<path opacity="0.63" d="M38 0H6C2.68629 0 0 2.68629 0 6V38C0 41.3137 2.68629 44 6 44H38C41.3137 44 44 41.3137 44 38V6C44 2.68629 41.3137 0 38 0Z" fill="#FED843"/>
</g>
<path d="M28.17 24.9721H23.299C23.0735 24.9721 22.8573 24.8825 22.6979 24.7231C22.5385 24.5637 22.449 24.3475 22.449 24.1221C22.449 23.8966 22.5385 23.6804 22.6979 23.521C22.8573 23.3616 23.0735 23.2721 23.299 23.2721H28.168C28.3864 23.265 28.5933 23.1717 28.7432 23.0126C28.8931 22.8536 28.9739 22.6416 28.968 22.4231V19.0291C28.968 18.8162 29.0525 18.6121 29.203 18.4616C29.3535 18.3111 29.5576 18.2266 29.7705 18.2266C29.9833 18.2266 30.1874 18.3111 30.3379 18.4616C30.4884 18.6121 30.573 18.8162 30.573 19.0291V22.4231C30.591 23.0794 30.3483 23.7161 29.8979 24.1938C29.4475 24.6716 28.8262 24.9514 28.17 24.9721Z" fill="#FF9100"/>
<path d="M20.0381 24.972H15.2231C14.5665 24.9526 13.9443 24.6738 13.493 24.1966C13.0416 23.7193 12.7978 23.0826 12.8151 22.426V19.032C12.8151 18.8192 12.8996 18.6151 13.0501 18.4646C13.2006 18.3141 13.4047 18.2295 13.6176 18.2295C13.8304 18.2295 14.0345 18.3141 14.185 18.4646C14.3355 18.6151 14.4201 18.8192 14.4201 19.032V22.426C14.4141 22.6445 14.495 22.8565 14.6449 23.0156C14.7948 23.1747 15.0016 23.2679 15.2201 23.275H20.0351C20.2605 23.275 20.4767 23.3646 20.6361 23.524C20.7955 23.6834 20.8851 23.8996 20.8851 24.125C20.8851 24.3504 20.7955 24.5666 20.6361 24.726C20.4767 24.8854 20.2605 24.975 20.0351 24.975L20.0381 24.972Z" fill="#FABE2C"/>
<path d="M20.894 24.97H22.499V33.456H20.894V24.97Z" fill="#FABE2C"/>
<path d="M21.697 24.97H22.497V33.456H21.697V24.97Z" fill="#FF9100"/>
<path d="M33.7881 13.5489V19.0309H25.7631V13.5489L29.7761 10.7129L33.7881 13.5489Z" fill="#F0F7FF"/>
<path d="M33.789 13.5489V19.0309H29.776V10.7129L33.789 13.5489Z" fill="#DFE7F4"/>
<path d="M35.036 13.234L30.221 9.84001C30.0912 9.74718 29.9356 9.69727 29.776 9.69727C29.6164 9.69727 29.4608 9.74718 29.331 9.84001L24.516 13.234C24.3367 13.3655 24.214 13.5601 24.1726 13.7786C24.1312 13.997 24.1742 14.223 24.293 14.411C24.3481 14.5024 24.4214 14.5814 24.5084 14.6432C24.5953 14.705 24.694 14.7483 24.7984 14.7703C24.9028 14.7924 25.0106 14.7927 25.1151 14.7713C25.2197 14.7499 25.3186 14.7073 25.406 14.646L29.776 11.566L34.146 14.646C34.2333 14.7074 34.3323 14.7502 34.4368 14.7717C34.5414 14.7931 34.6492 14.7929 34.7536 14.7708C34.8581 14.7488 34.9568 14.7054 35.0438 14.6435C35.1307 14.5816 35.204 14.5025 35.259 14.411C35.3777 14.223 35.4208 13.997 35.3794 13.7786C35.338 13.5601 35.2153 13.3655 35.036 13.234Z" fill="#979FEF"/>
<path d="M35.259 14.411C35.3778 14.2231 35.4208 13.997 35.3794 13.7786C35.338 13.5601 35.2153 13.3655 35.036 13.234L30.221 9.84002C30.0911 9.7474 29.9356 9.69743 29.776 9.69702V11.566L34.146 14.646C34.2332 14.7076 34.3323 14.7505 34.4368 14.772C34.5414 14.7936 34.6493 14.7933 34.7538 14.7713C34.8582 14.7492 34.957 14.7058 35.0439 14.6438C35.1309 14.5819 35.2041 14.5026 35.259 14.411Z" fill="#6B77E8"/>
<path d="M16.025 10.546V12.246C16.025 12.4588 15.9405 12.6629 15.79 12.8134C15.6395 12.9639 15.4354 13.0485 15.2225 13.0485C15.0097 13.0485 14.8056 12.9639 14.6551 12.8134C14.5046 12.6629 14.42 12.4588 14.42 12.246V10.546C14.42 10.3332 14.3355 10.129 14.185 9.97854C14.0345 9.82804 13.8304 9.74349 13.6175 9.74349C13.4047 9.74349 13.2006 9.82804 13.0501 9.97854C12.8996 10.129 12.815 10.3332 12.815 10.546V12.246C12.815 12.4588 12.7305 12.6629 12.58 12.8134C12.4295 12.9639 12.2254 13.0485 12.0125 13.0485C11.7997 13.0485 11.5956 12.9639 11.4451 12.8134C11.2946 12.6629 11.21 12.4588 11.21 12.246V10.546C11.1924 10.2189 11.2416 9.89167 11.3546 9.58423C11.4676 9.2768 11.6421 8.99561 11.8674 8.75784C12.0927 8.52007 12.3641 8.3307 12.665 8.20129C12.9659 8.07187 13.29 8.00513 13.6175 8.00513C13.9451 8.00513 14.2692 8.07187 14.5701 8.20129C14.871 8.3307 15.1424 8.52007 15.3677 8.75784C15.593 8.99561 15.7675 9.2768 15.8805 9.58423C15.9935 9.89167 16.0427 10.2189 16.025 10.546Z" fill="#FABE2C"/>
<path d="M15.2231 13.091C15.1145 13.0887 15.0075 13.0648 14.9083 13.0207C14.809 12.9766 14.7196 12.9132 14.6451 12.8342C14.5707 12.7552 14.5127 12.6621 14.4745 12.5605C14.4364 12.4588 14.4189 12.3505 14.423 12.242V10.542C14.4272 10.4335 14.4097 10.3253 14.3716 10.2236C14.3334 10.122 14.2754 10.0289 14.201 9.94988C14.1265 9.87086 14.0371 9.80745 13.9378 9.76335C13.8386 9.71926 13.7316 9.69536 13.623 9.69305V7.99805C13.9484 8.00685 14.2688 8.07972 14.566 8.21249C14.8632 8.34525 15.1313 8.5353 15.3549 8.77177C15.5786 9.00824 15.7534 9.28649 15.8694 9.5906C15.9855 9.8947 16.0404 10.2187 16.0311 10.544V12.244C16.0349 12.353 16.017 12.4617 15.9782 12.5637C15.9395 12.6656 15.8807 12.7588 15.8054 12.8377C15.7302 12.9166 15.6399 12.9797 15.5398 13.0232C15.4398 13.0667 15.3321 13.0898 15.2231 13.091Z" fill="#FF9100"/>
<path d="M19.236 14.7889V19.0319C19.2401 19.1404 19.2226 19.2486 19.1845 19.3503C19.1464 19.4519 19.0884 19.545 19.0139 19.624C18.9395 19.7031 18.85 19.7665 18.7508 19.8106C18.6516 19.8547 18.5445 19.8786 18.436 19.8809H8.79998C8.69143 19.8786 8.58442 19.8547 8.48519 19.8106C8.38597 19.7665 8.29652 19.7031 8.22205 19.624C8.14759 19.545 8.0896 19.4519 8.05147 19.3503C8.01335 19.2486 7.99584 19.1404 7.99998 19.0319V14.7889L9.41198 13.0889H17.871L19.236 14.7889Z" fill="#4B2746"/>
<path d="M19.236 14.7889V19.0319C19.2402 19.1404 19.2227 19.2486 19.1846 19.3503C19.1464 19.4519 19.0884 19.545 19.014 19.624C18.9395 19.7031 18.8501 19.7665 18.7508 19.8106C18.6516 19.8547 18.5446 19.8786 18.436 19.8809H13.618V13.0889H17.872L19.236 14.7889Z" fill="#351B33"/>
<path d="M35.394 19.0319C35.3982 19.1404 35.3807 19.2487 35.3425 19.3503C35.3044 19.452 35.2464 19.545 35.172 19.6241C35.0975 19.7031 35.008 19.7665 34.9088 19.8106C34.8096 19.8547 34.7026 19.8786 34.594 19.8809H24.958C24.7326 19.8809 24.5164 19.7913 24.357 19.6319C24.1976 19.4725 24.108 19.2563 24.108 19.0309C24.108 18.8055 24.1976 18.5893 24.357 18.4299C24.5164 18.2705 24.7326 18.1809 24.958 18.1809H34.588C34.6973 18.1824 34.8051 18.2058 34.9052 18.2497C35.0052 18.2935 35.0955 18.357 35.1706 18.4363C35.2457 18.5156 35.3042 18.6092 35.3426 18.7115C35.3809 18.8138 35.3984 18.9227 35.394 19.0319Z" fill="#C3EA21"/>
<path d="M18.433 11.3921H8.79998C8.69143 11.3944 8.58442 11.4183 8.48519 11.4624C8.38597 11.5065 8.29652 11.5699 8.22205 11.6489C8.14759 11.728 8.0896 11.821 8.05147 11.9227C8.01335 12.0243 7.99584 12.1326 7.99998 12.2411V14.7921H19.236V12.2431C19.2404 12.1342 19.223 12.0255 19.1848 11.9234C19.1466 11.8213 19.0884 11.7279 19.0136 11.6486C18.9388 11.5693 18.8489 11.5058 18.7492 11.4617C18.6495 11.4177 18.542 11.394 18.433 11.3921Z" fill="#613D5C"/>
<path d="M19.236 12.2431V14.7921H13.618V11.3921H18.433C18.542 11.394 18.6495 11.4177 18.7492 11.4617C18.849 11.5058 18.9389 11.5693 19.0137 11.6486C19.0885 11.7279 19.1467 11.8213 19.1849 11.9234C19.2231 12.0255 19.2405 12.1342 19.236 12.2431Z" fill="#4B2746"/>
<path d="M35.394 19.0319C35.3982 19.1404 35.3806 19.2487 35.3425 19.3503C35.3044 19.452 35.2464 19.545 35.1719 19.6241C35.0975 19.7031 35.008 19.7665 34.9088 19.8106C34.8096 19.8547 34.7026 19.8786 34.594 19.8809H29.776V18.1809H34.591C34.7 18.1828 34.8075 18.2065 34.9072 18.2505C35.0069 18.2946 35.0968 18.3581 35.1716 18.4374C35.2464 18.5167 35.3046 18.6101 35.3428 18.7122C35.381 18.8143 35.3984 18.923 35.394 19.0319Z" fill="#9CDD05"/>
<path d="M21.697 21.575C21.1874 21.5466 20.681 21.6717 20.2433 21.9343C19.8056 22.1968 19.4568 22.5847 19.2419 23.0477C19.0271 23.5106 18.9561 24.0274 19.0382 24.5312C19.1203 25.0349 19.3517 25.5024 19.7024 25.8733C20.0531 26.2441 20.507 26.5011 21.0054 26.6111C21.5038 26.7211 22.0238 26.679 22.498 26.4903C22.9722 26.3015 23.3789 25.9748 23.6654 25.5525C23.9519 25.1301 24.105 24.6314 24.105 24.121C24.1143 23.7956 24.0594 23.4717 23.9434 23.1676C23.8274 22.8635 23.6525 22.5852 23.4289 22.3487C23.2052 22.1123 22.9372 21.9222 22.64 21.7894C22.3428 21.6567 22.0224 21.5838 21.697 21.575Z" fill="#FED843"/>
<path d="M28.92 34.3061C28.924 34.4145 28.9064 34.5227 28.8682 34.6243C28.83 34.7259 28.772 34.8189 28.6976 34.8979C28.6232 34.9769 28.5338 35.0403 28.4346 35.0845C28.3354 35.1286 28.2285 35.1526 28.12 35.1551H15.274C15.1655 35.1526 15.0585 35.1286 14.9593 35.0845C14.8602 35.0403 14.7708 34.9769 14.6963 34.8979C14.6219 34.8189 14.5639 34.7259 14.5257 34.6243C14.4876 34.5227 14.47 34.4145 14.474 34.3061C14.4644 33.9805 14.5191 33.6563 14.635 33.352C14.7509 33.0477 14.9257 32.7692 15.1494 32.5325C15.373 32.2958 15.6412 32.1056 15.9385 31.9727C16.2358 31.8398 16.5564 31.7669 16.882 31.7581H26.512C26.8375 31.7669 27.1581 31.8398 27.4554 31.9727C27.7527 32.1056 28.0209 32.2958 28.2446 32.5325C28.4683 32.7692 28.6431 33.0477 28.7589 33.352C28.8748 33.6563 28.9296 33.9805 28.92 34.3061Z" fill="#FED843"/>
<path d="M21.697 26.6689V21.575C22.346 21.6136 22.9557 21.8985 23.4015 22.3717C23.8473 22.8448 24.0956 23.4704 24.0956 24.1205C24.0956 24.7705 23.8473 25.3961 23.4015 25.8692C22.9557 26.3424 22.346 26.6274 21.697 26.666V26.6689Z" fill="#FABE2C"/>
<path d="M28.92 34.3061C28.924 34.4145 28.9064 34.5227 28.8683 34.6243C28.8301 34.7259 28.7721 34.8189 28.6976 34.8979C28.6232 34.9769 28.5338 35.0403 28.4346 35.0845C28.3355 35.1286 28.2285 35.1526 28.12 35.1551H21.697V31.7581H26.512C26.8376 31.7669 27.1582 31.8398 27.4555 31.9727C27.7528 32.1056 28.0209 32.2958 28.2446 32.5325C28.4683 32.7692 28.6431 33.0477 28.759 33.352C28.8749 33.6563 28.9296 33.9805 28.92 34.3061Z" fill="#FABE2C"/>
</svg>
