<svg width="44" height="44" viewBox="0 0 44 44" fill="none" xmlns="http://www.w3.org/2000/svg">
<g opacity="0.82">
<path opacity="0.63" d="M38 0H6C2.68629 0 0 2.68629 0 6V38C0 41.3137 2.68629 44 6 44H38C41.3137 44 44 41.3137 44 38V6C44 2.68629 41.3137 0 38 0Z" fill="#E64C3C"/>
</g>
<path d="M9.85703 33.352L7.05703 18.052C7.02979 17.9044 7.01275 17.755 7.00603 17.605C6.99928 16.7507 7.30381 15.9232 7.86272 15.2771C8.42163 14.6309 9.19667 14.2104 10.043 14.094L15.456 13.176L15.305 33.352H9.85703Z" fill="#35495E"/>
<path d="M30.687 32.681C30.6375 32.8663 30.5358 33.0334 30.394 33.1625C30.2521 33.2916 30.0761 33.3772 29.887 33.409L13.957 36.109C13.4627 36.1929 12.9564 36.174 12.4696 36.0536C11.9829 35.9332 11.5262 35.7137 11.128 35.409C10.7397 35.1131 10.4204 34.7362 10.1925 34.3045C9.96453 33.8728 9.83334 33.3966 9.80803 32.909C9.79959 32.0903 10.0784 31.2946 10.596 30.6602C11.1137 30.0258 11.8373 29.593 12.641 29.437L17.104 30.637H17.099L13.081 31.322C12.8623 31.3575 12.6539 31.4404 12.4706 31.5649C12.2873 31.6895 12.1335 31.8527 12.02 32.043C11.9101 32.2295 11.8446 32.4389 11.8286 32.6548C11.8127 32.8707 11.8467 33.0874 11.928 33.288C12.0741 33.612 12.3253 33.8771 12.641 34.0403C12.9567 34.2034 13.3183 34.2552 13.667 34.187L25.842 32.123L30.687 32.681Z" fill="#2C3E50"/>
<path d="M17.099 30.6421L13.081 31.3271C12.8623 31.3625 12.6539 31.4454 12.4706 31.57C12.2873 31.6946 12.1335 31.8577 12.02 32.0481C11.9101 32.2346 11.8446 32.4439 11.8286 32.6598C11.8127 32.8758 11.8467 33.0924 11.928 33.2931C12.0749 33.6161 12.3265 33.8801 12.6421 34.0424C12.9577 34.2046 13.3188 34.2556 13.667 34.1871L25.842 32.1231L17.099 30.6421Z" fill="#F9EAB0"/>
<path d="M13.448 24.1061L16.257 8.80206C16.3118 8.54446 16.4646 8.31824 16.6831 8.17121C16.9016 8.02417 17.1687 7.96782 17.428 8.01406L33.235 10.6941C34.0822 10.8104 34.858 11.2313 35.4175 11.878C35.9769 12.5247 36.2818 13.353 36.275 14.2081C36.268 14.3574 36.251 14.506 36.224 14.6531L33.415 29.9531L13.448 24.1061Z" fill="#E64C3C"/>
<path d="M29.93 13.0849C29.9006 13.085 29.8711 13.0826 29.842 13.0779L18.394 11.1359C18.2717 11.1096 18.1642 11.0371 18.094 10.9335C18.0238 10.83 17.9962 10.7033 18.017 10.5799C18.0414 10.4556 18.112 10.3452 18.2147 10.2709C18.3173 10.1966 18.4443 10.1641 18.57 10.1799L30.017 12.1189C30.1391 12.1372 30.2498 12.201 30.3269 12.2974C30.4041 12.3938 30.442 12.5158 30.433 12.6389C30.4192 12.7616 30.3605 12.8748 30.2682 12.9568C30.1759 13.0388 30.0565 13.0837 29.933 13.0829L29.93 13.0849Z" fill="#3F5C6C"/>
<path d="M27.5 15.135C27.4705 15.1349 27.4411 15.1322 27.412 15.127L19.946 13.864C19.8188 13.8426 19.7052 13.7717 19.6302 13.6667C19.5552 13.5617 19.5249 13.4312 19.546 13.304C19.5704 13.1757 19.644 13.062 19.751 12.9872C19.8581 12.9125 19.9902 12.8826 20.119 12.904L27.585 14.167C27.7079 14.1846 27.8194 14.2482 27.8972 14.3449C27.975 14.4416 28.0131 14.5642 28.004 14.688C27.9899 14.8117 27.93 14.9256 27.8363 15.0076C27.7425 15.0895 27.6215 15.1335 27.497 15.131L27.5 15.135Z" fill="#3F5C6C"/>
<path d="M18.0955 15.533L28.5489 17.3074C28.6129 17.3171 28.6743 17.3394 28.7296 17.373C28.7849 17.4067 28.8329 17.4509 28.8709 17.5033C28.9089 17.5557 28.9361 17.6151 28.951 17.678C28.9658 17.741 28.968 17.8063 28.9574 17.8702L28.0778 22.6533C28.0522 22.7831 27.9762 22.8975 27.8665 22.9714C27.7567 23.0453 27.6221 23.0727 27.4922 23.0476L17.0388 21.2732C16.9748 21.2635 16.9134 21.2412 16.8582 21.2076C16.8029 21.1739 16.7548 21.1297 16.7168 21.0773C16.6788 21.0249 16.6516 20.9655 16.6368 20.9026C16.6219 20.8396 16.6197 20.7743 16.6304 20.7104L17.5185 15.9247C17.5447 15.7972 17.6197 15.6849 17.7275 15.6117C17.8352 15.5386 17.9673 15.5103 18.0955 15.533Z" fill="#ECF0F1"/>
<path d="M36.274 14.203C36.2679 14.353 36.2508 14.5024 36.223 14.65L33.413 29.95L29.517 28.809L31.776 16.509L32.312 13.609L32.858 10.637L33.237 10.7C34.083 10.8171 34.8576 11.2379 35.4163 11.8839C35.9751 12.5298 36.2799 13.3569 36.274 14.211V14.203Z" fill="#C03A2B"/>
<path d="M30.426 25.994L14.618 23.319C14.5595 23.3092 14.5003 23.3041 14.441 23.304C14.1941 23.3024 13.9554 23.3923 13.7707 23.5562C13.5861 23.7202 13.4687 23.9466 13.441 24.192C13.423 24.4385 13.4988 24.6827 13.6533 24.8756C13.8078 25.0685 14.0295 25.1958 14.274 25.232L30.199 27.932C30.4176 27.9687 30.6255 28.0526 30.8083 28.178C30.991 28.3034 31.1442 28.4672 31.257 28.658C31.3664 28.8449 31.4314 29.0545 31.4468 29.2706C31.4622 29.4867 31.4278 29.7034 31.346 29.904C31.1983 30.2254 30.9461 30.4873 30.6305 30.6471C30.3149 30.8069 29.9545 30.8551 29.608 30.784L13.743 28.102C13.6845 28.0922 13.6253 28.0871 13.566 28.087C13.3179 28.0831 13.0772 28.1717 12.8907 28.3354C12.7042 28.4992 12.5853 28.7264 12.557 28.973C12.5384 29.2196 12.6139 29.4642 12.7682 29.6575C12.9226 29.8508 13.1444 29.9785 13.389 30.015L29.319 32.715C29.8132 32.7988 30.3194 32.78 30.8059 32.6595C31.2925 32.5391 31.749 32.3197 32.147 32.015C32.5357 31.7193 32.8552 31.3425 33.0833 30.9107C33.3114 30.4789 33.4427 30.0026 33.468 29.515C33.4749 28.6588 33.17 27.8294 32.6103 27.1815C32.0505 26.5336 31.2741 26.1115 30.426 25.994Z" fill="#802F34"/>
<path d="M31.341 29.8989C31.1949 30.2212 30.944 30.4845 30.6291 30.646C30.3143 30.8074 29.954 30.8575 29.607 30.7879L13.743 28.1019L14.269 25.2319L30.194 27.9319C30.4126 27.9686 30.6205 28.0526 30.8033 28.178C30.986 28.3034 31.1392 28.4672 31.252 28.6579C31.3607 28.8443 31.4252 29.053 31.4406 29.2681C31.456 29.4832 31.422 29.699 31.341 29.8989Z" fill="#F9EAB0"/>
</svg>
