<svg width="44" height="44" viewBox="0 0 44 44" fill="none" xmlns="http://www.w3.org/2000/svg">
<path opacity="0.63" d="M38 0H6C2.68629 0 0 2.68629 0 6V38C0 41.3137 2.68629 44 6 44H38C41.3137 44 44 41.3137 44 38V6C44 2.68629 41.3137 0 38 0Z" fill="#F08484"/>
<path d="M24.8569 17.6137C23.88 16.7016 22.5934 16.1943 21.2569 16.1943C19.9204 16.1943 18.6337 16.7016 17.6569 17.6137L16.6769 18.5477L15.6959 17.6137C14.7189 16.7019 13.4323 16.1947 12.0959 16.1947C10.7595 16.1947 9.47286 16.7019 8.49589 17.6137C8.02531 18.0521 7.65003 18.5826 7.39342 19.1723C7.13682 19.7619 7.00439 20.3981 7.00439 21.0412C7.00439 21.6843 7.13682 22.3205 7.39342 22.9102C7.65003 23.4999 8.02531 24.0304 8.49589 24.4687L9.47689 25.4027L16.6769 32.2577L23.8769 25.4027L24.8579 24.4687C25.3286 24.0305 25.704 23.5 25.9607 22.9103C26.2174 22.3206 26.3498 21.6844 26.3498 21.0412C26.3498 20.3981 26.2174 19.7619 25.9607 19.1722C25.704 18.5825 25.3286 18.052 24.8579 17.6137H24.8569Z" stroke="#F81111" stroke-width="2" stroke-linecap="round" stroke-linejoin="round"/>
<path d="M34.7889 13.4199C33.812 12.5078 32.5254 12.0005 31.1889 12.0005C29.8524 12.0005 28.5658 12.5078 27.5889 13.4199L26.6089 14.3539L25.6279 13.4199C24.6509 12.508 23.3643 12.0009 22.0279 12.0009C20.6915 12.0009 19.4049 12.508 18.4279 13.4199C17.9573 13.8582 17.582 14.3887 17.3254 14.9784C17.0688 15.5681 16.9364 16.2043 16.9364 16.8474C16.9364 17.4905 17.0688 18.1267 17.3254 18.7164C17.582 19.306 17.9573 19.8366 18.4279 20.2749L19.4089 21.2089L26.6089 28.0639L33.8089 21.2089L34.7899 20.2749C35.2606 19.8367 35.636 19.3062 35.8927 18.7165C36.1494 18.1268 36.2819 17.4905 36.2819 16.8474C36.2819 16.2043 36.1494 15.568 35.8927 14.9783C35.636 14.3886 35.2606 13.8581 34.7899 13.4199H34.7889Z" stroke="#F81111" stroke-width="2" stroke-linecap="round" stroke-linejoin="round"/>
</svg>
