<svg width="32" height="32" viewBox="0 0 32 32" fill="none" xmlns="http://www.w3.org/2000/svg">
<path fill-rule="evenodd" clip-rule="evenodd" d="M20.292 9.29183C20.3848 9.19871 20.4952 9.12482 20.6167 9.07441C20.7382 9.024 20.8684 8.99805 21 8.99805C21.1315 8.99805 21.2617 9.024 21.3832 9.07441C21.5047 9.12482 21.6151 9.19871 21.708 9.29183L27.708 15.2918C27.8011 15.3847 27.875 15.4951 27.9254 15.6166C27.9758 15.7381 28.0017 15.8683 28.0017 15.9998C28.0017 16.1314 27.9758 16.2616 27.9254 16.3831C27.875 16.5046 27.8011 16.6149 27.708 16.7078L21.708 22.7078C21.5202 22.8956 21.2655 23.0011 21 23.0011C20.7344 23.0011 20.4797 22.8956 20.292 22.7078C20.1042 22.5201 19.9987 22.2654 19.9987 21.9998C19.9987 21.7343 20.1042 21.4796 20.292 21.2918L25.586 15.9998L20.292 10.7078C20.1988 10.6149 20.1249 10.5046 20.0745 10.3831C20.0241 10.2616 19.9982 10.1314 19.9982 9.99983C19.9982 9.8683 20.0241 9.73806 20.0745 9.61657C20.1249 9.49508 20.1988 9.38473 20.292 9.29183Z" fill="#FFDE00"/>
<path fill-rule="evenodd" clip-rule="evenodd" d="M4 16C4 15.7348 4.10536 15.4804 4.29289 15.2929C4.48043 15.1054 4.73478 15 5 15H26C26.2652 15 26.5196 15.1054 26.7071 15.2929C26.8946 15.4804 27 15.7348 27 16C27 16.2652 26.8946 16.5196 26.7071 16.7071C26.5196 16.8946 26.2652 17 26 17H5C4.73478 17 4.48043 16.8946 4.29289 16.7071C4.10536 16.5196 4 16.2652 4 16Z" fill="#FFDE00"/>
</svg>
