<svg width="44" height="44" viewBox="0 0 44 44" fill="none" xmlns="http://www.w3.org/2000/svg">
<g opacity="0.82">
<path opacity="0.63" d="M38 0H6C2.68629 0 0 2.68629 0 6V38C0 41.3137 2.68629 44 6 44H38C41.3137 44 44 41.3137 44 38V6C44 2.68629 41.3137 0 38 0Z" fill="#FFE4C1"/>
</g>
<path d="M12.561 23.7579C12.4495 23.7302 12.3318 23.744 12.2297 23.7966C12.1277 23.8492 12.0482 23.9371 12.006 24.0439C11.761 24.7439 11.139 25.8949 10.494 26.0329C10.404 26.0519 10.13 26.1109 9.68099 25.6939C9.2569 25.2383 8.97836 24.6666 8.88099 24.0519C9.04389 24.0967 9.21204 24.1195 9.38099 24.1199C9.90492 24.0405 10.4078 23.8575 10.8601 23.5814C11.3123 23.3052 11.705 22.9417 12.015 22.5119C12.0479 22.4679 12.071 22.4174 12.0826 22.3638C12.0942 22.3101 12.0941 22.2546 12.0824 22.201C12.0706 22.1474 12.0474 22.0969 12.0144 22.0531C11.9814 22.0092 11.9393 21.973 11.891 21.9469C11.7903 21.8862 11.671 21.864 11.5552 21.8844C11.4394 21.9048 11.3349 21.9664 11.261 22.0579C11.25 22.0719 10.302 23.3009 9.37899 23.2999C9.23539 23.3008 9.09346 23.269 8.96399 23.2069C8.94899 23.1999 8.76399 23.0989 8.70399 22.4909C8.68629 21.8306 8.71972 21.17 8.80399 20.5149C8.88899 19.9289 9.02199 19.2149 9.22199 18.3519C9.76599 16.0039 10.529 13.7239 10.537 13.7009C10.553 13.6479 10.5578 13.5921 10.5512 13.5371C10.5445 13.4822 10.5265 13.4292 10.4983 13.3815C10.4701 13.3338 10.4323 13.2926 10.3874 13.2603C10.3424 13.228 10.2912 13.2054 10.237 13.1939C10.1259 13.1603 10.0062 13.1696 9.90159 13.22C9.79699 13.2703 9.71507 13.3581 9.67199 13.4659C9.66399 13.4889 8.89099 15.7989 8.33799 18.1809C8.12109 19.1487 7.96875 20.1299 7.88199 21.1179C7.76908 22.2976 7.87933 23.488 8.20699 24.6269C8.3427 25.2298 8.62426 25.7902 9.02699 26.2589C9.38138 26.6263 9.8648 26.8415 10.375 26.8589C10.4856 26.8589 10.5959 26.8471 10.704 26.8239C12.063 26.5319 12.797 24.5009 12.876 24.2699C12.8927 24.2155 12.8977 24.1582 12.8905 24.1017C12.8833 24.0453 12.8642 23.991 12.8344 23.9426C12.8046 23.8941 12.7648 23.8526 12.7176 23.8207C12.6705 23.7889 12.6171 23.7675 12.561 23.7579Z" fill="#DA4A54"/>
<path d="M36.302 18.1819C35.75 15.7999 34.976 13.4899 34.968 13.4669C34.9249 13.3591 34.843 13.2713 34.7384 13.221C34.6338 13.1706 34.5141 13.1613 34.403 13.1949C34.3488 13.2063 34.2976 13.2289 34.2527 13.2612C34.2077 13.2935 34.1699 13.3348 34.1417 13.3825C34.1135 13.4301 34.0955 13.4831 34.0888 13.5381C34.0822 13.5931 34.087 13.6488 34.103 13.7019C34.111 13.7249 34.874 16.0019 35.418 18.3529C35.618 19.2209 35.753 19.9339 35.837 20.5209C35.921 21.174 35.9544 21.8326 35.937 22.4909C35.873 23.0999 35.693 23.1999 35.677 23.2069C35.5485 23.2687 35.4076 23.3005 35.265 23.2999C34.345 23.2999 33.391 22.0719 33.38 22.0579C33.3061 21.9664 33.2016 21.9048 33.0858 21.8844C32.97 21.864 32.8507 21.8862 32.75 21.9469C32.7017 21.973 32.6596 22.0092 32.6266 22.053C32.5936 22.0969 32.5704 22.1473 32.5586 22.201C32.5469 22.2546 32.5468 22.3101 32.5584 22.3638C32.5701 22.4174 32.5931 22.4679 32.626 22.5119C32.936 22.9417 33.3286 23.3053 33.7809 23.5814C34.2332 23.8575 34.7361 24.0406 35.26 24.1199C35.429 24.1195 35.5971 24.0967 35.76 24.0519C35.6629 24.6669 35.3843 25.239 34.96 25.6949C34.511 26.1109 34.237 26.0529 34.147 26.0339C33.498 25.8949 32.872 24.7339 32.63 24.0339C32.5862 23.9263 32.5037 23.8391 32.3987 23.7893C32.2938 23.7395 32.174 23.7308 32.063 23.7649C32.0086 23.7763 31.9572 23.799 31.912 23.8314C31.8669 23.8638 31.829 23.9053 31.8007 23.9532C31.7725 24.0011 31.7546 24.0543 31.7481 24.1095C31.7416 24.1648 31.7467 24.2207 31.763 24.2739C31.842 24.5049 32.576 26.5359 33.935 26.8279C34.0431 26.8511 34.1534 26.8628 34.264 26.8629C34.7742 26.8455 35.2576 26.6303 35.612 26.2629C36.1819 25.5069 36.5442 24.6151 36.663 23.6759C36.8026 22.9784 36.8464 22.2651 36.793 21.5559C36.7128 20.4206 36.5487 19.2929 36.302 18.1819Z" fill="#DA4A54"/>
<path d="M24.514 31.5299H20.129C19.9255 31.5405 19.726 31.4701 19.5742 31.3341C19.4224 31.198 19.3307 31.0074 19.319 30.8039V28.8899H25.319V30.8039C25.3074 31.0065 25.2164 31.1963 25.0657 31.3322C24.915 31.4682 24.7167 31.5392 24.514 31.5299Z" fill="#454045"/>
<path d="M15.178 34.9651H11.351C11.27 34.9694 11.1905 34.9414 11.1301 34.8872C11.0698 34.833 11.0334 34.7571 11.029 34.6761V33.7011C11.0334 33.62 11.0698 33.5441 11.1301 33.4899C11.1905 33.4357 11.27 33.4077 11.351 33.4121H15.178C15.259 33.4077 15.3384 33.4357 15.3988 33.4899C15.4592 33.5441 15.4956 33.62 15.5 33.7011V34.6761C15.4956 34.7571 15.4592 34.833 15.3988 34.8872C15.3384 34.9414 15.259 34.9694 15.178 34.9651Z" fill="#AFAAB4"/>
<path d="M15.178 33.416H14.005C14.086 33.4116 14.1655 33.4396 14.2258 33.4938C14.2862 33.548 14.3226 33.624 14.327 33.705V34.6799C14.3226 34.761 14.2862 34.8369 14.2258 34.8911C14.1655 34.9453 14.086 34.9733 14.005 34.9689H15.177C15.258 34.9733 15.3375 34.9453 15.3978 34.8911C15.4582 34.8369 15.4946 34.761 15.499 34.6799V33.705C15.4946 33.6241 15.4584 33.5483 15.3982 33.4942C15.338 33.44 15.2589 33.4119 15.178 33.416Z" fill="#A298A5"/>
<path d="M19.319 28.5759L14.987 30.5039C14.7321 30.6078 14.5131 30.7837 14.3566 31.0101C14.2001 31.2366 14.1131 31.5037 14.106 31.7789V33.4169H12.421V31.1379C12.4287 30.1921 12.8029 29.2862 13.465 28.6109L16.489 25.4529L19.319 28.5759Z" fill="#544F57"/>
<path d="M13.906 28.1499C14.7437 28.7999 15.6574 29.3456 16.627 29.7749L19.32 28.5749L16.49 25.4519L13.906 28.1499Z" fill="#454045"/>
<path d="M29.466 34.9651H33.293C33.374 34.9694 33.4534 34.9414 33.5138 34.8872C33.5742 34.833 33.6106 34.7571 33.615 34.6761V33.7011C33.6106 33.62 33.5742 33.5441 33.5138 33.4899C33.4534 33.4357 33.374 33.4077 33.293 33.4121H29.466C29.385 33.4077 29.3055 33.4357 29.2451 33.4899C29.1848 33.5441 29.1484 33.62 29.144 33.7011V34.6761C29.1484 34.7571 29.1848 34.833 29.2451 34.8872C29.3055 34.9414 29.385 34.9694 29.466 34.9651Z" fill="#AFAAB4"/>
<path d="M33.293 33.416H32.036C32.117 33.4116 32.1965 33.4396 32.2568 33.4938C32.3172 33.548 32.3536 33.624 32.358 33.705V34.6799C32.3536 34.761 32.3172 34.8369 32.2568 34.8911C32.1965 34.9453 32.117 34.9733 32.036 34.9689H33.293C33.374 34.9733 33.4535 34.9453 33.5139 34.8911C33.5742 34.8369 33.6106 34.761 33.615 34.6799V33.705C33.6106 33.624 33.5742 33.548 33.5139 33.4938C33.4535 33.4396 33.374 33.4116 33.293 33.416Z" fill="#A298A5"/>
<path d="M25.324 28.5759L29.656 30.5039C29.9109 30.6078 30.1299 30.7837 30.2864 31.0101C30.4429 31.2366 30.5299 31.5037 30.537 31.7789V33.4169H32.223V31.1379C32.2153 30.1921 31.8411 29.2862 31.179 28.6109L28.155 25.4529L25.324 28.5759Z" fill="#544F57"/>
<path d="M28.154 25.4519L25.324 28.5749L28.017 29.7749C28.9866 29.3457 29.9003 28.8 30.738 28.1499L28.154 25.4519Z" fill="#454045"/>
<path d="M18.993 11.2721L12.668 16.9491L9.52701 14.1271C9.36761 13.9915 9.23957 13.8229 9.15177 13.633C9.06397 13.4431 9.01849 13.2363 9.01849 13.0271C9.01849 12.8178 9.06397 12.6111 9.15177 12.4212C9.23957 12.2312 9.36761 12.0626 9.52701 11.9271L13.401 8.45309C13.7417 8.15937 14.1766 7.9978 14.6265 7.9978C15.0764 7.9978 15.5113 8.15937 15.852 8.45309L18.993 11.2721Z" fill="#544F57"/>
<path d="M10.475 14.978L12.669 16.946L18.993 11.274L16.598 9.12598C13.9232 10.2822 11.751 12.3582 10.475 14.978Z" fill="#454045"/>
<path d="M12.322 9.42205L10.602 10.9621L10.302 10.6861C10.1905 10.5911 10.1009 10.4731 10.0394 10.3402C9.97799 10.2072 9.94617 10.0625 9.94617 9.91605C9.94617 9.76959 9.97799 9.62488 10.0394 9.49193C10.1009 9.35898 10.1905 9.24096 10.302 9.14605C10.5407 8.94032 10.8454 8.82715 11.1605 8.82715C11.4757 8.82715 11.7803 8.94032 12.019 9.14605L12.322 9.42205Z" fill="#DA4A54"/>
<path d="M32.321 9.42205L34.038 10.9621L34.346 10.6861C34.4575 10.5911 34.5471 10.4731 34.6086 10.3402C34.67 10.2072 34.7018 10.0625 34.7018 9.91605C34.7018 9.76959 34.67 9.62488 34.6086 9.49193C34.5471 9.35898 34.4575 9.24096 34.346 9.14605C34.1073 8.94032 33.8026 8.82715 33.4875 8.82715C33.1724 8.82715 32.8677 8.94032 32.629 9.14605L32.321 9.42205Z" fill="#DA4A54"/>
<path d="M25.65 11.2719L31.974 16.9439L35.115 14.1259C35.2744 13.9904 35.4025 13.8218 35.4903 13.6318C35.5781 13.4419 35.6235 13.2352 35.6235 13.0259C35.6235 12.8167 35.5781 12.6099 35.4903 12.42C35.4025 12.2301 35.2744 12.0615 35.115 11.9259L31.242 8.44991C30.9013 8.1562 30.4664 7.99463 30.0165 7.99463C29.5667 7.99463 29.1318 8.1562 28.791 8.44991L25.65 11.2719Z" fill="#544F57"/>
<path d="M34.166 14.978C32.8902 12.3579 30.718 10.2814 28.043 9.125L25.648 11.273L31.972 16.945L34.166 14.978Z" fill="#454045"/>
<path d="M22.322 29.937C28.7837 29.937 34.022 25.2387 34.022 19.443C34.022 13.6473 28.7837 8.94897 22.322 8.94897C15.8603 8.94897 10.622 13.6473 10.622 19.443C10.622 25.2387 15.8603 29.937 22.322 29.937Z" fill="#AFAAB4"/>
<path d="M22.322 8.94902C22.068 8.94902 21.815 8.95702 21.565 8.97102C27.674 9.32102 32.508 13.871 32.508 19.442C32.508 25.013 27.674 29.563 21.565 29.913C21.815 29.927 22.065 29.935 22.322 29.935C28.783 29.935 34.022 25.235 34.022 19.441C34.022 13.647 28.784 8.94702 22.322 8.94702V8.94902Z" fill="#A298A5"/>
<path d="M28.943 19.1909C29.1091 19.2013 29.2755 19.1738 29.4294 19.1106C29.5834 19.0475 29.721 18.9501 29.8319 18.826C29.9429 18.7019 30.0242 18.5543 30.0697 18.3942C30.1153 18.2341 30.124 18.0658 30.095 17.9019C29.548 16.2736 28.5034 14.8583 27.1087 13.8556C25.7141 12.8529 24.0397 12.3135 22.322 12.3135C20.6043 12.3135 18.93 12.8529 17.5353 13.8556C16.1407 14.8583 15.0961 16.2736 14.549 17.9019C14.5201 18.0658 14.5287 18.2341 14.5743 18.3942C14.6199 18.5543 14.7012 18.7019 14.8121 18.826C14.923 18.9501 15.0606 19.0475 15.2146 19.1106C15.3686 19.1738 15.5349 19.2013 15.701 19.1909H28.943Z" fill="#E4F6FF"/>
<path d="M30.095 17.902C29.6043 16.2384 28.5743 14.7853 27.1671 13.7715C25.7598 12.7577 24.0553 12.2407 22.322 12.302C22.0667 12.302 21.8143 12.3127 21.565 12.334C23.1677 12.418 24.7045 12.9991 25.9619 13.9966C27.2192 14.994 28.1346 16.3584 28.581 17.9C28.6099 18.0639 28.6013 18.2322 28.5557 18.3923C28.5101 18.5524 28.4288 18.7001 28.3179 18.8242C28.207 18.9483 28.0694 19.0456 27.9154 19.1088C27.7614 19.172 27.5951 19.1994 27.429 19.189H28.943C29.1089 19.1993 29.275 19.1719 29.4288 19.1088C29.5826 19.0458 29.7201 18.9486 29.831 18.8248C29.9419 18.7009 30.0232 18.5535 30.0689 18.3937C30.1147 18.2339 30.1236 18.0658 30.095 17.902Z" fill="#D3EFFB"/>
<path d="M24.69 19.191H19.954V18.3C19.9785 17.8727 20.171 17.4724 20.4894 17.1863C20.8079 16.9003 21.2265 16.7517 21.654 16.773H22.986C23.4135 16.7517 23.8321 16.9003 24.1505 17.1863C24.469 17.4724 24.6614 17.8727 24.686 18.3V19.191H24.69Z" fill="#F4DD45"/>
<path d="M22.987 16.773H21.887C22.3145 16.7517 22.7331 16.9003 23.0516 17.1863C23.37 17.4724 23.5625 17.8727 23.587 18.3V19.191H24.687V18.3C24.6625 17.8727 24.47 17.4724 24.1516 17.1863C23.8331 16.9003 23.4145 16.7517 22.987 16.773Z" fill="#ECBE6B"/>
<path d="M22.322 17.0759C23.1581 17.0759 23.836 16.4679 23.836 15.7179C23.836 14.9679 23.1581 14.3599 22.322 14.3599C21.4858 14.3599 20.808 14.9679 20.808 15.7179C20.808 16.4679 21.4858 17.0759 22.322 17.0759Z" fill="#FFE4C1"/>
<path d="M22.321 14.36C22.1462 14.3599 21.9724 14.3872 21.806 14.441C22.091 14.512 22.3441 14.6763 22.5249 14.9077C22.7058 15.1391 22.804 15.4243 22.804 15.718C22.804 16.0117 22.7058 16.297 22.5249 16.5284C22.3441 16.7598 22.091 16.9241 21.806 16.995C21.9724 17.0489 22.1462 17.0762 22.321 17.076C22.5121 17.0974 22.7055 17.0783 22.8886 17.0198C23.0717 16.9614 23.2404 16.8649 23.3837 16.7368C23.527 16.6087 23.6416 16.4518 23.7201 16.2763C23.7986 16.1008 23.8392 15.9108 23.8392 15.7185C23.8392 15.5263 23.7986 15.3363 23.7201 15.1608C23.6416 14.9853 23.527 14.8284 23.3837 14.7003C23.2404 14.5721 23.0717 14.4757 22.8886 14.4172C22.7055 14.3588 22.5121 14.3396 22.321 14.361V14.36Z" fill="#F1D0A5"/>
<path d="M27.03 22.0509V23.0959C27.0202 23.2681 26.9426 23.4294 26.8143 23.5446C26.686 23.6599 26.5173 23.7196 26.345 23.7109H18.3C18.1277 23.7196 17.959 23.6599 17.8307 23.5446C17.7023 23.4294 17.6248 23.2681 17.615 23.0959V22.0509C17.6248 21.8787 17.7023 21.7174 17.8307 21.6022C17.959 21.4869 18.1277 21.4272 18.3 21.4359H26.345C26.5173 21.4272 26.686 21.4869 26.8143 21.6022C26.9426 21.7174 27.0202 21.8787 27.03 22.0509Z" fill="#DA4A54"/>
<path d="M19.446 21.436H20.353V23.71H19.446V21.436Z" fill="#C63D4F"/>
<path d="M21.868 21.436H22.775V23.71H21.868V21.436Z" fill="#C63D4F"/>
<path d="M24.291 21.436H25.198V23.71H24.291V21.436Z" fill="#C63D4F"/>
<path d="M22.322 11.153C22.2079 11.159 22.096 11.1195 22.0109 11.0432C21.9258 10.967 21.8744 10.8601 21.868 10.746V10.412C21.8798 10.2999 21.9326 10.1962 22.0164 10.1208C22.1001 10.0454 22.2088 10.0037 22.3215 10.0037C22.4342 10.0037 22.5429 10.0454 22.6266 10.1208C22.7103 10.1962 22.7632 10.2999 22.775 10.412V10.746C22.7685 10.8599 22.7173 10.9666 22.6324 11.0429C22.5475 11.1191 22.4359 11.1587 22.322 11.153Z" fill="#454045"/>
<path d="M29.178 13.6999C29.06 13.701 28.9457 13.6587 28.857 13.5809C28.8153 13.5454 28.7817 13.5013 28.7587 13.4515C28.7357 13.4018 28.7238 13.3477 28.7238 13.2929C28.7238 13.2381 28.7357 13.184 28.7587 13.1342C28.7817 13.0845 28.8153 13.0404 28.857 13.0049L29.12 12.7689C29.2092 12.6918 29.3231 12.6494 29.441 12.6494C29.5589 12.6494 29.6728 12.6918 29.762 12.7689C29.8037 12.8044 29.8373 12.8485 29.8603 12.8982C29.8833 12.948 29.8952 13.0021 29.8952 13.0569C29.8952 13.1117 29.8833 13.1658 29.8603 13.2155C29.8373 13.2653 29.8037 13.3094 29.762 13.3449L29.499 13.5809C29.4103 13.6587 29.296 13.701 29.178 13.6999Z" fill="#454045"/>
<path d="M32.39 19.8499H32.018C31.9611 19.8556 31.9038 19.8492 31.8495 19.8314C31.7953 19.8135 31.7454 19.7844 31.703 19.7461C31.6607 19.7078 31.6269 19.661 31.6037 19.6088C31.5805 19.5565 31.5686 19.5001 31.5686 19.4429C31.5686 19.3858 31.5805 19.3293 31.6037 19.2771C31.6269 19.2249 31.6607 19.1781 31.703 19.1398C31.7454 19.1014 31.7953 19.0724 31.8495 19.0545C31.9038 19.0366 31.9611 19.0303 32.018 19.0359H32.39C32.4468 19.0303 32.5042 19.0366 32.5585 19.0545C32.6127 19.0724 32.6626 19.1014 32.7049 19.1398C32.7473 19.1781 32.7811 19.2249 32.8043 19.2771C32.8274 19.3293 32.8394 19.3858 32.8394 19.4429C32.8394 19.5001 32.8274 19.5565 32.8043 19.6088C32.7811 19.661 32.7473 19.7078 32.7049 19.7461C32.6626 19.7844 32.6127 19.8135 32.5585 19.8314C32.5042 19.8492 32.4468 19.8556 32.39 19.8499Z" fill="#454045"/>
<path d="M29.441 26.2359C29.3231 26.2371 29.2088 26.1947 29.12 26.1169L28.857 25.8809C28.8153 25.8454 28.7818 25.8013 28.7588 25.7516C28.7358 25.7019 28.7239 25.6477 28.7239 25.5929C28.7239 25.5381 28.7358 25.484 28.7588 25.4343C28.7818 25.3845 28.8153 25.3404 28.857 25.3049C28.9463 25.2281 29.0602 25.1858 29.178 25.1858C29.2959 25.1858 29.4097 25.2281 29.499 25.3049L29.762 25.5409C29.8038 25.5764 29.8373 25.6206 29.8603 25.6703C29.8833 25.72 29.8952 25.7741 29.8952 25.8289C29.8952 25.8837 29.8833 25.9379 29.8603 25.9876C29.8373 26.0373 29.8038 26.0814 29.762 26.1169C29.6733 26.1947 29.559 26.2371 29.441 26.2359Z" fill="#454045"/>
<path d="M22.322 28.881C22.2079 28.887 22.096 28.8476 22.0109 28.7713C21.9258 28.695 21.8744 28.5881 21.868 28.474V28.14C21.8798 28.0279 21.9326 27.9242 22.0164 27.8488C22.1001 27.7734 22.2088 27.7317 22.3215 27.7317C22.4342 27.7317 22.5429 27.7734 22.6266 27.8488C22.7103 27.9242 22.7632 28.0279 22.775 28.14V28.474C22.7685 28.5879 22.7173 28.6947 22.6324 28.7709C22.5475 28.8472 22.4359 28.8867 22.322 28.881Z" fill="#454045"/>
<path d="M15.202 26.2359C15.084 26.2371 14.9697 26.1947 14.881 26.1169C14.8392 26.0814 14.8057 26.0373 14.7827 25.9876C14.7597 25.9379 14.7478 25.8837 14.7478 25.8289C14.7478 25.7741 14.7597 25.72 14.7827 25.6703C14.8057 25.6206 14.8392 25.5764 14.881 25.5409L15.144 25.3049C15.2333 25.2281 15.3472 25.1858 15.465 25.1858C15.5828 25.1858 15.6967 25.2281 15.786 25.3049C15.8277 25.3404 15.8613 25.3845 15.8842 25.4343C15.9072 25.484 15.9192 25.5381 15.9192 25.5929C15.9192 25.6477 15.9072 25.7019 15.8842 25.7516C15.8613 25.8013 15.8277 25.8454 15.786 25.8809L15.523 26.1169C15.4342 26.1947 15.32 26.2371 15.202 26.2359Z" fill="#454045"/>
<path d="M12.625 19.8499H12.253C12.1962 19.8556 12.1388 19.8492 12.0845 19.8314C12.0303 19.8135 11.9804 19.7844 11.938 19.7461C11.8957 19.7078 11.8619 19.661 11.8387 19.6088C11.8156 19.5565 11.8036 19.5001 11.8036 19.4429C11.8036 19.3858 11.8156 19.3293 11.8387 19.2771C11.8619 19.2249 11.8957 19.1781 11.938 19.1398C11.9804 19.1014 12.0303 19.0724 12.0845 19.0545C12.1388 19.0366 12.1962 19.0303 12.253 19.0359H12.625C12.6818 19.0303 12.7392 19.0366 12.7935 19.0545C12.8477 19.0724 12.8976 19.1014 12.9399 19.1398C12.9823 19.1781 13.0161 19.2249 13.0393 19.2771C13.0624 19.3293 13.0744 19.3858 13.0744 19.4429C13.0744 19.5001 13.0624 19.5565 13.0393 19.6088C13.0161 19.661 12.9823 19.7078 12.9399 19.7461C12.8976 19.7844 12.8477 19.8135 12.7935 19.8314C12.7392 19.8492 12.6818 19.8556 12.625 19.8499Z" fill="#454045"/>
<path d="M15.465 13.6999C15.347 13.701 15.2327 13.6587 15.144 13.5809L14.881 13.3449C14.8392 13.3094 14.8057 13.2653 14.7827 13.2155C14.7597 13.1658 14.7478 13.1117 14.7478 13.0569C14.7478 13.0021 14.7597 12.948 14.7827 12.8982C14.8057 12.8485 14.8392 12.8044 14.881 12.7689C14.9702 12.6918 15.0841 12.6494 15.202 12.6494C15.3199 12.6494 15.4338 12.6918 15.523 12.7689L15.786 13.0049C15.8277 13.0404 15.8613 13.0845 15.8842 13.1342C15.9072 13.184 15.9192 13.2381 15.9192 13.2929C15.9192 13.3477 15.9072 13.4018 15.8842 13.4515C15.8613 13.5013 15.8277 13.5454 15.786 13.5809C15.6972 13.6587 15.583 13.701 15.465 13.6999Z" fill="#454045"/>
<path d="M37.521 35.3751H7.45404C7.3972 35.3807 7.33981 35.3744 7.28556 35.3565C7.23132 35.3386 7.18142 35.3096 7.13909 35.2712C7.09675 35.2329 7.06291 35.1861 7.03976 35.1339C7.0166 35.0817 7.00464 35.0252 7.00464 34.9681C7.00464 34.911 7.0166 34.8545 7.03976 34.8023C7.06291 34.75 7.09675 34.7033 7.13909 34.6649C7.18142 34.6266 7.23132 34.5976 7.28556 34.5797C7.33981 34.5618 7.3972 34.5554 7.45404 34.5611H37.521C37.5779 34.5554 37.6353 34.5618 37.6895 34.5797C37.7438 34.5976 37.7937 34.6266 37.836 34.6649C37.8783 34.7033 37.9122 34.75 37.9353 34.8023C37.9585 34.8545 37.9704 34.911 37.9704 34.9681C37.9704 35.0252 37.9585 35.0817 37.9353 35.1339C37.9122 35.1861 37.8783 35.2329 37.836 35.2712C37.7937 35.3096 37.7438 35.3386 37.6895 35.3565C37.6353 35.3744 37.5779 35.3807 37.521 35.3751Z" fill="#7DBE3B"/>
</svg>
