<svg width="44" height="44" viewBox="0 0 44 44" fill="none" xmlns="http://www.w3.org/2000/svg">
<g opacity="0.82">
<path opacity="0.63" d="M38 0H6C2.68629 0 0 2.68629 0 6V38C0 41.3137 2.68629 44 6 44H38C41.3137 44 44 41.3137 44 38V6C44 2.68629 41.3137 0 38 0Z" fill="#FFE76C"/>
</g>
<path d="M31.833 8.83008V14.6361C31.8371 15.6537 31.6407 16.6621 31.255 17.6039C30.8694 18.5456 30.302 19.4021 29.5853 20.1245C28.8686 20.847 28.0167 21.4212 27.0781 21.8144C26.1395 22.2076 25.1326 22.412 24.115 22.4161H22.286V16.6101C22.2819 15.5925 22.4783 14.584 22.864 13.6423C23.2496 12.7006 23.817 11.8441 24.5337 11.1216C25.2504 10.3992 26.1023 9.82496 27.0409 9.43178C27.9795 9.0386 28.9864 8.83414 30.004 8.83008H31.833Z" fill="#FF6AA0"/>
<path d="M22.286 22.416V28.222C22.2901 29.2396 22.0937 30.2481 21.708 31.1898C21.3224 32.1315 20.755 32.988 20.0383 33.7105C19.3216 34.4329 18.4697 35.0071 17.5311 35.4003C16.5925 35.7935 15.5856 35.998 14.568 36.002H12.739V30.196C12.7349 29.1784 12.9313 28.1699 13.317 27.2282C13.7026 26.2865 14.27 25.43 14.9867 24.7075C15.7034 23.9851 16.5553 23.4109 17.4939 23.0177C18.4325 22.6245 19.4394 22.4201 20.457 22.416H22.286Z" fill="#FF6AA0"/>
<path d="M35.765 32.04H30.005C28.9874 32.036 27.9805 31.8315 27.042 31.4383C26.1034 31.0452 25.2514 30.4709 24.5347 29.7485C23.818 29.0261 23.2507 28.1695 22.865 27.2278C22.4793 26.2861 22.2829 25.2777 22.287 24.26V22.417H28.047C29.0646 22.4211 30.0715 22.6256 31.0101 23.0187C31.9487 23.4119 32.8006 23.9861 33.5173 24.7086C34.234 25.431 34.8014 26.2875 35.187 27.2293C35.5727 28.171 35.7691 29.1794 35.765 30.197V32.04Z" fill="#FF6AA0"/>
<path d="M22.286 22.416H16.526C15.5084 22.412 14.5015 22.2075 13.5629 21.8143C12.6243 21.4211 11.7724 20.8469 11.0557 20.1245C10.339 19.402 9.77165 18.5455 9.38599 17.6038C9.00033 16.6621 8.80393 15.6536 8.80801 14.636V12.793H14.568C15.5856 12.7971 16.5925 13.0015 17.5311 13.3947C18.4697 13.7879 19.3216 14.3621 20.0383 15.0845C20.755 15.807 21.3224 16.6635 21.708 17.6052C22.0937 18.5469 22.2901 19.5554 22.286 20.573V22.416Z" fill="#FF6AA0"/>
<path d="M22.286 22.4171L18.155 18.2531C17.4424 17.5319 16.5937 16.9593 15.6582 16.5686C14.7226 16.1778 13.7189 15.9766 12.705 15.9766C11.6911 15.9766 10.6874 16.1778 9.75183 16.5686C8.8163 16.9593 7.96763 17.5319 7.255 18.2531L6 19.5201L10.131 23.6841C10.8436 24.4053 11.6922 24.978 12.6277 25.3689C13.5633 25.7597 14.5671 25.961 15.581 25.961C16.5949 25.961 17.5987 25.7597 18.5343 25.3689C19.4698 24.978 20.3184 24.4053 21.031 23.6841L22.286 22.4171Z" fill="#FD84B3"/>
<path d="M38.572 25.3139L34.441 21.1499C33.7284 20.4287 32.8798 19.856 31.9443 19.4651C31.0087 19.0743 30.0049 18.873 28.991 18.873C27.9771 18.873 26.9733 19.0743 26.0378 19.4651C25.1022 19.856 24.2536 20.4287 23.541 21.1499L22.286 22.417L26.417 26.581C27.1297 27.3021 27.9783 27.8747 28.9138 28.2655C29.8494 28.6562 30.8531 28.8574 31.867 28.8574C32.8809 28.8574 33.8847 28.6562 34.8202 28.2655C35.7557 27.8747 36.6044 27.3021 37.317 26.581L38.572 25.3139Z" fill="#FD84B3"/>
<path d="M16.526 22.417H22.286V24.26C22.2901 25.2776 22.0937 26.2861 21.708 27.2278C21.3223 28.1695 20.755 29.026 20.0383 29.7485C19.3216 30.4709 18.4696 31.0451 17.531 31.4383C16.5924 31.8315 15.5856 32.0359 14.568 32.04H8.80798V30.197C8.80391 29.1794 9.0003 28.1709 9.38596 27.2292C9.77162 26.2875 10.339 25.431 11.0557 24.7085C11.7724 23.9861 12.6243 23.4119 13.5629 23.0187C14.5015 22.6255 15.5084 22.4211 16.526 22.417Z" fill="#FDA2C6"/>
<path d="M30.004 12.793H35.764V14.636C35.7681 15.6536 35.5717 16.662 35.186 17.6038C34.8004 18.5455 34.233 19.402 33.5163 20.1244C32.7996 20.8469 31.9477 21.4211 31.0091 21.8143C30.0705 22.2075 29.0636 22.4119 28.046 22.416H22.286V20.573C22.2819 19.5554 22.4783 18.5469 22.864 17.6052C23.2496 16.6635 23.817 15.8069 24.5337 15.0845C25.2504 14.3621 26.1024 13.7879 27.041 13.3947C27.9796 13.0015 28.9864 12.797 30.004 12.793Z" fill="#FDA2C6"/>
<path d="M22.286 22.417L18.213 26.522C16.7654 27.9866 15.9536 29.9628 15.9536 32.022C15.9536 34.0812 16.7654 36.0574 18.213 37.522L19.478 38.83L23.578 34.72C25.0256 33.2554 25.8374 31.2792 25.8374 29.22C25.8374 27.1608 25.0256 25.1846 23.578 23.72L22.286 22.417Z" fill="#FD84B3"/>
<path d="M25.094 6L20.994 10.11C19.5464 11.5746 18.7346 13.5508 18.7346 15.61C18.7346 17.6692 19.5464 19.6454 20.994 21.11L22.287 22.41L26.356 18.311C27.8036 16.8464 28.6154 14.8702 28.6154 12.811C28.6154 10.7518 27.8036 8.77557 26.356 7.311L25.094 6Z" fill="#FD84B3"/>
<path d="M22.286 28.2229V22.4169H24.115C25.1326 22.421 26.1395 22.6255 27.0781 23.0186C28.0167 23.4118 28.8686 23.986 29.5853 24.7085C30.302 25.4309 30.8694 26.2874 31.255 27.2291C31.6407 28.1709 31.8371 29.1793 31.833 30.1969V36.0029H30.004C28.9864 35.9989 27.9795 35.7944 27.0409 35.4012C26.1024 35.008 25.2504 34.4338 24.5337 33.7114C23.817 32.989 23.2496 32.1324 22.864 31.1907C22.4783 30.249 22.2819 29.2405 22.286 28.2229Z" fill="#FDA2C6"/>
<path d="M12.739 14.637V8.83099H14.568C15.5856 8.83505 16.5925 9.03951 17.5311 9.4327C18.4697 9.82588 19.3216 10.4001 20.0383 11.1225C20.755 11.845 21.3224 12.7015 21.708 13.6432C22.0937 14.5849 22.2901 15.5934 22.286 16.611V22.417H20.457C19.4394 22.4129 18.4325 22.2085 17.494 21.8153C16.5554 21.4221 15.7034 20.8479 14.9867 20.1255C14.27 19.403 13.7027 18.5465 13.317 17.6048C12.9313 16.6631 12.7349 15.6546 12.739 14.637Z" fill="#FDA2C6"/>
<path d="M22 26C24.2091 26 26 24.2091 26 22C26 19.7909 24.2091 18 22 18C19.7909 18 18 19.7909 18 22C18 24.2091 19.7909 26 22 26Z" fill="#FFE76C"/>
</svg>
