<svg width="24" height="24" viewBox="0 0 24 24" fill="none" xmlns="http://www.w3.org/2000/svg">
<path d="M18.75 12V11.25C18.75 9.45979 18.0388 7.7429 16.773 6.47703C15.5071 5.21116 13.7902 4.5 12 4.5C10.2098 4.5 8.4929 5.21116 7.22703 6.47703C5.96116 7.7429 5.25 9.45979 5.25 11.25V12C4.25544 12 3.30161 12.3951 2.59835 13.0983C1.89509 13.8016 1.5 14.7554 1.5 15.75C1.5 16.7446 1.89509 17.6984 2.59835 18.4017C3.30161 19.1049 4.25544 19.5 5.25 19.5H6.75V11.25C6.75 9.85761 7.30312 8.52226 8.28769 7.53769C9.27226 6.55312 10.6076 6 12 6C13.3924 6 14.7277 6.55312 15.7123 7.53769C16.6969 8.52226 17.25 9.85761 17.25 11.25V19.5H18.75C19.7446 19.5 20.6984 19.1049 21.4016 18.4017C22.1049 17.6984 22.5 16.7446 22.5 15.75C22.5 14.7554 22.1049 13.8016 21.4016 13.0983C20.6984 12.3951 19.7446 12 18.75 12ZM3 15.75C3 15.1533 3.23705 14.581 3.65901 14.159C4.08097 13.7371 4.65326 13.5 5.25 13.5V18C4.65326 18 4.08097 17.7629 3.65901 17.341C3.23705 16.919 3 16.3467 3 15.75ZM18.75 18V13.5C19.3467 13.5 19.919 13.7371 20.341 14.159C20.7629 14.581 21 15.1533 21 15.75C21 16.3467 20.7629 16.919 20.341 17.341C19.919 17.7629 19.3467 18 18.75 18Z" fill="#042330"/>
</svg>
