<svg width="17" height="17" viewBox="0 0 17 17" fill="none" xmlns="http://www.w3.org/2000/svg">
<path d="M13.2812 8.5V7.96875C13.2812 6.70068 12.7775 5.48455 11.8809 4.5879C10.9842 3.69124 9.76807 3.1875 8.5 3.1875C7.23193 3.1875 6.0158 3.69124 5.11915 4.5879C4.22249 5.48455 3.71875 6.70068 3.71875 7.96875V8.5C3.01427 8.5 2.33864 8.77985 1.8405 9.278C1.34235 9.77614 1.0625 10.4518 1.0625 11.1562C1.0625 11.8607 1.34235 12.5364 1.8405 13.0345C2.33864 13.5326 3.01427 13.8125 3.71875 13.8125H4.78125V7.96875C4.78125 6.98248 5.17305 6.0366 5.87045 5.3392C6.56785 4.6418 7.51373 4.25 8.5 4.25C9.48627 4.25 10.4322 4.6418 11.1296 5.3392C11.827 6.0366 12.2188 6.98248 12.2188 7.96875V13.8125H13.2812C13.9857 13.8125 14.6614 13.5326 15.1595 13.0345C15.6576 12.5364 15.9375 11.8607 15.9375 11.1562C15.9375 10.4518 15.6576 9.77614 15.1595 9.278C14.6614 8.77985 13.9857 8.5 13.2812 8.5ZM2.125 11.1562C2.125 10.7336 2.29291 10.3282 2.5918 10.0293C2.89068 9.73041 3.29606 9.5625 3.71875 9.5625V12.75C3.29606 12.75 2.89068 12.5821 2.5918 12.2832C2.29291 11.9843 2.125 11.5789 2.125 11.1562ZM13.2812 12.75V9.5625C13.7039 9.5625 14.1093 9.73041 14.4082 10.0293C14.7071 10.3282 14.875 10.7336 14.875 11.1562C14.875 11.5789 14.7071 11.9843 14.4082 12.2832C14.1093 12.5821 13.7039 12.75 13.2812 12.75Z" fill="white"/>
</svg>
