<svg width="17" height="17" viewBox="0 0 17 17" fill="none" xmlns="http://www.w3.org/2000/svg">
<g clip-path="url(#clip0)">
<mask id="path-1-inside-1" fill="white">
<path fill-rule="evenodd" clip-rule="evenodd" d="M8.49989 2.9198L7.73808 2.13674C5.94989 0.298614 2.67101 0.932927 1.48739 3.24386C0.931701 4.3308 0.806326 5.90011 1.82101 7.90293C2.79851 9.83136 4.83214 12.1412 8.49989 14.6572C12.1676 12.1412 14.2002 9.83136 15.1788 7.90293C16.1934 5.89905 16.0691 4.3308 15.5124 3.24386C14.3288 0.932927 11.0499 0.297552 9.2617 2.13568L8.49989 2.9198ZM8.49989 15.9376C-7.79142 5.1723 3.48383 -3.22995 8.31289 1.21449C8.37664 1.27293 8.43933 1.33349 8.49989 1.39618C8.55984 1.33355 8.62222 1.27329 8.68689 1.21555C13.5149 -3.23207 24.7912 5.17124 8.49989 15.9376Z"/>
</mask>
<path fill-rule="evenodd" clip-rule="evenodd" d="M8.49989 2.9198L7.73808 2.13674C5.94989 0.298614 2.67101 0.932927 1.48739 3.24386C0.931701 4.3308 0.806326 5.90011 1.82101 7.90293C2.79851 9.83136 4.83214 12.1412 8.49989 14.6572C12.1676 12.1412 14.2002 9.83136 15.1788 7.90293C16.1934 5.89905 16.0691 4.3308 15.5124 3.24386C14.3288 0.932927 11.0499 0.297552 9.2617 2.13568L8.49989 2.9198ZM8.49989 15.9376C-7.79142 5.1723 3.48383 -3.22995 8.31289 1.21449C8.37664 1.27293 8.43933 1.33349 8.49989 1.39618C8.55984 1.33355 8.62222 1.27329 8.68689 1.21555C13.5149 -3.23207 24.7912 5.17124 8.49989 15.9376Z" fill="white"/>
<path d="M8.49989 2.9198L7.06636 4.31443L8.50086 5.78895L9.93436 4.31346L8.49989 2.9198ZM7.73808 2.13674L6.30452 3.53135L6.30454 3.53137L7.73808 2.13674ZM1.48739 3.24386L-0.292707 2.33213L-0.293387 2.33346L1.48739 3.24386ZM1.82101 7.90293L0.0369161 8.80681L0.0371001 8.80717L1.82101 7.90293ZM8.49989 14.6572L7.36853 16.3065L8.49989 17.0826L9.63124 16.3065L8.49989 14.6572ZM15.1788 7.90293L16.9623 8.80795L16.9631 8.80643L15.1788 7.90293ZM15.5124 3.24386L13.7323 4.1556L13.7323 4.15565L15.5124 3.24386ZM9.2617 2.13568L7.82815 0.74107L7.82722 0.74202L9.2617 2.13568ZM8.49989 15.9376L7.39728 17.6062L8.49994 18.3348L9.60257 17.6061L8.49989 15.9376ZM8.31289 1.21449L6.95849 2.6861L6.96144 2.6888L8.31289 1.21449ZM8.49989 1.39618L7.0615 2.7858L8.50659 4.28159L9.94471 2.7791L8.49989 1.39618ZM8.68689 1.21555L10.0189 2.70745L10.0305 2.69708L10.042 2.68652L8.68689 1.21555ZM9.93342 1.52517L9.17161 0.74211L6.30454 3.53137L7.06636 4.31443L9.93342 1.52517ZM9.17163 0.742133C6.32952 -2.17935 1.44816 -1.06678 -0.292707 2.33213L3.26748 4.1556C3.89387 2.93263 5.57026 2.77658 6.30452 3.53135L9.17163 0.742133ZM-0.293387 2.33346C-1.18654 4.08049 -1.21749 6.33082 0.0369162 8.80681L3.60511 6.99905C2.83015 5.46941 3.04994 4.58111 3.26816 4.15427L-0.293387 2.33346ZM0.0371001 8.80717C1.21857 11.138 3.53874 13.6793 7.36853 16.3065L9.63124 13.008C6.12553 10.6031 4.37846 8.52472 3.60493 6.99868L0.0371001 8.80717ZM9.63124 16.3065C13.4615 13.679 15.78 11.1379 16.9623 8.80795L13.3952 6.9979C12.6204 8.52487 10.8737 10.6035 7.36853 13.008L9.63124 16.3065ZM16.9631 8.80643C18.2166 6.3309 18.1882 4.08088 17.2925 2.33208L13.7323 4.15565C13.95 4.58073 14.1703 5.4672 13.3945 6.99943L16.9631 8.80643ZM17.2925 2.33213C15.5521 -1.06588 10.6709 -2.1811 7.82815 0.74107L10.6953 3.53028C11.4288 2.77621 13.1054 2.93174 13.7323 4.1556L17.2925 2.33213ZM7.82722 0.74202L7.06541 1.52614L9.93436 4.31346L10.6962 3.52933L7.82722 0.74202ZM9.6025 14.2689C5.69168 11.6847 3.63952 9.37131 2.69385 7.54919C1.77185 5.77266 1.91458 4.51934 2.28966 3.7371C3.15304 1.93644 5.63049 1.46387 6.95849 2.68609L9.66728 -0.257115C6.16622 -3.47933 0.591513 -1.97299 -1.31716 2.00768C-2.32811 4.1161 -2.25139 6.70405 -0.85648 9.39178C0.514768 12.0339 3.16244 14.8078 7.39728 17.6062L9.6025 14.2689ZM6.96144 2.6888C6.99945 2.72364 7.03266 2.75595 7.0615 2.7858L9.93827 0.0065526C9.84599 -0.0889693 9.75383 -0.177788 9.66434 -0.259819L6.96144 2.6888ZM9.94471 2.7791C9.96849 2.75426 9.99324 2.73036 10.0189 2.70745L7.35489 -0.27635C7.25119 -0.183772 7.15118 -0.0871649 7.05507 0.013249L9.94471 2.7791ZM10.042 2.68652C11.3695 1.46362 13.8463 1.93552 14.7098 3.7361C15.0849 4.51837 15.2277 5.77184 14.3057 7.54857C13.3601 9.37088 11.308 11.6845 7.3972 14.269L9.60257 17.6061C13.8374 14.8075 16.485 12.0333 17.8562 9.39093C19.251 6.70301 19.3275 4.11494 18.3165 2.00655C16.4076 -1.9742 10.8323 -3.48014 7.33181 -0.25542L10.042 2.68652Z" fill="#FF2828" mask="url(#path-1-inside-1)"/>
</g>
<defs>
<clipPath id="clip0">
<rect width="17" height="17" fill="white"/>
</clipPath>
</defs>
</svg>
