<svg width="25" height="25" viewBox="0 0 25 25" fill="none" xmlns="http://www.w3.org/2000/svg">
<path d="M12.5168 0C5.61992 0 0.0292969 5.59063 0.0292969 12.4875C0.0292969 17.7773 3.32148 22.2938 7.96758 24.1125C7.85742 23.1234 7.75977 21.6102 8.0082 20.532C8.23633 19.5555 9.47305 14.3266 9.47305 14.3266C9.47305 14.3266 9.09883 13.5734 9.09883 12.4711C9.09883 10.7375 10.1082 9.43984 11.3574 9.43984C12.4238 9.43984 12.9402 10.2375 12.9402 11.1977C12.9402 12.268 12.2605 13.8711 11.9066 15.3562C11.6098 16.5977 12.5293 17.6102 13.7543 17.6102C15.9723 17.6102 17.6809 15.2703 17.6809 11.893C17.6809 8.91406 15.5324 6.82266 12.4645 6.82266C8.91211 6.82266 6.82852 9.49219 6.82852 12.2383C6.82852 13.3125 7.23945 14.468 7.75664 15.0906C7.8582 15.2164 7.8707 15.3266 7.8418 15.4531C7.74805 15.8438 7.53633 16.7023 7.4957 16.8734C7.43867 17.1055 7.3168 17.1539 7.07695 17.0445C5.52227 16.3242 4.5418 14.0453 4.5418 12.2062C4.5418 8.27187 7.40664 4.65 12.7941 4.65C17.1238 4.65 20.4926 7.74219 20.4926 11.8602C20.4926 16.1695 17.7785 19.6359 14.0027 19.6359C12.7371 19.6359 11.5488 18.9805 11.1301 18.1992L10.3488 21.1656C10.0684 22.2523 9.30273 23.6148 8.78633 24.4414C9.9582 24.7992 11.191 24.9992 12.4848 24.9992C19.3699 24.9992 24.9684 19.4125 24.9684 12.5117C24.9684 5.61484 19.3691 0.028125 12.4848 0.028125L12.5168 0Z" fill="#042330"/>
</svg>
