<svg width="50" height="50" viewBox="0 0 50 50" fill="none" xmlns="http://www.w3.org/2000/svg">
<path d="M25 6.25C28.7084 6.25 32.3335 7.34967 35.417 9.40995C38.5004 11.4702 40.9036 14.3986 42.3228 17.8247C43.7419 21.2508 44.1132 25.0208 43.3897 28.6579C42.6663 32.2951 40.8805 35.636 38.2583 38.2583C35.636 40.8805 32.2951 42.6663 28.658 43.3897C25.0208 44.1132 21.2508 43.7419 17.8247 42.3227C14.3986 40.9036 11.4702 38.5004 9.40996 35.4169C7.34968 32.3335 6.25001 28.7084 6.25001 25C6.25001 20.0272 8.22545 15.2581 11.7418 11.7417C15.2581 8.22544 20.0272 6.25 25 6.25ZM25 3.125C20.6735 3.125 16.4442 4.40795 12.8469 6.8116C9.24959 9.21526 6.44581 12.6317 4.79015 16.6288C3.13448 20.6259 2.70128 25.0243 3.54533 29.2676C4.38938 33.5109 6.47278 37.4087 9.53205 40.468C12.5913 43.5272 16.4891 45.6106 20.7324 46.4547C24.9757 47.2987 29.3741 46.8655 33.3712 45.2099C37.3683 43.5542 40.7848 40.7504 43.1884 37.1531C45.5921 33.5558 46.875 29.3265 46.875 25C46.875 19.1984 44.5703 13.6344 40.468 9.53204C36.3656 5.42968 30.8016 3.125 25 3.125Z" fill="white"/>
<path d="M18.75 35.9376C18.4696 35.9375 18.1943 35.862 17.9531 35.7188C17.7199 35.5806 17.5266 35.3839 17.3924 35.1483C17.2582 34.9127 17.1875 34.6463 17.1875 34.3751V15.6251C17.1875 15.3539 17.2582 15.0875 17.3924 14.8519C17.5266 14.6163 17.7199 14.4196 17.9531 14.2814C18.1907 14.1442 18.4601 14.072 18.7344 14.072C19.0087 14.072 19.2781 14.1442 19.5156 14.2814L36.7031 23.6564C36.9512 23.7902 37.1584 23.9887 37.3028 24.2308C37.4472 24.4729 37.5235 24.7495 37.5235 25.0314C37.5235 25.3132 37.4472 25.5898 37.3028 25.8319C37.1584 26.074 36.9512 26.2725 36.7031 26.4064L19.5156 35.7813C19.2778 35.8974 19.0143 35.9512 18.75 35.9376ZM20.3125 18.2501V31.7501L32.6719 25.0001L20.3125 18.2501Z" fill="white"/>
</svg>
